<svg id="Grupo_1017657" data-name="Grupo 1017657" xmlns="http://www.w3.org/2000/svg" xmlns:xlink="http://www.w3.org/1999/xlink" width="400" height="223" viewBox="0 0 400 223">
  <defs>
    <clipPath id="clip-path">
      <rect id="Rectángulo_384972" data-name="Rectángulo 384972" width="400" height="223" fill="none"/>
    </clipPath>
    <clipPath id="clip-path-3">
      <rect id="Rectángulo_384950" data-name="Rectángulo 384950" width="30.3" height="13.164" fill="none"/>
    </clipPath>
    <clipPath id="clip-path-4">
      <rect id="Rectángulo_384952" data-name="Rectángulo 384952" width="62.488" height="26.55" fill="none"/>
    </clipPath>
    <clipPath id="clip-path-6">
      <rect id="Rectángulo_384955" data-name="Rectángulo 384955" width="62.488" height="10.976" fill="none"/>
    </clipPath>
    <clipPath id="clip-path-8">
      <rect id="Rectángulo_384958" data-name="Rectángulo 384958" width="62.488" height="10.977" fill="none"/>
    </clipPath>
    <clipPath id="clip-path-10">
      <rect id="Rectángulo_384962" data-name="Rectángulo 384962" width="50.851" height="43.774" fill="none"/>
    </clipPath>
    <clipPath id="clip-path-11">
      <rect id="Rectángulo_384963" data-name="Rectángulo 384963" width="29.21" height="43.774" fill="none"/>
    </clipPath>
    <clipPath id="clip-path-12">
      <rect id="Rectángulo_384964" data-name="Rectángulo 384964" width="37.976" height="39.727" fill="none"/>
    </clipPath>
    <clipPath id="clip-path-14">
      <path id="Trazado_833825" data-name="Trazado 833825" d="M95.692,84.67l-.37.45a13.917,13.917,0,0,0-2.566,10.243l3.727,7.595s-.962,6.241-3.178,6.833,8.484,5.379,11.046,1.134l.358-5.27s3.651,1.969,6.664.814c1.576-.6,5.21-3.9,5.174-16.049-.018-5.953-3.456-9.418-10.256-10.176a11.437,11.437,0,0,0-1.264-.07,12.171,12.171,0,0,0-9.334,4.5" transform="translate(-92.599 -80.174)" fill="none"/>
    </clipPath>
    <clipPath id="clip-path-16">
      <path id="Trazado_833845" data-name="Trazado 833845" d="M487.6,176.849c-5.805,3.672-7.343,8.322-4.658,13.726,5.481,11.03,10.262,12.42,11.961,12.276,3.249-.276,5.658-3.664,5.658-3.664l2.714,4.62c4.244,2.724,8.117-4.7,8.117-4.7l-4.616-5.979-.077-8.521a14.311,14.311,0,0,0-6.968-8.158l-.539-.246a12.748,12.748,0,0,0-5.281-1.154,11.783,11.783,0,0,0-6.312,1.8" transform="translate(-481.667 -175.053)" fill="none"/>
    </clipPath>
    <clipPath id="clip-path-18">
      <rect id="Rectángulo_384970" data-name="Rectángulo 384970" width="41.7" height="40.97" fill="none"/>
    </clipPath>
  </defs>
  <g id="Grupo_1017656" data-name="Grupo 1017656" clip-path="url(#clip-path)">
    <g id="Grupo_1017624" data-name="Grupo 1017624">
      <g id="Grupo_1017623" data-name="Grupo 1017623" clip-path="url(#clip-path)">
        <path id="Trazado_833760" data-name="Trazado 833760" d="M537.841,159.522A88.8,88.8,0,0,0,511.988,178.4a2.158,2.158,0,0,0-.354,2.623,1.956,1.956,0,0,0,.344,1.5A47.926,47.926,0,0,0,534.021,200.5c1.447.586,3.655-.058,3.493-1.982a16.917,16.917,0,0,0-1.261-5.232,74.371,74.371,0,0,0,15.936,2.9,2.314,2.314,0,0,0,2.042-3.417c-.324-.63-2.178-3.924-2.55-4.457,3.879-.025,23.255,4.162,24.972,2.624S571,182.431,571,182.431s17.529-.541,23-2.414a2.3,2.3,0,0,0,.017-4.436A108.87,108.87,0,0,0,572.184,171a15.82,15.82,0,0,0,2.407-4.242c.7-1.8-1.315-3-2.839-2.809a80.322,80.322,0,0,0-13.48,2.843l1.579-2.717c1.059-1.822-.7-3.666-2.609-3.359a47.383,47.383,0,0,0-16.568,5.912q.324-2.552.646-5.1c.233-1.84-2.076-2.685-3.478-2.007" transform="translate(-198.013 -63.391)" fill="#fb523a"/>
        <path id="Trazado_833761" data-name="Trazado 833761" d="M579.072,189.961a437.59,437.59,0,0,0-57.743,2.1" transform="translate(-201.88 -75.521)" fill="none" stroke="#ffc0ad" stroke-linecap="round" stroke-miterlimit="10" stroke-width="1.647"/>
        <path id="Trazado_833762" data-name="Trazado 833762" d="M528.047,185.915A45.408,45.408,0,0,1,538.9,175.545" transform="translate(-204.481 -69.86)" fill="none" stroke="#ffc0ad" stroke-linecap="round" stroke-miterlimit="10" stroke-width="1.647"/>
        <path id="Trazado_833763" data-name="Trazado 833763" d="M527.613,193.185a44.444,44.444,0,0,0,7.1,8.587" transform="translate(-204.313 -76.88)" fill="none" stroke="#ffc0ad" stroke-linecap="round" stroke-miterlimit="10" stroke-width="1.647"/>
        <path id="Trazado_833764" data-name="Trazado 833764" d="M549.435,191.978a56.488,56.488,0,0,0,8.489,8.877" transform="translate(-212.764 -76.4)" fill="none" stroke="#ffc0ad" stroke-linecap="round" stroke-miterlimit="10" stroke-width="1.647"/>
        <path id="Trazado_833765" data-name="Trazado 833765" d="M560.977,185.1a29.226,29.226,0,0,1,7.634-8.2" transform="translate(-217.233 -70.398)" fill="none" stroke="#ffc0ad" stroke-linecap="round" stroke-miterlimit="10" stroke-width="1.647"/>
        <path id="Trazado_833766" data-name="Trazado 833766" d="M581.557,190.338a29.443,29.443,0,0,0,11.282,6.948" transform="translate(-225.203 -75.747)" fill="none" stroke="#ffc0ad" stroke-linecap="round" stroke-miterlimit="10" stroke-width="1.647"/>
        <path id="Trazado_833767" data-name="Trazado 833767" d="M588.027,185.363c2.046-2.422,5.173-5.463,8.115-6.708" transform="translate(-227.708 -71.098)" fill="none" stroke="#ffc0ad" stroke-linecap="round" stroke-miterlimit="10" stroke-width="1.647"/>
        <path id="Trazado_833768" data-name="Trazado 833768" d="M538.475,111.713a35.756,35.756,0,0,0,6.9-4.36c1.4-1.131,2.846-2.738,2.42-4.473a3.537,3.537,0,0,0-2.711-2.357c-1.233-.3-3.276.877-4.307-1.707S545.5,93.7,547.6,90.278a6.281,6.281,0,0,0,1.15-2.829,2.179,2.179,0,0,0-1.6-2.326c-.952-.15-1.84.545-2.8.592-1.651.08-2.782-1.784-2.708-3.407s.919-3.1,1.382-4.66c1.1-3.7.362-9.261-3.059-10.546s-7.737,2.406-9.414,5.892c-.707,1.468-1.075,3.124-2.116,4.386s-3.146,1.918-4.327.781c-.689-.663-.884-1.762-1.7-2.271a2.239,2.239,0,0,0-2.769.7,6.263,6.263,0,0,0-1.052,2.865c-.743,3.927,3.217,13.539.925,14.439s-4.851-4.556-5.973-5.14a3.611,3.611,0,0,0-3.62-.006c-1.491,1.019-1.5,3.16-1.213,4.922a34.566,34.566,0,0,0,2.216,7.764,7.669,7.669,0,0,1,.86,3.126,2.339,2.339,0,0,1-1.885,2.339c-1.722.146-2.628-2.114-4.267-2.654a3.127,3.127,0,0,0-3.591,1.984,7.441,7.441,0,0,0-.034,4.394c1.876,8.531,7.094,15.927,12.2,23.069l-.025.026s-.006.007,0,.008l.007.011.025-.026c8.644-2.01,17.554-4.143,24.721-9.3a7.628,7.628,0,0,0,2.949-3.311,3.038,3.038,0,0,0-1.342-3.827c-1.591-.666-3.794.432-4.983-.8a2.3,2.3,0,0,1,.171-2.979,7.941,7.941,0,0,1,2.757-1.777" transform="translate(-194.272 -26.6)" fill="#5db18c"/>
        <path id="Trazado_833769" data-name="Trazado 833769" d="M537.474,100.262a383.294,383.294,0,0,1-25.44,58.11" transform="translate(-198.281 -39.901)" fill="none" stroke="#ffc366" stroke-linecap="round" stroke-miterlimit="10" stroke-width="1.077"/>
        <path id="Trazado_833770" data-name="Trazado 833770" d="M522.473,157.828a46.473,46.473,0,0,1-6.767-13.478" transform="translate(-199.703 -57.446)" fill="none" stroke="#ffc366" stroke-linecap="round" stroke-miterlimit="10" stroke-width="1.077"/>
        <path id="Trazado_833771" data-name="Trazado 833771" d="M534.234,133a27.23,27.23,0,0,1-5.442-13.753" transform="translate(-204.77 -47.455)" fill="none" stroke="#ffc366" stroke-linecap="round" stroke-miterlimit="10" stroke-width="1.077"/>
        <path id="Trazado_833772" data-name="Trazado 833772" d="M543.8,113.679a26.99,26.99,0,0,1-3.727-10.073" transform="translate(-209.139 -41.231)" fill="none" stroke="#ffc366" stroke-linecap="round" stroke-miterlimit="10" stroke-width="1.077"/>
        <path id="Trazado_833773" data-name="Trazado 833773" d="M526.939,164.521a45.361,45.361,0,0,0,13.921-3.837" transform="translate(-204.052 -63.946)" fill="none" stroke="#ffc366" stroke-linecap="round" stroke-miterlimit="10" stroke-width="1.077"/>
        <path id="Trazado_833774" data-name="Trazado 833774" d="M537.911,138.82a36.125,36.125,0,0,0,12.708-4.428" transform="translate(-208.301 -53.483)" fill="none" stroke="#ffc366" stroke-linecap="round" stroke-miterlimit="10" stroke-width="1.077"/>
        <path id="Trazado_833775" data-name="Trazado 833775" d="M546.281,116.835a19.97,19.97,0,0,0,9.645-5.224" transform="translate(-211.542 -44.417)" fill="none" stroke="#ffc366" stroke-linecap="round" stroke-miterlimit="10" stroke-width="1.077"/>
        <path id="Trazado_833776" data-name="Trazado 833776" d="M54.455,178.239l-2.8,4.345a45.882,45.882,0,0,0-8.976-14.905,2.38,2.38,0,0,0-4.187.967l-.537,3.084a77.924,77.924,0,0,0-8.574-10.609c-1.056-1.1-3.385-1.432-4.009.4a15.638,15.638,0,0,0-.883,4.778,107.888,107.888,0,0,0-19.825-10.09,2.327,2.327,0,0,0-2.855,3.436c3.014,4.861,16.2,16.216,16.2,16.216s-10.2.786-9.864,3.046,18,11.117,20.985,13.557c-.632.181-4.194,1.567-4.851,1.851-1.5.649-2.145,2.866-.632,3.914a73.609,73.609,0,0,0,14.186,7.7,17.424,17.424,0,0,0-4.357,3.255c-1.369,1.384-.08,3.259,1.417,3.71a48.929,48.929,0,0,0,28.648-.132,2.011,2.011,0,0,0,1.237-.945,2.186,2.186,0,0,0,1.422-2.246,86.122,86.122,0,0,0-7.767-30.712c-.644-1.4-2.974-2.187-3.984-.621" transform="translate(-0.551 -62.091)" fill="#fb523a"/>
        <path id="Trazado_833777" data-name="Trazado 833777" d="M28.056,178.717A427.644,427.644,0,0,1,71.3,216.375" transform="translate(-10.864 -71.123)" fill="none" stroke="#ffc0ad" stroke-linecap="round" stroke-miterlimit="10" stroke-width="1.647"/>
        <path id="Trazado_833778" data-name="Trazado 833778" d="M92.888,226.6a44.2,44.2,0,0,0-1.683-14.784" transform="translate(-35.318 -84.295)" fill="none" stroke="#ffc0ad" stroke-linecap="round" stroke-miterlimit="10" stroke-width="1.647"/>
        <path id="Trazado_833779" data-name="Trazado 833779" d="M87.049,236.971a45.759,45.759,0,0,1-11.035,2.2" transform="translate(-29.436 -94.306)" fill="none" stroke="#ffc0ad" stroke-linecap="round" stroke-miterlimit="10" stroke-width="1.647"/>
        <path id="Trazado_833780" data-name="Trazado 833780" d="M70.164,222.178a58.038,58.038,0,0,1-12.3,1.559" transform="translate(-22.409 -88.419)" fill="none" stroke="#ffc0ad" stroke-linecap="round" stroke-miterlimit="10" stroke-width="1.647"/>
        <path id="Trazado_833781" data-name="Trazado 833781" d="M69.571,206.383a28.541,28.541,0,0,0-.6-11.1" transform="translate(-26.71 -77.717)" fill="none" stroke="#ffc0ad" stroke-linecap="round" stroke-miterlimit="10" stroke-width="1.647"/>
        <path id="Trazado_833782" data-name="Trazado 833782" d="M45.819,199.4a29.856,29.856,0,0,1-13.206-1.674" transform="translate(-12.629 -78.688)" fill="none" stroke="#ffc0ad" stroke-linecap="round" stroke-miterlimit="10" stroke-width="1.647"/>
        <path id="Trazado_833783" data-name="Trazado 833783" d="M48.29,189.21c-.015-3.147-.464-7.447-1.931-10.245" transform="translate(-17.952 -71.221)" fill="none" stroke="#ffc0ad" stroke-linecap="round" stroke-miterlimit="10" stroke-width="1.647"/>
        <path id="Trazado_833784" data-name="Trazado 833784" d="M56.834,113.713a35.753,35.753,0,0,1-6.9-4.36c-1.405-1.131-2.846-2.738-2.42-4.473a3.537,3.537,0,0,1,2.711-2.357c1.233-.3,3.276.877,4.307-1.707s-4.718-5.118-6.817-8.539a6.283,6.283,0,0,1-1.15-2.829,2.179,2.179,0,0,1,1.6-2.326c.952-.15,1.841.545,2.8.592,1.651.08,2.782-1.784,2.708-3.407s-.919-3.1-1.382-4.66c-1.1-3.7-.362-9.261,3.059-10.546s7.737,2.406,9.414,5.892c.707,1.468,1.075,3.124,2.116,4.386s3.147,1.918,4.327.781c.689-.663.884-1.762,1.7-2.271a2.239,2.239,0,0,1,2.769.7,6.266,6.266,0,0,1,1.052,2.865c.743,3.927-3.217,13.539-.925,14.439s4.851-4.556,5.973-5.14a3.611,3.611,0,0,1,3.62-.006c1.491,1.019,1.5,3.16,1.213,4.922a34.575,34.575,0,0,1-2.216,7.764,7.67,7.67,0,0,0-.86,3.126,2.339,2.339,0,0,0,1.885,2.339c1.722.146,2.628-2.114,4.267-2.654a3.127,3.127,0,0,1,3.591,1.984,7.44,7.44,0,0,1,.034,4.394c-1.876,8.531-7.094,15.927-12.2,23.069l.025.026s.006.007,0,.008l-.007.011-.025-.026c-8.645-2.01-17.554-4.143-24.721-9.3a7.628,7.628,0,0,1-2.949-3.311,3.038,3.038,0,0,1,1.343-3.827c1.591-.666,3.794.432,4.983-.8a2.3,2.3,0,0,0-.171-2.979,7.941,7.941,0,0,0-2.757-1.777" transform="translate(-18.03 -27.396)" fill="#5db18c"/>
        <path id="Trazado_833785" data-name="Trazado 833785" d="M71.5,102.262a383.294,383.294,0,0,0,25.441,58.11" transform="translate(-27.688 -40.696)" fill="none" stroke="#ffc366" stroke-linecap="round" stroke-miterlimit="10" stroke-width="1.077"/>
        <path id="Trazado_833786" data-name="Trazado 833786" d="M98.3,159.828a46.473,46.473,0,0,0,6.767-13.478" transform="translate(-38.067 -58.242)" fill="none" stroke="#ffc366" stroke-linecap="round" stroke-miterlimit="10" stroke-width="1.077"/>
        <path id="Trazado_833787" data-name="Trazado 833787" d="M87.38,135a27.23,27.23,0,0,0,5.442-13.753" transform="translate(-33.837 -48.251)" fill="none" stroke="#ffc366" stroke-linecap="round" stroke-miterlimit="10" stroke-width="1.077"/>
        <path id="Trazado_833788" data-name="Trazado 833788" d="M78.9,115.679a26.989,26.989,0,0,0,3.727-10.073" transform="translate(-30.552 -42.027)" fill="none" stroke="#ffc366" stroke-linecap="round" stroke-miterlimit="10" stroke-width="1.077"/>
        <path id="Trazado_833789" data-name="Trazado 833789" d="M89.316,166.521A45.361,45.361,0,0,1,75.4,162.684" transform="translate(-29.196 -64.742)" fill="none" stroke="#ffc366" stroke-linecap="round" stroke-miterlimit="10" stroke-width="1.077"/>
        <path id="Trazado_833790" data-name="Trazado 833790" d="M79.111,140.82A36.126,36.126,0,0,1,66.4,136.392" transform="translate(-25.714 -54.279)" fill="none" stroke="#ffc366" stroke-linecap="round" stroke-miterlimit="10" stroke-width="1.077"/>
        <path id="Trazado_833791" data-name="Trazado 833791" d="M72.675,118.834a19.971,19.971,0,0,1-9.645-5.224" transform="translate(-24.408 -45.213)" fill="none" stroke="#ffc366" stroke-linecap="round" stroke-miterlimit="10" stroke-width="1.077"/>
        <path id="Trazado_833792" data-name="Trazado 833792" d="M302.256,32.8c13.971,7.267,31.121,5.246,46.228.674s29.627-11.487,45.282-13.649,33.57,1.66,42.579,14.422c14.044,19.895.413,50.82,15.99,69.581,10.5,12.648,29.68,13.9,43.443,23.045,15.981,10.618,22.808,31.236,20.793,50.086s-11.538,35.982-22.615,51.635H344.62Z" transform="translate(-117.046 -7.661)" fill="#d3e3f8"/>
        <path id="Trazado_833793" data-name="Trazado 833793" d="M48.754,225.032A123.476,123.476,0,0,1,20.5,175.8c-2.768-9.412-4.438-19.334-3.226-29.059s5.448-19.328,12.961-25.769c7.3-6.255,17.061-9.183,24.347-15.45,16.8-14.451,14.861-40.5,24.611-60.233,6.724-13.61,19.2-24.036,33.36-29.984s29.9-7.657,45.261-6.666c22.435,1.446,44.973,8.886,61.609,23.746,17.335,15.484,27.085,37.458,35.669,58.876,15.088,37.646,28.648,76.681,29.873,117.134v15.844Z" transform="translate(-6.535 -3.335)" fill="#ffc0ad"/>
        <path id="Trazado_833794" data-name="Trazado 833794" d="M424.027,35.875c-.047-3.569-.08-6.149-2.583-8.291a7.031,7.031,0,0,0-9.8.662c-1.491,1.681-1.558,3.435-1.558,5.9.039.7.1,2.694.034,8.725a8.515,8.515,0,0,1-8.665,8.3h-5.487V7.586A7.633,7.633,0,0,0,388.5,0a7.436,7.436,0,0,0-7.237,7.586V36.723h-3.444a8.775,8.775,0,0,1-8.664-8.606c-.067-6.032,0-8.243.034-8.946,0-2.471-.069-4.268-1.563-5.95a7.034,7.034,0,0,0-9.8-.672c-2.5,2.142-2.529,4.709-2.576,8.276q-.035,2.647.016,7.246a22.418,22.418,0,0,0,22.553,21.9h3.444V98.733h14.706V65.018h5.487a22.419,22.419,0,0,0,22.553-21.9q.051-4.6.016-7.245" transform="translate(-137.563)" fill="#5db18c"/>
        <line id="Línea_604" data-name="Línea 604" y1="0.845" x2="2.145" transform="translate(222.869 24.868)" fill="none" stroke="#ffc366" stroke-linecap="round" stroke-miterlimit="10" stroke-width="1.077"/>
        <line id="Línea_605" data-name="Línea 605" x2="0.766" y2="1.445" transform="translate(223.941 15.538)" fill="none" stroke="#ffc366" stroke-linecap="round" stroke-miterlimit="10" stroke-width="1.077"/>
        <line id="Línea_606" data-name="Línea 606" x1="1.226" y2="1.806" transform="translate(226.392 32.358)" fill="none" stroke="#ffc366" stroke-linecap="round" stroke-miterlimit="10" stroke-width="1.077"/>
        <line id="Línea_607" data-name="Línea 607" x2="1.838" y2="1.291" transform="translate(238.035 43.409)" fill="none" stroke="#ffc366" stroke-linecap="round" stroke-miterlimit="10" stroke-width="1.077"/>
        <line id="Línea_608" data-name="Línea 608" x1="1.379" y2="1.635" transform="translate(229.916 40.548)" fill="none" stroke="#ffc366" stroke-linecap="round" stroke-miterlimit="10" stroke-width="1.077"/>
        <line id="Línea_609" data-name="Línea 609" x2="1.513" y2="1.355" transform="translate(248.317 9.933)" fill="none" stroke="#ffc366" stroke-linecap="round" stroke-miterlimit="10" stroke-width="1.077"/>
        <line id="Línea_610" data-name="Línea 610" x1="1.024" y2="1.063" transform="translate(254.474 6.341)" fill="none" stroke="#ffc366" stroke-linecap="round" stroke-miterlimit="10" stroke-width="1.077"/>
        <line id="Línea_611" data-name="Línea 611" x1="1.786" y2="2.433" transform="translate(253.2 20.147)" fill="none" stroke="#ffc366" stroke-linecap="round" stroke-miterlimit="10" stroke-width="1.077"/>
        <line id="Línea_612" data-name="Línea 612" x2="1.513" y2="1.217" transform="translate(248.317 20.147)" fill="none" stroke="#ffc366" stroke-linecap="round" stroke-miterlimit="10" stroke-width="1.077"/>
        <line id="Línea_613" data-name="Línea 613" x2="2.145" y2="1.442" transform="translate(247.686 40.548)" fill="none" stroke="#ffc366" stroke-linecap="round" stroke-miterlimit="10" stroke-width="1.077"/>
        <line id="Línea_614" data-name="Línea 614" x1="1.939" y2="2.272" transform="translate(253.047 35.714)" fill="none" stroke="#ffc366" stroke-linecap="round" stroke-miterlimit="10" stroke-width="1.077"/>
        <line id="Línea_615" data-name="Línea 615" x2="0.163" y2="2.232" transform="translate(250.9 28.897)" fill="none" stroke="#ffc366" stroke-linecap="round" stroke-miterlimit="10" stroke-width="1.077"/>
        <line id="Línea_616" data-name="Línea 616" x2="1.757" y2="2.258" transform="translate(248.38 52.978)" fill="none" stroke="#ffc366" stroke-linecap="round" stroke-miterlimit="10" stroke-width="1.077"/>
        <line id="Línea_617" data-name="Línea 617" x1="0.969" y2="1.924" transform="translate(254.017 58.58)" fill="none" stroke="#ffc366" stroke-linecap="round" stroke-miterlimit="10" stroke-width="1.077"/>
        <line id="Línea_618" data-name="Línea 618" x2="0.941" y2="1.631" transform="translate(248.317 68.029)" fill="none" stroke="#ffc366" stroke-linecap="round" stroke-miterlimit="10" stroke-width="1.077"/>
        <line id="Línea_619" data-name="Línea 619" x1="1.729" y2="2.182" transform="translate(252.894 73.896)" fill="none" stroke="#ffc366" stroke-linecap="round" stroke-miterlimit="10" stroke-width="1.077"/>
        <line id="Línea_620" data-name="Línea 620" x2="0.941" y2="1.75" transform="translate(248.317 82.93)" fill="none" stroke="#ffc366" stroke-linecap="round" stroke-miterlimit="10" stroke-width="1.077"/>
        <line id="Línea_621" data-name="Línea 621" x1="1.199" y2="2.559" transform="translate(252.894 91.057)" fill="none" stroke="#ffc366" stroke-linecap="round" stroke-miterlimit="10" stroke-width="1.077"/>
        <line id="Línea_622" data-name="Línea 622" x2="1.014" y2="2.843" transform="translate(265.054 56.521)" fill="none" stroke="#ffc366" stroke-linecap="round" stroke-miterlimit="10" stroke-width="1.077"/>
        <line id="Línea_623" data-name="Línea 623" x1="1.197" y2="2.083" transform="translate(272.684 57.942)" fill="none" stroke="#ffc366" stroke-linecap="round" stroke-miterlimit="10" stroke-width="1.077"/>
        <line id="Línea_624" data-name="Línea 624" x1="0.919" y2="1.924" transform="translate(276.179 46.539)" fill="none" stroke="#ffc366" stroke-linecap="round" stroke-miterlimit="10" stroke-width="1.077"/>
        <line id="Línea_625" data-name="Línea 625" x2="2.797" y2="2.008" transform="translate(278.037 29.948)" fill="none" stroke="#ffc366" stroke-linecap="round" stroke-miterlimit="10" stroke-width="1.077"/>
        <line id="Línea_626" data-name="Línea 626" x1="1.706" y2="2.725" transform="translate(282.286 41.238)" fill="none" stroke="#ffc366" stroke-linecap="round" stroke-miterlimit="10" stroke-width="1.077"/>
        <path id="Trazado_833795" data-name="Trazado 833795" d="M365.985,260.658H150.832V103.994l107.577-4.743,107.576,4.743Z" transform="translate(-58.408 -39.498)" fill="#fff"/>
        <rect id="Rectángulo_384949" data-name="Rectángulo 384949" width="215.153" height="16.97" transform="translate(92.424 47.525)" fill="#91baee"/>
        <path id="Trazado_833796" data-name="Trazado 833796" d="M290.313,81.257l-19.477-.064-5.343-19.865c0-1.279,2.368-2.206,2.368-2.206l25.578.085,2.352,2.222Z" transform="translate(-102.81 -23.528)" fill="#fff"/>
        <path id="Trazado_833797" data-name="Trazado 833797" d="M270.873,59.132l-3.05-.01a2.255,2.255,0,0,0-2.368,2.206l-.06,17.529a2.34,2.34,0,0,0,2.352,2.326l3.05.01Z" transform="translate(-102.772 -23.528)" fill="#fb523a"/>
        <path id="Trazado_833798" data-name="Trazado 833798" d="M306.073,59.247l3.05.01,2.352,2.222-.06,17.528a2.34,2.34,0,0,1-2.368,2.311l-3.05-.01Z" transform="translate(-118.495 -23.578)" fill="#fb523a"/>
        <g id="Grupo_1017622" data-name="Grupo 1017622" transform="translate(162.681 37.8)" opacity="0.2">
          <g id="Grupo_1017621" data-name="Grupo 1017621">
            <g id="Grupo_1017620" data-name="Grupo 1017620" clip-path="url(#clip-path-3)">
              <path id="Trazado_833799" data-name="Trazado 833799" d="M265.492,62.787l30.3.1,0,.688L280.6,75.951,265.49,63.364Z" transform="translate(-265.49 -62.787)" fill="#454c53"/>
            </g>
          </g>
        </g>
        <path id="Trazado_833800" data-name="Trazado 833800" d="M265.493,61.334c0-1.281,4.791-2.2,4.791-2.2l20.732.069s4.78.949,4.775,2.23L280.6,73.191Z" transform="translate(-102.81 -23.534)" fill="#fff"/>
        <path id="Trazado_833801" data-name="Trazado 833801" d="M293.439,59.233l-2.423-.008-10.394,8.324L270.2,59.193l-2.423-.008a2.551,2.551,0,0,0-2.288,2.361L280.6,73.306,295.79,61.695a2.457,2.457,0,0,0-2.351-2.462" transform="translate(-102.809 -23.553)" fill="#fb523a"/>
      </g>
    </g>
    <g id="Grupo_1017626" data-name="Grupo 1017626" transform="translate(224.188 167.848)">
      <g id="Grupo_1017625" data-name="Grupo 1017625" clip-path="url(#clip-path-4)">
        <line id="Línea_627" data-name="Línea 627" y1="21.626" x2="106.554" transform="translate(-10.801 -17.553)" fill="none" stroke="#ffc0ad" stroke-miterlimit="10" stroke-width="0.75"/>
        <line id="Línea_628" data-name="Línea 628" y1="21.626" x2="106.554" transform="translate(-10.801 -14.806)" fill="none" stroke="#ffc0ad" stroke-miterlimit="10" stroke-width="0.75"/>
        <line id="Línea_629" data-name="Línea 629" y1="21.626" x2="106.554" transform="translate(-10.801 -12.058)" fill="none" stroke="#ffc0ad" stroke-miterlimit="10" stroke-width="0.75"/>
        <line id="Línea_630" data-name="Línea 630" y1="21.626" x2="106.554" transform="translate(-10.801 -9.31)" fill="none" stroke="#ffc0ad" stroke-miterlimit="10" stroke-width="0.75"/>
        <line id="Línea_631" data-name="Línea 631" y1="21.626" x2="106.554" transform="translate(-10.801 -6.562)" fill="none" stroke="#ffc0ad" stroke-miterlimit="10" stroke-width="0.75"/>
        <line id="Línea_632" data-name="Línea 632" y1="21.626" x2="106.554" transform="translate(-10.801 -3.814)" fill="none" stroke="#ffc0ad" stroke-miterlimit="10" stroke-width="0.75"/>
        <line id="Línea_633" data-name="Línea 633" y1="21.626" x2="106.554" transform="translate(-10.801 -1.066)" fill="none" stroke="#ffc0ad" stroke-miterlimit="10" stroke-width="0.75"/>
        <line id="Línea_634" data-name="Línea 634" y1="21.626" x2="106.554" transform="translate(-10.801 1.682)" fill="none" stroke="#ffc0ad" stroke-miterlimit="10" stroke-width="0.75"/>
        <line id="Línea_635" data-name="Línea 635" y1="21.626" x2="106.554" transform="translate(-10.801 4.429)" fill="none" stroke="#ffc0ad" stroke-miterlimit="10" stroke-width="0.75"/>
        <line id="Línea_636" data-name="Línea 636" y1="21.626" x2="106.554" transform="translate(-10.801 7.177)" fill="none" stroke="#ffc0ad" stroke-miterlimit="10" stroke-width="0.75"/>
        <line id="Línea_637" data-name="Línea 637" y1="21.626" x2="106.554" transform="translate(-10.801 9.925)" fill="none" stroke="#ffc0ad" stroke-miterlimit="10" stroke-width="0.75"/>
        <line id="Línea_638" data-name="Línea 638" y1="21.626" x2="106.554" transform="translate(-10.801 12.673)" fill="none" stroke="#ffc0ad" stroke-miterlimit="10" stroke-width="0.75"/>
        <line id="Línea_639" data-name="Línea 639" y1="21.626" x2="106.554" transform="translate(-10.801 15.421)" fill="none" stroke="#ffc0ad" stroke-miterlimit="10" stroke-width="0.75"/>
        <line id="Línea_640" data-name="Línea 640" y1="21.626" x2="106.554" transform="translate(-10.801 18.169)" fill="none" stroke="#ffc0ad" stroke-miterlimit="10" stroke-width="0.75"/>
        <line id="Línea_641" data-name="Línea 641" y1="21.626" x2="106.554" transform="translate(-10.801 20.917)" fill="none" stroke="#ffc0ad" stroke-miterlimit="10" stroke-width="0.75"/>
        <line id="Línea_642" data-name="Línea 642" y1="21.626" x2="106.554" transform="translate(-10.801 23.665)" fill="none" stroke="#ffc0ad" stroke-miterlimit="10" stroke-width="0.75"/>
        <line id="Línea_643" data-name="Línea 643" y1="21.626" x2="106.554" transform="translate(-10.801 26.412)" fill="none" stroke="#ffc0ad" stroke-miterlimit="10" stroke-width="0.75"/>
      </g>
    </g>
    <g id="Grupo_1017628" data-name="Grupo 1017628">
      <g id="Grupo_1017627" data-name="Grupo 1017627" clip-path="url(#clip-path)">
        <rect id="Rectángulo_384953" data-name="Rectángulo 384953" width="62.488" height="4.413" transform="translate(224.188 157.285)" fill="#ffe79f"/>
        <path id="Trazado_833802" data-name="Trazado 833802" d="M171.47,91.062a3.039,3.039,0,1,1-3.038-2.985,3.012,3.012,0,0,1,3.038,2.985" transform="translate(-64.047 -35.051)" fill="#fff"/>
        <path id="Trazado_833803" data-name="Trazado 833803" d="M188.178,91.062a3.039,3.039,0,1,1-3.038-2.985,3.012,3.012,0,0,1,3.038,2.985" transform="translate(-70.517 -35.051)" fill="#fff"/>
        <path id="Trazado_833804" data-name="Trazado 833804" d="M204.886,91.062a3.039,3.039,0,1,1-3.038-2.985,3.012,3.012,0,0,1,3.038,2.985" transform="translate(-76.987 -35.051)" fill="#fff"/>
      </g>
    </g>
    <g id="Grupo_1017630" data-name="Grupo 1017630" transform="translate(114.464 138.293)">
      <g id="Grupo_1017629" data-name="Grupo 1017629" clip-path="url(#clip-path-6)">
        <line id="Línea_644" data-name="Línea 644" y1="21.626" x2="106.554" transform="translate(-10.801 -17.554)" fill="none" stroke="#91baee" stroke-miterlimit="10" stroke-width="0.75"/>
        <line id="Línea_645" data-name="Línea 645" y1="21.626" x2="106.554" transform="translate(-10.801 -14.806)" fill="none" stroke="#91baee" stroke-miterlimit="10" stroke-width="0.75"/>
        <line id="Línea_646" data-name="Línea 646" y1="21.626" x2="106.554" transform="translate(-10.801 -12.058)" fill="none" stroke="#91baee" stroke-miterlimit="10" stroke-width="0.75"/>
        <line id="Línea_647" data-name="Línea 647" y1="21.626" x2="106.554" transform="translate(-10.801 -9.31)" fill="none" stroke="#91baee" stroke-miterlimit="10" stroke-width="0.75"/>
        <line id="Línea_648" data-name="Línea 648" y1="21.626" x2="106.554" transform="translate(-10.801 -6.562)" fill="none" stroke="#91baee" stroke-miterlimit="10" stroke-width="0.75"/>
        <line id="Línea_649" data-name="Línea 649" y1="21.626" x2="106.554" transform="translate(-10.801 -3.814)" fill="none" stroke="#91baee" stroke-miterlimit="10" stroke-width="0.75"/>
        <line id="Línea_650" data-name="Línea 650" y1="21.626" x2="106.554" transform="translate(-10.801 -1.066)" fill="none" stroke="#91baee" stroke-miterlimit="10" stroke-width="0.75"/>
        <line id="Línea_651" data-name="Línea 651" y1="21.626" x2="106.554" transform="translate(-10.801 1.681)" fill="none" stroke="#91baee" stroke-miterlimit="10" stroke-width="0.75"/>
        <line id="Línea_652" data-name="Línea 652" y1="21.626" x2="106.554" transform="translate(-10.801 4.429)" fill="none" stroke="#91baee" stroke-miterlimit="10" stroke-width="0.75"/>
        <line id="Línea_653" data-name="Línea 653" y1="21.626" x2="106.554" transform="translate(-10.801 7.177)" fill="none" stroke="#91baee" stroke-miterlimit="10" stroke-width="0.75"/>
        <line id="Línea_654" data-name="Línea 654" y1="21.626" x2="106.554" transform="translate(-10.801 9.925)" fill="none" stroke="#91baee" stroke-miterlimit="10" stroke-width="0.75"/>
        <line id="Línea_655" data-name="Línea 655" y1="21.626" x2="106.554" transform="translate(-10.801 12.673)" fill="none" stroke="#91baee" stroke-miterlimit="10" stroke-width="0.75"/>
        <line id="Línea_656" data-name="Línea 656" y1="21.626" x2="106.554" transform="translate(-10.801 15.421)" fill="none" stroke="#91baee" stroke-miterlimit="10" stroke-width="0.75"/>
        <line id="Línea_657" data-name="Línea 657" y1="21.626" x2="106.554" transform="translate(-10.801 18.169)" fill="none" stroke="#91baee" stroke-miterlimit="10" stroke-width="0.75"/>
        <line id="Línea_658" data-name="Línea 658" y1="21.626" x2="106.554" transform="translate(-10.801 20.916)" fill="none" stroke="#91baee" stroke-miterlimit="10" stroke-width="0.75"/>
        <line id="Línea_659" data-name="Línea 659" y1="21.626" x2="106.554" transform="translate(-10.801 23.664)" fill="none" stroke="#91baee" stroke-miterlimit="10" stroke-width="0.75"/>
        <line id="Línea_660" data-name="Línea 660" y1="21.626" x2="106.554" transform="translate(-10.801 26.412)" fill="none" stroke="#91baee" stroke-miterlimit="10" stroke-width="0.75"/>
      </g>
    </g>
    <g id="Grupo_1017632" data-name="Grupo 1017632">
      <g id="Grupo_1017631" data-name="Grupo 1017631" clip-path="url(#clip-path)">
        <rect id="Rectángulo_384956" data-name="Rectángulo 384956" width="62.488" height="4.413" transform="translate(114.464 127.729)" fill="#91baee"/>
      </g>
    </g>
    <g id="Grupo_1017634" data-name="Grupo 1017634" transform="translate(114.464 90.71)">
      <g id="Grupo_1017633" data-name="Grupo 1017633" clip-path="url(#clip-path-8)">
        <line id="Línea_661" data-name="Línea 661" y1="21.626" x2="106.554" transform="translate(-10.801 -17.553)" fill="none" stroke="#ff9f89" stroke-miterlimit="10" stroke-width="0.75"/>
        <line id="Línea_662" data-name="Línea 662" y1="21.626" x2="106.554" transform="translate(-10.801 -14.805)" fill="none" stroke="#ff9f89" stroke-miterlimit="10" stroke-width="0.75"/>
        <line id="Línea_663" data-name="Línea 663" y1="21.626" x2="106.554" transform="translate(-10.801 -12.057)" fill="none" stroke="#ff9f89" stroke-miterlimit="10" stroke-width="0.75"/>
        <line id="Línea_664" data-name="Línea 664" y1="21.626" x2="106.554" transform="translate(-10.801 -9.309)" fill="none" stroke="#ff9f89" stroke-miterlimit="10" stroke-width="0.75"/>
        <line id="Línea_665" data-name="Línea 665" y1="21.626" x2="106.554" transform="translate(-10.801 -6.561)" fill="none" stroke="#ff9f89" stroke-miterlimit="10" stroke-width="0.75"/>
        <line id="Línea_666" data-name="Línea 666" y1="21.626" x2="106.554" transform="translate(-10.801 -3.813)" fill="none" stroke="#ff9f89" stroke-miterlimit="10" stroke-width="0.75"/>
        <line id="Línea_667" data-name="Línea 667" y1="21.626" x2="106.554" transform="translate(-10.801 -1.066)" fill="none" stroke="#ff9f89" stroke-miterlimit="10" stroke-width="0.75"/>
        <line id="Línea_668" data-name="Línea 668" y1="21.626" x2="106.554" transform="translate(-10.801 1.682)" fill="none" stroke="#ff9f89" stroke-miterlimit="10" stroke-width="0.75"/>
        <line id="Línea_669" data-name="Línea 669" y1="21.626" x2="106.554" transform="translate(-10.801 4.43)" fill="none" stroke="#ff9f89" stroke-miterlimit="10" stroke-width="0.75"/>
        <line id="Línea_670" data-name="Línea 670" y1="21.626" x2="106.554" transform="translate(-10.801 7.178)" fill="none" stroke="#ff9f89" stroke-miterlimit="10" stroke-width="0.75"/>
        <line id="Línea_671" data-name="Línea 671" y1="21.626" x2="106.554" transform="translate(-10.801 9.926)" fill="none" stroke="#ff9f89" stroke-miterlimit="10" stroke-width="0.75"/>
        <line id="Línea_672" data-name="Línea 672" y1="21.626" x2="106.554" transform="translate(-10.801 12.674)" fill="none" stroke="#ff9f89" stroke-miterlimit="10" stroke-width="0.75"/>
        <line id="Línea_673" data-name="Línea 673" y1="21.626" x2="106.554" transform="translate(-10.801 15.422)" fill="none" stroke="#ff9f89" stroke-miterlimit="10" stroke-width="0.75"/>
        <line id="Línea_674" data-name="Línea 674" y1="21.626" x2="106.554" transform="translate(-10.801 18.169)" fill="none" stroke="#ff9f89" stroke-miterlimit="10" stroke-width="0.75"/>
        <line id="Línea_675" data-name="Línea 675" y1="21.626" x2="106.554" transform="translate(-10.801 20.917)" fill="none" stroke="#ff9f89" stroke-miterlimit="10" stroke-width="0.75"/>
        <line id="Línea_676" data-name="Línea 676" y1="21.626" x2="106.554" transform="translate(-10.801 23.665)" fill="none" stroke="#ff9f89" stroke-miterlimit="10" stroke-width="0.75"/>
        <line id="Línea_677" data-name="Línea 677" y1="21.626" x2="106.554" transform="translate(-10.801 26.413)" fill="none" stroke="#ff9f89" stroke-miterlimit="10" stroke-width="0.75"/>
      </g>
    </g>
    <g id="Grupo_1017636" data-name="Grupo 1017636">
      <g id="Grupo_1017635" data-name="Grupo 1017635" clip-path="url(#clip-path)">
        <rect id="Rectángulo_384959" data-name="Rectángulo 384959" width="62.488" height="4.413" transform="translate(114.464 80.148)" fill="#ffe79f"/>
        <rect id="Rectángulo_384960" data-name="Rectángulo 384960" width="87" height="4.413" transform="translate(199.677 75.722)" fill="#ffc0ad"/>
      </g>
    </g>
    <g id="Grupo_1017638" data-name="Grupo 1017638" transform="translate(199.677 95.076)">
      <g id="Grupo_1017637" data-name="Grupo 1017637" clip-path="url(#clip-path-10)">
        <line id="Línea_678" data-name="Línea 678" y1="21.626" x2="106.554" transform="translate(-10.801 -18.758)" fill="none" stroke="#ffc366" stroke-miterlimit="10" stroke-width="0.75"/>
        <line id="Línea_679" data-name="Línea 679" y1="21.626" x2="106.554" transform="translate(-10.801 -16.01)" fill="none" stroke="#ffc366" stroke-miterlimit="10" stroke-width="0.75"/>
        <line id="Línea_680" data-name="Línea 680" y1="21.626" x2="106.554" transform="translate(-10.801 -13.262)" fill="none" stroke="#ffc366" stroke-miterlimit="10" stroke-width="0.75"/>
        <line id="Línea_681" data-name="Línea 681" y1="21.626" x2="106.554" transform="translate(-10.801 -10.514)" fill="none" stroke="#ffc366" stroke-miterlimit="10" stroke-width="0.75"/>
        <line id="Línea_682" data-name="Línea 682" y1="21.626" x2="106.554" transform="translate(-10.801 -7.766)" fill="none" stroke="#ffc366" stroke-miterlimit="10" stroke-width="0.75"/>
        <line id="Línea_683" data-name="Línea 683" y1="21.626" x2="106.554" transform="translate(-10.801 -5.018)" fill="none" stroke="#ffc366" stroke-miterlimit="10" stroke-width="0.75"/>
        <line id="Línea_684" data-name="Línea 684" y1="21.626" x2="106.554" transform="translate(-10.801 -2.271)" fill="none" stroke="#ffc366" stroke-miterlimit="10" stroke-width="0.75"/>
        <line id="Línea_685" data-name="Línea 685" y1="21.626" x2="106.554" transform="translate(-10.801 0.477)" fill="none" stroke="#ffc366" stroke-miterlimit="10" stroke-width="0.75"/>
        <line id="Línea_686" data-name="Línea 686" y1="21.626" x2="106.554" transform="translate(-10.801 3.225)" fill="none" stroke="#ffc366" stroke-miterlimit="10" stroke-width="0.75"/>
        <line id="Línea_687" data-name="Línea 687" y1="21.626" x2="106.554" transform="translate(-10.801 5.973)" fill="none" stroke="#ffc366" stroke-miterlimit="10" stroke-width="0.75"/>
        <line id="Línea_688" data-name="Línea 688" y1="21.626" x2="106.554" transform="translate(-10.801 8.721)" fill="none" stroke="#ffc366" stroke-miterlimit="10" stroke-width="0.75"/>
        <line id="Línea_689" data-name="Línea 689" y1="21.626" x2="106.554" transform="translate(-10.801 11.469)" fill="none" stroke="#ffc366" stroke-miterlimit="10" stroke-width="0.75"/>
        <line id="Línea_690" data-name="Línea 690" y1="21.626" x2="106.554" transform="translate(-10.801 14.217)" fill="none" stroke="#ffc366" stroke-miterlimit="10" stroke-width="0.75"/>
        <line id="Línea_691" data-name="Línea 691" y1="21.626" x2="106.554" transform="translate(-10.801 16.965)" fill="none" stroke="#ffc366" stroke-miterlimit="10" stroke-width="0.75"/>
        <line id="Línea_692" data-name="Línea 692" y1="21.626" x2="106.554" transform="translate(-10.801 19.712)" fill="none" stroke="#ffc366" stroke-miterlimit="10" stroke-width="0.75"/>
        <line id="Línea_693" data-name="Línea 693" y1="21.626" x2="106.554" transform="translate(-10.801 22.46)" fill="none" stroke="#ffc366" stroke-miterlimit="10" stroke-width="0.75"/>
        <line id="Línea_694" data-name="Línea 694" y1="21.626" x2="106.554" transform="translate(-10.801 25.23)" fill="none" stroke="#ffc366" stroke-miterlimit="10" stroke-width="0.75"/>
        <line id="Línea_695" data-name="Línea 695" y1="21.626" x2="106.554" transform="translate(-10.801 28)" fill="none" stroke="#ffc366" stroke-miterlimit="10" stroke-width="0.75"/>
        <line id="Línea_696" data-name="Línea 696" y1="21.626" x2="106.554" transform="translate(-10.801 30.77)" fill="none" stroke="#ffc366" stroke-miterlimit="10" stroke-width="0.75"/>
        <line id="Línea_697" data-name="Línea 697" y1="21.626" x2="106.554" transform="translate(-10.801 33.54)" fill="none" stroke="#ffc366" stroke-miterlimit="10" stroke-width="0.75"/>
      </g>
    </g>
    <g id="Grupo_1017640" data-name="Grupo 1017640" transform="translate(257.466 95.076)">
      <g id="Grupo_1017639" data-name="Grupo 1017639" clip-path="url(#clip-path-11)">
        <line id="Línea_698" data-name="Línea 698" y1="21.626" x2="106.554" transform="translate(-32.442 -18.758)" fill="none" stroke="#91baee" stroke-miterlimit="10" stroke-width="0.75"/>
        <line id="Línea_699" data-name="Línea 699" y1="21.626" x2="106.554" transform="translate(-32.442 -16.01)" fill="none" stroke="#91baee" stroke-miterlimit="10" stroke-width="0.75"/>
        <line id="Línea_700" data-name="Línea 700" y1="21.626" x2="106.554" transform="translate(-32.442 -13.262)" fill="none" stroke="#91baee" stroke-miterlimit="10" stroke-width="0.75"/>
        <line id="Línea_701" data-name="Línea 701" y1="21.626" x2="106.554" transform="translate(-32.442 -10.514)" fill="none" stroke="#91baee" stroke-miterlimit="10" stroke-width="0.75"/>
        <line id="Línea_702" data-name="Línea 702" y1="21.626" x2="106.554" transform="translate(-32.442 -7.766)" fill="none" stroke="#91baee" stroke-miterlimit="10" stroke-width="0.75"/>
        <line id="Línea_703" data-name="Línea 703" y1="21.626" x2="106.554" transform="translate(-32.442 -5.018)" fill="none" stroke="#91baee" stroke-miterlimit="10" stroke-width="0.75"/>
        <line id="Línea_704" data-name="Línea 704" y1="21.626" x2="106.554" transform="translate(-32.442 -2.271)" fill="none" stroke="#91baee" stroke-miterlimit="10" stroke-width="0.75"/>
        <line id="Línea_705" data-name="Línea 705" y1="21.626" x2="106.554" transform="translate(-32.442 0.477)" fill="none" stroke="#91baee" stroke-miterlimit="10" stroke-width="0.75"/>
        <line id="Línea_706" data-name="Línea 706" y1="21.626" x2="106.554" transform="translate(-32.442 3.225)" fill="none" stroke="#91baee" stroke-miterlimit="10" stroke-width="0.75"/>
        <line id="Línea_707" data-name="Línea 707" y1="21.626" x2="106.554" transform="translate(-32.442 5.973)" fill="none" stroke="#91baee" stroke-miterlimit="10" stroke-width="0.75"/>
        <line id="Línea_708" data-name="Línea 708" y1="21.626" x2="106.554" transform="translate(-32.442 8.721)" fill="none" stroke="#91baee" stroke-miterlimit="10" stroke-width="0.75"/>
        <line id="Línea_709" data-name="Línea 709" y1="21.626" x2="106.554" transform="translate(-32.442 11.469)" fill="none" stroke="#91baee" stroke-miterlimit="10" stroke-width="0.75"/>
        <line id="Línea_710" data-name="Línea 710" y1="21.626" x2="106.554" transform="translate(-32.442 14.217)" fill="none" stroke="#91baee" stroke-miterlimit="10" stroke-width="0.75"/>
        <line id="Línea_711" data-name="Línea 711" y1="21.626" x2="106.554" transform="translate(-32.442 16.965)" fill="none" stroke="#91baee" stroke-miterlimit="10" stroke-width="0.75"/>
        <line id="Línea_712" data-name="Línea 712" y1="21.626" x2="106.554" transform="translate(-32.442 19.712)" fill="none" stroke="#91baee" stroke-miterlimit="10" stroke-width="0.75"/>
        <line id="Línea_713" data-name="Línea 713" y1="21.626" x2="106.554" transform="translate(-32.442 22.46)" fill="none" stroke="#91baee" stroke-miterlimit="10" stroke-width="0.75"/>
        <line id="Línea_714" data-name="Línea 714" y1="21.626" x2="106.554" transform="translate(-32.442 25.23)" fill="none" stroke="#91baee" stroke-miterlimit="10" stroke-width="0.75"/>
        <line id="Línea_715" data-name="Línea 715" y1="21.626" x2="106.554" transform="translate(-32.442 28)" fill="none" stroke="#91baee" stroke-miterlimit="10" stroke-width="0.75"/>
        <line id="Línea_716" data-name="Línea 716" y1="21.626" x2="106.554" transform="translate(-32.442 30.77)" fill="none" stroke="#91baee" stroke-miterlimit="10" stroke-width="0.75"/>
        <line id="Línea_717" data-name="Línea 717" y1="21.626" x2="106.554" transform="translate(-32.442 33.54)" fill="none" stroke="#91baee" stroke-miterlimit="10" stroke-width="0.75"/>
      </g>
    </g>
    <g id="Grupo_1017642" data-name="Grupo 1017642" transform="translate(168.402 174.687)">
      <g id="Grupo_1017641" data-name="Grupo 1017641" clip-path="url(#clip-path-12)">
        <line id="Línea_718" data-name="Línea 718" y1="21.626" x2="106.554" transform="translate(-10.801 -18.757)" fill="none" stroke="#ffc0a9" stroke-miterlimit="10" stroke-width="0.75"/>
        <line id="Línea_719" data-name="Línea 719" y1="21.626" x2="106.554" transform="translate(-10.801 -16.01)" fill="none" stroke="#ffc0a9" stroke-miterlimit="10" stroke-width="0.75"/>
        <line id="Línea_720" data-name="Línea 720" y1="21.626" x2="106.554" transform="translate(-10.801 -13.262)" fill="none" stroke="#ffc0a9" stroke-miterlimit="10" stroke-width="0.75"/>
        <line id="Línea_721" data-name="Línea 721" y1="21.626" x2="106.554" transform="translate(-10.801 -10.514)" fill="none" stroke="#ffc0a9" stroke-miterlimit="10" stroke-width="0.75"/>
        <line id="Línea_722" data-name="Línea 722" y1="21.626" x2="106.554" transform="translate(-10.801 -7.766)" fill="none" stroke="#ffc0a9" stroke-miterlimit="10" stroke-width="0.75"/>
        <line id="Línea_723" data-name="Línea 723" y1="21.626" x2="106.554" transform="translate(-10.801 -5.018)" fill="none" stroke="#ffc0a9" stroke-miterlimit="10" stroke-width="0.75"/>
        <line id="Línea_724" data-name="Línea 724" y1="21.626" x2="106.554" transform="translate(-10.801 -2.27)" fill="none" stroke="#ffc0a9" stroke-miterlimit="10" stroke-width="0.75"/>
        <line id="Línea_725" data-name="Línea 725" y1="21.626" x2="106.554" transform="translate(-10.801 0.478)" fill="none" stroke="#ffc0a9" stroke-miterlimit="10" stroke-width="0.75"/>
        <line id="Línea_726" data-name="Línea 726" y1="21.626" x2="106.554" transform="translate(-10.801 3.225)" fill="none" stroke="#ffc0a9" stroke-miterlimit="10" stroke-width="0.75"/>
        <line id="Línea_727" data-name="Línea 727" y1="21.626" x2="106.554" transform="translate(-10.801 5.973)" fill="none" stroke="#ffc0a9" stroke-miterlimit="10" stroke-width="0.75"/>
        <line id="Línea_728" data-name="Línea 728" y1="21.626" x2="106.554" transform="translate(-10.801 8.721)" fill="none" stroke="#ffc0a9" stroke-miterlimit="10" stroke-width="0.75"/>
        <line id="Línea_729" data-name="Línea 729" y1="21.626" x2="106.554" transform="translate(-10.801 11.469)" fill="none" stroke="#ffc0a9" stroke-miterlimit="10" stroke-width="0.75"/>
        <line id="Línea_730" data-name="Línea 730" y1="21.626" x2="106.554" transform="translate(-10.801 14.217)" fill="none" stroke="#ffc0a9" stroke-miterlimit="10" stroke-width="0.75"/>
        <line id="Línea_731" data-name="Línea 731" y1="21.626" x2="106.554" transform="translate(-10.801 16.965)" fill="none" stroke="#ffc0a9" stroke-miterlimit="10" stroke-width="0.75"/>
        <line id="Línea_732" data-name="Línea 732" y1="21.626" x2="106.554" transform="translate(-10.801 19.713)" fill="none" stroke="#ffc0a9" stroke-miterlimit="10" stroke-width="0.75"/>
        <line id="Línea_733" data-name="Línea 733" y1="21.626" x2="106.554" transform="translate(-10.801 22.461)" fill="none" stroke="#ffc0a9" stroke-miterlimit="10" stroke-width="0.75"/>
        <line id="Línea_734" data-name="Línea 734" y1="21.626" x2="106.554" transform="translate(-10.801 25.208)" fill="none" stroke="#ffc0a9" stroke-miterlimit="10" stroke-width="0.75"/>
      </g>
    </g>
    <g id="Grupo_1017644" data-name="Grupo 1017644">
      <g id="Grupo_1017643" data-name="Grupo 1017643" clip-path="url(#clip-path)">
        <rect id="Rectángulo_384965" data-name="Rectángulo 384965" width="37.976" height="4.413" transform="translate(168.402 164.124)" fill="#d3e3f8"/>
        <path id="Trazado_833805" data-name="Trazado 833805" d="M298.822,296.593a11.178,11.178,0,0,0-11.275,11.077c0,8.011,11.275,19.372,11.275,19.372S310.1,315.9,310.1,307.671a11.178,11.178,0,0,0-11.275-11.077m0,17.378a6.408,6.408,0,1,1,6.521-6.407,6.465,6.465,0,0,1-6.521,6.407" transform="translate(-111.35 -118.033)" fill="#fb523a"/>
        <path id="Trazado_833806" data-name="Trazado 833806" d="M296.188,310.581a6.459,6.459,0,0,1,6.172-6.386c-.146-.01-.3-.021-.445-.021a6.41,6.41,0,1,0,.031,12.814c.148,0,.269-.011.415-.021a6.459,6.459,0,0,1-6.172-6.386" transform="translate(-114.355 -121.05)" fill="#ffc4b4"/>
        <path id="Trazado_833807" data-name="Trazado 833807" d="M201.55,182.27l1.183,2.356,2.646.378a.344.344,0,0,1,.195.589l-1.915,1.834.452,2.59a.35.35,0,0,1-.51.364l-2.367-1.222-2.367,1.222a.35.35,0,0,1-.51-.364l.452-2.59-1.915-1.834a.344.344,0,0,1,.195-.589l2.647-.378,1.183-2.356a.355.355,0,0,1,.631,0" transform="translate(-76.205 -72.46)" fill="#ffc366"/>
        <path id="Trazado_833808" data-name="Trazado 833808" d="M224.047,182.27l1.183,2.356,2.646.378a.344.344,0,0,1,.195.589l-1.915,1.834.452,2.59a.35.35,0,0,1-.51.364l-2.367-1.222-2.367,1.222a.35.35,0,0,1-.51-.364l.452-2.59-1.915-1.834a.344.344,0,0,1,.195-.589l2.647-.378,1.183-2.356a.355.355,0,0,1,.631,0" transform="translate(-84.916 -72.46)" fill="#ffc366"/>
        <path id="Trazado_833809" data-name="Trazado 833809" d="M246.544,182.27l1.183,2.356,2.647.378a.344.344,0,0,1,.195.589l-1.915,1.834.452,2.59a.35.35,0,0,1-.51.364l-2.367-1.222-2.367,1.222a.35.35,0,0,1-.51-.364l.452-2.59-1.915-1.834a.344.344,0,0,1,.195-.589l2.647-.378,1.183-2.356a.355.355,0,0,1,.631,0" transform="translate(-93.628 -72.46)" fill="#ffc366"/>
        <path id="Trazado_833810" data-name="Trazado 833810" d="M269.041,182.27l1.183,2.356,2.647.378a.344.344,0,0,1,.195.589l-1.915,1.834.452,2.59a.35.35,0,0,1-.51.364l-2.367-1.222-2.367,1.222a.35.35,0,0,1-.51-.364l.452-2.59-1.915-1.834a.344.344,0,0,1,.195-.589l2.646-.378,1.183-2.356a.355.355,0,0,1,.631,0" transform="translate(-102.34 -72.46)" fill="#ffc366"/>
        <rect id="Rectángulo_384966" data-name="Rectángulo 384966" width="34.22" height="37.872" transform="translate(113.934 164.124)" fill="#d3e3f8"/>
        <path id="Trazado_833811" data-name="Trazado 833811" d="M207.758,306.687h10.577a2.294,2.294,0,0,0,2.314-2.273V297.7a2.294,2.294,0,0,0-2.314-2.273h-1.983l.364-.612a7.252,7.252,0,0,0,1.023-3.712v-.367a1.763,1.763,0,0,0-3.524-.032,3.656,3.656,0,0,1-.891,2.355,4.824,4.824,0,0,1-3.654,1.663h-1.913Z" transform="translate(-80.452 -115.014)" fill="#fff"/>
        <path id="Trazado_833812" data-name="Trazado 833812" d="M203.567,310.389h-3.08a1.551,1.551,0,0,1-1.565-1.537V298.707a1.551,1.551,0,0,1,1.565-1.537h3.08a1.551,1.551,0,0,1,1.564,1.537v10.145a1.551,1.551,0,0,1-1.564,1.537" transform="translate(-77.031 -118.263)" fill="#193441"/>
        <rect id="Rectángulo_384967" data-name="Rectángulo 384967" width="50.041" height="13.632" transform="translate(236.777 207.296)" fill="#d3e3f8"/>
        <path id="Trazado_833813" data-name="Trazado 833813" d="M116.4,125.515c-2.092.95-4.518-.06-6.587-1.058a7.069,7.069,0,0,1-3.3-2.5,5.635,5.635,0,0,1-.276-4.029,10.538,10.538,0,0,1,2.724-5.253c2.813-2.757,8.532-2.715,9.739,1.579.912,3.247,1.509,9.529-2.3,11.26" transform="translate(-41.047 -44.089)" fill="#193441"/>
        <path id="Trazado_833814" data-name="Trazado 833814" d="M120.89,143.1l.01.028,0,.019.021.1c.032.19.067.416.1.671l.188,1.635c.115,1.14.206,2.328.292,3.519l.524,7.23c.162,2.426.322,4.86.521,7.3q.275,3.66.629,7.342l.037.39a2.655,2.655,0,0,0,.279.943c.979,1.916,1.959,3.831,3.023,5.711.516.946,1.08,1.873,1.622,2.809l1.643,2.8c1.1,1.865,2.2,3.731,3.2,5.636.247.478.527.942.747,1.431a8.476,8.476,0,0,1,.445,1.559,6.021,6.021,0,0,0,.532,1.522,3.371,3.371,0,0,0,1.135,1.268,2.163,2.163,0,0,0,.751.295,2.109,2.109,0,0,0,2.468-1.651,3.3,3.3,0,0,0-.153-1.682,6.064,6.064,0,0,0-.756-1.427,8.567,8.567,0,0,1-.842-1.392c-.209-.494-.358-1.013-.54-1.518-.713-2.028-1.333-4.094-1.949-6.163l-.933-3.1c-.316-1.031-.61-2.071-.952-3.091-.559-1.76-1.183-3.493-1.814-5.223-.042-4.681-.049-9.4-.158-14.138-.057-2.45-.088-4.906-.21-7.391-.063-1.244-.134-2.491-.236-3.781-.051-.644-.108-1.3-.2-2-.046-.35-.1-.727-.176-1.138l-.07-.349c-.025-.114-.038-.2-.115-.48-.061-.227-.139-.473-.211-.677l-.082-.214a4.694,4.694,0,0,0-6.013-2.7,4.579,4.579,0,0,0-2.765,5.914m.018.048.021.055.081.214a1.275,1.275,0,0,1-.093-.235l-.009-.034" transform="translate(-46.7 -54.481)" fill="#b56b1f"/>
        <path id="Trazado_833815" data-name="Trazado 833815" d="M125.524,221.22h-8.868a3.752,3.752,0,0,1-3.784-3.719V202.749a3.752,3.752,0,0,1,3.784-3.719h8.868a3.753,3.753,0,0,1,3.785,3.719V217.5a3.752,3.752,0,0,1-3.785,3.719" transform="translate(-43.709 -79.207)" fill="#193441"/>
        <path id="Trazado_833816" data-name="Trazado 833816" d="M104.63,125.537c-7.316-.217-6.656-6.327-6.656-6.327l-4.893-.149-3.652-1.041s1.728,8-7.9,7.517c-2.376-.118-7.148,7.657-7.148,7.657h33.545s-2.2-7.625-3.3-7.657" transform="translate(-28.805 -46.968)" fill="#b56b1f"/>
        <path id="Trazado_833817" data-name="Trazado 833817" d="M112.2,353.4l-.516,4.836a3.152,3.152,0,0,0,3.078,3.228l10.545.338a1.3,1.3,0,0,0,1.295-1.713,1.318,1.318,0,0,0-1.156-.879l-.959-.049c-3.294-.169-6.577-2.539-7.118-5.735Z" transform="translate(-43.248 -140.638)" fill="#193441"/>
        <path id="Trazado_833818" data-name="Trazado 833818" d="M105.583,294.114s-.316-1.241-.754-3.412c-.21-1.087-.47-2.406-.718-3.925-.273-1.517-.506-3.234-.781-5.109-.227-1.879-.506-3.916-.687-6.1-.1-1.093-.19-2.213-.265-3.4l-.028-.443-.017-.518-.029-.859c.01-.622.011-1.4.063-2a60.126,60.126,0,0,1,1.1-7.474c.238-1.218.431-2.432.588-3.616a17.476,17.476,0,0,0,.151-3.308l-.033-.322-.008-.079,0-.04c0-.138,0,.167,0,.124l0-.03-.034-.233c-.048-.3-.087-.651-.143-.9l-.331-1.606-.737-3.585c-.487-2.394-1.069-4.751-1.6-7.037s-1.095-4.492-1.64-6.584c-.529-2.093-1.07-4.067-1.585-5.888-1-3.644-1.938-6.669-2.611-8.77-.326-1.051-.623-1.872-.808-2.413l-.291-.816a10.829,10.829,0,0,1,6.789-13.859,11.121,11.121,0,0,1,14.106,6.671,10.67,10.67,0,0,1,.6,4.362l-.017.178-.276,3.587c-.161,2.238-.376,5.413-.54,9.212-.094,1.9-.183,3.957-.243,6.129-.075,2.174-.155,4.466-.19,6.835s-.13,4.824-.142,7.321q-.033,1.891-.067,3.806l-.053,2.12c-.009.371-.042.641-.061.967l-.018.234,0,.029c0-.023,0,.3,0,.182l-.007.077-.014.154-.061.614c-.2,1.559-.441,2.838-.633,4.129s-.365,2.515-.49,3.728c-.268,2.417-.441,4.737-.654,6.849q-.073.745-.146,1.476-.063.8-.124,1.593c-.077,1.069-.132,2.152-.181,3.2-.086,2.108-.229,4.125-.315,5.987-.131,1.865-.221,3.578-.354,5.1-.11,1.521-.243,2.85-.344,3.945-.221,2.192-.4,3.444-.4,3.444a2.533,2.533,0,0,1-4.949.261" transform="translate(-36.304 -80.113)" fill="#b56b1f"/>
        <path id="Trazado_833819" data-name="Trazado 833819" d="M77.4,352.724l-.87,4.78a3.14,3.14,0,0,0,2.783,3.477l10.476,1.231a1.3,1.3,0,0,0,.366-2.571l-.951-.13c-3.266-.447-6.179-3.1-6.438-6.33Z" transform="translate(-29.626 -140.371)" fill="#193441"/>
        <path id="Trazado_833820" data-name="Trazado 833820" d="M76.278,291.087l.023-.453.04-.511.07-.854c.075-.616.162-1.338.268-1.923a73.21,73.21,0,0,1,1.74-7.21c.33-1.184.611-2.368.86-3.536a19.706,19.706,0,0,0,.43-3.343c-.047-2.43-.093-4.861-.139-7.253-.033-2.459-.155-4.885-.244-7.228s-.212-4.61-.349-6.757q-.045-.812-.1-1.6H94.775q-.325,1.375-.653,2.825c-.493,2.118-1.012,4.347-1.5,6.655s-1.046,4.686-1.519,7.11c-.5,2.488-1.015,5.016-1.526,7.544-.321,1.472-.654,2.728-.939,3.993s-.548,2.482-.768,3.689c-.459,2.406-.849,4.742-1.294,6.87q-.159.756-.316,1.5-.153.787-.3,1.559c-.2,1.022-.364,2.072-.516,3.1l-.867,5.858c-.554,3.662-1.074,6.731-1.458,8.885s-.685,3.373-.685,3.373v.007c-.613,1.354-1.592,2.208-2.956,1.924a2.448,2.448,0,0,1-1.926-1.981s-.229-1.264-.5-3.461c-.127-1.1-.286-2.437-.41-3.972-.151-1.536-.242-3.269-.352-5.169-.066-1.9-.152-3.964-.113-6.178.015-1.108.04-2.249.107-3.459" transform="translate(-29.493 -99.657)" fill="#b56b1f"/>
        <path id="Trazado_833821" data-name="Trazado 833821" d="M103.412,238.7a73.4,73.4,0,0,0,8.944-2.772c-.664-26.721-6.384-46.129-6.384-46.129l-26.792,1.045S73.8,203.688,73.8,237.27c10.081,2.544,19.173,3.895,29.615,1.43" transform="translate(-28.577 -75.533)" fill="#fb523a"/>
        <path id="Trazado_833822" data-name="Trazado 833822" d="M74.793,132.823c3.128-2.943,8.183-2.5,8.183-2.5s2.059,5.695,9.569,5.788c7.51-.093,9.569-5.788,9.569-5.788s5.1-.483,8.183,2.5,2.719,7.454,4.605,14.168l-7.79,3.421s-1.911,10.917-1.219,15.707a23.983,23.983,0,0,1-13.348,3.831A31.09,31.09,0,0,1,79.1,167.164c.691-4.79-1.757-15.844-1.757-15.844s-6.326-14.946-2.552-18.5" transform="translate(-28.498 -51.853)" fill="#d3e3f8"/>
        <path id="Trazado_833823" data-name="Trazado 833823" d="M116.546,90.421c-.018-5.954-3.456-9.418-10.256-10.176a12.088,12.088,0,0,0-10.6,4.426l-.369.451a13.918,13.918,0,0,0-2.566,10.242l3.727,7.6s-.962,6.241-3.178,6.833,8.483,5.379,11.046,1.134l.357-5.271s3.652,1.97,6.664.815c1.576-.6,5.21-3.9,5.174-16.049" transform="translate(-35.858 -31.906)" fill="#b56b1f"/>
      </g>
    </g>
    <g id="Grupo_1017646" data-name="Grupo 1017646" transform="translate(56.741 48.268)">
      <g id="Grupo_1017645" data-name="Grupo 1017645" clip-path="url(#clip-path-14)">
        <path id="Trazado_833824" data-name="Trazado 833824" d="M127.62,105.543a1.6,1.6,0,0,0,1.859,1.2c.968-.074,1.706-.731,1.648-1.468a1.6,1.6,0,0,0-1.859-1.2c-.968.074-1.706.731-1.648,1.468" transform="translate(-106.159 -89.683)" fill="#e89a49"/>
      </g>
    </g>
    <g id="Grupo_1017648" data-name="Grupo 1017648">
      <g id="Grupo_1017647" data-name="Grupo 1017647" clip-path="url(#clip-path)">
        <path id="Trazado_833826" data-name="Trazado 833826" d="M118.875,112.732a.448.448,0,0,0-.311.729,3.346,3.346,0,0,0,5.4-.568.458.458,0,0,0-.449-.688Z" transform="translate(-45.872 -44.652)" fill="#fff"/>
        <path id="Trazado_833827" data-name="Trazado 833827" d="M113.215,107.1a1.825,1.825,0,1,0,1.786-1.3,1.591,1.591,0,0,0-1.786,1.3" transform="translate(-43.841 -42.102)" fill="#e89a49"/>
        <path id="Trazado_833828" data-name="Trazado 833828" d="M114.835,102.1a.822.822,0,0,0,.724.915.831.831,0,0,0,.931-.712.834.834,0,0,0-1.655-.2" transform="translate(-44.466 -40.347)" fill="#193441"/>
        <path id="Trazado_833829" data-name="Trazado 833829" d="M127.685,100.3a.834.834,0,1,0,.931-.712.831.831,0,0,0-.931.712" transform="translate(-49.442 -39.631)" fill="#193441"/>
        <path id="Trazado_833830" data-name="Trazado 833830" d="M102.109,88.518c-1.779.646-3.809,1.064-4.982,2.53a7.121,7.121,0,0,0-1.151,4.3A51.419,51.419,0,0,0,97.3,108.71c.532,2.273,1.134,4.934-.395,6.718s-4.569,1.6-6.45.172-2.843-3.716-3.55-5.945a45.507,45.507,0,0,1-1.371-21.927,18.12,18.12,0,0,1,3.257-8.165c2.542-3.178,6.707-4.816,10.814-5.053,2.965-.171,13.061-.019,11.9,4.723-1.026,4.182-5.469,7.86-9.394,9.286" transform="translate(-32.833 -29.635)" fill="#193441"/>
        <path id="Trazado_833831" data-name="Trazado 833831" d="M154.4,156.5l4.564-1.617a1.183,1.183,0,0,0,.762-.85l2.589-11.428a1.188,1.188,0,0,0-1.573-1.361l-4.565,1.617a1.182,1.182,0,0,0-.762.85L152.83,155.14A1.188,1.188,0,0,0,154.4,156.5" transform="translate(-59.171 -56.182)" fill="#426dc0"/>
        <path id="Trazado_833832" data-name="Trazado 833832" d="M161.362,147.33c-.121.511.007.928.359,1.008s.673-.414.794-.924,0-.843-.357-.924-.675.329-.8.84" transform="translate(-62.469 -58.294)" fill="#fff"/>
        <path id="Trazado_833833" data-name="Trazado 833833" d="M124.111,166.868c-.437-31.952-4.21-37.358-4.249-37.39.056.087-.039-.161.072-.32a.938.938,0,0,1,1.305-.115c.488.4,4.768,5.049,4.768,44.406,0,.075.111,1.689.094,1.759-.292-1.808-1.62-7.949-1.99-8.339" transform="translate(-46.415 -51.27)" fill="#193441"/>
        <path id="Trazado_833834" data-name="Trazado 833834" d="M97.617,154.329c.558.954,1.189,2.015,1.88,3.164,1.453,2.384,3.187,5.15,5.179,7.848a36.6,36.6,0,0,0,3.15,3.763,12.363,12.363,0,0,0,1.526,1.348c.219.16.406.267.5.326s.084.057-.089.083a3.813,3.813,0,0,0,1.52-.226,23.191,23.191,0,0,0,2.329-.809c1.613-.648,3.265-1.41,4.838-2.22s3.1-1.648,4.533-2.472,2.762-1.662,3.977-2.452l1.729-1.156a10.144,10.144,0,0,0,1.487-1.138c.838-.832,1.477-1.662,2.143-2.176a6.121,6.121,0,0,1,1.691-1.025,3.026,3.026,0,0,1,.722-.209l.12-.014a2.286,2.286,0,0,1,.9.085,2.213,2.213,0,0,1,1.5,2.772,3.3,3.3,0,0,1-.348.695,5.963,5.963,0,0,1-1.357,1.5A24.753,24.753,0,0,1,132.9,163.7a11.752,11.752,0,0,0-1.487,1.2l-1.6,1.4L126.2,169.47c-1.294,1.126-2.683,2.3-4.182,3.474a53.27,53.27,0,0,1-4.908,3.483A25.368,25.368,0,0,1,114.133,178a16.86,16.86,0,0,1-1.806.665c-.338.1-.673.188-1.084.271l-.366.061-.319.047-.183.026-.091.013c.113-.007-.174.011-.168.011l-.053,0-.106,0a8.562,8.562,0,0,1-2.969-.427,12.066,12.066,0,0,1-2.134-.934,20.1,20.1,0,0,1-3.084-2.151,40.272,40.272,0,0,1-4.476-4.479c-1.3-1.482-2.441-2.955-3.489-4.359s-1.983-2.753-2.824-4.007c-.186-.276-.366-.547-.542-.815,2.45-2.475,4.734-5.105,7.177-7.6" transform="translate(-35.022 -61.417)" fill="#b56b1f"/>
        <path id="Trazado_833835" data-name="Trazado 833835" d="M541.525,349.27l-2.518-3.94-5.515,2.827c.707,1.827,1.339,6.21-1.482,7.68a7.093,7.093,0,0,1-.887.072l-.98.016a1.347,1.347,0,0,0-1.213.855,1.328,1.328,0,0,0,1.257,1.8l4.045.014,6.269-4.917a3.161,3.161,0,0,0,1.025-4.4" transform="translate(-204.789 -137.429)" fill="#ffc0a9"/>
        <path id="Trazado_833836" data-name="Trazado 833836" d="M610.734,347.593l-5.38-6.476-2.653,5.364c.707,1.827,1.34,6.21-1.482,7.68a7.091,7.091,0,0,1-.887.072l-.98.016a1.347,1.347,0,0,0-1.213.855,1.328,1.328,0,0,0,1.257,1.8l4.045.014L609.71,352a3.161,3.161,0,0,0,1.025-4.4" transform="translate(-231.589 -135.752)" fill="#ffc0a9"/>
        <path id="Trazado_833837" data-name="Trazado 833837" d="M540.153,348.31a8.261,8.261,0,0,0-1.114.593l-.01.007a2.986,2.986,0,0,0-1.075,1.411,3.189,3.189,0,0,1-2.859,2.035,2.8,2.8,0,0,1-1.012.1c.056,1.786-.393,3.693-2.072,4.569a7.313,7.313,0,0,1-.887.072l-.98.015a1.341,1.341,0,0,0-1.3,1.212,1.364,1.364,0,0,0,1.4,1.438l3.984.014,6.269-4.917a3.161,3.161,0,0,0,1.025-4.4Z" transform="translate(-204.788 -138.614)" fill="#193441"/>
        <path id="Trazado_833838" data-name="Trazado 833838" d="M607.264,344.936a6.667,6.667,0,0,0-.512.8,4.133,4.133,0,0,0-.413,2.065,4.256,4.256,0,0,1,.1.967v.1a3.19,3.19,0,0,1-3.154,2.944,4.318,4.318,0,0,1-2.07,3.873,7.3,7.3,0,0,1-.887.072l-.98.015a1.347,1.347,0,0,0-1.213.855,1.329,1.329,0,0,0,1.257,1.8l4.045.014,6.269-4.916a3.162,3.162,0,0,0,1.025-4.4Z" transform="translate(-231.589 -137.272)" fill="#193441"/>
        <path id="Trazado_833839" data-name="Trazado 833839" d="M497.149,277.22l.207-.151,38.365-11a157.165,157.165,0,0,1,3.251,22.352s-28.963-2.485-28.411-1.665q2.782,4.116,5.333,8.389c1.7,2.847,10.709,18.765,10.709,18.767s-3.994,3.924-7,4.493c-3.268-3.042-16.74-22.461-18.679-25.148-.972-1.342-1.9-2.713-2.832-4.084-.9-1.388-1.814-2.772-2.631-4.219a5.943,5.943,0,0,1,1.689-7.732" transform="translate(-191.564 -105.884)" fill="#325290"/>
        <path id="Trazado_833840" data-name="Trazado 833840" d="M550.679,294.417q4.826,1.394,9.575,3.056c3.167,1.105,20.482,7.607,20.484,7.607s-.491,5.529-2.423,7.865c-4.493-.264-27.52-6.626-30.764-7.459-1.622-.414-3.232-.875-4.841-1.338-1.6-.492-3.2-.977-4.776-1.569a5.99,5.99,0,0,1-3.767-6.99l.06-.246,16.044-29.74c.248-1.035-5.35-5.6-5.35-5.6l19.28-8.524s6.413,8.029,8.036,10.6a11.627,11.627,0,0,1,1.489,8.954l-.008.032a7.862,7.862,0,0,1-2.813,4.268l-23.119,18.292c.967.255,1.932.515,2.892.794" transform="translate(-206.788 -100.079)" fill="#426dc0"/>
        <path id="Trazado_833841" data-name="Trazado 833841" d="M503.59,233.039s-.285.642-.812,1.754-1.273,2.7-2.216,4.592-2.044,4.091-3.261,6.435l-.927,1.784-.54,1.029-.13.223-.174.29c-.153.244-.318.509-.476.727a11.561,11.561,0,0,1-4.7,3.805,11.753,11.753,0,0,1-2.9.836,12.17,12.17,0,0,1-1.487.113l-.737-.017-.111,0-.066-.006-.132-.012-.264-.025-.525-.055-.566-.07c-.379-.046-.753-.093-1.113-.151-.726-.1-1.441-.231-2.142-.361a40.557,40.557,0,0,1-4.012-.985c-1.265-.362-2.444-.809-3.521-1.231-.534-.244-1.05-.439-1.525-.7s-.93-.459-1.38-.645c-.226-.087-.448-.169-.668-.241s-.423-.171-.62-.259a4.473,4.473,0,0,1-1.034-.586,5.067,5.067,0,0,1-.722-.641,4.73,4.73,0,0,1-.414-.609,2.362,2.362,0,0,1-.251-.577,1.82,1.82,0,0,1,1.408-2.17,1.908,1.908,0,0,1,.5-.041l.4.024a2.1,2.1,0,0,1,.5.111,2.787,2.787,0,0,1,.487.217,3.261,3.261,0,0,1,.6.358c.2.163.436.332.675.554a5.78,5.78,0,0,0,.825.686,3.66,3.66,0,0,0,1.124.515c.409.151.879.249,1.341.385a21.331,21.331,0,0,0,3.16.486,35.862,35.862,0,0,0,3.62.082c.632-.02,1.272-.044,1.922-.093.673-.041,1.232-.107,1.968-.172l.264-.022.132-.011.066-.005s.054,0,0,0l.02,0,.321-.06a6.25,6.25,0,0,0,.617-.181,4.761,4.761,0,0,0,1.121-.542,4.477,4.477,0,0,0,1.585-1.7c.243-.507.847-2.088,1.327-3.242.99-2.445,1.94-4.715,2.773-6.653s1.561-3.537,2.053-4.665.806-1.757.806-1.757a4.323,4.323,0,0,1,5.707-2.022,4.191,4.191,0,0,1,2.107,5.5" transform="translate(-180.501 -90.392)" fill="#ffc0a9"/>
        <path id="Trazado_833842" data-name="Trazado 833842" d="M538.482,251.1s-5.958-6.354-10.549-11.481c-3.427-3.829-5.539-1.523-8.583-3.976a8.5,8.5,0,0,1-2.717-5.236l-7.157-1.421a23.526,23.526,0,0,1,4.888-10.64l5.171-3.037c7.719-5.3,13.956-3.234,15.932,0,2.971,4.866,7.58,9.169,11,13.049,2.124,2.407,8.547,6.5,10.9,8.23-2.626,5.8-10.155,11.439-18.889,14.512" transform="translate(-197.29 -84.394)" fill="#fb523a"/>
        <path id="Trazado_833843" data-name="Trazado 833843" d="M482.947,190.576c-2.685-5.4-1.148-10.054,4.658-13.726a12.251,12.251,0,0,1,11.593-.641l.539.246a14.313,14.313,0,0,1,6.968,8.158l.077,8.521,4.616,5.979s-3.873,7.42-8.117,4.7l-2.715-4.621s-2.408,3.389-5.657,3.664c-1.7.144-6.481-1.246-11.961-12.276" transform="translate(-186.521 -69.665)" fill="#ffc0a9"/>
      </g>
    </g>
    <g id="Grupo_1017650" data-name="Grupo 1017650" transform="translate(295.146 105.388)">
      <g id="Grupo_1017649" data-name="Grupo 1017649" clip-path="url(#clip-path-16)">
        <path id="Trazado_833844" data-name="Trazado 833844" d="M489.452,206.968a1.584,1.584,0,0,1-1.137,1.9,1.626,1.626,0,0,1-2.157-.607,1.586,1.586,0,0,1,1.137-1.9,1.625,1.625,0,0,1,2.156.607" transform="translate(-483.376 -187.449)" fill="#ffaf8a"/>
      </g>
    </g>
    <g id="Grupo_1017655" data-name="Grupo 1017655">
      <g id="Grupo_1017654" data-name="Grupo 1017654" clip-path="url(#clip-path)">
        <path id="Trazado_833846" data-name="Trazado 833846" d="M499.186,209.616a.46.46,0,0,1,.612.524,3.308,3.308,0,0,1-2.106,2.253,3.378,3.378,0,0,1-3.032-.4.459.459,0,0,1,.094-.821Z" transform="translate(-191.471 -83.409)" fill="#fff"/>
        <path id="Trazado_833847" data-name="Trazado 833847" d="M503.186,201.92a1.58,1.58,0,0,1-.943,2,1.628,1.628,0,0,1-2.206-.4,1.58,1.58,0,0,1,.943-2,1.628,1.628,0,0,1,2.206.4" transform="translate(-193.587 -80.101)" fill="#ffaf8a"/>
        <path id="Trazado_833848" data-name="Trazado 833848" d="M500.41,197.944a.821.821,0,0,1-.241,1.148.849.849,0,0,1-1.165-.237.821.821,0,0,1,.241-1.147.849.849,0,0,1,1.165.237" transform="translate(-193.181 -78.626)" fill="#193441"/>
        <path id="Trazado_833849" data-name="Trazado 833849" d="M487.658,201.708a.821.821,0,0,1-.241,1.147.849.849,0,0,1-1.165-.237.82.82,0,0,1,.241-1.147.849.849,0,0,1,1.165.237" transform="translate(-188.243 -80.124)" fill="#193441"/>
        <path id="Trazado_833850" data-name="Trazado 833850" d="M484.8,182.24a18.737,18.737,0,0,0-3.6.629c-3.242,1.315-3.739,6.054-6.886,7.575a4.543,4.543,0,0,1-6.126-2.878c-.57-2.488,1.158-4.857,1.852-7.314s.374-5.225,1.612-7.479a8.071,8.071,0,0,1,6.018-3.743c3.555-.5,10.715.4,12.72,3.936,2.14,3.774-1.9,8.569-5.6,9.274" transform="translate(-181.258 -67.217)" fill="#193441"/>
        <path id="Trazado_833851" data-name="Trazado 833851" d="M496.552,173.8l8.422,4.792c.739.42,1.56.96,1.652,1.794.136,1.243-1.46,2.332-1.021,3.5.4,1.067,2.028,1,2.835,1.817,1.023,1.034.23,2.75-.646,3.907s-1.839,2.711-1.029,3.914a2.422,2.422,0,0,0,3.092.474,6.8,6.8,0,0,0,2.272-2.49A7.058,7.058,0,0,1,514.377,189c1.762-1,4.49-.621,5.4-2.409.682-1.339-.266-2.931-1.372-3.961s-2.477-1.945-2.921-3.377c-.753-2.428,1.46-5.42-.145-7.409-1.3-1.61-4.061-1.081-5.668-2.4-1.776-1.455-1.5-4.619-3.53-5.712-2.555-1.376-5.585,2.046-8.378,1.232-1.556-.453-2.666-2.161-4.288-2.1-1.341.048-2.285,1.3-2.847,2.5a14.459,14.459,0,0,0-1.366,5.878" transform="translate(-189.462 -64.813)" fill="#193441"/>
        <path id="Trazado_833852" data-name="Trazado 833852" d="M474.951,265.237h0a8.193,8.193,0,0,1-11.429.537l-25.575-22.837,10.883-11.764L474.4,254.009a7.85,7.85,0,0,1,.547,11.228" transform="translate(-169.591 -91.998)" fill="#d3e3f8"/>
        <path id="Trazado_833853" data-name="Trazado 833853" d="M471.061,273.03l5.285,4.719a8.192,8.192,0,0,0,11.428-.536,7.851,7.851,0,0,0-.546-11.228l-5.284-4.719Z" transform="translate(-182.414 -103.974)" fill="#91baee"/>
        <g id="Grupo_1017653" data-name="Grupo 1017653" transform="translate(233.482 107.19)" opacity="0.6">
          <g id="Grupo_1017652" data-name="Grupo 1017652">
            <g id="Grupo_1017651" data-name="Grupo 1017651" clip-path="url(#clip-path-18)">
              <path id="Trazado_833854" data-name="Trazado 833854" d="M415.907,183.371a20.234,20.234,0,0,1,1.407,28.937,21.111,21.111,0,0,1-29.452,1.382,20.234,20.234,0,0,1-1.407-28.937,21.111,21.111,0,0,1,29.452-1.382" transform="translate(-381.034 -178.045)" fill="#fff"/>
            </g>
          </g>
        </g>
        <path id="Trazado_833855" data-name="Trazado 833855" d="M416.242,172a29.474,29.474,0,0,0-41.12,1.931,28.249,28.249,0,0,0,1.965,40.4,29.475,29.475,0,0,0,41.12-1.93,28.251,28.251,0,0,0-1.965-40.4m-4.148,34.943a21.11,21.11,0,0,1-29.452,1.383,20.235,20.235,0,0,1-1.407-28.938,21.111,21.111,0,0,1,29.452-1.382,20.233,20.233,0,0,1,1.407,28.936" transform="translate(-142.332 -65.491)" fill="#426dc0"/>
        <path id="Trazado_833856" data-name="Trazado 833856" d="M421.293,203.175c-2,21.269-28.817,21.268-38.5,7.035a20.347,20.347,0,0,0,5.75,8.689,21.112,21.112,0,0,0,29.452-1.382,20.2,20.2,0,0,0,.979-26.385,20.787,20.787,0,0,1,2.32,12.044" transform="translate(-148.233 -76.063)" fill="#ffe79f"/>
        <path id="Trazado_833857" data-name="Trazado 833857" d="M507.357,227.586c-.02,0-.038-.01-.058-.013-.542,1.616-1.363,3.889-2.377,6.587-.515,1.37-1.1,2.84-1.724,4.382s-1.335,3.135-2.085,4.746a48.754,48.754,0,0,1-2.5,4.7,21.007,21.007,0,0,1-1.4,2.046,7.865,7.865,0,0,1-1.254,1.306c-.068.054-.117.089-.134.107l-.008.01c-.006,0,.066-.023.024-.007l-.022.01-.043.019-.175.076-.351.152-.618.262-.648.259c-.877.338-1.768.671-2.664.987-1.8.615-3.6,1.214-5.369,1.689s-3.507.885-5.164,1.186a40.579,40.579,0,0,1-4.694.6c-.729.043-1.426.064-2.088.071a9.56,9.56,0,0,1-1.864-.111c-1.152-.232-2.082-.658-2.869-.814a7.462,7.462,0,0,0-1.858-.251,3.123,3.123,0,0,0-.719.054l-.248.058a2.02,2.02,0,0,0-.843.43,1.951,1.951,0,0,0-.2,2.787,3.708,3.708,0,0,0,.664.539,6.336,6.336,0,0,0,2.129.871,9.65,9.65,0,0,0,1.6.2l1.879.05c.662.024,1.354.135,2.086.22s1.5.149,2.306.2c1.607.114,3.346.144,5.185.143s3.775-.108,5.775-.287a61.481,61.481,0,0,0,6.15-.849c1.045-.2,2.1-.431,3.154-.717l.8-.219.824-.243.366-.112.183-.056.069-.02.068-.025.167-.064a9.112,9.112,0,0,0,1.227-.58,14.424,14.424,0,0,0,3.3-2.673,28.637,28.637,0,0,0,2.246-2.719,52.94,52.94,0,0,0,3.377-5.355c.983-1.745,1.826-3.455,2.6-5.076s1.452-3.169,2.061-4.6c1.215-2.862,2.1-5.283,2.72-6.983.058-.158.11-.3.161-.449a79.943,79.943,0,0,0-9.161-2.515" transform="translate(-180.034 -90.566)" fill="#ffc0a9"/>
        <path id="Trazado_833858" data-name="Trazado 833858" d="M206.15,65.968v7.525h-2.757" transform="translate(-78.762 -26.253)" fill="none" stroke="#db8832" stroke-linecap="round" stroke-linejoin="round" stroke-width="1"/>
        <path id="Trazado_833859" data-name="Trazado 833859" d="M199.15,60.968V71.5h-2.757" transform="translate(-76.051 -24.263)" fill="none" stroke="#db8832" stroke-linecap="round" stroke-linejoin="round" stroke-width="1"/>
        <path id="Trazado_833860" data-name="Trazado 833860" d="M212.631,45.238h0a12.261,12.261,0,0,1-14.525,7.415,14.176,14.176,0,0,1-10.6-11.783l-.4-2.992a7.264,7.264,0,0,1,5.9-8.066,7.381,7.381,0,0,1,8.594,5.423L204.762,48.2Z" transform="translate(-72.43 -11.81)" fill="#fff"/>
        <path id="Trazado_833861" data-name="Trazado 833861" d="M195.031,46.522a1.731,1.731,0,0,0,1.455,1.933,1.77,1.77,0,0,0,2.268-.9,1.731,1.731,0,0,0-1.455-1.933,1.769,1.769,0,0,0-2.268.9" transform="translate(-75.507 -18.119)" fill="#ffdb82"/>
        <path id="Trazado_833862" data-name="Trazado 833862" d="M198.24,41.525a.9.9,0,0,0,.513,1.172.923.923,0,0,0,1.192-.5.9.9,0,0,0-.514-1.171.923.923,0,0,0-1.192.5" transform="translate(-76.741 -16.3)" fill="#193441"/>
        <path id="Trazado_833863" data-name="Trazado 833863" d="M185.274,39.88s1.724.79.262,2.663l-2.552.348.813-1.355-1.318-2.32Z" transform="translate(-70.663 -15.607)" fill="#e89a49"/>
        <path id="Trazado_833864" data-name="Trazado 833864" d="M0,367.647H0a1.2,1.2,0,0,0,1.211,1.19H398.789a1.19,1.19,0,1,0,0-2.379H1.211A1.2,1.2,0,0,0,0,367.647" transform="translate(0 -145.836)" fill="#5db18c"/>
      </g>
    </g>
  </g>
</svg>
