<svg id="Grupo_1017733" data-name="Grupo 1017733" xmlns="http://www.w3.org/2000/svg" xmlns:xlink="http://www.w3.org/1999/xlink" width="190" height="174.04" viewBox="0 0 190 174.04">
  <defs>
    <clipPath id="clip-path">
      <rect id="Rectángulo_385115" data-name="Rectángulo 385115" width="190" height="174.04" fill="none"/>
    </clipPath>
    <clipPath id="clip-path-3">
      <rect id="Rectángulo_385057" data-name="Rectángulo 385057" width="186.627" height="167.355" fill="none"/>
    </clipPath>
  </defs>
  <g id="Grupo_1017732" data-name="Grupo 1017732" clip-path="url(#clip-path)">
    <g id="Grupo_1017719" data-name="Grupo 1017719">
      <g id="Grupo_1017718" data-name="Grupo 1017718" clip-path="url(#clip-path)">
        <path id="Trazado_834046" data-name="Trazado 834046" d="M189.559,102.717c-5.913,15.838-18,32.98-35,38.055-25.69,7.671-28.759,28.378-74.772,26.458a92.847,92.847,0,0,1-19.9-2.918,77.232,77.232,0,0,1-9.354-3.112c-26.881-10.887-40.9-34.85-42.067-59.923C6.935,68.3,29.943,52.583,44.9,43.38S77.873-1.485,123.122.048a89.978,89.978,0,0,1,20.452,2.988c15.225,4.121,30.7,13.235,39.7,26.559q1.013,1.5,1.936,3.069c12.036,20.421,12.416,48.462,4.353,70.054" transform="translate(-5.025 0)" fill="#33ece0"/>
        <g id="Grupo_1017717" data-name="Grupo 1017717" transform="translate(3.373)" opacity="0.7">
          <g id="Grupo_1017716" data-name="Grupo 1017716">
            <g id="Grupo_1017715" data-name="Grupo 1017715" clip-path="url(#clip-path-3)">
              <path id="Trazado_834047" data-name="Trazado 834047" d="M189.559,102.717c-5.913,15.838-18,32.98-35,38.055-25.69,7.671-28.759,28.378-74.772,26.458a92.847,92.847,0,0,1-19.9-2.918,77.232,77.232,0,0,1-9.354-3.112c-26.881-10.887-40.9-34.85-42.067-59.923C6.935,68.3,29.943,52.583,44.9,43.38S77.873-1.485,123.122.048a89.978,89.978,0,0,1,20.452,2.988c15.225,4.121,30.7,13.235,39.7,26.559q1.013,1.5,1.936,3.069c12.036,20.421,12.416,48.462,4.353,70.054" transform="translate(-8.398 0)" fill="#fff"/>
            </g>
          </g>
        </g>
      </g>
    </g>
    <g id="Grupo_1017721" data-name="Grupo 1017721">
      <g id="Grupo_1017720" data-name="Grupo 1017720" clip-path="url(#clip-path)">
        <path id="Trazado_834048" data-name="Trazado 834048" d="M118.846,183.209c-4.669-10.6-3.982-27.969-1.815-29.413,2.383-1.589,6.155,6.552,9.928,4.17s6.354-7.546,3.177-15.687-7.347-2.78-10.326-.794-5.361.2-4.766-6.95c.439-5.271,2.5-14.964,3.548-19.693.473.2.947.411,1.416.631-9.332-4.368-19.658-5.758-24.026-4.368s-3.574,1.787-1.391,6.948c4.556,10.768-12.7,14.469-17.681,6.166-2.979-4.964,1.4-7.753.208-11.327s-23.232.6-26.012,2.184c0,0,5.361,16.084,4.567,21.842s-3.574,8.34-7.744,4.17-9.531-.4-9.73,6.552.993,12.51,5.758,10.921,8.538-7.347,10.127,0-1.191,16.878-2.78,23.629c0,0,12.51,5.361,18.268,4.964s9.332-.6,7.545-4.17-4.766-5.957-2.581-9.928,10.921-3.574,15.488-2.581,6.553,4.369,5.163,8.141-3.773,7.545.6,8.34c4.118.749,14.586-.973,24.921-4.333Q119.776,182.925,118.846,183.209Z" transform="translate(-22.845 -66.169)" fill="none" stroke="#263238" stroke-miterlimit="10" stroke-width="1"/>
        <path id="Trazado_834049" data-name="Trazado 834049" d="M245.6,288.369q-.917.317-1.838.615Q244.687,288.685,245.6,288.369Z" transform="translate(-145.858 -172.546)" fill="none" stroke="#263238" stroke-miterlimit="10" stroke-width="1"/>
        <path id="Trazado_834050" data-name="Trazado 834050" d="M309.44,127.792c-3.773,0-3.971,2.979-7.943,2.383s-4.368-9.73-.2-25.814c0,0-4.567,3.376-14.893,3.574s-14.5-.993-11.914-4.766,4.567-6.751,2.383-9.73-12.708-2.581-16.084,0-.993,5.56,1.39,8.935-.4,5.361-4.368,5.56-14.1.4-23.431-3.971c-.47-.22-.943-.427-1.416-.631-1.051,4.729-3.109,14.422-3.548,19.693-.6,7.148,1.787,8.935,4.766,6.95s7.149-7.347,10.326.794.6,13.3-3.177,15.687-7.546-5.758-9.928-4.17c-2.166,1.445-2.854,18.81,1.815,29.414,1.248-.382,2.5-.788,3.745-1.218,10.921-3.772,21.842-5.559,23.828-2.979s1.191,2.185-1.39,6.156-2.383,7.347,1.986,9.332,15.091,1.589,16.084-2.979-4.567-7.148-1.985-11.517,25.416,1.986,25.416,1.986-5.163-17.473-3.177-23.232,3.574-4.368,6.751-2.184,7.347,1.985,8.935-4.369S313.213,127.792,309.44,127.792Z" transform="translate(-137.218 -54.661)" fill="none" stroke="#263238" stroke-miterlimit="10" stroke-width="1"/>
      </g>
    </g>
    <g id="Grupo_1017723" data-name="Grupo 1017723">
      <g id="Grupo_1017722" data-name="Grupo 1017722" clip-path="url(#clip-path)">
        <path id="Trazado_834051" data-name="Trazado 834051" d="M383.678,39.381A10.121,10.121,0,1,0,373.558,49.5a10.121,10.121,0,0,0,10.121-10.121" transform="translate(-217.463 -17.508)" fill="#92e3a9"/>
        <circle id="Elipse_5880" data-name="Elipse 5880" cx="10.121" cy="10.121" r="10.121" transform="translate(145.974 11.752)" fill="none" stroke="#263238" stroke-miterlimit="10" stroke-width="1"/>
        <path id="Trazado_834052" data-name="Trazado 834052" d="M384.56,42.063a8.321,8.321,0,1,0-8.321,8.321,8.321,8.321,0,0,0,8.321-8.321" transform="translate(-220.145 -20.19)" fill="#fff"/>
        <circle id="Elipse_5881" data-name="Elipse 5881" cx="8.321" cy="8.321" r="8.321" transform="translate(146.549 14.993) rotate(-9.217)" fill="none" stroke="#263238" stroke-miterlimit="10" stroke-width="1"/>
        <path id="Trazado_834053" data-name="Trazado 834053" d="M385.667,45.429a6.06,6.06,0,1,0-6.061,6.06,6.061,6.061,0,0,0,6.061-6.06" transform="translate(-223.512 -23.557)" fill="#92e3a9"/>
        <circle id="Elipse_5882" data-name="Elipse 5882" cx="6.06" cy="6.06" r="6.06" transform="translate(150.034 15.812)" fill="none" stroke="#263238" stroke-miterlimit="10" stroke-width="1"/>
        <path id="Trazado_834054" data-name="Trazado 834054" d="M386.761,48.758a3.826,3.826,0,1,0-3.826,3.826,3.826,3.826,0,0,0,3.826-3.826" transform="translate(-226.841 -26.885)" fill="#fff"/>
        <circle id="Elipse_5883" data-name="Elipse 5883" cx="3.826" cy="3.826" r="3.826" transform="matrix(0.987, -0.16, 0.16, 0.987, 151.705, 18.709)" fill="none" stroke="#263238" stroke-miterlimit="10" stroke-width="1"/>
        <path id="Trazado_834055" data-name="Trazado 834055" d="M387.767,51.819A1.772,1.772,0,1,0,386,53.591a1.772,1.772,0,0,0,1.772-1.771" transform="translate(-229.901 -29.946)" fill="#92e3a9"/>
        <path id="Trazado_834056" data-name="Trazado 834056" d="M387.767,51.819A1.772,1.772,0,1,0,386,53.591,1.772,1.772,0,0,0,387.767,51.819Z" transform="translate(-229.901 -29.946)" fill="none" stroke="#263238" stroke-miterlimit="10" stroke-width="1"/>
        <path id="Trazado_834057" data-name="Trazado 834057" d="M389.366,47.543l-.731,2.777,2.622.574Z" transform="translate(-232.541 -28.448)" fill="#263238"/>
        <path id="Trazado_834058" data-name="Trazado 834058" d="M389.366,47.543l-.731,2.777,2.622.574Z" transform="translate(-232.541 -28.448)" fill="none" stroke="#263238" stroke-miterlimit="10" stroke-width="1"/>
        <line id="Línea_737" data-name="Línea 737" y1="6.273" x2="11.515" transform="translate(157.943 14.369)" fill="#fff"/>
        <line id="Línea_738" data-name="Línea 738" y1="6.273" x2="11.515" transform="translate(157.943 14.369)" fill="none" stroke="#263238" stroke-miterlimit="10" stroke-width="2"/>
        <path id="Trazado_834059" data-name="Trazado 834059" d="M412.707,31.821l.172-3.008,5.414-3.094v3.438Z" transform="translate(-246.944 -15.389)" fill="#263238"/>
        <path id="Trazado_834060" data-name="Trazado 834060" d="M412.707,31.821l.172-3.008,5.414-3.094v3.438Z" transform="translate(-246.944 -15.389)" fill="none" stroke="#263238" stroke-miterlimit="10" stroke-width="1"/>
        <path id="Trazado_834061" data-name="Trazado 834061" d="M420.58,35.739l-2.37-1.748-5.557,2.923,2.677,1.548Z" transform="translate(-246.912 -20.338)" fill="#263238"/>
        <path id="Trazado_834062" data-name="Trazado 834062" d="M420.58,35.739l-2.37-1.748-5.557,2.923,2.677,1.548Z" transform="translate(-246.912 -20.338)" fill="none" stroke="#263238" stroke-miterlimit="10" stroke-width="1"/>
      </g>
    </g>
    <rect id="Rectángulo_385061" data-name="Rectángulo 385061" width="4.026" height="9.584" transform="translate(99.01 22.485)" fill="#33ece0"/>
    <rect id="Rectángulo_385062" data-name="Rectángulo 385062" width="4.026" height="9.584" transform="translate(99.01 22.485)" fill="none" stroke="#263238" stroke-miterlimit="10" stroke-width="1"/>
    <rect id="Rectángulo_385063" data-name="Rectángulo 385063" width="4.026" height="12.488" transform="translate(104.943 19.582)" fill="#33ece0"/>
    <rect id="Rectángulo_385064" data-name="Rectángulo 385064" width="4.026" height="12.488" transform="translate(104.943 19.582)" fill="none" stroke="#263238" stroke-miterlimit="10" stroke-width="1"/>
    <rect id="Rectángulo_385065" data-name="Rectángulo 385065" width="4.026" height="9.584" transform="translate(110.877 22.485)" fill="#33ece0"/>
    <rect id="Rectángulo_385066" data-name="Rectángulo 385066" width="4.026" height="9.584" transform="translate(110.877 22.485)" fill="none" stroke="#263238" stroke-miterlimit="10" stroke-width="1"/>
    <rect id="Rectángulo_385067" data-name="Rectángulo 385067" width="4.026" height="13.119" transform="translate(116.81 18.95)" fill="#33ece0"/>
    <rect id="Rectángulo_385068" data-name="Rectángulo 385068" width="4.026" height="13.119" transform="translate(116.81 18.95)" fill="none" stroke="#263238" stroke-miterlimit="10" stroke-width="1"/>
    <rect id="Rectángulo_385069" data-name="Rectángulo 385069" width="4.026" height="17.917" transform="translate(122.744 14.153)" fill="#33ece0"/>
    <rect id="Rectángulo_385070" data-name="Rectángulo 385070" width="4.026" height="17.917" transform="translate(122.744 14.153)" fill="none" stroke="#263238" stroke-miterlimit="10" stroke-width="1"/>
    <path id="Trazado_834063" data-name="Trazado 834063" d="M269.112,13.308l1.57.672L260,24.23l-5.1-2.782-8.08,4.912v1.483l8.114-4.933,5.274,2.877L271.56,14.894l.607,1.6,2.245-5.212Z" transform="translate(-147.687 -6.749)" fill="#263238"/>
    <path id="Trazado_834064" data-name="Trazado 834064" d="M269.112,13.308l1.57.672L260,24.23l-5.1-2.782-8.08,4.912v1.483l8.114-4.933,5.274,2.877L271.56,14.894l.607,1.6,2.245-5.212Z" transform="translate(-147.687 -6.749)" fill="none" stroke="#263238" stroke-linecap="round" stroke-linejoin="round" stroke-width="1"/>
    <g id="Grupo_1017725" data-name="Grupo 1017725">
      <g id="Grupo_1017724" data-name="Grupo 1017724" clip-path="url(#clip-path)">
        <path id="Trazado_834065" data-name="Trazado 834065" d="M174.946,39.226a10.121,10.121,0,1,0-10.121,10.121,10.121,10.121,0,0,0,10.121-10.121" transform="translate(-92.568 -17.415)" fill="#fff"/>
        <circle id="Elipse_5884" data-name="Elipse 5884" cx="10.121" cy="10.121" r="10.121" transform="matrix(0.526, -0.851, 0.851, 0.526, 58.328, 25.099)" fill="none" stroke="#263238" stroke-miterlimit="10" stroke-width="1"/>
        <path id="Trazado_834066" data-name="Trazado 834066" d="M175.5,40.9a9,9,0,1,0-9,9,9,9,0,0,0,9-9" transform="translate(-94.242 -19.088)" fill="#33ece0"/>
        <path id="Trazado_834067" data-name="Trazado 834067" d="M175.5,40.9a9,9,0,1,0-9,9A9,9,0,0,0,175.5,40.9Z" transform="translate(-94.242 -19.088)" fill="none" stroke="#263238" stroke-miterlimit="10" stroke-width="1"/>
        <path id="Trazado_834068" data-name="Trazado 834068" d="M175.906,42.363a8.119,8.119,0,1,0-8.119,8.119,8.119,8.119,0,0,0,8.119-8.119" transform="translate(-95.538 -20.49)" fill="#fff"/>
        <path id="Trazado_834069" data-name="Trazado 834069" d="M175.906,42.363a8.119,8.119,0,1,0-8.119,8.119A8.119,8.119,0,0,0,175.906,42.363Z" transform="translate(-95.538 -20.49)" fill="none" stroke="#263238" stroke-miterlimit="10" stroke-width="1"/>
        <path id="Trazado_834070" data-name="Trazado 834070" d="M175.277,50.872V49.583a2.752,2.752,0,0,1-2.135-.915,4.191,4.191,0,0,1-.762-2.565l1.954-.333a5.753,5.753,0,0,0,.145,1.158,1.436,1.436,0,0,0,.354.693.837.837,0,0,0,.61.229.621.621,0,0,0,.589-.277,1.258,1.258,0,0,0,.159-.638,2.058,2.058,0,0,0-.326-1.185,5.005,5.005,0,0,0-.894-.964l-1.178-1.012a7.879,7.879,0,0,1-.721-.763,3.1,3.1,0,0,1-.506-.887,3.359,3.359,0,0,1-.187-1.178,2.716,2.716,0,0,1,.741-2.03,3.076,3.076,0,0,1,1.989-.825V36.858h.665v1.233a2.56,2.56,0,0,1,1.227.34,2.051,2.051,0,0,1,.728.748,3.494,3.494,0,0,1,.361.984,7.088,7.088,0,0,1,.139,1.032l-1.983.291a6.285,6.285,0,0,0-.083-.908,1.332,1.332,0,0,0-.249-.617.639.639,0,0,0-.554-.208.7.7,0,0,0-.589.3,1.122,1.122,0,0,0-.2.651,1.613,1.613,0,0,0,.3,1.026,6.49,6.49,0,0,0,.693.748l1.15,1a7.807,7.807,0,0,1,.845.9,4.22,4.22,0,0,1,.624,1.074,3.618,3.618,0,0,1,.236,1.352,2.976,2.976,0,0,1-.3,1.337,2.467,2.467,0,0,1-.86.977,2.8,2.8,0,0,1-1.323.444v1.3Z" transform="translate(-103.144 -22.054)" fill="#263238"/>
      </g>
    </g>
    <rect id="Rectángulo_385072" data-name="Rectángulo 385072" width="18.792" height="17.668" transform="translate(20.661 13.979)" fill="#fff"/>
    <rect id="Rectángulo_385073" data-name="Rectángulo 385073" width="18.792" height="17.668" transform="translate(20.661 13.979)" fill="none" stroke="#263238" stroke-miterlimit="10" stroke-width="1"/>
    <rect id="Rectángulo_385074" data-name="Rectángulo 385074" width="18.792" height="4.543" transform="translate(20.661 13.979)" fill="#33ece0"/>
    <rect id="Rectángulo_385075" data-name="Rectángulo 385075" width="18.792" height="4.543" transform="translate(20.661 13.979)" fill="none" stroke="#263238" stroke-linecap="round" stroke-linejoin="round" stroke-width="1"/>
    <rect id="Rectángulo_385076" data-name="Rectángulo 385076" width="2.248" height="2.248" transform="translate(22.187 21.046)" fill="#33ece0"/>
    <rect id="Rectángulo_385077" data-name="Rectángulo 385077" width="2.248" height="2.248" transform="translate(22.187 21.046)" fill="none" stroke="#263238" stroke-linecap="round" stroke-linejoin="round" stroke-width="1"/>
    <rect id="Rectángulo_385078" data-name="Rectángulo 385078" width="2.248" height="2.248" transform="translate(25.56 21.046)" fill="#33ece0"/>
    <rect id="Rectángulo_385079" data-name="Rectángulo 385079" width="2.248" height="2.248" transform="translate(25.56 21.046)" fill="none" stroke="#263238" stroke-linecap="round" stroke-linejoin="round" stroke-width="1"/>
    <rect id="Rectángulo_385080" data-name="Rectángulo 385080" width="2.248" height="2.248" transform="translate(28.933 21.046)" fill="#33ece0"/>
    <rect id="Rectángulo_385081" data-name="Rectángulo 385081" width="2.248" height="2.248" transform="translate(28.933 21.046)" fill="none" stroke="#263238" stroke-linecap="round" stroke-linejoin="round" stroke-width="1"/>
    <rect id="Rectángulo_385082" data-name="Rectángulo 385082" width="2.248" height="2.248" transform="translate(32.305 21.046)" fill="#33ece0"/>
    <rect id="Rectángulo_385083" data-name="Rectángulo 385083" width="2.248" height="2.248" transform="translate(32.305 21.046)" fill="none" stroke="#263238" stroke-linecap="round" stroke-linejoin="round" stroke-width="1"/>
    <rect id="Rectángulo_385084" data-name="Rectángulo 385084" width="2.248" height="2.248" transform="translate(35.678 21.046)" fill="#33ece0"/>
    <rect id="Rectángulo_385085" data-name="Rectángulo 385085" width="2.248" height="2.248" transform="translate(35.678 21.046)" fill="none" stroke="#263238" stroke-linecap="round" stroke-linejoin="round" stroke-width="1"/>
    <rect id="Rectángulo_385086" data-name="Rectángulo 385086" width="2.248" height="2.248" transform="translate(22.187 24.579)" fill="#33ece0"/>
    <rect id="Rectángulo_385087" data-name="Rectángulo 385087" width="2.248" height="2.248" transform="translate(22.187 24.579)" fill="none" stroke="#263238" stroke-linecap="round" stroke-linejoin="round" stroke-width="1"/>
    <rect id="Rectángulo_385088" data-name="Rectángulo 385088" width="2.248" height="2.248" transform="translate(25.56 24.579)" fill="#33ece0"/>
    <rect id="Rectángulo_385089" data-name="Rectángulo 385089" width="2.248" height="2.248" transform="translate(25.56 24.579)" fill="none" stroke="#263238" stroke-linecap="round" stroke-linejoin="round" stroke-width="1"/>
    <rect id="Rectángulo_385090" data-name="Rectángulo 385090" width="2.248" height="2.248" transform="translate(28.933 24.579)" fill="#33ece0"/>
    <rect id="Rectángulo_385091" data-name="Rectángulo 385091" width="2.248" height="2.248" transform="translate(28.933 24.579)" fill="none" stroke="#263238" stroke-linecap="round" stroke-linejoin="round" stroke-width="1"/>
    <rect id="Rectángulo_385092" data-name="Rectángulo 385092" width="2.248" height="2.248" transform="translate(32.305 24.579)" fill="#33ece0"/>
    <rect id="Rectángulo_385093" data-name="Rectángulo 385093" width="2.248" height="2.248" transform="translate(32.305 24.579)" fill="none" stroke="#263238" stroke-linecap="round" stroke-linejoin="round" stroke-width="1"/>
    <rect id="Rectángulo_385094" data-name="Rectángulo 385094" width="2.248" height="2.248" transform="translate(35.678 24.579)" fill="#33ece0"/>
    <rect id="Rectángulo_385095" data-name="Rectángulo 385095" width="2.248" height="2.248" transform="translate(35.678 24.579)" fill="none" stroke="#263238" stroke-linecap="round" stroke-linejoin="round" stroke-width="1"/>
    <rect id="Rectángulo_385096" data-name="Rectángulo 385096" width="2.248" height="2.248" transform="translate(22.187 28.113)" fill="#33ece0"/>
    <rect id="Rectángulo_385097" data-name="Rectángulo 385097" width="2.248" height="2.248" transform="translate(22.187 28.113)" fill="none" stroke="#263238" stroke-linecap="round" stroke-linejoin="round" stroke-width="1"/>
    <rect id="Rectángulo_385098" data-name="Rectángulo 385098" width="2.248" height="2.248" transform="translate(25.56 28.113)" fill="#33ece0"/>
    <rect id="Rectángulo_385099" data-name="Rectángulo 385099" width="2.248" height="2.248" transform="translate(25.56 28.113)" fill="none" stroke="#263238" stroke-linecap="round" stroke-linejoin="round" stroke-width="1"/>
    <rect id="Rectángulo_385100" data-name="Rectángulo 385100" width="2.248" height="2.248" transform="translate(28.933 28.113)" fill="#33ece0"/>
    <rect id="Rectángulo_385101" data-name="Rectángulo 385101" width="2.248" height="2.248" transform="translate(28.933 28.113)" fill="none" stroke="#263238" stroke-linecap="round" stroke-linejoin="round" stroke-width="1"/>
    <rect id="Rectángulo_385102" data-name="Rectángulo 385102" width="2.248" height="2.248" transform="translate(32.305 28.113)" fill="#33ece0"/>
    <rect id="Rectángulo_385103" data-name="Rectángulo 385103" width="2.248" height="2.248" transform="translate(32.305 28.113)" fill="none" stroke="#263238" stroke-linecap="round" stroke-linejoin="round" stroke-width="1"/>
    <rect id="Rectángulo_385104" data-name="Rectángulo 385104" width="2.248" height="2.248" transform="translate(35.678 28.113)" fill="#33ece0"/>
    <rect id="Rectángulo_385105" data-name="Rectángulo 385105" width="2.248" height="2.248" transform="translate(35.678 28.113)" fill="none" stroke="#263238" stroke-linecap="round" stroke-linejoin="round" stroke-width="1"/>
    <rect id="Rectángulo_385106" data-name="Rectángulo 385106" width="1.606" height="4.337" transform="translate(23.231 11.087)" fill="#263238"/>
    <rect id="Rectángulo_385107" data-name="Rectángulo 385107" width="1.606" height="4.337" transform="translate(27.246 11.087)" fill="#263238"/>
    <rect id="Rectángulo_385108" data-name="Rectángulo 385108" width="1.606" height="4.337" transform="translate(31.261 11.087)" fill="#263238"/>
    <rect id="Rectángulo_385109" data-name="Rectángulo 385109" width="1.606" height="4.337" transform="translate(35.277 11.087)" fill="#263238"/>
    <g id="Grupo_1017727" data-name="Grupo 1017727">
      <g id="Grupo_1017726" data-name="Grupo 1017726" clip-path="url(#clip-path)">
        <path id="Trazado_834071" data-name="Trazado 834071" d="M8,358.057a10.3,10.3,0,0,0,3.006.333c.022,0-.458-1.4-.5-1.48-.468-.979-1.948-2.6-3.152-2.433a1.438,1.438,0,0,0-1.154,1.8A3.006,3.006,0,0,0,8,358.057" transform="translate(-3.686 -212.095)" fill="#92e3a9"/>
        <path id="Trazado_834072" data-name="Trazado 834072" d="M9.007,355.019a10.006,10.006,0,0,0,2.959-.465,25.47,25.47,0,0,0,1.154,3.194c.262.606.544,1.209.835,1.809-.174-.254-.331-.48-.356-.51-.71-.821-2.564-1.989-3.682-1.513a1.438,1.438,0,0,0-.637,2.043,3.006,3.006,0,0,0,2.2,1.24,9.537,9.537,0,0,0,2.877-.441c.114.229.225.459.34.688.551,1.1,1.106,2.19,1.617,3.279.18.383.344.768.509,1.152-.154-.226-.286-.414-.309-.441-.71-.82-2.564-1.989-3.683-1.513a1.438,1.438,0,0,0-.637,2.043,3,3,0,0,0,2.2,1.24,9.17,9.17,0,0,0,2.8-.419c.157.4.315.8.45,1.19.086.271.187.525.257.8s.151.542.226.809c.125.519.256,1.054.365,1.564.078.354.146.692.216,1.033-.175-.384-.534-1.128-.571-1.187-.577-.919-2.233-2.354-3.411-2.054a1.438,1.438,0,0,0-.939,1.923,3,3,0,0,0,1.991,1.56,9.881,9.881,0,0,0,2.979-.009c.113.564.218,1.115.308,1.635.2,1.149.355,2.179.472,3.051h.8c-.139-.9-.321-1.977-.561-3.183-.112-.574-.244-1.184-.386-1.81a15.66,15.66,0,0,0,1.662-.781,10.5,10.5,0,0,0,2.422,1.562c-.217.533-.433,1.05-.645,1.534-.441,1.014-.859,1.913-1.229,2.679h.861c.318-.705.667-1.509,1.031-2.4.223-.54.449-1.123.677-1.722a9.884,9.884,0,0,0,2.97.231,3.005,3.005,0,0,0,2.1-1.407,1.437,1.437,0,0,0-.794-1.987c-1.152-.387-2.91.921-3.554,1.794-.039.051-.388.656-.6,1.041.092-.245.183-.483.274-.737.184-.5.353-1.007.536-1.55q.119-.4.241-.8c.086-.267.143-.559.216-.841.157-.658.283-1.332.4-2.014a9.44,9.44,0,0,0,2.819.648,3,3,0,0,0,2.29-1.072,1.438,1.438,0,0,0-.483-2.085c-1.08-.557-3.016.47-3.785,1.235-.048.047-.538.659-.8,1,.064-.41.131-.82.182-1.237.15-1.2.263-2.429.383-3.649.036-.374.077-.746.116-1.119a9.986,9.986,0,0,0,2.914.683,3.006,3.006,0,0,0,2.291-1.072,1.438,1.438,0,0,0-.483-2.085c-1.08-.557-3.016.47-3.785,1.235-.058.057-.762.938-.93,1.171.087-.821.181-1.638.306-2.44a25.273,25.273,0,0,1,.7-3.209,10.167,10.167,0,0,0,2.931.689,3.006,3.006,0,0,0,2.291-1.073,1.438,1.438,0,0,0-.483-2.085c-1.08-.557-3.016.47-3.785,1.235-.06.06-.817,1.008-.942,1.19.018-.061.03-.126.049-.187a18.487,18.487,0,0,1,1.271-3.036c.276-.541.571-1.042.868-1.523a9.67,9.67,0,0,0,2.775.976,3,3,0,0,0,2.394-.815,1.438,1.438,0,0,0-.251-2.125c-1.013-.672-3.049.136-3.9.812-.046.037-.474.463-.781.777.137-.215.275-.44.411-.643.508-.766,1.021-1.435,1.48-2.025.263-.333.508-.629.741-.9a9.6,9.6,0,0,0,2.9-.412,3.007,3.007,0,0,0,1.75-1.826,1.438,1.438,0,0,0-1.2-1.77c-1.208-.13-2.644,1.525-3.085,2.517-.038.086-.481,1.494-.459,1.493h.026c-.229.259-.471.541-.729.853-.473.581-1,1.241-1.528,2a25.52,25.52,0,0,0-1.585,2.524,18.757,18.757,0,0,0-1.354,3.047c0,.012-.007.026-.011.039.006-.356-.01-1.352-.019-1.428-.14-1.076-1.041-3.073-2.236-3.294a1.438,1.438,0,0,0-1.658,1.352,3.007,3.007,0,0,0,1.154,2.251,10.018,10.018,0,0,0,2.724,1.245,25.482,25.482,0,0,0-.8,3.3c-.116.65-.212,1.309-.3,1.97,0-.308-.011-.584-.016-.622-.139-1.076-1.041-3.073-2.236-3.294a1.437,1.437,0,0,0-1.658,1.352,3.007,3.007,0,0,0,1.154,2.25,9.535,9.535,0,0,0,2.642,1.219c-.031.254-.065.508-.1.762-.146,1.219-.286,2.437-.46,3.627-.061.42-.137.83-.211,1.242,0-.273-.01-.5-.015-.539-.139-1.076-1.041-3.073-2.236-3.294a1.438,1.438,0,0,0-1.659,1.353,3.007,3.007,0,0,0,1.155,2.25,9.161,9.161,0,0,0,2.566,1.194c-.089.419-.177.838-.282,1.241-.078.273-.134.541-.227.81s-.173.535-.258.8c-.183.5-.368,1.021-.558,1.505-.13.339-.26.658-.39.981.065-.417.177-1.235.179-1.3a5.584,5.584,0,0,0-.749-2.716,1.652,1.652,0,0,0-.02-.318,1.438,1.438,0,0,0-1.758-1.22c-1.174.313-1.919,2.374-1.974,3.457,0,.064.039.761.072,1.2-.059-.255-.114-.5-.178-.766-.123-.519-.261-1.034-.408-1.588q-.12-.4-.243-.8c-.076-.27-.19-.545-.284-.821-.232-.635-.5-1.267-.781-1.9a9.442,9.442,0,0,0,2.709-1.015,3.006,3.006,0,0,0,1.319-2.158,1.438,1.438,0,0,0-1.553-1.472c-1.208.131-2.256,2.056-2.476,3.118-.014.066-.085.846-.116,1.276-.173-.378-.343-.756-.53-1.133-.54-1.087-1.12-2.171-1.695-3.255-.176-.332-.347-.664-.52-1a10,10,0,0,0,2.808-1.038,3.007,3.007,0,0,0,1.319-2.158,1.438,1.438,0,0,0-1.553-1.472c-1.208.131-2.256,2.055-2.475,3.118-.016.08-.118,1.2-.13,1.49-.38-.733-.753-1.466-1.09-2.2a25.32,25.32,0,0,1-1.186-3.063,10.167,10.167,0,0,0,2.825-1.042,3,3,0,0,0,1.319-2.158,1.437,1.437,0,0,0-1.553-1.472c-1.208.131-2.256,2.056-2.475,3.118-.017.084-.126,1.292-.13,1.512-.019-.061-.045-.122-.063-.182a18.574,18.574,0,0,1-.615-3.234c-.068-.6-.1-1.184-.116-1.75a9.676,9.676,0,0,0,2.853-.717,3.007,3.007,0,0,0,1.548-2,1.438,1.438,0,0,0-1.382-1.634c-1.215,0-2.469,1.8-2.8,2.827-.018.056-.14.647-.223,1.079,0-.255-.013-.519-.012-.764,0-.919.06-1.76.117-2.505.036-.423.078-.805.12-1.162a9.622,9.622,0,0,0,2.189-1.943,3.006,3.006,0,0,0,.452-2.488,1.438,1.438,0,0,0-1.979-.813c-1.079.558-1.363,2.731-1.185,3.8.016.092.423,1.511.442,1.5l.021-.014c-.048.343-.094.71-.138,1.113-.074.745-.151,1.587-.172,2.51a25.584,25.584,0,0,0,.071,2.979,18.8,18.8,0,0,0,.552,3.288c0,.012.008.025.012.038-.191-.3-.754-1.122-.8-1.18-.71-.821-2.564-1.989-3.682-1.514a1.438,1.438,0,0,0-.637,2.043,3.005,3.005,0,0,0,2.2,1.24" transform="translate(-3.954 -202.88)" fill="#92e3a9"/>
        <path id="Trazado_834073" data-name="Trazado 834073" d="M60.065,356.51c.019.012.388-1.417.4-1.51.149-1.075-.193-3.239-1.287-3.768a1.438,1.438,0,0,0-1.956.867,3.007,3.007,0,0,0,.519,2.475,10.307,10.307,0,0,0,2.324,1.936" transform="translate(-34.177 -210.079)" fill="#92e3a9"/>
        <path id="Trazado_834074" data-name="Trazado 834074" d="M377.113,358.057a10.3,10.3,0,0,0,3.006.333c.022,0-.458-1.4-.5-1.48-.468-.979-1.948-2.6-3.152-2.433a1.438,1.438,0,0,0-1.154,1.8,3.006,3.006,0,0,0,1.8,1.778" transform="translate(-224.544 -212.095)" fill="#92e3a9"/>
        <path id="Trazado_834075" data-name="Trazado 834075" d="M378.117,355.019a10.006,10.006,0,0,0,2.959-.465,25.468,25.468,0,0,0,1.154,3.194c.262.606.544,1.209.835,1.809-.174-.254-.331-.48-.356-.51-.71-.821-2.564-1.989-3.682-1.513a1.438,1.438,0,0,0-.637,2.043,3.006,3.006,0,0,0,2.2,1.24,9.531,9.531,0,0,0,2.876-.441c.114.229.225.459.341.688.551,1.1,1.106,2.19,1.617,3.279.18.383.344.768.509,1.152-.154-.226-.286-.414-.31-.441-.71-.82-2.564-1.989-3.682-1.513a1.438,1.438,0,0,0-.637,2.043,3,3,0,0,0,2.2,1.24,9.17,9.17,0,0,0,2.8-.419c.157.4.315.8.449,1.19.086.271.187.525.258.8l.226.809c.125.519.256,1.054.365,1.564.079.354.147.692.216,1.033-.175-.384-.534-1.128-.571-1.187-.577-.919-2.233-2.354-3.41-2.054a1.438,1.438,0,0,0-.939,1.923,3,3,0,0,0,1.991,1.56,9.881,9.881,0,0,0,2.979-.009c.113.564.218,1.115.309,1.635.2,1.149.355,2.179.472,3.051h.8c-.139-.9-.32-1.977-.561-3.183-.112-.574-.244-1.184-.386-1.81a15.656,15.656,0,0,0,1.662-.781,10.511,10.511,0,0,0,2.422,1.562c-.216.533-.433,1.05-.645,1.534-.441,1.014-.859,1.913-1.229,2.679h.861c.318-.705.667-1.509,1.031-2.4.223-.54.449-1.123.677-1.722a9.884,9.884,0,0,0,2.97.231,3.005,3.005,0,0,0,2.1-1.407,1.438,1.438,0,0,0-.794-1.987c-1.152-.387-2.91.921-3.554,1.794-.039.051-.388.656-.6,1.041.092-.245.183-.483.274-.737.184-.5.353-1.007.536-1.55l.241-.8c.086-.267.143-.559.216-.841.157-.658.284-1.332.4-2.014a9.438,9.438,0,0,0,2.819.648,3,3,0,0,0,2.291-1.072,1.438,1.438,0,0,0-.483-2.085c-1.08-.557-3.016.47-3.785,1.235-.048.047-.538.659-.8,1,.064-.41.131-.82.182-1.237.15-1.2.263-2.429.383-3.649.036-.374.077-.746.116-1.119a9.986,9.986,0,0,0,2.914.683,3.006,3.006,0,0,0,2.291-1.072,1.438,1.438,0,0,0-.483-2.085c-1.08-.557-3.016.47-3.785,1.235-.058.057-.762.938-.93,1.171.087-.821.181-1.638.306-2.44a25.275,25.275,0,0,1,.7-3.209,10.166,10.166,0,0,0,2.931.689,3.006,3.006,0,0,0,2.291-1.073,1.438,1.438,0,0,0-.483-2.085c-1.08-.557-3.016.47-3.785,1.235-.06.06-.817,1.008-.942,1.19.018-.061.03-.126.049-.187a18.487,18.487,0,0,1,1.271-3.036c.276-.541.571-1.042.868-1.523a9.669,9.669,0,0,0,2.775.976,3,3,0,0,0,2.394-.815,1.438,1.438,0,0,0-.251-2.125c-1.013-.672-3.049.136-3.9.812-.046.037-.474.463-.78.777.137-.215.275-.44.411-.643.508-.766,1.021-1.435,1.48-2.025.264-.333.508-.629.741-.9a9.6,9.6,0,0,0,2.9-.412,3.005,3.005,0,0,0,1.75-1.826,1.438,1.438,0,0,0-1.2-1.77c-1.208-.13-2.644,1.525-3.085,2.517-.038.086-.481,1.494-.459,1.493h.026c-.229.259-.471.541-.729.853-.473.581-1,1.241-1.528,2a25.522,25.522,0,0,0-1.584,2.524,18.756,18.756,0,0,0-1.354,3.047c0,.012-.007.026-.011.039.006-.356-.01-1.352-.02-1.428-.139-1.076-1.041-3.073-2.236-3.294a1.438,1.438,0,0,0-1.658,1.352,3.007,3.007,0,0,0,1.154,2.251,10.018,10.018,0,0,0,2.724,1.245,25.483,25.483,0,0,0-.8,3.3c-.116.65-.212,1.309-.3,1.97,0-.308-.011-.584-.016-.622-.139-1.076-1.041-3.073-2.236-3.294a1.437,1.437,0,0,0-1.658,1.352,3.005,3.005,0,0,0,1.154,2.25,9.535,9.535,0,0,0,2.642,1.219c-.031.254-.065.508-.1.762-.146,1.219-.286,2.437-.46,3.627-.061.42-.137.83-.211,1.242,0-.273-.01-.5-.015-.539-.139-1.076-1.041-3.073-2.236-3.294a1.438,1.438,0,0,0-1.659,1.353,3.006,3.006,0,0,0,1.154,2.25,9.168,9.168,0,0,0,2.566,1.194c-.089.419-.177.838-.282,1.241-.078.273-.134.541-.227.81l-.257.8c-.183.5-.368,1.021-.558,1.505-.13.339-.26.658-.39.981.065-.417.177-1.235.179-1.3a5.584,5.584,0,0,0-.749-2.716,1.685,1.685,0,0,0-.02-.318,1.438,1.438,0,0,0-1.758-1.22c-1.174.313-1.919,2.374-1.974,3.457,0,.064.039.761.072,1.2-.059-.255-.113-.5-.178-.766-.123-.519-.261-1.034-.408-1.588l-.243-.8c-.075-.27-.189-.545-.284-.821-.232-.635-.5-1.267-.781-1.9a9.442,9.442,0,0,0,2.709-1.015,3.006,3.006,0,0,0,1.319-2.158,1.438,1.438,0,0,0-1.553-1.472c-1.208.131-2.256,2.056-2.476,3.118-.014.066-.085.846-.116,1.276-.173-.378-.343-.756-.53-1.133-.54-1.087-1.12-2.171-1.695-3.255-.176-.332-.347-.664-.52-1a10.009,10.009,0,0,0,2.808-1.038,3.007,3.007,0,0,0,1.319-2.158,1.438,1.438,0,0,0-1.553-1.472c-1.208.131-2.256,2.055-2.475,3.118-.016.08-.118,1.2-.13,1.49-.38-.733-.753-1.466-1.09-2.2a25.318,25.318,0,0,1-1.186-3.063,10.168,10.168,0,0,0,2.825-1.042,3,3,0,0,0,1.319-2.158,1.437,1.437,0,0,0-1.553-1.472c-1.208.131-2.256,2.056-2.475,3.118-.017.084-.126,1.292-.13,1.512-.019-.061-.045-.122-.063-.182a18.537,18.537,0,0,1-.615-3.234c-.068-.6-.1-1.184-.116-1.75a9.677,9.677,0,0,0,2.853-.717,3.005,3.005,0,0,0,1.548-2,1.438,1.438,0,0,0-1.382-1.634c-1.215,0-2.469,1.8-2.8,2.827-.018.056-.14.647-.223,1.079,0-.255-.013-.519-.012-.764,0-.919.06-1.76.117-2.505.036-.423.077-.805.12-1.162a9.622,9.622,0,0,0,2.189-1.943,3.006,3.006,0,0,0,.452-2.488,1.438,1.438,0,0,0-1.979-.813c-1.079.558-1.363,2.731-1.185,3.8.016.092.423,1.511.442,1.5l.021-.014c-.047.343-.094.71-.137,1.113-.074.745-.151,1.587-.172,2.51a25.582,25.582,0,0,0,.071,2.979,18.763,18.763,0,0,0,.552,3.288c0,.012.008.025.012.038-.191-.3-.754-1.122-.8-1.18-.71-.821-2.564-1.989-3.682-1.514a1.438,1.438,0,0,0-.637,2.043,3.005,3.005,0,0,0,2.2,1.24" transform="translate(-224.812 -202.88)" fill="#92e3a9"/>
        <path id="Trazado_834076" data-name="Trazado 834076" d="M429.175,356.51c.019.012.388-1.417.4-1.51.149-1.075-.193-3.239-1.287-3.768a1.438,1.438,0,0,0-1.956.867,3.007,3.007,0,0,0,.519,2.475,10.306,10.306,0,0,0,2.324,1.936" transform="translate(-255.034 -210.079)" fill="#92e3a9"/>
      </g>
    </g>
    <g id="Grupo_1017729" data-name="Grupo 1017729">
      <g id="Grupo_1017728" data-name="Grupo 1017728" clip-path="url(#clip-path)">
        <path id="Trazado_834077" data-name="Trazado 834077" d="M337.013,146.22s.123-4.533,2.737-5.821,2.763,2.962,2.763,2.962,5.984-3.8,7.281-.919-.516,4.273-.516,4.273,5.312-.185,5.679,2.727a4.533,4.533,0,0,1-2.375,4.337s3.285,2.677,2.131,3.914-3.677,1.325-3.677,1.325,1.43,2.875-1.061,3.893-5.349-.877-5.349-.877.445,1.314-1.428.98a6.068,6.068,0,0,1-4.924-3.95c-1.16-2.752-2.658-10.528-1.261-12.845" transform="translate(-201.315 -83.863)" fill="#263238"/>
        <path id="Trazado_834078" data-name="Trazado 834078" d="M337.013,146.22s.123-4.533,2.737-5.821,2.763,2.962,2.763,2.962,5.984-3.8,7.281-.919-.516,4.273-.516,4.273,5.312-.185,5.679,2.727a4.533,4.533,0,0,1-2.375,4.337s3.285,2.677,2.131,3.914-3.677,1.325-3.677,1.325,1.43,2.875-1.061,3.893-5.349-.877-5.349-.877.445,1.314-1.428.98a6.068,6.068,0,0,1-4.924-3.95C337.114,156.313,335.616,148.537,337.013,146.22Z" transform="translate(-201.315 -83.863)" fill="none" stroke="#263238" stroke-linecap="round" stroke-linejoin="round" stroke-width="1"/>
        <path id="Trazado_834079" data-name="Trazado 834079" d="M266.581,373.305s-1.492,5.686-1.47,6.319-.491,2.059-.055,2.467a21.436,21.436,0,0,0,2.6,1.811,1.987,1.987,0,0,0,1.045-.318.979.979,0,0,0,.327-.716,11.486,11.486,0,0,0-.68-1.314c-.078-.208,1.1-2.926,1.541-4.279a24.16,24.16,0,0,0,.717-3.687Z" transform="translate(-158.491 -223.368)" fill="#bdbdbd"/>
        <path id="Trazado_834080" data-name="Trazado 834080" d="M266.581,373.305s-1.492,5.686-1.47,6.319-.491,2.059-.055,2.467a21.436,21.436,0,0,0,2.6,1.811,1.987,1.987,0,0,0,1.045-.318.979.979,0,0,0,.327-.716,11.486,11.486,0,0,0-.68-1.314c-.078-.208,1.1-2.926,1.541-4.279a24.16,24.16,0,0,0,.717-3.687Z" transform="translate(-158.491 -223.368)" fill="none" stroke="#263238" stroke-miterlimit="10" stroke-width="1"/>
        <path id="Trazado_834081" data-name="Trazado 834081" d="M270.2,383.158s-.846,2-.9,2.355-1.222,1.311-1.054,2.079,1.851.57,2.687-1.713" transform="translate(-160.492 -229.263)" fill="#bdbdbd"/>
        <path id="Trazado_834082" data-name="Trazado 834082" d="M270.2,383.158s-.846,2-.9,2.355-1.222,1.311-1.054,2.079,1.851.57,2.687-1.713" transform="translate(-160.492 -229.263)" fill="none" stroke="#263238" stroke-miterlimit="10" stroke-width="1"/>
        <path id="Trazado_834083" data-name="Trazado 834083" d="M273.478,296.383s-.713,11.6-.982,12.625-3.5,10.377-4.209,13.246a38.787,38.787,0,0,0-.928,5.414l4.336.911,2.431-10.692s3.182-9.729,2.547-14.3a13.647,13.647,0,0,0-3.2-7.2" transform="translate(-159.975 -177.341)" fill="#33ece0"/>
        <path id="Trazado_834084" data-name="Trazado 834084" d="M273.478,296.383s-.713,11.6-.982,12.625-3.5,10.377-4.209,13.246a38.787,38.787,0,0,0-.928,5.414l4.336.911,2.431-10.692s3.182-9.729,2.547-14.3A13.647,13.647,0,0,0,273.478,296.383Z" transform="translate(-159.975 -177.341)" fill="none" stroke="#263238" stroke-miterlimit="10" stroke-width="1"/>
        <path id="Trazado_834085" data-name="Trazado 834085" d="M298.653,392.24c.05-2.524.157-5.925.383-7.873.391-3.365,1.841-5.446,3.319-9.661a37.028,37.028,0,0,0,1.591-9.7l-26.47.923s-3.056,11.378-4.9,19.768a34.134,34.134,0,0,0-.877,6.544" transform="translate(-162.574 -218.401)" fill="#33ece0"/>
        <path id="Trazado_834086" data-name="Trazado 834086" d="M298.653,392.24c.05-2.524.157-5.925.383-7.873.391-3.365,1.841-5.446,3.319-9.661a37.028,37.028,0,0,0,1.591-9.7l-26.47.923s-3.056,11.378-4.9,19.768a34.134,34.134,0,0,0-.877,6.544" transform="translate(-162.574 -218.401)" fill="none" stroke="#263238" stroke-miterlimit="10" stroke-width="1"/>
        <path id="Trazado_834087" data-name="Trazado 834087" d="M294.789,376.357l22.024.621.465-1.706Z" transform="translate(-176.387 -224.544)" fill="#263238"/>
        <path id="Trazado_834088" data-name="Trazado 834088" d="M294.789,376.357l22.024.621.465-1.706Z" transform="translate(-176.387 -224.544)" fill="none" stroke="#263238" stroke-linecap="round" stroke-linejoin="round" stroke-width="1"/>
        <path id="Trazado_834089" data-name="Trazado 834089" d="M291.36,400.16s-.435-13.771-.445-21.244" transform="translate(-174.07 -226.725)" fill="#fff"/>
        <path id="Trazado_834090" data-name="Trazado 834090" d="M291.36,400.16s-.435-13.771-.445-21.244" transform="translate(-174.07 -226.725)" fill="none" stroke="#263238" stroke-miterlimit="10" stroke-width="1"/>
        <path id="Trazado_834091" data-name="Trazado 834091" d="M300.6,223.5l3.212,2.162s3.8,3.4,4.742,6.2.256,19.51-.687,24.918,1.413,12.115,2.252,15.9a90.631,90.631,0,0,1,1.227,10.849s.595.828-9.718,1.187-17.508.893-18.35,1.064a10.6,10.6,0,0,1-1.549.2l-.411-3.663-1.027,3.006-2.139-.491s1.327-6.553,1.663-9.111,2.436-11.259,2.464-14.513-2.7-8.534-3.239-11.769.542-8.788,3.225-12.984,4.465-5.813,9.691-10.1S300.6,223.5,300.6,223.5" transform="translate(-166.434 -133.597)" fill="#33ece0"/>
        <path id="Trazado_834092" data-name="Trazado 834092" d="M300.6,223.5l3.212,2.162s3.8,3.4,4.742,6.2.256,19.51-.687,24.918,1.413,12.115,2.252,15.9a90.631,90.631,0,0,1,1.227,10.849s.595.828-9.718,1.187-17.508.893-18.35,1.064a10.6,10.6,0,0,1-1.549.2l-.411-3.663-1.027,3.006-2.139-.491s1.327-6.553,1.663-9.111,2.436-11.259,2.464-14.513-2.7-8.534-3.239-11.769.542-8.788,3.225-12.984,4.465-5.813,9.691-10.1S300.6,223.5,300.6,223.5Z" transform="translate(-166.434 -133.597)" fill="none" stroke="#263238" stroke-miterlimit="10" stroke-width="1"/>
        <path id="Trazado_834093" data-name="Trazado 834093" d="M313.21,342.451l10.775,1.22-.606-2.822-6.722-.578" transform="translate(-187.41 -203.602)" fill="none" stroke="#263238" stroke-miterlimit="10" stroke-width="1"/>
        <path id="Trazado_834094" data-name="Trazado 834094" d="M303.017,339.885l-.545,1.847,2.7.306" transform="translate(-180.984 -203.371)" fill="none" stroke="#263238" stroke-miterlimit="10" stroke-width="1"/>
        <path id="Trazado_834095" data-name="Trazado 834095" d="M311.826,291.635a12.131,12.131,0,0,1-1.39-1.531" transform="translate(-185.75 -173.584)" fill="none" stroke="#263238" stroke-miterlimit="10" stroke-width="1"/>
        <path id="Trazado_834096" data-name="Trazado 834096" d="M319.68,298.919s-1.138-.859-2.383-1.93" transform="translate(-189.855 -177.704)" fill="none" stroke="#263238" stroke-miterlimit="10" stroke-width="1"/>
        <path id="Trazado_834097" data-name="Trazado 834097" d="M302.061,223.5s-3.419-1.425-8.645,2.859-7.008,5.9-9.691,10.1a22.657,22.657,0,0,0-3.134,8.48c.064.314.133.631.21.957a41.38,41.38,0,0,0,3.155,9.367s2.893-14.387,7.923-20.22,13.393-9.378,13.393-9.378Z" transform="translate(-167.892 -133.597)" fill="#33ece0"/>
        <path id="Trazado_834098" data-name="Trazado 834098" d="M302.061,223.5s-3.419-1.425-8.645,2.859-7.008,5.9-9.691,10.1a22.657,22.657,0,0,0-3.134,8.48c.064.314.133.631.21.957a41.38,41.38,0,0,0,3.155,9.367s2.893-14.387,7.923-20.22,13.393-9.378,13.393-9.378Z" transform="translate(-167.892 -133.597)" fill="none" stroke="#263238" stroke-miterlimit="10" stroke-width="1"/>
        <path id="Trazado_834099" data-name="Trazado 834099" d="M291.908,151.183s-3.771,3.523-4.051,6.3-.574,5.17-1.045,6.066-2.838,1.481-2.036,2.835,1.554,1.327,1.554,1.327,1.214,5.988,2.122,6.835,4.158.357,4.158.357l1,7.262s-6.74,5.982-8.054,14.313.189,13.09.189,13.09.879-13.127,3.914-18.044,10.09-9.573,11.13-10.411a19.361,19.361,0,0,1,3.677-1.866,23.638,23.638,0,0,1-1.421-4.08,10.241,10.241,0,0,1,.124-3.647c.233-.511,4.451-2.039,6.042-6.868S308.467,154.123,306,151.7s-10.93-3.639-14.087-.514" transform="translate(-170.298 -89.339)" fill="#bdbdbd"/>
        <path id="Trazado_834100" data-name="Trazado 834100" d="M291.908,151.183s-3.771,3.523-4.051,6.3-.574,5.17-1.045,6.066-2.838,1.481-2.036,2.835,1.554,1.327,1.554,1.327,1.214,5.988,2.122,6.835,4.158.357,4.158.357l1,7.262s-6.74,5.982-8.054,14.313.189,13.09.189,13.09.879-13.127,3.914-18.044,10.09-9.573,11.13-10.411a19.361,19.361,0,0,1,3.677-1.866,23.638,23.638,0,0,1-1.421-4.08,10.241,10.241,0,0,1,.124-3.647c.233-.511,4.451-2.039,6.042-6.868S308.467,154.123,306,151.7,295.066,148.058,291.908,151.183Z" transform="translate(-170.298 -89.339)" fill="none" stroke="#263238" stroke-miterlimit="10" stroke-width="1"/>
        <path id="Trazado_834101" data-name="Trazado 834101" d="M319.315,164.649c1.591-4.829-.744-10.526-3.215-12.952s-10.93-3.639-14.087-.514c0,0-.2.19-.515.512a8.817,8.817,0,0,1,3.669-.119c2.526.414,2.471,2.426,1.784,4.334s-.171,2.267,1.118,3.227-.029,2.765.875,3.487,1.648-3.2,3.63-.378.646,4.123-.583,4.919a9.245,9.245,0,0,1-2.223,1.082,14.553,14.553,0,0,0,3.694,3.08c.875-.666,4.424-2.339,5.853-6.679" transform="translate(-180.401 -89.339)" fill="#263238"/>
        <path id="Trazado_834102" data-name="Trazado 834102" d="M319.315,164.649c1.591-4.829-.744-10.526-3.215-12.952s-10.93-3.639-14.087-.514c0,0-.2.19-.515.512a8.817,8.817,0,0,1,3.669-.119c2.526.414,2.471,2.426,1.784,4.334s-.171,2.267,1.118,3.227-.029,2.765.875,3.487,1.648-3.2,3.63-.378.646,4.123-.583,4.919a9.245,9.245,0,0,1-2.223,1.082,14.553,14.553,0,0,0,3.694,3.08C314.336,170.662,317.885,168.989,319.315,164.649Z" transform="translate(-180.401 -89.339)" fill="none" stroke="#263238" stroke-linecap="round" stroke-linejoin="round" stroke-width="1"/>
        <path id="Trazado_834103" data-name="Trazado 834103" d="M293.984,195.684s2.63-.217,3.846-1.39" transform="translate(-175.906 -116.256)" fill="none" stroke="#263238" stroke-miterlimit="10" stroke-width="1"/>
        <path id="Trazado_834104" data-name="Trazado 834104" d="M296.452,180.631c.022.624-.213,1.138-.525,1.149s-.582-.486-.6-1.109.213-1.138.525-1.149.582.486.6,1.109" transform="translate(-176.706 -107.417)" fill="#263238"/>
        <path id="Trazado_834105" data-name="Trazado 834105" d="M295.32,175.277s.848-1.139,2.06.2" transform="translate(-176.705 -104.608)" fill="none" stroke="#263238" stroke-miterlimit="10" stroke-width="1"/>
        <path id="Trazado_834106" data-name="Trazado 834106" d="M304.524,211.264l3.134-1.182-2.183,3.924Z" transform="translate(-182.213 -125.702)" fill="#263238"/>
        <path id="Trazado_834107" data-name="Trazado 834107" d="M304.524,211.264l3.134-1.182-2.183,3.924Z" transform="translate(-182.213 -125.702)" fill="none" stroke="#263238" stroke-miterlimit="10" stroke-width="1"/>
        <path id="Trazado_834108" data-name="Trazado 834108" d="M275.9,356.549l-4.114,17.326,3.692.857,2.031-12.668Z" transform="translate(-162.625 -213.342)" fill="#fff"/>
        <path id="Trazado_834109" data-name="Trazado 834109" d="M275.9,356.549l-4.114,17.326,3.692.857,2.031-12.668Z" transform="translate(-162.625 -213.342)" fill="none" stroke="#263238" stroke-miterlimit="10" stroke-width="1"/>
        <path id="Trazado_834110" data-name="Trazado 834110" d="M287.814,253.292a21.107,21.107,0,0,0-1.654,5.4c-1.313,8.331.189,13.09.189,13.09s.868-12.951,3.856-17.942a10.638,10.638,0,0,1-2.391-.549" transform="translate(-170.903 -151.558)" fill="#fff"/>
        <path id="Trazado_834111" data-name="Trazado 834111" d="M287.814,253.292a21.107,21.107,0,0,0-1.654,5.4c-1.313,8.331.189,13.09.189,13.09s.868-12.951,3.856-17.942A10.638,10.638,0,0,1,287.814,253.292Z" transform="translate(-170.903 -151.558)" fill="none" stroke="#263238" stroke-miterlimit="10" stroke-width="1"/>
        <path id="Trazado_834112" data-name="Trazado 834112" d="M283.976,248.2l-.283,14.7-25.727,4.24.565,6.926s14.277.283,20.921-.283,12.439-.989,13.288-1.7,3.256-14.371,4.245-23.983-.989-12.864-4.948-12.3" transform="translate(-154.355 -141.059)" fill="#33ece0"/>
        <path id="Trazado_834113" data-name="Trazado 834113" d="M283.976,248.2l-.283,14.7-25.727,4.24.565,6.926s14.277.283,20.921-.283,12.439-.989,13.288-1.7,3.256-14.371,4.245-23.983-.989-12.864-4.948-12.3" transform="translate(-154.355 -141.059)" fill="none" stroke="#263238" stroke-miterlimit="10" stroke-width="1"/>
        <path id="Trazado_834114" data-name="Trazado 834114" d="M216.589,311.377l-2.056,6.252,2.024,1.093s2.55,1.975,3.948,3.044,2.468,1.069,3.208.74,4.113-5.1,4.525-6-1.563-3.619-3.537-4.771a6.022,6.022,0,0,0-4.771-.823,21.328,21.328,0,0,1-3.34.47" transform="translate(-128.366 -185.919)" fill="#fff"/>
        <path id="Trazado_834115" data-name="Trazado 834115" d="M216.589,311.377l-2.056,6.252,2.024,1.093s2.55,1.975,3.948,3.044,2.468,1.069,3.208.74,4.113-5.1,4.525-6-1.563-3.619-3.537-4.771a6.022,6.022,0,0,0-4.771-.823A21.328,21.328,0,0,1,216.589,311.377Z" transform="translate(-128.366 -185.919)" fill="none" stroke="#263238" stroke-miterlimit="10" stroke-width="1"/>
        <path id="Trazado_834116" data-name="Trazado 834116" d="M234.591,312.65l-3.251-.283a21.115,21.115,0,0,0-3.11-.566,5.428,5.428,0,0,0-2.544,1.272c-.565.424-6.785,7.209-6.785,7.209s.566,1.131,1.413.848,2.4-.99,2.4-.99-1.7,1.7-.848,2.544a3.584,3.584,0,0,0,2.262.848l.99-.565a3.953,3.953,0,0,0,1.413.707,4.645,4.645,0,0,0,2.827-.707,26.36,26.36,0,0,0,3.5-3.514l2.172-.84Z" transform="translate(-130.979 -186.567)" fill="#bdbdbd"/>
        <path id="Trazado_834117" data-name="Trazado 834117" d="M234.591,312.65l-3.251-.283a21.115,21.115,0,0,0-3.11-.566,5.428,5.428,0,0,0-2.544,1.272c-.565.424-6.785,7.209-6.785,7.209s.566,1.131,1.413.848,2.4-.99,2.4-.99-1.7,1.7-.848,2.544a3.584,3.584,0,0,0,2.262.848l.99-.565a3.953,3.953,0,0,0,1.413.707,4.645,4.645,0,0,0,2.827-.707,26.36,26.36,0,0,0,3.5-3.514l2.172-.84Z" transform="translate(-130.979 -186.567)" fill="none" stroke="#263238" stroke-miterlimit="10" stroke-width="1"/>
        <path id="Trazado_834118" data-name="Trazado 834118" d="M222.439,310.288s4.113-2.385,5.922-1.728,4.2,4.689,3.537,5.264a1.765,1.765,0,0,1-2.3-.247,9.32,9.32,0,0,0-1.563-1.152,7.741,7.741,0,0,1-3.537.987" transform="translate(-133.097 -184.559)" fill="#fff"/>
        <path id="Trazado_834119" data-name="Trazado 834119" d="M222.439,310.288s4.113-2.385,5.922-1.728,4.2,4.689,3.537,5.264a1.765,1.765,0,0,1-2.3-.247,9.32,9.32,0,0,0-1.563-1.152,7.741,7.741,0,0,1-3.537.987" transform="translate(-133.097 -184.559)" fill="none" stroke="#263238" stroke-miterlimit="10" stroke-width="1"/>
        <path id="Trazado_834120" data-name="Trazado 834120" d="M250.319,332.7l-1.306-.7a.9.9,0,0,1,.853-1.6l1.306.7a.9.9,0,1,1-.853,1.6" transform="translate(-148.711 -197.638)" fill="#fff"/>
        <path id="Trazado_834121" data-name="Trazado 834121" d="M250.319,332.7l-1.306-.7a.9.9,0,0,1,.853-1.6l1.306.7a.9.9,0,1,1-.853,1.6Z" transform="translate(-148.711 -197.638)" fill="none" stroke="#263238" stroke-miterlimit="10" stroke-width="1"/>
        <path id="Trazado_834122" data-name="Trazado 834122" d="M247.452,336.185l-1.306-.7a.9.9,0,0,1,.853-1.6l1.306.7a.9.9,0,1,1-.853,1.6" transform="translate(-146.995 -199.721)" fill="#fff"/>
        <path id="Trazado_834123" data-name="Trazado 834123" d="M247.452,336.185l-1.306-.7a.9.9,0,0,1,.853-1.6l1.306.7a.9.9,0,1,1-.853,1.6Z" transform="translate(-146.995 -199.721)" fill="none" stroke="#263238" stroke-miterlimit="10" stroke-width="1"/>
        <path id="Trazado_834124" data-name="Trazado 834124" d="M244.175,339.257l-1.306-.7a.9.9,0,0,1,.853-1.6l1.306.7a.9.9,0,1,1-.853,1.6" transform="translate(-145.035 -201.559)" fill="#fff"/>
        <path id="Trazado_834125" data-name="Trazado 834125" d="M244.175,339.257l-1.306-.7a.9.9,0,0,1,.853-1.6l1.306.7a.9.9,0,1,1-.853,1.6Z" transform="translate(-145.035 -201.559)" fill="none" stroke="#263238" stroke-miterlimit="10" stroke-width="1"/>
        <path id="Trazado_834126" data-name="Trazado 834126" d="M238.707,340.177l-.343-.184a.9.9,0,1,1,.853-1.6l.343.183a.9.9,0,1,1-.853,1.6" transform="translate(-142.339 -202.417)" fill="#fff"/>
        <path id="Trazado_834127" data-name="Trazado 834127" d="M238.707,340.177l-.343-.184a.9.9,0,1,1,.853-1.6l.343.183a.9.9,0,1,1-.853,1.6Z" transform="translate(-142.339 -202.417)" fill="none" stroke="#263238" stroke-miterlimit="10" stroke-width="1"/>
        <path id="Trazado_834128" data-name="Trazado 834128" d="M193.934,301.488l-17.264-7.3.638,11.434,14.256,3.267Z" transform="translate(-105.711 -176.03)" fill="#263238"/>
        <path id="Trazado_834129" data-name="Trazado 834129" d="M193.934,301.488l-17.264-7.3.638,11.434,14.256,3.267Z" transform="translate(-105.711 -176.03)" fill="none" stroke="#263238" stroke-linecap="round" stroke-linejoin="round" stroke-width="1"/>
        <path id="Trazado_834130" data-name="Trazado 834130" d="M210.32,318.176l2.37-7.4-2.414-1.065-.048.242-2.213,7.667Z" transform="translate(-124.467 -185.314)" fill="#fff"/>
        <path id="Trazado_834131" data-name="Trazado 834131" d="M210.32,318.176l2.37-7.4-2.414-1.065-.048.242-2.213,7.667Z" transform="translate(-124.467 -185.314)" fill="none" stroke="#263238" stroke-miterlimit="10" stroke-width="1"/>
        <path id="Trazado_834132" data-name="Trazado 834132" d="M152.564,198.48l4.428,2.054s1.855,5.256,1.237,5.411-5.256-3.556-5.256-3.556Z" transform="translate(-91.287 -118.761)" fill="#fff"/>
        <path id="Trazado_834133" data-name="Trazado 834133" d="M152.564,198.48l4.428,2.054s1.855,5.256,1.237,5.411-5.256-3.556-5.256-3.556Z" transform="translate(-91.287 -118.761)" fill="none" stroke="#263238" stroke-linecap="round" stroke-linejoin="round" stroke-width="1"/>
        <path id="Trazado_834134" data-name="Trazado 834134" d="M137.185,152.675l.311-1.77s4.1.282,5.734.271,3.069-.224,3.059-1.964-.969-7.671-.969-7.671a5.925,5.925,0,0,0,2.551-1.244c.711-.823-.319-1.84-1.248-3.063a7.921,7.921,0,0,1-1.867-3.98c-.111-1.432-2.6-6.125-2.6-6.125s.4-.719-.935-2.246-8.2-1.792-12.588.385-5.391,5.356-5.37,8.836,2,8.381,2,8.381-1.3,5.331-1.4,5.638S122.6,150.7,122.6,150.7s5.487,3.83,7.495,5.547,6.528,4.66,6.556,3.071.209-5.183.209-5.183Z" transform="translate(-73.36 -74.008)" fill="#fff"/>
        <path id="Trazado_834135" data-name="Trazado 834135" d="M137.185,152.675l.311-1.77s4.1.282,5.734.271,3.069-.224,3.059-1.964-.969-7.671-.969-7.671a5.925,5.925,0,0,0,2.551-1.244c.711-.823-.319-1.84-1.248-3.063a7.921,7.921,0,0,1-1.867-3.98c-.111-1.432-2.6-6.125-2.6-6.125s.4-.719-.935-2.246-8.2-1.792-12.588.385-5.391,5.356-5.37,8.836,2,8.381,2,8.381-1.3,5.331-1.4,5.638S122.6,150.7,122.6,150.7s5.487,3.83,7.495,5.547,6.528,4.66,6.556,3.071.209-5.183.209-5.183Z" transform="translate(-73.36 -74.008)" fill="none" stroke="#263238" stroke-linecap="round" stroke-linejoin="round" stroke-width="1"/>
        <path id="Trazado_834136" data-name="Trazado 834136" d="M172.907,152.928c.027.593-.112,1.081-.31,1.09s-.379-.464-.406-1.057.112-1.081.309-1.09.38.465.406,1.058" transform="translate(-103.029 -90.872)" fill="#263238"/>
        <path id="Trazado_834137" data-name="Trazado 834137" d="M166.813,148.243s.912-1.541,3.271-.635" transform="translate(-99.813 -88.151)" fill="none" stroke="#263238" stroke-linecap="round" stroke-linejoin="round" stroke-width="2"/>
        <path id="Trazado_834138" data-name="Trazado 834138" d="M147.275,149.212c-.011-1.74-.969-7.671-.969-7.671a4.885,4.885,0,0,0-3.276-.082c-2.146.525-2.739,4.009-3.146,4.421s-3.083-2.028-4.117-3.659a15.68,15.68,0,0,1-1.88-6.13c-.112-1.637,3.772-2.48,4.376-4.019s-2.271-3.159-1.254-4.189,3.067-.633,4.092-.435a3.608,3.608,0,0,0,2.045-.32s.4-.719-.935-2.246-8.2-1.791-12.588.385-5.391,5.356-5.37,8.836A27.124,27.124,0,0,0,126.064,142a3.279,3.279,0,0,0,1.311.275c.409-.105.708-1.335.905-2.565s3.156-2.681,3.156-2.681.535,3.682.539,4.4-.383,4.3,1.572,6.029a36.658,36.658,0,0,0,4.935,3.449s4.1.282,5.734.271,3.069-.224,3.059-1.964" transform="translate(-74.347 -74.008)" fill="#263238"/>
        <path id="Trazado_834139" data-name="Trazado 834139" d="M147.275,149.212c-.011-1.74-.969-7.671-.969-7.671a4.885,4.885,0,0,0-3.276-.082c-2.146.525-2.739,4.009-3.146,4.421s-3.083-2.028-4.117-3.659a15.68,15.68,0,0,1-1.88-6.13c-.112-1.637,3.772-2.48,4.376-4.019s-2.271-3.159-1.254-4.189,3.067-.633,4.092-.435a3.608,3.608,0,0,0,2.045-.32s.4-.719-.935-2.246-8.2-1.791-12.588.385-5.391,5.356-5.37,8.836A27.124,27.124,0,0,0,126.064,142a3.279,3.279,0,0,0,1.311.275c.409-.105.708-1.335.905-2.565s3.156-2.681,3.156-2.681.535,3.682.539,4.4-.383,4.3,1.572,6.029a36.658,36.658,0,0,0,4.935,3.449s4.1.282,5.734.271S147.286,150.952,147.275,149.212Z" transform="translate(-74.347 -74.008)" fill="none" stroke="#263238" stroke-linecap="round" stroke-linejoin="round" stroke-width="1"/>
        <path id="Trazado_834140" data-name="Trazado 834140" d="M137.654,156.261s-.849-4.908-2.281-4.694-2.239,2.061-1.508,4.41,2.163,2.136,2.981,1.926" transform="translate(-79.934 -90.686)" fill="#fff"/>
        <path id="Trazado_834141" data-name="Trazado 834141" d="M137.654,156.261s-.849-4.908-2.281-4.694-2.239,2.061-1.508,4.41,2.163,2.136,2.981,1.926" transform="translate(-79.934 -90.686)" fill="none" stroke="#263238" stroke-linecap="round" stroke-linejoin="round" stroke-width="1"/>
        <path id="Trazado_834142" data-name="Trazado 834142" d="M168.739,172.538a3.793,3.793,0,0,0,2.975,1" transform="translate(-100.965 -103.238)" fill="none" stroke="#fff" stroke-linecap="round" stroke-linejoin="round" stroke-width="1"/>
        <path id="Trazado_834143" data-name="Trazado 834143" d="M106.539,382.875h21.687c.075-1.139.915-5.527.915-8.4,0-3.325,2.287-24.752,2.287-24.752l-28.207-.37.923,13.115Z" transform="translate(-61.762 -209.036)" fill="#263238"/>
        <path id="Trazado_834144" data-name="Trazado 834144" d="M106.539,382.875h21.687c.075-1.139.915-5.527.915-8.4,0-3.325,2.287-24.752,2.287-24.752l-28.207-.37.923,13.115Z" transform="translate(-61.762 -209.036)" fill="none" stroke="#263238" stroke-linecap="round" stroke-linejoin="round" stroke-width="1"/>
        <path id="Trazado_834145" data-name="Trazado 834145" d="M103.122,192.818s-4.947,6.338-6.338,9.894-2.474,4.174-2.164,8.658,2.474,22.416,2.474,22.416L92.764,257.13a47.353,47.353,0,0,0,15.924,2.783c8.966,0,12.831-.773,13.45-1.082s6.03-1.7,6.03-1.7,0-26.436-1.7-35.557a105.027,105.027,0,0,0-4.638-17.779c-.773-1.7-3.247-7.266-3.247-7.266Z" transform="translate(-55.506 -115.373)" fill="#263238"/>
        <path id="Trazado_834146" data-name="Trazado 834146" d="M103.122,192.818s-4.947,6.338-6.338,9.894-2.474,4.174-2.164,8.658,2.474,22.416,2.474,22.416L92.764,257.13a47.353,47.353,0,0,0,15.924,2.783c8.966,0,12.831-.773,13.45-1.082s6.03-1.7,6.03-1.7,0-26.436-1.7-35.557a105.027,105.027,0,0,0-4.638-17.779c-.773-1.7-3.247-7.266-3.247-7.266Z" transform="translate(-55.506 -115.373)" fill="none" stroke="#263238" stroke-linecap="round" stroke-linejoin="round" stroke-width="1"/>
        <path id="Trazado_834147" data-name="Trazado 834147" d="M133.817,203.794c-.773-1.7-3.247-7.266-3.247-7.266l-15.46-3.71s-1.046,1.341-2.311,3.133c3.369,1.959,11.712,6.792,12.2,6.916a25.149,25.149,0,0,0,3.71-.155l-1.391,1.7s3.71,2.937,4.947,4.174c.65.65,2.54,2.369,4.186,3.853a66.7,66.7,0,0,0-2.64-8.645" transform="translate(-67.494 -115.373)" fill="#263238"/>
        <path id="Trazado_834148" data-name="Trazado 834148" d="M133.817,203.794c-.773-1.7-3.247-7.266-3.247-7.266l-15.46-3.71s-1.046,1.341-2.311,3.133c3.369,1.959,11.712,6.792,12.2,6.916a25.149,25.149,0,0,0,3.71-.155l-1.391,1.7s3.71,2.937,4.947,4.174c.65.65,2.54,2.369,4.186,3.853A66.7,66.7,0,0,0,133.817,203.794Z" transform="translate(-67.494 -115.373)" fill="none" stroke="#263238" stroke-linecap="round" stroke-linejoin="round" stroke-width="1"/>
        <path id="Trazado_834149" data-name="Trazado 834149" d="M147.421,206.608l5.256,4.174,4.329,7.73-2.783-11.286-5.72-3.247Z" transform="translate(-88.21 -122.052)" fill="#fff"/>
        <path id="Trazado_834150" data-name="Trazado 834150" d="M147.421,206.608l5.256,4.174,4.329,7.73-2.783-11.286-5.72-3.247Z" transform="translate(-88.21 -122.052)" fill="none" stroke="#263238" stroke-linecap="round" stroke-linejoin="round" stroke-width="1"/>
        <path id="Trazado_834151" data-name="Trazado 834151" d="M117.793,185.5l16.189,7.294v5.72l-18.508-9.458Z" transform="translate(-69.094 -110.997)" fill="#fff"/>
        <path id="Trazado_834152" data-name="Trazado 834152" d="M117.793,185.5l16.189,7.294v5.72l-18.508-9.458Z" transform="translate(-69.094 -110.997)" fill="none" stroke="#263238" stroke-linecap="round" stroke-linejoin="round" stroke-width="1"/>
        <rect id="Rectángulo_385111" data-name="Rectángulo 385111" width="27.97" height="22.631" transform="translate(42.132 133.017)" fill="#33ece0"/>
        <rect id="Rectángulo_385112" data-name="Rectángulo 385112" width="27.97" height="22.631" transform="translate(42.132 133.017)" fill="none" stroke="#263238" stroke-miterlimit="10" stroke-width="1"/>
        <path id="Trazado_834153" data-name="Trazado 834153" d="M134.43,358.031s2.08,2.713,2.893,2.984a3.23,3.23,0,0,1,1.628,1.447c.361.542.814,4.611,1.085,4.883s.272.9-.723.452a4.288,4.288,0,0,1-1.627-1.989l.361,3.617s.814.181.181.633-1.176,1.085-1.718.814a8.589,8.589,0,0,1-1.356-.995,4.333,4.333,0,0,1-1.989.181c-.994-.181-.814.181-1.718-.452s-.9.09-1.356-1.085a56.186,56.186,0,0,1-1.718-6.42c-.181-1.176-.362-2.8-.362-2.8Z" transform="translate(-76.595 -214.229)" fill="#fff"/>
        <path id="Trazado_834154" data-name="Trazado 834154" d="M134.43,358.031s2.08,2.713,2.893,2.984a3.23,3.23,0,0,1,1.628,1.447c.361.542.814,4.611,1.085,4.883s.272.9-.723.452a4.288,4.288,0,0,1-1.627-1.989l.361,3.617s.814.181.181.633-1.176,1.085-1.718.814a8.589,8.589,0,0,1-1.356-.995,4.333,4.333,0,0,1-1.989.181c-.994-.181-.814.181-1.718-.452s-.9.09-1.356-1.085a56.186,56.186,0,0,1-1.718-6.42c-.181-1.176-.362-2.8-.362-2.8Z" transform="translate(-76.595 -214.229)" fill="none" stroke="#263238" stroke-linecap="round" stroke-linejoin="round" stroke-width="1"/>
        <path id="Trazado_834155" data-name="Trazado 834155" d="M133.714,353.753l.633,2.8-7.777,1.085-.361-2.8Z" transform="translate(-75.518 -211.669)" fill="#fff"/>
        <path id="Trazado_834156" data-name="Trazado 834156" d="M133.714,353.753l.633,2.8-7.777,1.085-.361-2.8Z" transform="translate(-75.518 -211.669)" fill="none" stroke="#263238" stroke-linecap="round" stroke-linejoin="round" stroke-width="1"/>
        <path id="Trazado_834157" data-name="Trazado 834157" d="M109.767,206.674s-5.411,1.7-5.566,4.174-1.946,32.479-1.173,34.489,8.382,22.361,8.382,22.361l8.812-1.082s-4.517-23.6-4.672-24.061,3.028-26.759,3.028-26.759" transform="translate(-61.532 -123.664)" fill="#263238"/>
        <path id="Trazado_834158" data-name="Trazado 834158" d="M109.767,206.674s-5.411,1.7-5.566,4.174-1.946,32.479-1.173,34.489,8.382,22.361,8.382,22.361l8.812-1.082s-4.517-23.6-4.672-24.061,3.028-26.759,3.028-26.759" transform="translate(-61.532 -123.664)" fill="none" stroke="#263238" stroke-linecap="round" stroke-linejoin="round" stroke-width="1"/>
        <path id="Trazado_834159" data-name="Trazado 834159" d="M136.484,248.188l-1.991,19.206,1.9,11.934" transform="translate(-80.474 -148.504)" fill="none" stroke="#878787" stroke-linecap="round" stroke-linejoin="round" stroke-width="1"/>
        <line id="Línea_739" data-name="Línea 739" x1="0.106" y2="1.021" transform="translate(56.209 96.744)" fill="none" stroke="#878787" stroke-linecap="round" stroke-linejoin="round" stroke-width="1"/>
        <line id="Línea_740" data-name="Línea 740" x1="0.594" y2="18.031" transform="translate(41.454 93.771)" fill="none" stroke="#878787" stroke-linecap="round" stroke-linejoin="round" stroke-width="1"/>
        <path id="Trazado_834160" data-name="Trazado 834160" d="M149.992,317.548l5.944-.216.533,2.14-9.845.634" transform="translate(-87.732 -189.876)" fill="none" stroke="#878787" stroke-linecap="round" stroke-linejoin="round" stroke-width="1"/>
        <line id="Línea_741" data-name="Línea 741" y1="0.115" x2="3.166" transform="translate(57.306 127.736)" fill="none" stroke="#878787" stroke-linecap="round" stroke-linejoin="round" stroke-width="1"/>
        <path id="Trazado_834161" data-name="Trazado 834161" d="M116.037,201.894l10.9,6.4,3.71-.155-1.391,1.7,7.185,5.723" transform="translate(-69.431 -120.804)" fill="none" stroke="#878787" stroke-linecap="round" stroke-linejoin="round" stroke-width="1"/>
      </g>
    </g>
    <g id="Grupo_1017731" data-name="Grupo 1017731">
      <g id="Grupo_1017730" data-name="Grupo 1017730" clip-path="url(#clip-path)">
        <line id="Línea_742" data-name="Línea 742" x2="183.35" transform="translate(0 173.839)" fill="none" stroke="#263238" stroke-miterlimit="10" stroke-width="1"/>
      </g>
    </g>
    <line id="Línea_743" data-name="Línea 743" y2="27.147" transform="translate(51.815 8.317)" fill="none" stroke="#263238" stroke-miterlimit="10" stroke-width="1"/>
    <line id="Línea_744" data-name="Línea 744" y2="27.147" transform="translate(93.515 8.317)" fill="none" stroke="#263238" stroke-miterlimit="10" stroke-width="1"/>
    <line id="Línea_745" data-name="Línea 745" y2="27.147" transform="translate(135.216 8.317)" fill="none" stroke="#263238" stroke-miterlimit="10" stroke-width="1"/>
  </g>
</svg>
