<svg xmlns="http://www.w3.org/2000/svg" xmlns:xlink="http://www.w3.org/1999/xlink" width="358" height="251" viewBox="0 0 358 251">
  <defs>
    <clipPath id="clip-path">
      <rect id="Rectángulo_347663" data-name="Rectángulo 347663" width="358" height="251" transform="translate(180.618 2948.179)" fill="#fff" stroke="#707070" stroke-width="1"/>
    </clipPath>
    <clipPath id="clip-path-2">
      <rect id="Rectángulo_347662" data-name="Rectángulo 347662" width="358.361" height="368.248" fill="none"/>
    </clipPath>
    <clipPath id="clip-path-4">
      <rect id="Rectángulo_347648" data-name="Rectángulo 347648" width="339.3" height="211.721" fill="none"/>
    </clipPath>
    <clipPath id="clip-path-5">
      <rect id="Rectángulo_347649" data-name="Rectángulo 347649" width="44.956" height="38.315" fill="none"/>
    </clipPath>
    <clipPath id="clip-path-6">
      <rect id="Rectángulo_347650" data-name="Rectángulo 347650" width="10.944" height="41.906" fill="none"/>
    </clipPath>
    <clipPath id="clip-path-7">
      <rect id="Rectángulo_347654" data-name="Rectángulo 347654" width="44.865" height="33.64" fill="none"/>
    </clipPath>
    <clipPath id="clip-path-8">
      <rect id="Rectángulo_347655" data-name="Rectángulo 347655" width="39.452" height="42.203" fill="none"/>
    </clipPath>
    <clipPath id="clip-path-9">
      <rect id="Rectángulo_347656" data-name="Rectángulo 347656" width="17.705" height="40.803" fill="none"/>
    </clipPath>
    <clipPath id="clip-path-10">
      <rect id="Rectángulo_347657" data-name="Rectángulo 347657" width="76.339" height="125.724" fill="none"/>
    </clipPath>
    <clipPath id="clip-path-11">
      <path id="Trazado_609087" data-name="Trazado 609087" d="M546.3,195.087c-1.735.217-4.791,4.835-7.4,8.908a30.1,30.1,0,0,0-4.7,14.78L527.783,315.9,595.8,320.24s10.383-85.688,8.812-106.35-26.522-23.21-26.522-23.21l-3.815-2.786Z" transform="translate(-527.783 -187.894)" fill="none"/>
    </clipPath>
    <clipPath id="clip-path-13">
      <rect id="Rectángulo_347659" data-name="Rectángulo 347659" width="8.048" height="13.364" fill="none"/>
    </clipPath>
    <clipPath id="clip-path-14">
      <path id="Trazado_609100" data-name="Trazado 609100" d="M616.074,213.452l-14.312,37.2,38.223,18.354c5.188-8.58,5.515-64.125-7.8-69.1a12.281,12.281,0,0,0-4.3-.849c-9.638,0-11.81,14.394-11.81,14.394" transform="translate(-601.762 -199.058)" fill="none"/>
    </clipPath>
  </defs>
  <g id="Enmascarar_grupo_69" data-name="Enmascarar grupo 69" transform="translate(-180.618 -2948.179)" clip-path="url(#clip-path)">
    <g id="Grupo_1017554" data-name="Grupo 1017554" transform="translate(180.008 2960.254)">
      <g id="Grupo_1017553" data-name="Grupo 1017553" clip-path="url(#clip-path-2)">
        <g id="Grupo_1017541" data-name="Grupo 1017541">
          <g id="Grupo_1017540" data-name="Grupo 1017540" clip-path="url(#clip-path-2)">
            <g id="Grupo_1017521" data-name="Grupo 1017521" transform="translate(9.531 26.843)" opacity="0.73">
              <g id="Grupo_1017520" data-name="Grupo 1017520">
                <g id="Grupo_1017519" data-name="Grupo 1017519" clip-path="url(#clip-path-4)">
                  <path id="Trazado_608965" data-name="Trazado 608965" d="M358.708,267.9c1.356-4.32-.015-9.684-2.263-13.885-2.967-5.542-7.239-10.686-7.949-16.947-1.348-11.895,10.6-21.955,10.1-33.917-.591-14.26-18.268-23.438-18.333-37.711-.06-13.367,15.65-23.679,13.461-36.861-1.961-11.811-16.229-16.1-24.877-24.286-8.5-8.04-10.032-21.919-19-29.452-7.1-5.964-14.986-10.294-24.47-10.538-6.234-.16-11.444,1.755-17.344,3.254-15.2,3.861-30.747-6.722-45.247-9.734a81.818,81.818,0,0,0-34.655.436c-8.119,1.884-15.954,4.774-24.005,6.9a45.451,45.451,0,0,1-23.054.374c-19.275-4.208-48.9,7.914-62.462,19.5-15.04,12.847-15.712,29.425-22.813,48.025-6.873,18-8.634,37.779-16.523,55.349-4.35,9.687-10.482,18.5-14.419,28.37a70.686,70.686,0,0,0-.239,51.12Z" transform="translate(-19.946 -56.179)" fill="#8aeadf"/>
                </g>
              </g>
            </g>
            <path id="Trazado_608966" data-name="Trazado 608966" d="M231.074,186.173s-23.134,35.388-29.417,30.956c0,0-10.114-5.159-6.49-25.93.007-2.017.017-3.416-.054-3.732,0,0-1.558-20.506-4.929-24.754-.37-.466-1.487-1.333-1.338-1.37,10.295-2.574,14.419,19.356,17.258,31.329.118.5,19.583-14.69,19.583-14.69s10.294-13.61,11.011-12.833c1.041,1.127-2.948,7.2-2.948,7.2a2.045,2.045,0,0,0,1.04,1.04,2.465,2.465,0,0,1,1.474,1.907c.26,1.041,1.3,1.648,1.474,2.255s-4.468,7.034-6.665,8.624" transform="translate(-98.606 -84.143)" fill="#ff9783"/>
            <path id="Trazado_608967" data-name="Trazado 608967" d="M266.688,189.954s2.081-5.9,2.948-5.723,4.682,1.821,4.6,3.295-3.381.26-3.381.26.607,3.295-1.04,3.728-3.122-1.561-3.122-1.561" transform="translate(-139.261 -96.201)" fill="#ff9783"/>
            <path id="Trazado_608968" data-name="Trazado 608968" d="M277.328,191.131s-.087,1.474,1.127,1.734a1.46,1.46,0,0,0,1.82,1.214s-.433.693.52.867c0,0-4.075,4.422-3.468-3.815" transform="translate(-144.784 -99.806)" fill="#cf604b"/>
            <path id="Trazado_608969" data-name="Trazado 608969" d="M275.761,185.138c.6.264,1.776.821,2.356,1.116a9.061,9.061,0,0,1,1.163.62.806.806,0,0,1,.236,1.269,3.772,3.772,0,0,1-2.553.637c-.617-.019-.715-.05-.569.612l.185,1.29c-.032.038-.246-1.281-.258-1.276-.013-.184-.162-.48,0-.632.19-.141.428-.075.638-.089a6.3,6.3,0,0,0,1.293-.105c.538-.135,1.474-.4,1.339-1.113-.241-.628-.991-.811-1.523-1.127,0-.006-2.351-1.184-2.311-1.2" transform="translate(-143.998 -96.676)" fill="#d17966"/>
            <path id="Trazado_608970" data-name="Trazado 608970" d="M281.557,184.245a3.613,3.613,0,0,1-1.349,1.343c.444-.44.893-.95,1.349-1.343" transform="translate(-146.321 -96.21)" fill="#d17966"/>
            <path id="Trazado_608971" data-name="Trazado 608971" d="M281.957,188.826c-.572.849-3.389,3.868-4.355,2.568l.012-.009c.741.756,1.712-.269,2.355-.7a15.776,15.776,0,0,0,1.989-1.862" transform="translate(-144.96 -98.602)" fill="#d17966"/>
            <path id="Trazado_608972" data-name="Trazado 608972" d="M279.621,193.436c.552,2.391,2.119,1.133,3.215-.081.006.008,1.095-1.171,1.1-1.127-.855.953-1.615,2.186-2.859,2.65-.9.294-1.421-.711-1.458-1.442" transform="translate(-146.014 -100.378)" fill="#d17966"/>
            <path id="Trazado_608973" data-name="Trazado 608973" d="M283.4,196.757a2.5,2.5,0,0,0,.548,1.259c.492.3,1.2-.033,1.735-.145.142-.037.279-.185.4-.242a1.323,1.323,0,0,1-.367.312c-.569.184-1.3.548-1.854.16a2.126,2.126,0,0,1-.465-1.344" transform="translate(-147.984 -102.744)" fill="#d17966"/>
            <path id="Trazado_608974" data-name="Trazado 608974" d="M105.113,117.909s2.952-7.075,5.445-7.75a6.7,6.7,0,0,1,3.932-.1l25.237-32.367c.826-2.074-1.714-8.219-3.313-9.786-4.379-4.292-10.625-6.374-16.749-6.682C99.7,60.218,90.4,109.541,77.8,116.635c0,0,9.862,11.345,25.148,13.126" transform="translate(-40.627 -31.962)" fill="#1a004c"/>
            <path id="Trazado_608975" data-name="Trazado 608975" d="M77.733,111.726C84.1,103.867,88.612,94.882,93.335,86c3.745-7.044,7.907-14.7,14.953-18.945a25.976,25.976,0,0,1,13.73-3.414.206.206,0,0,0,0-.411,24.928,24.928,0,0,0-21.117,9.89,68.891,68.891,0,0,0-6.845,10.672c-2.278,4.18-4.4,8.441-6.712,12.605a103.232,103.232,0,0,1-9.9,15.036c-.165.2.124.5.291.291" transform="translate(-40.414 -33.018)" fill="#1a004c"/>
            <path id="Trazado_608976" data-name="Trazado 608976" d="M154.377,87.62a.519.519,0,0,1-.639.389c-1.193-.317-3.882-1.29-5.086,1.732-1.217,3.055,1.329,5.617,3.113,6.188.515.165,1.693.586,1.947,1.064.78,1.469.911,4.2.613,7.635-.645,7.412-5.111,10.313-5.111,10.313s14.929,13.136,17.155,3.891c0,0,2.939-17.308,3.048-17.373,1.837-1.077,7.66-.226,7.248-13.218-.381-12.035-8.788-13.378-10.968-13.552-1.84-.147-8.045-1.357-11.32,12.93" transform="translate(-77.458 -38.957)" fill="#ff9783"/>
            <path id="Trazado_608977" data-name="Trazado 608977" d="M177.8,73.776S162.4,85.934,160.072,86.67c0,0-2.989-20.523,17.731-12.894" transform="translate(-83.509 -37.637)" fill="#1a004c"/>
            <path id="Trazado_608978" data-name="Trazado 608978" d="M151.345,107.817s2.909-3.47,3.907,2.457" transform="translate(-79.03 -55.773)" fill="#d17966"/>
            <path id="Trazado_608979" data-name="Trazado 608979" d="M178.792,107.453A2.9,2.9,0,1,1,175.3,109.6a2.9,2.9,0,0,1,3.489-2.152" transform="translate(-91.5 -56.069)" fill="#cf604b"/>
            <path id="Trazado_608980" data-name="Trazado 608980" d="M204.743,110.194a2.9,2.9,0,0,1,.41-5.411s.388,3.415-.41,5.411" transform="translate(-106.039 -54.716)" fill="#cf604b"/>
            <path id="Trazado_608981" data-name="Trazado 608981" d="M197.146,111.795l-4.831,1.014s1.694,2.067,3.042,1.529,1.789-2.544,1.789-2.544" transform="translate(-100.424 -58.378)" fill="#fff"/>
            <path id="Trazado_608982" data-name="Trazado 608982" d="M197.138,103.512l-.12,3.228,1.657-.269a.408.408,0,0,0,.257-.653Z" transform="translate(-102.88 -54.052)" fill="#d17966"/>
            <path id="Trazado_608983" data-name="Trazado 608983" d="M186.223,96.284c-.506.421.181-1.331.9-1.588a1.3,1.3,0,0,1,1.7.658,4.051,4.051,0,0,0-2.6.93" transform="translate(-97.152 -49.4)" fill="#262b4d"/>
            <path id="Trazado_608984" data-name="Trazado 608984" d="M201.982,94.559c.569.333-.4-1.283-1.148-1.418a1.3,1.3,0,0,0-1.571.929,4.053,4.053,0,0,1,2.718.489" transform="translate(-104.053 -48.624)" fill="#262b4d"/>
            <path id="Trazado_608985" data-name="Trazado 608985" d="M190.328,102.976c.073.565.354.994.628.958s.437-.522.364-1.087-.355-.994-.628-.959-.437.522-.364,1.087" transform="translate(-99.377 -53.204)" fill="#262b4d"/>
            <path id="Trazado_608986" data-name="Trazado 608986" d="M199.647,101.245c.07.539.338.949.6.915s.417-.5.347-1.038-.338-.949-.6-.915-.417.5-.347,1.038" transform="translate(-104.244 -52.326)" fill="#262b4d"/>
            <path id="Trazado_608987" data-name="Trazado 608987" d="M182.945,129.417a46.376,46.376,0,0,1-8.239-1.247c-2.645-.876,6.789,18.1,8.239,1.247" transform="translate(-90.986 -66.913)" fill="#262b4d"/>
            <path id="Trazado_608988" data-name="Trazado 608988" d="M174.217,77.631a10.556,10.556,0,0,1-2.584,5.068,21.732,21.732,0,0,1-4.2,3.8c-2.974,2.029-7.093,3.214-10.591,1.884-.248-.094-.355.3-.109.4,3.591,1.366,7.854.159,10.908-1.926a21.979,21.979,0,0,0,4.408-4.015,10.806,10.806,0,0,0,2.562-5.1c.044-.259-.353-.37-.4-.109" transform="translate(-81.772 -40.46)" fill="#1a004c"/>
            <path id="Trazado_608989" data-name="Trazado 608989" d="M157.7,126.525a2.489,2.489,0,1,1-1.78-3.037,2.489,2.489,0,0,1,1.78,3.037" transform="translate(-79.792 -64.441)" fill="#fff"/>
            <path id="Trazado_608990" data-name="Trazado 608990" d="M155.072,136.6a2.489,2.489,0,1,1-1.78-3.036,2.489,2.489,0,0,1,1.78,3.036" transform="translate(-78.419 -69.705)" fill="#fff"/>
            <path id="Trazado_608991" data-name="Trazado 608991" d="M160.738,117.3l-4.642,3.964-1.855-5.878Z" transform="translate(-80.542 -60.25)" fill="#7768ff"/>
            <path id="Trazado_608992" data-name="Trazado 608992" d="M154.083,662.463l2.132,15.135s3.418,10.038,6.592,6.152a31.3,31.3,0,0,1,6.316-5.939l1.042-15.735Z" transform="translate(-80.46 -345.726)" fill="#da816c"/>
            <path id="Trazado_608993" data-name="Trazado 608993" d="M162.771,664.071l.549,20.585s-10.046,1.508-6.313-5.215l-2.2-14.272Z" transform="translate(-80.84 -346.768)" fill="#ff9783"/>
            <path id="Trazado_608994" data-name="Trazado 608994" d="M66.679,663.675l-4.709,15.1s-3.585,3.143-4.878,3.062c-2.354-.148-3.588-4.209-3.588-4.209l-.388-13.951Z" transform="translate(-27.736 -346.561)" fill="#da816c"/>
            <path id="Trazado_608995" data-name="Trazado 608995" d="M59.174,655.23l-3.294,24.977s-6.752,1.783-3.019-4.941l-.823-19.213Z" transform="translate(-27.016 -342.152)" fill="#ff9783"/>
            <path id="Trazado_608996" data-name="Trazado 608996" d="M170.735,692.1,183.41,702.37c.648.482.186,1.293-.742,1.3l-18.711.151a1.092,1.092,0,0,1-1-.51l-1.411-2.893c-.408-.836-1.22-.9-1.145-.018l-.691,2.793c.037.44-4.436.32-4.476-.081a78.913,78.913,0,0,1,.718-12.868.931.931,0,0,1,.838-.648h0a1.274,1.274,0,0,1,1.046.288c1.262,1.222,5.3,4.9,7.453,4.154a15.8,15.8,0,0,0,3.893-1.906,1.328,1.328,0,0,1,1.554-.038" transform="translate(-81.026 -360.09)" fill="#f9c5f9"/>
            <path id="Trazado_608997" data-name="Trazado 608997" d="M45.283,691.671l-7.2,12.056a2.348,2.348,0,0,0,1.048,3.4c2.251,1.34,4.09,4.012,5.506,4.051,2.559.071,6.536-2.624,8.854-3.635,1.556-.678,2.774-1.672,2.582-2.973l-1.789-12.092c-.022-.15-.286-.2-.416-.087l-2.756,2.5c-.9.819-3.353.709-3.962-.271-.434-.7-1.453-2.955-1.453-2.955a.282.282,0,0,0-.417.01" transform="translate(-19.69 -361.13)" fill="#f9c5f9"/>
            <path id="Trazado_608998" data-name="Trazado 608998" d="M72.409,268.226c-5.462,9.656-8.349,16.728-11.488,29.005C57.282,311.469,23.621,431.9,21.9,457.794c4.487,1.082,39.271.924,42.105.767,9.02-25.845,21.116-109.785,24.983-126.068.594-2.5,4.462-1.953,4.16.6-2.2,18.594-15.669,96.91-21.564,125.512,2.353,1.2,38.16.931,40.878.591,2.956-31.891,18.64-152.622-5.038-191.756-10.827-1.493-24.04.458-35.019.785" transform="translate(-11.438 -139.364)" fill="#7768ff"/>
            <path id="Trazado_608999" data-name="Trazado 608999" d="M194.763,271.342a181.214,181.214,0,0,1,10.49,60.217c0,33.684-11.773,128.855-11.773,128.855" transform="translate(-101.032 -141.691)" fill="none" stroke="#fff" stroke-miterlimit="10" stroke-width="0.314"/>
            <line id="Línea_141" data-name="Línea 141" y1="186.991" x2="48.773" transform="translate(17.538 131.218)" fill="none" stroke="#fff" stroke-miterlimit="10" stroke-width="0.314"/>
            <path id="Trazado_609000" data-name="Trazado 609000" d="M137.419,276.593s-.328,30.854-14.176,28.421" transform="translate(-64.356 -144.433)" fill="none" stroke="#fff" stroke-miterlimit="10" stroke-width="0.314"/>
            <path id="Trazado_609001" data-name="Trazado 609001" d="M199.929,305.651c-13.848,2.433-11.918-30.55-11.918-30.55" transform="translate(-98.129 -143.654)" fill="none" stroke="#fff" stroke-miterlimit="10" stroke-width="0.314"/>
            <g id="Grupo_1017524" data-name="Grupo 1017524" transform="translate(51.254 128.198)" opacity="0.21" style="mix-blend-mode: multiply;isolation: isolate">
              <g id="Grupo_1017523" data-name="Grupo 1017523">
                <g id="Grupo_1017522" data-name="Grupo 1017522" clip-path="url(#clip-path-5)">
                  <path id="Trazado_609002" data-name="Trazado 609002" d="M152.224,270.01l-44.955,36.6s-.248-23.447,7.671-38.315Z" transform="translate(-107.268 -268.3)" fill="#262b4d"/>
                </g>
              </g>
            </g>
            <path id="Trazado_609003" data-name="Trazado 609003" d="M152.446,164.419c-.315.764,8.54,22.841,8.164,30.338-.378,7.553-.215,18.356.187,19.492,0,0-11.182,6.527-43.51,1.437-9.938-8.7-1.206-38.248,2.132-47.605,0,0,6.362-3.184,9.1-3.385,0,0,11.705,4.8,23.925-.276" transform="translate(-58.839 -85.857)" fill="#1a004c"/>
            <path id="Trazado_609004" data-name="Trazado 609004" d="M145.665,158.379l4.578-5.988a59.954,59.954,0,0,0,13.645,6.739l-.1,10.564a.421.421,0,0,1-.615.334c-2.6-1.338-14.062-6.551-17.508-11.648" transform="translate(-76.064 -79.576)" fill="#fff"/>
            <path id="Trazado_609005" data-name="Trazado 609005" d="M186.129,150.524s-.614,5.749-2.56,7.388l3.588,10.37c.257.8.834.761.922.346.561-2.642,1.6-8.386.9-11.83Z" transform="translate(-95.857 -78.601)" fill="#fff"/>
            <path id="Trazado_609006" data-name="Trazado 609006" d="M188.078,187.968c0,.775-.335,1.4-.749,1.4s-.748-.629-.748-1.4.335-1.4.748-1.4.749.628.749,1.4" transform="translate(-97.43 -97.422)" fill="#fff"/>
            <path id="Trazado_609007" data-name="Trazado 609007" d="M188.861,200.5c0,.775-.335,1.4-.748,1.4s-.749-.628-.749-1.4.335-1.4.749-1.4.748.628.748,1.4" transform="translate(-97.839 -103.966)" fill="#fff"/>
            <path id="Trazado_609008" data-name="Trazado 609008" d="M189.461,214.3c0,.775-.335,1.4-.749,1.4s-.748-.628-.748-1.4.335-1.4.748-1.4.749.629.749,1.4" transform="translate(-98.152 -111.174)" fill="#fff"/>
            <path id="Trazado_609009" data-name="Trazado 609009" d="M189.461,229.541c0,.775-.335,1.4-.749,1.4s-.748-.628-.748-1.4.335-1.4.748-1.4.749.628.749,1.4" transform="translate(-98.152 -119.13)" fill="#fff"/>
            <path id="Trazado_609010" data-name="Trazado 609010" d="M189.461,244.777c0,.775-.335,1.4-.749,1.4s-.748-.629-.748-1.4.335-1.4.748-1.4.749.628.749,1.4" transform="translate(-98.152 -127.086)" fill="#fff"/>
            <path id="Trazado_609011" data-name="Trazado 609011" d="M189.461,260.013c0,.775-.335,1.4-.749,1.4s-.748-.628-.748-1.4.335-1.4.748-1.4.749.628.749,1.4" transform="translate(-98.152 -135.042)" fill="#fff"/>
            <path id="Trazado_609012" data-name="Trazado 609012" d="M92.235,354.391l-41.77-26.764L67.8,300.576,103.881,323.7a6.753,6.753,0,0,1,2.043,9.329Z" transform="translate(-26.352 -156.956)" fill="#f9c5f9"/>
            <path id="Trazado_609013" data-name="Trazado 609013" d="M111.778,350.114a5.748,5.748,0,1,1-5.748-5.748,5.748,5.748,0,0,1,5.748,5.748" transform="translate(-52.365 -179.823)" fill="#fff"/>
            <g id="Grupo_1017527" data-name="Grupo 1017527" transform="translate(47.569 148.942)" opacity="0.6" style="mix-blend-mode: multiply;isolation: isolate">
              <g id="Grupo_1017526" data-name="Grupo 1017526">
                <g id="Grupo_1017525" data-name="Grupo 1017525" clip-path="url(#clip-path-6)">
                  <path id="Trazado_609014" data-name="Trazado 609014" d="M103.059,311.715s-6.733,3.126-1.529,22.216a7.233,7.233,0,0,1,.309,3.188l-1.17,8.2c-.174.879-.294,2.058.452,2.554.933.621,6.25,5.506,6.9,5.722,1.313.438-.119-6.047.095-9.464a32.023,32.023,0,0,1,.265,3.375l.161,2.667c1.59-.727,1.557-3.791,1.805-4.823a4,4,0,0,0-.1-2.6,22.5,22.5,0,0,1-2.324-7.213c-.127-1.588.985-7.482,1.906-18.459Z" transform="translate(-99.556 -311.715)" fill="#f9c5f9"/>
                </g>
              </g>
            </g>
            <path id="Trazado_609015" data-name="Trazado 609015" d="M97.553,191.038C85.069,260.761,93.178,274,94,274.546c1.023.681,6.85,6.035,7.559,6.272,1.439.479-.131-6.628.1-10.373a35.215,35.215,0,0,1,.29,3.7l.177,2.923c1.742-.8,1.706-4.155,1.978-5.286a4.381,4.381,0,0,0-.108-2.854,24.673,24.673,0,0,1-2.547-7.906c-.139-1.741,11.692-58.366,13.772-66.686,2.827-11.307-.731-24.294-4.711-24.733-4.939-.545-11.921,15.66-12.955,21.435" transform="translate(-47.338 -88.557)" fill="#ff9783"/>
            <path id="Trazado_609016" data-name="Trazado 609016" d="M246.409,42.988H225.948L218.8,45.022a1.408,1.408,0,0,1-1.768-1.624l2.228-11.431c0-6.087,3.7-11.022,8.263-11.022h18.887c4.564,0,8.263,4.934,8.263,11.022s-3.7,11.021-8.263,11.021" transform="translate(-113.317 -10.937)" fill="#1a004c"/>
            <rect id="Rectángulo_347651" data-name="Rectángulo 347651" width="3.47" height="8.096" transform="translate(122.232 18.096)" fill="#fff"/>
            <rect id="Rectángulo_347652" data-name="Rectángulo 347652" width="3.47" height="5.463" transform="translate(127.14 20.729)" fill="#f9c5f9"/>
            <rect id="Rectángulo_347653" data-name="Rectángulo 347653" width="3.47" height="10.525" transform="translate(116.926 15.667)" fill="#7768ff"/>
            <path id="Trazado_609017" data-name="Trazado 609017" d="M362.754,145.862c-.615-2.151,2.609-29.606,3.363-31.719,1.972-5.53,14.465-8.518,20.486-5.9,9.743,4.232,27.393,27.608,25.655,34.666Z" transform="translate(-189.384 -56.021)" fill="#f9c5f9"/>
            <path id="Trazado_609018" data-name="Trazado 609018" d="M389.169,132.47a.52.52,0,0,0,.6.452c1.221-.2,4-.9,4.9,2.239.906,3.169-1.889,5.467-3.726,5.857-.53.113-1.747.415-2.048.865-.926,1.386-1.036,4.116-1.379,7.552A9.491,9.491,0,0,0,393,159.46s-17.637,12.37-18.927,2.928c0,0-1.191-17.554-1.294-17.629-1.723-1.259-7.615-1-5.9-13.909,1.59-11.962,10.107-12.456,12.3-12.411,1.849.038,8.158-.544,9.987,14.031" transform="translate(-191.419 -61.846)" fill="#b65f42"/>
            <path id="Trazado_609019" data-name="Trazado 609019" d="M390.153,131.814a.52.52,0,0,0,.6.452c1.221-.2,4-.9,4.9,2.239.906,3.169-1.889,5.467-3.726,5.857-.53.113-1.748.415-2.048.865-.926,1.386-1.036,4.116-1.379,7.552a9.49,9.49,0,0,0,5.491,10.025s-17.637,12.37-18.927,2.929c0,0-1.191-17.554-1.293-17.629-1.724-1.259-7.615-1-5.9-13.909,1.59-11.962,10.107-12.456,12.3-12.411,1.849.038,8.158-.544,9.987,14.031" transform="translate(-191.933 -61.504)" fill="#b65f42"/>
            <path id="Trazado_609020" data-name="Trazado 609020" d="M382.438,113.571s6.216,15.942,10.953,16.954c5.248,1.121,3.562-6.673,4.884-1.642,0,0,5.16-25.671-15.837-15.313" transform="translate(-199.704 -58.019)" fill="#f9c5f9"/>
            <path id="Trazado_609021" data-name="Trazado 609021" d="M418.233,154.526s-2.552-3.752-4.143,2.057" transform="translate(-216.232 -80.069)" fill="#cb7043"/>
            <path id="Trazado_609022" data-name="Trazado 609022" d="M388.889,151.273a2.9,2.9,0,1,0,3.262,2.5,2.9,2.9,0,0,0-3.262-2.5" transform="translate(-201.755 -78.979)" fill="#80301a"/>
            <path id="Trazado_609023" data-name="Trazado 609023" d="M366.714,151.5a2.906,2.906,0,0,0,.135-5.437s-.731,3.367-.135,5.437" transform="translate(-191.37 -76.274)" fill="#80301a"/>
            <path id="Trazado_609024" data-name="Trazado 609024" d="M376.235,143.055l-.541,4.445-1.625-.435Z" transform="translate(-195.334 -74.701)" fill="#cb7043"/>
            <path id="Trazado_609025" data-name="Trazado 609025" d="M386.584,139.292c-.021-.47.031-1.082-.251-1.384a4.742,4.742,0,0,0-1.252-.73c-.69-.328-1.35-.119-1.3.539.266.334,1.136.108,1.965.685a5.69,5.69,0,0,1,.841.89" transform="translate(-200.402 -71.552)"/>
            <path id="Trazado_609026" data-name="Trazado 609026" d="M370.086,136.009c-.371.17.281-.569.8-.834a2.752,2.752,0,0,1,1.446-.226c.767.03,1.192.521.683,1.034-.552.556-1.483-.634-2.925.025" transform="translate(-193.196 -70.464)"/>
            <path id="Trazado_609027" data-name="Trazado 609027" d="M383.225,145.937c-.129.556-.453.956-.722.893s-.383-.565-.253-1.12.453-.956.722-.893.383.564.253,1.12" transform="translate(-199.577 -75.618)"/>
            <path id="Trazado_609028" data-name="Trazado 609028" d="M374.163,143.276c-.124.531-.432.913-.69.853s-.366-.539-.242-1.07.433-.912.69-.852.366.539.242,1.07" transform="translate(-194.869 -74.255)"/>
            <path id="Trazado_609029" data-name="Trazado 609029" d="M379.567,173.038a46.454,46.454,0,0,0,8.341-.416c2.726-.607-8.061,8.285-8.341.416" transform="translate(-198.204 -90.125)"/>
            <path id="Trazado_609030" data-name="Trazado 609030" d="M372.58,153.718s-.2,2.253.793,2.465a3.465,3.465,0,0,0,3.088-1.162Z" transform="translate(-194.547 -80.269)" fill="#faf9f4"/>
            <path id="Trazado_609031" data-name="Trazado 609031" d="M373.516,701.743,371.508,716s-3.22,9.455-6.21,5.794a29.488,29.488,0,0,0-5.95-5.594l-.981-14.822Z" transform="translate(-187.134 -366.249)" fill="#e27a51"/>
            <path id="Trazado_609032" data-name="Trazado 609032" d="M373.129,703.259l-.517,19.391s9.463,1.42,5.946-4.912l2.068-13.444Z" transform="translate(-194.573 -367.232)" fill="#80301a"/>
            <path id="Trazado_609033" data-name="Trazado 609033" d="M489.8,699.85l4.436,14.221s3.376,2.961,4.6,2.884c2.217-.139,3.38-3.964,3.38-3.964l.365-13.141Z" transform="translate(-255.764 -365.451)" fill="#e27a51"/>
            <path id="Trazado_609034" data-name="Trazado 609034" d="M503.171,691.9l3.1,23.527s6.36,1.68,2.844-4.654l.775-18.1Z" transform="translate(-262.749 -361.298)" fill="#80301a"/>
            <path id="Trazado_609035" data-name="Trazado 609035" d="M345,729.656l-11.94,9.678c-.611.453-.175,1.218.7,1.225l17.625.143a1.03,1.03,0,0,0,.947-.48l1.329-2.726c.384-.787,1.149-.851,1.079-.017l.651,2.631c-.035.415,4.178.3,4.216-.076a74.389,74.389,0,0,0-.676-12.121.877.877,0,0,0-.79-.61h0a1.2,1.2,0,0,0-.985.271c-1.189,1.151-4.994,4.614-7.021,3.913a14.863,14.863,0,0,1-3.668-1.8,1.252,1.252,0,0,0-1.464-.036" transform="translate(-173.77 -379.779)" fill="#7768ff"/>
            <path id="Trazado_609036" data-name="Trazado 609036" d="M504.982,726.222l6.78,11.356a2.212,2.212,0,0,1-.987,3.2c-2.12,1.262-3.852,3.78-5.186,3.816-2.41.067-6.157-2.471-8.341-3.423-1.465-.639-2.613-1.575-2.432-2.8L496.5,726.98c.021-.141.27-.193.392-.082l2.6,2.353c.851.771,3.158.667,3.732-.256.409-.658,1.369-2.783,1.369-2.783a.266.266,0,0,1,.392.009" transform="translate(-258.376 -379.175)" fill="#7768ff"/>
            <path id="Trazado_609037" data-name="Trazado 609037" d="M388.411,306.313c5.473,9.677,8.367,16.765,11.512,29.068,3.648,14.268,24,134.84,25.725,160.793-4.5,1.084-11.311.6-14.152.442-9.039-25.9-35.828-109.58-39.7-125.9-.6-2.508-4.471-1.958-4.169.6,2.2,18.633-1.237,94.337-3.006,125.737-2.358,1.2-13.626.98-16.35.638-2.962-31.96-18.68-152.952,5.049-192.171,10.851-1.5,24.092.459,35.095.787" transform="translate(-177.764 -159.251)" fill="#212129"/>
            <path id="Trazado_609038" data-name="Trazado 609038" d="M359.808,315.029s-9.665,23.918-9.665,57.675,6.282,119.436,6.282,119.436" transform="translate(-182.84 -164.504)" fill="none" stroke="#fff" stroke-miterlimit="10" stroke-width="0.315"/>
            <line id="Línea_142" data-name="Línea 142" x1="34.627" y1="177.771" transform="translate(205.296 149.423)" fill="none" stroke="#fff" stroke-miterlimit="10" stroke-width="0.315"/>
            <path id="Trazado_609039" data-name="Trazado 609039" d="M415.493,314.7s.328,30.92,14.206,28.483" transform="translate(-216.964 -164.331)" fill="none" stroke="#fff" stroke-miterlimit="10" stroke-width="0.315"/>
            <g id="Grupo_1017530" data-name="Grupo 1017530" transform="translate(175.71 151.155)" opacity="0.21" style="mix-blend-mode: multiply;isolation: isolate">
              <g id="Grupo_1017529" data-name="Grupo 1017529">
                <g id="Grupo_1017528" data-name="Grupo 1017528" clip-path="url(#clip-path-7)">
                  <path id="Trazado_609040" data-name="Trazado 609040" d="M367.736,316.346l44.674,33.64s1.865-18.154-6.072-33.054Z" transform="translate(-367.736 -316.346)"/>
                </g>
              </g>
            </g>
            <path id="Trazado_609041" data-name="Trazado 609041" d="M355.22,346.32c13.878,2.439,11.645-28.327,11.645-28.327" transform="translate(-185.491 -166.051)" fill="none" stroke="#fff" stroke-miterlimit="10" stroke-width="0.315"/>
            <line id="Línea_143" data-name="Línea 143" x1="18.116" y1="0.416" transform="translate(169.179 327.663)" fill="none" stroke="#fff" stroke-miterlimit="10" stroke-width="0.315"/>
            <line id="Línea_144" data-name="Línea 144" x1="16.363" y1="0.442" transform="translate(230.636 327.636)" fill="none" stroke="#fff" stroke-miterlimit="10" stroke-width="0.315"/>
            <path id="Trazado_609042" data-name="Trazado 609042" d="M253.216,232.489s41.558,27.667,46.271,20.744c0,0,5.405-7.944-6.233-27.742-.778-2.055-1.323-3.477-1.371-3.827,0,0,12.42-16.617,14.235-22.237.2-.617,1.007-1.928.841-1.909-11.483,1.312-11.6,27.967-22.594,37.616-.418.366-27.29-11.454-27.29-11.454s-15.7-9.945-16.137-8.877c-.63,1.547,5.758,6.213,5.758,6.213a2.227,2.227,0,0,1-.663,1.459,2.684,2.684,0,0,0-.774,2.509c.132,1.161-.7,2.177-.641,2.863s5.751,3.862,8.6,4.643" transform="translate(-125.791 -103.14)" fill="#b65f42"/>
            <path id="Trazado_609043" data-name="Trazado 609043" d="M264.432,247.18s-4.377-5.218-5.195-4.709-4.079,3.647-3.427,5.117,3.548-1.028,3.548-1.028.641,3.592,2.487,3.4,2.586-2.785,2.586-2.785" transform="translate(-133.536 -126.596)" fill="#b65f42"/>
            <path id="Trazado_609044" data-name="Trazado 609044" d="M258.814,251.276s.652,1.47-.486,2.2a1.591,1.591,0,0,1-1.393,1.934s.707.542-.2,1.083c0,0,5.847,2.952,2.078-5.217" transform="translate(-134.064 -131.213)" fill="#80301a"/>
            <path id="Trazado_609045" data-name="Trazado 609045" d="M257.146,244.561q-.9,1.1-1.837,2.16c-.392.519-1.07.979-1.078,1.659a.51.51,0,0,0,.336.422,4.521,4.521,0,0,0,3-.385.613.613,0,0,1,.411-.018.414.414,0,0,1,.225.354c.039.232.2,1.5.232,1.76l-.015,0-.244-1.4-.061-.349c-.055-.494-.55-.237-.842-.123-.914.461-4,.961-2.976-.928a9.775,9.775,0,0,1,.924-1.076c.011.01,1.915-2.134,1.926-2.082" transform="translate(-132.683 -127.706)" fill="#80301a"/>
            <path id="Trazado_609046" data-name="Trazado 609046" d="M252.72,246.38a3.926,3.926,0,0,1,1.875.881c-.615-.291-1.307-.561-1.875-.881" transform="translate(-131.967 -128.656)" fill="#80301a"/>
            <path id="Trazado_609047" data-name="Trazado 609047" d="M250.714,252.461a23.924,23.924,0,0,0,4.185,1.421,1.019,1.019,0,0,0,1.216-.458l.014,0a1.048,1.048,0,0,1-1.247.57,13.2,13.2,0,0,1-4.168-1.537" transform="translate(-130.919 -131.831)" fill="#80301a"/>
            <path id="Trazado_609048" data-name="Trazado 609048" d="M254.909,255.819c.737,2.809-1.8,2.376-3.423,1.339a10.511,10.511,0,0,1-1.45-.93c.492.291.995.565,1.5.826,1.652.92,3.835,1.5,3.369-1.234" transform="translate(-130.565 -133.585)" fill="#80301a"/>
            <path id="Trazado_609049" data-name="Trazado 609049" d="M254.507,259.3c.675,1.824-.218,2.322-1.935,2.166a.988.988,0,0,1-.478-.257,1.435,1.435,0,0,0,.489.172c1.724-.011,2.334-.254,1.924-2.08" transform="translate(-131.64 -135.401)" fill="#80301a"/>
            <path id="Trazado_609050" data-name="Trazado 609050" d="M327.156,193.285a16.262,16.262,0,0,0-10.472,8.617c-3.027,5.852-14.519,30.24-14.519,30.24l-22.754-9.758-2.065,14.222s35.089,21.137,41.132,16.451,11.589-52.247,8.678-59.772" transform="translate(-144.826 -100.931)" fill="#fff"/>
            <path id="Trazado_609051" data-name="Trazado 609051" d="M367.845,193.285c.316.766-12.946,27.19-12.57,34.7.379,7.57,5.548,20.3,5.147,21.443,0,0,5.872,4.633,38.27-.469,9.96-8.713,1.209-38.33-2.136-47.708,0,0-8.819-1.262-12.559-5.815,0,0-14.4,11.171-16.152-2.154" transform="translate(-185.515 -100.931)" fill="#fff"/>
            <g id="Grupo_1017533" data-name="Grupo 1017533" transform="translate(178.342 108.223)" opacity="0.37">
              <g id="Grupo_1017532" data-name="Grupo 1017532">
                <g id="Grupo_1017531" data-name="Grupo 1017531" clip-path="url(#clip-path-8)">
                  <path id="Trazado_609052" data-name="Trazado 609052" d="M408.454,226.5c3.621,12.673,7.559,32.867-.375,39.808-20.457,3.221-30.33,2.561-34.834,1.637,12.008-13.593,23.941-27.243,35.209-41.445" transform="translate(-373.245 -226.496)" fill="#969fe2"/>
                </g>
              </g>
            </g>
            <path id="Trazado_609053" data-name="Trazado 609053" d="M348.366,294.536,328.76,270.582l-20.868.173L323.9,292.818l9.435,1.347c.59.027,15.032.371,15.032.371" transform="translate(-160.777 -141.294)" fill="#7768ff"/>
            <path id="Trazado_609054" data-name="Trazado 609054" d="M368.995,291.793v3.527l4.7,1.738Z" transform="translate(-192.684 -152.37)" fill="#0e162e"/>
            <path id="Trazado_609055" data-name="Trazado 609055" d="M374.314,310.433a198.535,198.535,0,0,1-28.05-7.958c-1.061-.367-4.136-1.805-4.125-2.267.025-1.055,6.229,1.726,5.994,1.47s-7.626-2.72-7.627-3.572c0-1.281,8.194,1.614,8.335,1.656,2.126.64-7.949-2.464-8.162-3.345s4.48.219,4.647.255c0,0,3.963,1.178,4.11.907s-7.762-5.014-6.932-5.521,6.892,2.337,8.322,2.883,3.619.746,4.168.413c.464-.28-.011-2.6-.958-3.491a18.782,18.782,0,0,1,5.275,3.5,21.015,21.015,0,0,1,1.74,2.378l13.586,2.65Z" transform="translate(-177.807 -152.407)" fill="#b65f42"/>
            <path id="Trazado_609056" data-name="Trazado 609056" d="M403.745,217.619s-1.926-12.5,4.463-11.482c10.811,1.713,23.154,26.378,18.42,59.151-1.539,10.644-44.671.264-44.671.264l2.767-15.577,22.522,3.739Z" transform="translate(-199.452 -107.611)" fill="#fff"/>
            <path id="Trazado_609057" data-name="Trazado 609057" d="M272.567,112.307a15.714,15.714,0,0,1,21.684-19.081,14.577,14.577,0,0,1,7.869,8.663,16.076,16.076,0,0,1-.341,11.546l3.775,7.427a1.049,1.049,0,0,1-1.2,1.491l-8.174-2.12a15.806,15.806,0,0,1-15.57,1.2,14.621,14.621,0,0,1-8.044-9.123" transform="translate(-141.944 -47.899)" fill="#7768ff"/>
            <path id="Trazado_609058" data-name="Trazado 609058" d="M303.554,110.631a6.8,6.8,0,1,1-6.8-6.8,6.8,6.8,0,0,1,6.8,6.8" transform="translate(-151.405 -54.216)" fill="#fff"/>
            <path id="Trazado_609059" data-name="Trazado 609059" d="M302.8,139.982h-2.7a1,1,0,0,1-1-1v-3.165H303.8v3.165a1,1,0,0,1-1,1" transform="translate(-156.181 -70.92)" fill="#1a004c"/>
            <path id="Trazado_609060" data-name="Trazado 609060" d="M300.765,129.784h-2.256a2.885,2.885,0,0,1-2.885-2.885v-3.484h8.025V126.9a2.885,2.885,0,0,1-2.885,2.885" transform="translate(-154.371 -64.446)" fill="#fff"/>
            <path id="Trazado_609061" data-name="Trazado 609061" d="M302.668,123.653a.619.619,0,0,0-.619.619.6.6,0,0,0,.13.362,1.779,1.779,0,0,1-1.369.6l-.279-.008a1.891,1.891,0,0,1-1.608-.64.6.6,0,0,0,.1-.318.619.619,0,1,0-.619.619.6.6,0,0,0,.066-.013,2.419,2.419,0,0,0,1.808.883v4.148h.531v-4.139a2.29,2.29,0,0,0,1.839-.882c.006,0,.011,0,.018,0a.619.619,0,1,0,0-1.238" transform="translate(-155.5 -64.57)" fill="#1a004c"/>
            <path id="Trazado_609062" data-name="Trazado 609062" d="M426.426,242.328c-.529.189,5.513,8.794,13.275,13.275,0,0,35.652,33.308,42.168,30.874s35.858-66.518,19.787-69.374c0,0-4.187-3.026-7.126.768s-11.753,8.6-25.469,40.286c0,0-19.955-10.31-22.211-11.488,0,0-4.6-10.978-5.362-9.191s1.022,6.638,1.022,6.638-11.489-8.68-13.02-7.914-3.063,6.127-3.063,6.127" transform="translate(-222.656 -112.771)" fill="#ff9783"/>
            <path id="Trazado_609063" data-name="Trazado 609063" d="M528.744,246.706c9.732-18.708,16.9-25.819,19.232-28.835,2.938-3.793,7.125-.768,7.125-.768,10.775,1.915,1.139,31.344-8.346,51.271a256.56,256.56,0,0,0-18.011-21.668" transform="translate(-276.102 -112.771)" fill="#da816c"/>
            <path id="Trazado_609064" data-name="Trazado 609064" d="M532.291,214.554s6.173-17.53,18.442-10.17,3.547,43.336-3.167,50.723L520.484,240.25Z" transform="translate(-271.789 -105.784)" fill="#7768ff"/>
            <path id="Trazado_609065" data-name="Trazado 609065" d="M539.732,236.125c1.982-1.8,4.521-4.237,7.118-3.578a5.625,5.625,0,0,1,3,1.767c1.482,1.8,1.219,4.538.142,6.61s-2.819,3.705-4.285,5.524a24.727,24.727,0,0,0-5.4,14.094" transform="translate(-281.84 -121.375)" fill="none" stroke="#f6edde" stroke-miterlimit="10" stroke-width="0.202"/>
            <g id="Grupo_1017536" data-name="Grupo 1017536" transform="translate(267.214 108.174)" opacity="0.4" style="mix-blend-mode: multiply;isolation: isolate">
              <g id="Grupo_1017535" data-name="Grupo 1017535">
                <g id="Grupo_1017534" data-name="Grupo 1017534" clip-path="url(#clip-path-9)">
                  <path id="Trazado_609066" data-name="Trazado 609066" d="M567.467,267.2c4.37-.849,11.529-28.749,8.923-33.674,0,0-13.45-7.945-14.305-7.059-8.714,9.028,5.383,40.734,5.383,40.734" transform="translate(-559.241 -226.394)" fill="#7768ff"/>
                </g>
              </g>
            </g>
            <path id="Trazado_609067" data-name="Trazado 609067" d="M538.607,726.756l.241-13.024,12.542.965-.315,12.517-5.864,10.174-10.556-8.14Z" transform="translate(-279.188 -372.7)" fill="#ff9783"/>
            <path id="Trazado_609068" data-name="Trazado 609068" d="M545.451,714.237l9.648,20.5s-1.862-3.214,1.928-6.611v-13.89Z" transform="translate(-284.827 -372.964)" fill="#da816c"/>
            <path id="Trazado_609069" data-name="Trazado 609069" d="M516.043,738.644a59.068,59.068,0,0,0,7.568,6.965c2.54,1.926,6.32-6.285,7.495-7.312.239-.209.564-.021.6.35l1.475,13.437H496.044a.859.859,0,0,1-.782-1.018c1.969-9.979,20.781-12.421,20.781-12.421" transform="translate(-258.61 -385.482)" fill="#1a004c"/>
            <path id="Trazado_609070" data-name="Trazado 609070" d="M512.01,753.506s-1.447-6.874-6.331-8.14c0,0-7.688,2.532-9.5,8.321h37.083" transform="translate(-259.099 -389.219)" fill="none" stroke="#fff" stroke-miterlimit="10" stroke-width="0.405"/>
            <line id="Línea_145" data-name="Línea 145" x1="7.688" y2="8.411" transform="translate(265.664 355.966)" fill="none" stroke="#fff" stroke-miterlimit="10" stroke-width="0.405"/>
            <path id="Trazado_609071" data-name="Trazado 609071" d="M663.39,730.29l-3.859-12.542,13.506-.482,2.895,13.266-5,8.7-10.556-8.14Z" transform="translate(-344.398 -374.546)" fill="#ff9783"/>
            <path id="Trazado_609072" data-name="Trazado 609072" d="M665.588,717.748l11.095,15.436s-.172.5,3.618-2.894l-4.342-13.024Z" transform="translate(-347.56 -374.546)" fill="#da816c"/>
            <path id="Trazado_609073" data-name="Trazado 609073" d="M641.156,742.092a59.087,59.087,0,0,0,7.567,6.965c2.54,1.926,6.32-6.285,7.5-7.312.239-.209.564-.022.6.35l1.476,13.437H621.156a.86.86,0,0,1-.782-1.018c1.969-9.979,20.781-12.421,20.781-12.421" transform="translate(-323.942 -387.283)" fill="#1a004c"/>
            <path id="Trazado_609074" data-name="Trazado 609074" d="M637.122,756.954s-1.447-6.874-6.331-8.14c0,0-7.688,2.532-9.5,8.321h37.083" transform="translate(-324.431 -391.02)" fill="none" stroke="#fff" stroke-miterlimit="10" stroke-width="0.405"/>
            <line id="Línea_146" data-name="Línea 146" x1="7.688" y2="8.411" transform="translate(325.444 357.613)" fill="none" stroke="#fff" stroke-miterlimit="10" stroke-width="0.405"/>
            <path id="Trazado_609075" data-name="Trazado 609075" d="M537.03,401.579s-4.777,57.138-5.225,72.925,3.608,77.433,3.608,77.433l15.962-.051s16.9-108.935,36.2-147.009Z" transform="translate(-277.683 -209.699)" fill="#120036"/>
            <path id="Trazado_609076" data-name="Trazado 609076" d="M556.556,570.476l2.532-72.357L570.3,455.79" transform="translate(-290.625 -238.007)" fill="none" stroke="#fff" stroke-miterlimit="10" stroke-width="0.326"/>
            <path id="Trazado_609077" data-name="Trazado 609077" d="M555.649,705.152,537.2,704.79,536.112,694.3h21.345Z" transform="translate(-279.95 -362.552)" fill="#7768ff"/>
            <path id="Trazado_609078" data-name="Trazado 609078" d="M542.7,401.579s11.045,47.629,22.263,81.326c9.065,27.23,33.081,70.237,33.081,70.237l16.054-.7-17.06-68.725a67.786,67.786,0,0,1-1.944-12.41c-.995-15.823,2.258-47.8,3.617-68.284Z" transform="translate(-283.387 -209.699)" fill="#1a004c"/>
            <path id="Trazado_609079" data-name="Trazado 609079" d="M649.8,574.792c.362-1.085-22.069-66.207-22.069-74.528s.362-36.9.362-36.9" transform="translate(-327.791 -241.961)" fill="none" stroke="#fff" stroke-miterlimit="10" stroke-width="0.326"/>
            <path id="Trazado_609080" data-name="Trazado 609080" d="M669.78,705.942l-17.848.844L645.9,696.9l22.431-1.086Z" transform="translate(-337.28 -363.343)" fill="#7768ff"/>
            <path id="Trazado_609081" data-name="Trazado 609081" d="M578.09,190.679s24.951,2.548,26.522,23.21S595.8,320.24,595.8,320.24L527.784,315.9l6.411-97.124a30.091,30.091,0,0,1,4.7-14.78c2.609-4.073,5.663-8.691,7.4-8.908l27.979-7.193Z" transform="translate(-275.601 -98.115)" fill="#7768ff"/>
            <g id="Grupo_1017539" data-name="Grupo 1017539" transform="translate(252.906 95.676)" opacity="0.4" style="mix-blend-mode: multiply;isolation: isolate">
              <g id="Grupo_1017538" data-name="Grupo 1017538">
                <g id="Grupo_1017537" data-name="Grupo 1017537" clip-path="url(#clip-path-10)">
                  <path id="Trazado_609082" data-name="Trazado 609082" d="M589.162,200.237c10.245,5.542,15.528,10.962,16.314,21.292,1.571,20.662-8.886,104.432-8.886,104.432L529.3,322.344" transform="translate(-529.298 -200.237)" fill="#7768ff"/>
                </g>
              </g>
            </g>
          </g>
        </g>
        <g id="Grupo_1017543" data-name="Grupo 1017543" transform="translate(252.182 89.779)">
          <g id="Grupo_1017542" data-name="Grupo 1017542" clip-path="url(#clip-path-11)">
            <path id="Trazado_609083" data-name="Trazado 609083" d="M577.86,202a99.646,99.646,0,0,1-6.183,15.421c-3.342,6.665-7.982,13.394-15.066,15.716-3.058,1-6.34,1.093-9.459,1.884s-6.3,2.552-7.422,5.567" transform="translate(-534.021 -195.259)" fill="none" stroke="#f6edde" stroke-miterlimit="10" stroke-width="0.202"/>
            <path id="Trazado_609084" data-name="Trazado 609084" d="M627.467,379.217c-6.393-.786-14.134-1.017-17.843,4.25-2.916,4.14-1.915,9.978-4.274,14.46-3.086,5.864-10.545,7.441-16.373,10.6a28.83,28.83,0,0,0-14.773,23.218" transform="translate(-552.024 -287.579)" fill="none" stroke="#f6edde" stroke-miterlimit="10" stroke-width="0.202"/>
            <path id="Trazado_609085" data-name="Trazado 609085" d="M529.275,412.751c10.669-4.043,21.337-10.828,25.146-21.583a3.352,3.352,0,0,0,.238-2.052,3.138,3.138,0,0,0-1.318-1.536c-3.43-2.412-7.922-2.971-11.274-5.49-1.352-1.016-2.469-2.317-3.806-3.354a12.827,12.827,0,0,0-15.6.3" transform="translate(-525.108 -286.244)" fill="none" stroke="#f6edde" stroke-miterlimit="10" stroke-width="0.202"/>
            <path id="Trazado_609086" data-name="Trazado 609086" d="M536.43,293.719a17.38,17.38,0,0,1,13.526,9.815c3.909,8.506.491,19.249,5.182,27.351,4.526,7.815,16.666,9.756,23.358,3.692,2.755-2.5,4.621-6.027,7.883-7.811,5.939-3.248,14.726.234,19.271-4.783" transform="translate(-532.298 -243.154)" fill="none" stroke="#f6edde" stroke-miterlimit="10" stroke-width="0.202"/>
          </g>
        </g>
        <g id="Grupo_1017548" data-name="Grupo 1017548">
          <g id="Grupo_1017547" data-name="Grupo 1017547" clip-path="url(#clip-path-2)">
            <path id="Trazado_609088" data-name="Trazado 609088" d="M600.073,152.074l7.295,19.453-5.427,2.713c-8.321,3.075-15.843,1.132-17.016-2.317l1.122-11.608,11.67-10.564a11.415,11.415,0,0,1,2.02,1.741,2.591,2.591,0,0,0,.336.581" transform="translate(-305.439 -78.198)" fill="#ff9783"/>
            <path id="Trazado_609089" data-name="Trazado 609089" d="M598.52,149.752l-11.67,10.563-.387,4.157s9.768,2.351,13.386-13.205" transform="translate(-306.243 -78.198)" fill="#da816c"/>
            <path id="Trazado_609090" data-name="Trazado 609090" d="M468.686,312.119,448.855,272.3c-1.17-2.236-4.427-4.377-6.7-4.934l-51.444-4.107a1.041,1.041,0,0,0-1.035,1.594l21.074,39.457a8.522,8.522,0,0,0,5.158,4.268l51.711,5.116a1.037,1.037,0,0,0,1.068-1.578" transform="translate(-203.407 -137.457)" fill="#f9c5f9"/>
            <g id="Grupo_1017546" data-name="Grupo 1017546" transform="translate(247.162 140.471)" style="mix-blend-mode: multiply;isolation: isolate">
              <g id="Grupo_1017545" data-name="Grupo 1017545">
                <g id="Grupo_1017544" data-name="Grupo 1017544" clip-path="url(#clip-path-13)">
                  <path id="Trazado_609091" data-name="Trazado 609091" d="M518.35,293.986l-1.073,8.34,8.048,5.024Z" transform="translate(-517.276 -293.986)" fill="#f9c5f9"/>
                </g>
              </g>
            </g>
            <path id="Trazado_609092" data-name="Trazado 609092" d="M484.559,343.679l-46.044-3.363,2.632,5.114,46.59,3.768Z" transform="translate(-228.986 -177.708)" fill="#faf9f4"/>
            <path id="Trazado_609093" data-name="Trazado 609093" d="M524.365,300.783c1.775,1.063,22.275,18.769,38.784,26.907,4.552,2.244,10.5-2.973,12.136-7.709L590.6,279.726l-24.922-12.579c-.107.269-4.494,25.332-8.07,33.978-1.28,3.094-.5,2.654-3.378,1.58L531.72,291.241a16.91,16.91,0,0,1-2.559-2.935c-1.319-2.321-5.929-4.882-5.929-4.882l2.741,4.933c.482.828-.086,1.01-1.762.292l-11.175-4.7s-2.52-.542-1.2.479,5.758,3.8,5.917,3.884c2.84,1.517-7.333-3.285-7.3-2.332s5.9,4.29,5.8,4.406-6.376-2.786-6.388-1.888,5.563,3.647,5.752,3.671c.363.047-4.814-2.124-4.845-1.639s12.574,9.648,13.589,10.256" transform="translate(-266.246 -139.5)" fill="#ff9783"/>
            <path id="Trazado_609094" data-name="Trazado 609094" d="M619.4,284.393c1.927-8.724,3.407-17.092,3.468-17.247l24.922,12.579-9.721,25.556c-6.085-7.089-12.245-14.11-18.669-20.889" transform="translate(-323.444 -139.5)" fill="#da816c"/>
            <path id="Trazado_609095" data-name="Trazado 609095" d="M621.14,378.707c2.269-1.481,7.808-3.273,9.829-.447-2.068,4.417-7.486,8.753-11.707,6.672-.639-.315-1.285-.648-1.935-.991a8.777,8.777,0,0,1,3.813-5.234" transform="translate(-322.359 -196.743)" fill="#da816c"/>
            <path id="Trazado_609096" data-name="Trazado 609096" d="M616.074,213.452s2.794-18.52,16.109-13.546,12.989,60.52,7.8,69.1l-38.223-18.354Z" transform="translate(-314.231 -103.945)" fill="#7768ff"/>
          </g>
        </g>
        <g id="Grupo_1017550" data-name="Grupo 1017550" transform="translate(287.531 95.113)">
          <g id="Grupo_1017549" data-name="Grupo 1017549" clip-path="url(#clip-path-14)">
            <path id="Trazado_609097" data-name="Trazado 609097" d="M640.1,201.663c-1.165,10.347.109,21.3,5.613,30.136s15.774,15.1,26.123,13.946" transform="translate(-621.573 -200.418)" fill="none" stroke="#f6edde" stroke-miterlimit="10" stroke-width="0.202"/>
            <path id="Trazado_609098" data-name="Trazado 609098" d="M625.076,255.225a22.483,22.483,0,0,1,6.284,4.769,5.377,5.377,0,0,1,1.457,2.4c.62,2.872-2.868,5.024-3.371,7.919-.344,1.982.8,3.937,2.215,5.365s3.142,2.539,4.451,4.065a10.69,10.69,0,0,1-.63,14.1" transform="translate(-613.936 -228.388)" fill="none" stroke="#f6edde" stroke-miterlimit="10" stroke-width="0.202"/>
            <path id="Trazado_609099" data-name="Trazado 609099" d="M677.538,316.325a4.946,4.946,0,0,0-5.694-.143c-2.931,2.041-2.712,6.356-3.994,9.689" transform="translate(-636.272 -259.784)" fill="none" stroke="#f6edde" stroke-miterlimit="10" stroke-width="0.202"/>
          </g>
        </g>
        <g id="Grupo_1017552" data-name="Grupo 1017552">
          <g id="Grupo_1017551" data-name="Grupo 1017551" clip-path="url(#clip-path-2)">
            <path id="Trazado_609101" data-name="Trazado 609101" d="M565.519,96.219c-.218,3.819,2.983,2.323,2.983,2.323,8.116,5.217,18.451,14.29,18.451,14.29s3.775-.68,3.8-1.628c.181-7.236-.248-15.968-.248-15.968a4.569,4.569,0,0,0,1.964-4.146s-.764-3.055-3.382-2.618a2.773,2.773,0,0,0-.763-2.836,2.112,2.112,0,0,0-2.618.218,4.789,4.789,0,0,0-3.709-4.364A4.519,4.519,0,0,0,576.865,84s-.655-1.854-1.746-1.745-1.528,1.855-1.528,1.855-.218-2.837-3.492-2.4-3.491,4.255-3.491,4.255a1.266,1.266,0,0,0-1.636-.982c-1.964.327-3.055,2.728-1.2,5.019a3.548,3.548,0,0,0-1.309,3.055c.109,2.073,3.055,3.164,3.055,3.164" transform="translate(-293.707 -42.478)" fill="#1a004c"/>
            <path id="Trazado_609102" data-name="Trazado 609102" d="M591.87,124.658a.534.534,0,0,0,.878.206c.95-.933,2.842-2.212,3.52,1.5.922,5.044-4.341,4.176-4.761,4.856-.851,1.377-3.578,6-7.646,7.8a8.039,8.039,0,0,1-8.856-1.331c-2.707-2.6-4.2.466-3.064-27.319a2.655,2.655,0,0,0,3.3,1.723c1.85-.372,3.3-1.925,5.333-2.492,1.649-.46,6.184-1.6,8.138,4.137.9,2.635,2.326,8.734,3.153,10.92" transform="translate(-298.459 -57.018)" fill="#ff9783"/>
            <path id="Trazado_609103" data-name="Trazado 609103" d="M573.143,150.807s1.632.813,5.622.438c0,0-2.146,2.908-3.718,2.345s-1.9-2.783-1.9-2.783" transform="translate(-299.287 -78.749)" fill="#fff"/>
            <path id="Trazado_609104" data-name="Trazado 609104" d="M618.584,143.327l-2.779,2.1s1.036-5.069,2.779-2.1" transform="translate(-321.564 -74.355)" fill="#da816c"/>
            <path id="Trazado_609105" data-name="Trazado 609105" d="M579.965,137.276c0,.607.24,1.1.537,1.1s.537-.492.537-1.1-.24-1.1-.537-1.1-.537.492-.537,1.1" transform="translate(-302.849 -71.11)" fill="#0d1633"/>
            <path id="Trazado_609106" data-name="Trazado 609106" d="M572.651,136.15c0,.607.24,1.1.537,1.1s.537-.492.537-1.1-.24-1.1-.537-1.1-.537.492-.537,1.1" transform="translate(-299.03 -70.522)" fill="#0d1633"/>
            <path id="Trazado_609107" data-name="Trazado 609107" d="M585.135,126.039c.8.556-.449-1.958-1.53-2.238a1.889,1.889,0,0,0-2.386,1.224,5.818,5.818,0,0,1,3.916,1.013" transform="translate(-303.504 -64.609)" fill="#0d1633"/>
            <path id="Trazado_609108" data-name="Trazado 609108" d="M572.284,126.355a5.832,5.832,0,0,1,1.959.054,1.975,1.975,0,0,0-1.979-1.564" transform="translate(-298.828 -65.192)" fill="#0d1633"/>
            <path id="Trazado_609109" data-name="Trazado 609109" d="M574.3,137.2l-1.637,4.655a.121.121,0,0,0,.1.164l1.932.147a.116.116,0,0,0,.118-.129l-.294-4.8a.11.11,0,0,0-.214-.035" transform="translate(-299.03 -71.603)" fill="#da816c"/>
            <path id="Trazado_609110" data-name="Trazado 609110" d="M476.555,50.488a15.714,15.714,0,0,1,23.773-16.405,14.576,14.576,0,0,1,6.8,9.527,16.076,16.076,0,0,1-1.693,11.426l2.877,7.818a1.049,1.049,0,0,1-1.366,1.34l-7.869-3.064a15.806,15.806,0,0,1-15.6-.638,14.621,14.621,0,0,1-6.918-10" transform="translate(-248.71 -16.545)" fill="#1a004c"/>
            <path id="Trazado_609111" data-name="Trazado 609111" d="M503.234,60.107a6.057,6.057,0,0,0,1.166-1.159l2.281.935,1.025-2.5-2.184-.895a6,6,0,0,0,.1-1.772l2.547-1.066-1.043-2.492-2.349.983a6.051,6.051,0,0,0-1.52-1.7l.935-2.282-2.5-1.025-.895,2.184a6.022,6.022,0,0,0-2.1-.056l-.884-2.113-2.491,1.043.854,2.041a6.051,6.051,0,0,0-1.7,1.73l-2.183-.895-1.024,2.5,2.281.935a6,6,0,0,0,.017,1.643l-2.407,1.007,1.043,2.492,2.336-.978a6.052,6.052,0,0,0,1.729,1.7l-.895,2.183,2.5,1.025.935-2.281a6.051,6.051,0,0,0,1.967-.068l.977,2.335,2.492-1.043Zm-4.6-2.55a2.476,2.476,0,1,1,3.23-1.352,2.478,2.478,0,0,1-3.23,1.352" transform="translate(-256.476 -24.612)" fill="#fff"/>
            <path id="Trazado_609112" data-name="Trazado 609112" d="M527.654,172.658a2.946,2.946,0,1,0-2.946,2.946,2.946,2.946,0,0,0,2.946-2.946" transform="translate(-272.457 -88.621)" fill="#fff"/>
            <path id="Trazado_609113" data-name="Trazado 609113" d="M249.279,116.386a2.525,2.525,0,1,0-2.525,2.525,2.525,2.525,0,0,0,2.525-2.525" transform="translate(-127.532 -59.457)" fill="#fff"/>
            <path id="Trazado_609114" data-name="Trazado 609114" d="M624.439,31.873a2.526,2.526,0,1,0-2.525,2.525,2.525,2.525,0,0,0,2.525-2.525" transform="translate(-323.435 -15.325)" fill="#fff"/>
            <path id="Trazado_609115" data-name="Trazado 609115" d="M216.671,9.113a2.946,2.946,0,1,0-2.946,2.946,2.946,2.946,0,0,0,2.946-2.946" transform="translate(-110.066 -3.22)" fill="#fff"/>
            <path id="Trazado_609116" data-name="Trazado 609116" d="M196.607.842a.842.842,0,1,0-.842.842.842.842,0,0,0,.842-.842" transform="translate(-101.786 0)" fill="#fff"/>
            <path id="Trazado_609117" data-name="Trazado 609117" d="M426.713,79.518a2.1,2.1,0,1,0-2.1,2.1,2.1,2.1,0,0,0,2.1-2.1" transform="translate(-220.625 -40.424)" fill="#fff"/>
            <path id="Trazado_609118" data-name="Trazado 609118" d="M723.462,335.658a2.946,2.946,0,1,0-2.946,2.946,2.946,2.946,0,0,0,2.946-2.946" transform="translate(-374.705 -173.737)" fill="#fff"/>
            <path id="Trazado_609119" data-name="Trazado 609119" d="M57.348,237.07a1.684,1.684,0,1,0-1.684,1.683,1.684,1.684,0,0,0,1.684-1.683" transform="translate(-28.188 -122.916)" fill="#fff"/>
            <path id="Trazado_609120" data-name="Trazado 609120" d="M278.632,398.705a1.684,1.684,0,1,0-1.684,1.683,1.684,1.684,0,0,0,1.684-1.683" transform="translate(-143.739 -207.319)" fill="#fff"/>
            <path id="Trazado_609121" data-name="Trazado 609121" d="M59.958,41.384a1.684,1.684,0,1,0-1.684,1.683,1.684,1.684,0,0,0,1.684-1.683" transform="translate(-29.551 -20.731)" fill="#fff"/>
            <path id="Trazado_609122" data-name="Trazado 609122" d="M51.248,181.053a4.209,4.209,0,1,0-4.209,4.209,4.209,4.209,0,0,0,4.209-4.209" transform="translate(-22.365 -92.345)" fill="#fff"/>
          </g>
        </g>
      </g>
    </g>
  </g>
</svg>
