<svg xmlns="http://www.w3.org/2000/svg" xmlns:xlink="http://www.w3.org/1999/xlink" width="610" height="612" viewBox="0 0 610 612">
  <defs>
    <clipPath id="clip-path">
      <rect id="Rectángulo_347514" data-name="Rectángulo 347514" width="55.369" height="48" fill="#12263f"/>
    </clipPath>
    <clipPath id="clip-path-2">
      <rect id="Rectángulo_347515" data-name="Rectángulo 347515" width="55.156" height="60" fill="none"/>
    </clipPath>
    <clipPath id="clip-path-3">
      <rect id="Rectángulo_347516" data-name="Rectángulo 347516" width="62.849" height="61" fill="none"/>
    </clipPath>
    <clipPath id="clip-path-4">
      <rect id="Rectángulo_347517" data-name="Rectángulo 347517" width="58" height="55.378" fill="none"/>
    </clipPath>
    <clipPath id="clip-path-5">
      <rect id="Rectángulo_347518" data-name="Rectángulo 347518" width="61.658" height="73.399" fill="none"/>
    </clipPath>
  </defs>
  <g id="Grupo_1083541" data-name="Grupo 1083541" transform="translate(-495 -6721)">
    <g id="Trazado_838395" data-name="Trazado 838395" transform="translate(584 6805)" fill="none">
      <path d="M216.5,0C336.07,0,433,96.93,433,216.5S336.07,433,216.5,433,0,336.07,0,216.5,96.93,0,216.5,0Z" stroke="none"/>
      <path d="M 216.5 32 C 114.766357421875 32 32 114.766357421875 32 216.5 C 32 318.233642578125 114.766357421875 401 216.5 401 C 318.233642578125 401 401 318.233642578125 401 216.5 C 401 114.766357421875 318.233642578125 32 216.5 32 M 216.5 0 C 336.0696411132812 0 433 96.93035888671875 433 216.5 C 433 336.0696411132812 336.0696411132812 433 216.5 433 C 96.93035888671875 433 0 336.0696411132812 0 216.5 C 0 96.93035888671875 96.93035888671875 0 216.5 0 Z" stroke="none" fill="#e0e5ec"/>
    </g>
    <path id="Trazado_838396" data-name="Trazado 838396" d="M95,0A95,95,0,1,1,0,95,95,95,0,0,1,95,0Z" transform="translate(705 6721)" fill="#fff198"/>
    <path id="Trazado_838397" data-name="Trazado 838397" d="M83,0A83,83,0,1,1,0,83,83,83,0,0,1,83,0Z" transform="translate(717 6938)" fill="#e0e5ec"/>
    <path id="Trazado_838398" data-name="Trazado 838398" d="M95,0A95,95,0,1,1,0,95,95,95,0,0,1,95,0Z" transform="translate(705 7143)" fill="#33ece0"/>
    <path id="Trazado_838399" data-name="Trazado 838399" d="M95,0A95,95,0,1,1,0,95,95,95,0,0,1,95,0Z" transform="translate(915 6939)" fill="#e3ecf7"/>
    <path id="Trazado_838400" data-name="Trazado 838400" d="M95,0A95,95,0,1,1,0,95,95,95,0,0,1,95,0Z" transform="translate(495 6939)" fill="#a3bfe4"/>
    <path id="Trazado_838401" data-name="Trazado 838401" d="M61.19,11.568H56.339v3.059h5.73V17H53.254V4.2h8.833V6.585H56.339v2.7H61.19ZM66.376,7.49v9.835a3.452,3.452,0,0,1-.967,2.6,3.714,3.714,0,0,1-2.672.914,6.308,6.308,0,0,1-1.4-.149V18.45a5.667,5.667,0,0,0,.835.079,1.084,1.084,0,0,0,1.23-1.222V7.49Zm-3.19-2.452A1.322,1.322,0,0,1,63.643,4a1.943,1.943,0,0,1,2.373,0,1.322,1.322,0,0,1,.457,1.037,1.322,1.322,0,0,1-.457,1.037,1.943,1.943,0,0,1-2.373,0A1.322,1.322,0,0,1,63.186,5.038Zm9.466,12.138a4.889,4.889,0,0,1-3.542-1.305,4.507,4.507,0,0,1-1.354-3.4v-.246A5.84,5.84,0,0,1,68.3,9.652a3.955,3.955,0,0,1,1.578-1.727,4.763,4.763,0,0,1,2.461-.611A4.117,4.117,0,0,1,75.5,8.558a4.887,4.887,0,0,1,1.16,3.467v1.151H70.771a2.135,2.135,0,0,0,.694,1.257,2.066,2.066,0,0,0,1.389.457,2.662,2.662,0,0,0,2.2-.984l1.354,1.6a3.784,3.784,0,0,1-1.569,1.217A5.3,5.3,0,0,1,72.651,17.176ZM72.317,9.6q-1.3,0-1.547,1.723h2.988v-.229a1.467,1.467,0,0,0-.36-1.1A1.434,1.434,0,0,0,72.317,9.6ZM80.649,7.49l.1,1.116a3.27,3.27,0,0,1,2.716-1.292A2.407,2.407,0,0,1,85.9,8.747a3.165,3.165,0,0,1,2.795-1.433q2.892,0,2.971,3.5V17H88.691V11a1.813,1.813,0,0,0-.246-1.063,1.048,1.048,0,0,0-.9-.334,1.4,1.4,0,0,0-1.31.782l.009.123V17H83.277V11.015a1.906,1.906,0,0,0-.237-1.081,1.045,1.045,0,0,0-.905-.334,1.42,1.42,0,0,0-1.3.782V17H77.872V7.49Zm21.533,4.825a5.735,5.735,0,0,1-1,3.538,3.2,3.2,0,0,1-2.694,1.323,2.742,2.742,0,0,1-2.153-.958v4.438H93.376V7.49h2.769l.088.879a2.742,2.742,0,0,1,2.241-1.055,3.224,3.224,0,0,1,2.733,1.3,5.805,5.805,0,0,1,.976,3.564Zm-2.962-.185q0-2.531-1.477-2.531a1.394,1.394,0,0,0-1.406.756V14.1a1.439,1.439,0,0,0,1.424.791q1.415,0,1.459-2.443ZM106.612,17h-2.971V3.5h2.971Zm1.45-4.843a5.613,5.613,0,0,1,.554-2.536,3.96,3.96,0,0,1,1.591-1.709,4.791,4.791,0,0,1,2.435-.6,4.373,4.373,0,0,1,3.366,1.323,5.076,5.076,0,0,1,1.23,3.6v.105A4.925,4.925,0,0,1,116,15.871a4.384,4.384,0,0,1-3.344,1.305,4.434,4.434,0,0,1-3.261-1.217,4.761,4.761,0,0,1-1.327-3.3Zm2.962.185a3.538,3.538,0,0,0,.413,1.934,1.376,1.376,0,0,0,1.222.615q1.582,0,1.617-2.435v-.3q0-2.558-1.635-2.558-1.485,0-1.608,2.206Z" transform="translate(505 7000)" fill="#12263f"/>
    <path id="Trazado_838402" data-name="Trazado 838402" d="M25.751,17V4.2h4.6a6.509,6.509,0,0,1,3.757.905,3.012,3.012,0,0,1,1.288,2.628,3.045,3.045,0,0,1-.457,1.7,2.663,2.663,0,0,1-1.345,1.037,2.7,2.7,0,0,1,1.538.984,2.862,2.862,0,0,1,.536,1.758,3.388,3.388,0,0,1-1.191,2.826A5.667,5.667,0,0,1,30.945,17Zm3.085-5.44v3.067h2.021a1.923,1.923,0,0,0,1.283-.382,1.338,1.338,0,0,0,.448-1.077A1.419,1.419,0,0,0,31,11.56Zm0-2.021h1.608a2.285,2.285,0,0,0,1.441-.37A1.314,1.314,0,0,0,32.316,8.1a1.379,1.379,0,0,0-.466-1.168,2.493,2.493,0,0,0-1.5-.357H28.836Zm12.99,7.638a4.889,4.889,0,0,1-3.542-1.305,4.507,4.507,0,0,1-1.354-3.4v-.246a5.84,5.84,0,0,1,.541-2.575,3.955,3.955,0,0,1,1.578-1.727,4.763,4.763,0,0,1,2.461-.611,4.117,4.117,0,0,1,3.164,1.244,4.887,4.887,0,0,1,1.16,3.467v1.151H39.945a2.135,2.135,0,0,0,.694,1.257,2.066,2.066,0,0,0,1.389.457,2.662,2.662,0,0,0,2.2-.984l1.354,1.6a3.784,3.784,0,0,1-1.569,1.217A5.3,5.3,0,0,1,41.826,17.176ZM41.492,9.6q-1.3,0-1.547,1.723h2.988v-.229a1.467,1.467,0,0,0-.36-1.1A1.434,1.434,0,0,0,41.492,9.6ZM49.745,7.49l.1,1.116a3.225,3.225,0,0,1,2.716-1.292,2.713,2.713,0,0,1,2.219.888,4.226,4.226,0,0,1,.76,2.672V17H52.566V11a1.6,1.6,0,0,0-.29-1.059A1.342,1.342,0,0,0,51.222,9.6a1.413,1.413,0,0,0-1.292.686V17H46.968V7.49Zm12.032,9.686a4.889,4.889,0,0,1-3.542-1.305,4.507,4.507,0,0,1-1.354-3.4v-.246a5.84,5.84,0,0,1,.541-2.575A3.955,3.955,0,0,1,59,7.925a4.763,4.763,0,0,1,2.461-.611,4.117,4.117,0,0,1,3.164,1.244,4.887,4.887,0,0,1,1.16,3.467v1.151H59.9a2.135,2.135,0,0,0,.694,1.257,2.066,2.066,0,0,0,1.389.457,2.662,2.662,0,0,0,2.2-.984l1.354,1.6a3.784,3.784,0,0,1-1.569,1.217A5.3,5.3,0,0,1,61.777,17.176ZM61.443,9.6q-1.3,0-1.547,1.723h2.988v-.229a1.467,1.467,0,0,0-.36-1.1A1.434,1.434,0,0,0,61.443,9.6ZM67.666,17V9.547h-1.38V7.49h1.38V7.174a3.631,3.631,0,0,1,1.248-2.909,4.987,4.987,0,0,1,3.243-.949,11.509,11.509,0,0,1,3.094.51l-.4,2.338-.492-.132a7.832,7.832,0,0,0-2.021-.255q-1.7,0-1.7,1.547V7.49H72.5V9.547H70.637V17Zm8.947,0H73.634V7.49h2.979Zm5.827-2.109a1.317,1.317,0,0,0,.967-.338,1.241,1.241,0,0,0,.334-.945h2.777A3.288,3.288,0,0,1,85.4,16.174a4.168,4.168,0,0,1-2.887,1,4.22,4.22,0,0,1-3.27-1.3,5.125,5.125,0,0,1-1.2-3.6v-.123A5.792,5.792,0,0,1,78.578,9.6a3.872,3.872,0,0,1,1.534-1.7,4.573,4.573,0,0,1,2.373-.593,4.116,4.116,0,0,1,2.944,1.028,3.647,3.647,0,0,1,1.09,2.786H83.741A1.626,1.626,0,0,0,83.381,10a1.244,1.244,0,0,0-.967-.4q-1.151,0-1.345,1.468a10.357,10.357,0,0,0-.062,1.283,4.068,4.068,0,0,0,.343,1.986A1.187,1.187,0,0,0,82.44,14.891ZM90.9,17H87.925V7.49H90.9ZM87.749,5.038A1.322,1.322,0,0,1,88.206,4a1.943,1.943,0,0,1,2.373,0,1.322,1.322,0,0,1,.457,1.037,1.322,1.322,0,0,1-.457,1.037,1.943,1.943,0,0,1-2.373,0A1.322,1.322,0,0,1,87.749,5.038Zm4.6,7.119A5.613,5.613,0,0,1,92.9,9.622,3.96,3.96,0,0,1,94.49,7.912a4.791,4.791,0,0,1,2.435-.6,4.373,4.373,0,0,1,3.366,1.323,5.076,5.076,0,0,1,1.23,3.6v.105a4.925,4.925,0,0,1-1.235,3.529,4.384,4.384,0,0,1-3.344,1.305,4.434,4.434,0,0,1-3.261-1.217,4.761,4.761,0,0,1-1.327-3.3Zm2.962.185a3.538,3.538,0,0,0,.413,1.934,1.376,1.376,0,0,0,1.222.615q1.582,0,1.617-2.435v-.3q0-2.558-1.635-2.558-1.485,0-1.608,2.206Zm12.5,1.986a.684.684,0,0,0-.4-.606,6.016,6.016,0,0,0-1.5-.475,6.853,6.853,0,0,1-1.828-.646,3.062,3.062,0,0,1-1.1-.971,2.319,2.319,0,0,1-.378-1.31,2.628,2.628,0,0,1,1.081-2.158,4.453,4.453,0,0,1,2.83-.848,4.934,4.934,0,0,1,3.023.853,2.666,2.666,0,0,1,1.143,2.241h-2.971q0-1.143-1.2-1.143a1.194,1.194,0,0,0-.782.259.8.8,0,0,0-.316.646.737.737,0,0,0,.387.642,3.654,3.654,0,0,0,1.235.4,10.671,10.671,0,0,1,1.49.378,2.706,2.706,0,0,1,2.145,2.646,2.491,2.491,0,0,1-1.156,2.118,5.068,5.068,0,0,1-2.993.817,5.172,5.172,0,0,1-2.18-.439,3.645,3.645,0,0,1-1.494-1.2,2.707,2.707,0,0,1-.536-1.591h2.769a1.145,1.145,0,0,0,.439.962,1.808,1.808,0,0,0,1.081.3,1.422,1.422,0,0,0,.91-.246A.787.787,0,0,0,107.806,14.328Z" transform="translate(733 7205)" fill="#12263f"/>
    <path id="Trazado_838403" data-name="Trazado 838403" d="M37.521,13.52,40.07,4.2h3.445L39.209,17H35.834L31.563,4.2h3.419Zm11,3.656a4.889,4.889,0,0,1-3.542-1.305,4.507,4.507,0,0,1-1.354-3.4v-.246a5.84,5.84,0,0,1,.541-2.575,3.955,3.955,0,0,1,1.578-1.727,4.763,4.763,0,0,1,2.461-.611,4.117,4.117,0,0,1,3.164,1.244,4.887,4.887,0,0,1,1.16,3.467v1.151H46.645a2.135,2.135,0,0,0,.694,1.257,2.066,2.066,0,0,0,1.389.457,2.662,2.662,0,0,0,2.2-.984l1.354,1.6a3.784,3.784,0,0,1-1.569,1.217A5.3,5.3,0,0,1,48.525,17.176ZM48.191,9.6q-1.3,0-1.547,1.723h2.988v-.229a1.467,1.467,0,0,0-.36-1.1A1.434,1.434,0,0,0,48.191,9.6ZM56.444,7.49l.1,1.116a3.225,3.225,0,0,1,2.716-1.292,2.713,2.713,0,0,1,2.219.888,4.226,4.226,0,0,1,.76,2.672V17H59.266V11a1.6,1.6,0,0,0-.29-1.059A1.342,1.342,0,0,0,57.921,9.6a1.413,1.413,0,0,0-1.292.686V17H53.667V7.49ZM67.325,5.126V7.49H68.89V9.547H67.325V13.9a1.111,1.111,0,0,0,.193.747,1.037,1.037,0,0,0,.765.211,4.345,4.345,0,0,0,.738-.053v2.118a5.466,5.466,0,0,1-1.67.255,3.1,3.1,0,0,1-2.259-.721,2.954,2.954,0,0,1-.729-2.188V9.547H63.15V7.49h1.213V5.126ZM75.411,17a3.344,3.344,0,0,1-.281-.853,2.754,2.754,0,0,1-2.285,1.028,3.374,3.374,0,0,1-2.285-.813,2.588,2.588,0,0,1-.94-2.043,2.66,2.66,0,0,1,1.143-2.338,5.821,5.821,0,0,1,3.322-.791H75v-.5q0-1.316-1.134-1.316a.927.927,0,0,0-1.055,1.042H69.848a2.655,2.655,0,0,1,1.173-2.239,4.931,4.931,0,0,1,2.993-.86,4.323,4.323,0,0,1,2.874.888,3.086,3.086,0,0,1,1.081,2.435v4.21a4.311,4.311,0,0,0,.4,2V17Zm-1.854-1.934a1.652,1.652,0,0,0,.918-.237A1.487,1.487,0,0,0,75,14.293V12.772h-.861q-1.547,0-1.547,1.389a.848.848,0,0,0,.272.655A.986.986,0,0,0,73.557,15.066ZM82.794,7.49v9.835a3.452,3.452,0,0,1-.967,2.6,3.714,3.714,0,0,1-2.672.914,6.308,6.308,0,0,1-1.4-.149V18.45a5.667,5.667,0,0,0,.835.079,1.084,1.084,0,0,0,1.23-1.222V7.49ZM79.6,5.038A1.322,1.322,0,0,1,80.061,4a1.943,1.943,0,0,1,2.373,0,1.322,1.322,0,0,1,.457,1.037,1.322,1.322,0,0,1-.457,1.037,1.943,1.943,0,0,1-2.373,0A1.322,1.322,0,0,1,79.6,5.038ZM89.825,17a3.344,3.344,0,0,1-.281-.853,2.754,2.754,0,0,1-2.285,1.028,3.374,3.374,0,0,1-2.285-.813,2.588,2.588,0,0,1-.94-2.043,2.66,2.66,0,0,1,1.143-2.338A5.821,5.821,0,0,1,88.5,11.19h.914v-.5q0-1.316-1.134-1.316a.927.927,0,0,0-1.055,1.042H84.262a2.655,2.655,0,0,1,1.173-2.239,4.931,4.931,0,0,1,2.993-.86A4.323,4.323,0,0,1,91.3,8.2a3.086,3.086,0,0,1,1.081,2.435v4.21a4.311,4.311,0,0,0,.4,2V17Zm-1.854-1.934a1.652,1.652,0,0,0,.918-.237,1.487,1.487,0,0,0,.523-.536V12.772h-.861Q87,12.772,87,14.161a.848.848,0,0,0,.272.655A.986.986,0,0,0,87.971,15.066ZM99,14.328a.684.684,0,0,0-.4-.606,6.016,6.016,0,0,0-1.5-.475,6.853,6.853,0,0,1-1.828-.646,3.062,3.062,0,0,1-1.1-.971,2.319,2.319,0,0,1-.378-1.31,2.628,2.628,0,0,1,1.081-2.158,4.453,4.453,0,0,1,2.83-.848,4.934,4.934,0,0,1,3.023.853,2.666,2.666,0,0,1,1.143,2.241H98.9q0-1.143-1.2-1.143a1.194,1.194,0,0,0-.782.259.8.8,0,0,0-.316.646.737.737,0,0,0,.387.642,3.654,3.654,0,0,0,1.235.4,10.671,10.671,0,0,1,1.49.378,2.706,2.706,0,0,1,2.145,2.646,2.491,2.491,0,0,1-1.156,2.118,5.068,5.068,0,0,1-2.993.817,5.172,5.172,0,0,1-2.18-.439,3.645,3.645,0,0,1-1.494-1.2A2.707,2.707,0,0,1,93.5,13.95h2.769a1.145,1.145,0,0,0,.439.962,1.808,1.808,0,0,0,1.081.3,1.422,1.422,0,0,0,.91-.246A.787.787,0,0,0,99,14.328Z" transform="translate(943 7011)" fill="#12263f"/>
    <g id="Grupo_1017141" data-name="Grupo 1017141" transform="translate(769.117 6825.533)">
      <g id="Grupo_1017140" data-name="Grupo 1017140" clip-path="url(#clip-path)">
        <path id="Trazado_608563" data-name="Trazado 608563" d="M16.611,16.62c0-2.724,0-5.357,0-7.99A4.632,4.632,0,0,1,21.562,3.7c2.323,0,4.646,0,7.047,0,0-.353-.009-.673,0-.992a2.739,2.739,0,0,1,2.7-2.691q4.671-.035,9.342,0a2.743,2.743,0,0,1,2.719,2.728c.008.288,0,.576,0,.956h.623c2.191,0,4.383,0,6.575,0a4.608,4.608,0,0,1,4.8,4.793q.007,17.362,0,34.723A4.606,4.606,0,0,1,50.555,48Q36.109,48,21.662,48A4.694,4.694,0,0,1,16.6,42.876c0-.113,0-.225,0-.414h-.635q-6,0-12,0A3.7,3.7,0,0,1,0,38.5q0-8.969,0-17.938a3.694,3.694,0,0,1,3.931-3.937q6,0,12,0ZM48.867,42.432V9.237c-1.922,0-3.8-.014-5.685.014a3.082,3.082,0,0,0-.871.3,6.241,6.241,0,0,1-1.762.581c-3.036.059-6.073.042-9.11.012a2.271,2.271,0,0,1-1.358-.357,3.07,3.07,0,0,0-2.254-.554c-1.364.018-2.729.005-4.094.005h-.662c0,2.462,0,4.861.013,7.259a.506.506,0,0,0,.288.341,3.725,3.725,0,0,1,2.47,3.778q-.012,8.852,0,17.7a3.746,3.746,0,0,1-2.652,4c-.022.009-.028.057-.055.116ZM7.383,18.545c-.089-.039-.122-.067-.156-.067-1.1-.005-2.191-.012-3.286-.011a1.883,1.883,0,0,0-2.094,2.1q0,8.968,0,17.936a1.881,1.881,0,0,0,2.09,2.108q8.966,0,17.933,0a1.886,1.886,0,0,0,2.122-2.134q0-5.075,0-10.15c0-2.634,0-5.267,0-7.9A1.755,1.755,0,0,0,22.5,18.523c-1.33-.094-2.672-.024-4.047-.024,0,.883,0,1.726,0,2.569A2.769,2.769,0,0,1,15.531,24q-2.6.01-5.19,0a2.776,2.776,0,0,1-2.957-2.96c0-.84,0-1.681,0-2.5M43.4,7.391c1.783,0,3.511,0,5.238,0a1.889,1.889,0,0,1,2.12,2.136q0,16.321,0,32.641a1.887,1.887,0,0,1-2.119,2.138q-4.469,0-8.938,0-8.217,0-16.433,0a1.877,1.877,0,0,1-2.033-1.64,1.619,1.619,0,0,0-.055-.171H18.506c-.263,2.215.867,3.656,2.865,3.657q14.618.007,29.235,0a2.754,2.754,0,0,0,2.913-2.886q.007-17.416,0-34.833a2.756,2.756,0,0,0-2.913-2.886c-2.249-.007-4.5,0-6.746,0-.148,0-.3.016-.465.025ZM35.989,1.854c-1.461,0-2.922,0-4.382,0-.829,0-1.15.323-1.153,1.152q-.007,2.076,0,4.152c0,.828.324,1.153,1.152,1.154q4.383.006,8.765,0c.827,0,1.151-.326,1.154-1.153q.008-2.076,0-4.153c0-.827-.325-1.15-1.153-1.152-1.461,0-2.922,0-4.383,0M28.6,5.545h-.558q-3.283,0-6.567,0A2.783,2.783,0,0,0,18.457,8.56q0,3.745,0,7.489v.542h2.768v-.647q0-3.255,0-6.51a1.868,1.868,0,0,1,2.037-2.041c1.574,0,3.149,0,4.723,0H28.6ZM9.232,18.486c0,.959-.017,1.859.006,2.758a.874.874,0,0,0,.92.906q2.762.024,5.525,0a.83.83,0,0,0,.9-.8c.049-.949.014-1.9.014-2.869Z" transform="translate(0 0)" fill="#12263f"/>
        <path id="Trazado_608564" data-name="Trazado 608564" d="M117.081,45.56c1.19-1.2,2.287-2.3,3.383-3.4a.966.966,0,0,1,1.079-.341.913.913,0,0,1,.285,1.584c-.991,1.018-2.005,2.014-3.01,3.019-.339.34-.668.691-1.022,1.015a.9.9,0,0,1-1.38-.007q-.9-.855-1.751-1.752a.919.919,0,1,1,1.3-1.3c.373.355.711.747,1.117,1.178" transform="translate(-75.122 -27.435)" fill="#12263f"/>
        <path id="Trazado_608565" data-name="Trazado 608565" d="M117.05,69.807c1.217-1.223,2.313-2.324,3.408-3.426a.976.976,0,0,1,1.077-.351.91.91,0,0,1,.3,1.58c-.826.857-1.679,1.688-2.52,2.531-.489.489-.97.986-1.47,1.463a.919.919,0,0,1-1.462.007q-.871-.839-1.71-1.711a.921.921,0,1,1,1.287-1.314,7.263,7.263,0,0,1,.57.569c.166.185.311.389.52.652" transform="translate(-75.122 -43.342)" fill="#12263f"/>
        <path id="Trazado_608566" data-name="Trazado 608566" d="M117.026,94.037l3.194-3.212c.122-.122.238-.252.369-.364a.9.9,0,0,1,1.3,0,.873.873,0,0,1,.011,1.292q-2.056,2.1-4.156,4.154a.856.856,0,0,1-1.291-.014c-.627-.594-1.24-1.2-1.831-1.834a.878.878,0,0,1,.013-1.291.9.9,0,0,1,1.3.006,5.688,5.688,0,0,1,.57.569c.175.2.325.425.531.7" transform="translate(-75.116 -59.248)" fill="#12263f"/>
        <path id="Trazado_608567" data-name="Trazado 608567" d="M86.738,51.137c1.15,0,2.3,0,3.451,0,.671,0,1.093.366,1.1.916s-.42.924-1.087.926q-3.509.008-7.017,0c-.671,0-1.092-.366-1.1-.917s.42-.921,1.086-.925c1.189-.007,2.378,0,3.566,0" transform="translate(-53.926 -33.593)" fill="#12263f"/>
        <path id="Trazado_608568" data-name="Trazado 608568" d="M86.679,77.2c-1.15,0-2.3,0-3.451,0-.716,0-1.148-.358-1.144-.927s.434-.916,1.153-.917q3.451,0,6.9,0c.716,0,1.148.358,1.144.926s-.434.915-1.154.918c-1.15,0-2.3,0-3.451,0" transform="translate(-53.925 -49.501)" fill="#12263f"/>
        <path id="Trazado_608569" data-name="Trazado 608569" d="M86.68,99.562c1.169,0,2.339,0,3.509,0,.671,0,1.093.366,1.1.917s-.42.923-1.087.925q-3.508.008-7.017,0c-.67,0-1.092-.366-1.1-.917s.42-.921,1.087-.925c1.169-.007,2.339,0,3.509,0" transform="translate(-53.925 -65.406)" fill="#12263f"/>
        <path id="Trazado_608570" data-name="Trazado 608570" d="M14.481,98.716c-.862,0-1.725.005-2.587,0-.669-.005-1.091-.368-1.093-.918s.421-.921,1.087-.923q2.587-.009,5.174,0c.669,0,1.092.367,1.094.918s-.421.918-1.088.924c-.862.007-1.725,0-2.587,0" transform="translate(-7.096 -63.638)" fill="#12263f"/>
        <path id="Trazado_608571" data-name="Trazado 608571" d="M13.5,109.469c-.574,0-1.149.013-1.723,0a.919.919,0,1,1,0-1.835q1.78-.023,3.561,0a.919.919,0,1,1,0,1.835c-.612.017-1.225,0-1.838,0" transform="translate(-7.096 -70.701)" fill="#12263f"/>
      </g>
    </g>
    <g id="Grupo_1017143" data-name="Grupo 1017143" transform="translate(982.422 7043)">
      <g id="Grupo_1017142" data-name="Grupo 1017142" clip-path="url(#clip-path-2)">
        <path id="Trazado_608572" data-name="Trazado 608572" d="M35.806,0A16.164,16.164,0,0,1,38.12.917a5.439,5.439,0,0,1,2.652,3.757.9.9,0,0,1-.578,1.171A.873.873,0,0,1,39.079,5.1a4.175,4.175,0,0,0-6.935-2.178,8.829,8.829,0,0,1-2.351,1.688,5.614,5.614,0,0,1-6.378-1.233A5.259,5.259,0,0,0,21.3,1.958,4.117,4.117,0,0,0,15.98,5.747a10.755,10.755,0,0,1-.309,2.481,5.737,5.737,0,0,1-5.6,4.077,4.28,4.28,0,0,0-3.905,1.8,4.02,4.02,0,0,0,.4,5.161A6.713,6.713,0,0,1,8.63,22.843,5.729,5.729,0,0,1,6.972,28.09,4.477,4.477,0,0,0,5.45,30.907a4.156,4.156,0,0,0,4.069,4.6,10.354,10.354,0,0,1,2.853.526,5.48,5.48,0,0,1,3.6,5.379,4.415,4.415,0,0,0,1.3,3.5,4.1,4.1,0,0,0,5.627,0,7.1,7.1,0,0,1,2.56-1.8,5.754,5.754,0,0,1,6.226,1.318,5.021,5.021,0,0,0,2.741,1.559A4.075,4.075,0,0,0,39.1,42.126a7.452,7.452,0,0,1,.682-3.4,5.8,5.8,0,0,1,5.075-3.228,9.282,9.282,0,0,0,1.854-.181,4.106,4.106,0,0,0,1.835-6.771A6.935,6.935,0,0,1,46.6,25.533a5.721,5.721,0,0,1,1.531-5.815,4.428,4.428,0,0,0,1.537-3.344,4.049,4.049,0,0,0-4.082-4.041,6.134,6.134,0,0,1-4.771-1.807A8.294,8.294,0,0,1,39.745,9a.88.88,0,1,1,1.536-.827,4.063,4.063,0,0,0,2.545,2.182,6.355,6.355,0,0,0,1.617.185,5.78,5.78,0,0,1,5.573,3.732,5.666,5.666,0,0,1-1.368,6.407c-1.659,1.684-1.973,3.573-.856,5.4a6.776,6.776,0,0,0,.934,1.119A5.9,5.9,0,0,1,47.842,36.8c-.105.046-.206.1-.342.172.19.341.367.663.548.983q3.387,6.017,6.781,12.031A1.975,1.975,0,0,1,52.8,52.99c-2.2-.3-4.414-.56-6.618-.862a.636.636,0,0,0-.8.455Q44.1,55.6,42.776,58.591a1.951,1.951,0,0,1-2.695,1.2,2.837,2.837,0,0,1-1.026-.987c-.55-.85-1.019-1.753-1.512-2.64-.358-.645-.269-1.159.227-1.424.469-.251.954-.059,1.3.539.457.8.895,1.6,1.349,2.4.112.2.253.376.448.663.163-.283.291-.465.378-.664.829-1.893,1.647-3.791,2.475-5.684.646-1.475,1.227-1.8,2.836-1.587,1.954.256,3.907.519,5.862.772.3.039.6.036,1.032.06-.132-.283-.2-.456-.289-.616q-3.661-6.5-7.319-13a.642.642,0,0,0-.641-.375,4.154,4.154,0,0,0-4.3,4.391,5.749,5.749,0,0,1-3.639,5.685,14.683,14.683,0,0,1-2.336.623c.471.839.982,1.751,1.495,2.663.239.425.491.843.717,1.275a.891.891,0,1,1-1.55.842c-.959-1.677-1.893-3.367-2.861-5.038a2.919,2.919,0,0,0-.671-.7c-.563-.478-1.162-.917-1.715-1.406a4.12,4.12,0,0,0-5.544-.03c-.647.559-1.349,1.053-2.01,1.6a1.938,1.938,0,0,0-.423.544q-3.132,5.524-6.254,11.052a2.02,2.02,0,0,1-2.532,1.122,2.232,2.232,0,0,1-1.29-1.355c-.852-1.968-1.718-3.93-2.555-5.9-.162-.381-.344-.54-.778-.48-2.2.3-4.409.6-6.617.861A1.893,1.893,0,0,1,.007,51.335a2.967,2.967,0,0,1,.409-1.592c2.265-4.074,4.571-8.127,6.864-12.186.1-.185.2-.374.329-.609A6.282,6.282,0,0,1,4.931,35a5.846,5.846,0,0,1,.407-7.748A4.8,4.8,0,0,0,6.924,24.4a4.009,4.009,0,0,0-.948-3.154c-.339-.4-.742-.754-1.06-1.171a5.6,5.6,0,0,1-.716-6.01,5.511,5.511,0,0,1,5.292-3.5,4.55,4.55,0,0,0,3.871-1.656A3.886,3.886,0,0,0,14.2,6.231,5.917,5.917,0,0,1,19.411.051a.379.379,0,0,0,.1-.051h1.172a13.233,13.233,0,0,1,2.289.788,12.046,12.046,0,0,1,1.9,1.527,4.107,4.107,0,0,0,5.391-.036,7.4,7.4,0,0,1,1.224-1.072C32.348.741,33.27.4,34.165,0ZM1.656,51.214a6.522,6.522,0,0,0,.72,0c2.127-.273,4.252-.57,6.382-.827a2.09,2.09,0,0,1,2.573,1.487q1.276,2.919,2.55,5.839c.081.186.19.36.379.711l5.991-10.6c-.3-.022-.495-.034-.689-.052a5.839,5.839,0,0,1-5.124-4.248,11.69,11.69,0,0,1-.231-2.257,3.9,3.9,0,0,0-.8-2.336,5.1,5.1,0,0,0-3.746-1.634c-.12-.012-.307.2-.39.343Q5.607,44.093,1.957,50.562c-.1.177-.172.371-.3.652" transform="translate(0)" fill="#232323"/>
        <path id="Trazado_608573" data-name="Trazado 608573" d="M74.425,43.331a17,17,0,0,1-33.382,4.5c-.185-.653.009-1.12.533-1.287.5-.161.958.123,1.147.786a15.437,15.437,0,0,0,5.1,7.815,15.262,15.262,0,0,0,18.549.482,15.18,15.18,0,0,0-2.15-25.888,14.618,14.618,0,0,0-16.5,1.9,14.45,14.45,0,0,0-5.491,11.2,11.032,11.032,0,0,1-.051,1.11.825.825,0,0,1-.913.789.84.84,0,0,1-.81-.9,16.47,16.47,0,0,1,1.257-6.973,16.647,16.647,0,0,1,8.64-8.978,16.376,16.376,0,0,1,13.9-.111,16.628,16.628,0,0,1,9.3,10.2,17.013,17.013,0,0,1,.872,5.348" transform="translate(-29.875 -19.417)" fill="#232323"/>
        <path id="Trazado_608574" data-name="Trazado 608574" d="M80.057,54.892a4.754,4.754,0,0,1,3.91,3.677,1.689,1.689,0,0,1,.067.4c0,2.322.1,4.651-.027,6.966a5.349,5.349,0,0,1-5.487,4.875c-2.91.005-5.82,0-8.73,0a3.084,3.084,0,0,1-2.159-.782c-.868.113-1.567.248-2.271.284-.837.044-1.68.03-2.518-.008a2.175,2.175,0,0,1-2.12-2.158q-.034-5.447,0-10.9a2.2,2.2,0,0,1,2.215-2.19c1.034-.023,2.073-.054,3.1.016a9.054,9.054,0,0,1,1.7.467c.846-.779,2.031-.737,3.206-.695a.992.992,0,0,0,.892-.412c1.344-1.65,2.693-3.3,4.073-4.916a3.315,3.315,0,0,1,4.264-.871,3.265,3.265,0,0,1,1.145,4.57c-.367.568-.818,1.082-1.266,1.666M68.492,62.827c0,1.522-.006,3.045,0,4.567.005,1.107.423,1.532,1.515,1.534q4.158.008,8.316,0a3.585,3.585,0,0,0,3.865-3.872q.01-2.576,0-5.153A2.822,2.822,0,0,0,79.4,56.741a1.592,1.592,0,0,1-1.1-2.724c.413-.494.832-.984,1.226-1.492a1.471,1.471,0,0,0,.379-1.352,1.324,1.324,0,0,0-1.024-1.015,1.488,1.488,0,0,0-1.547.6q-1.714,2.077-3.437,4.147c-1.725,2.074-1.246,1.814-3.805,1.831-1.158.007-1.591.433-1.6,1.586-.005,1.5,0,3.006,0,4.508m-5.9-.114c0,1.7.008,3.4-.005,5.094,0,.438.142.651.608.641.878-.018,1.757-.008,2.635,0,.538,0,.779-.266.778-.795,0-3.3,0-6.6,0-9.9,0-.6-.22-.805-.815-.812-.82-.01-1.641.023-2.46-.011-.564-.024-.755.188-.746.748.026,1.678.01,3.357.01,5.036" transform="translate(-44.839 -35.617)" fill="#232323"/>
      </g>
    </g>
    <g id="Grupo_1017145" data-name="Grupo 1017145" transform="translate(765.087 7237)">
      <g id="Grupo_1017144" data-name="Grupo 1017144" clip-path="url(#clip-path-3)">
        <path id="Trazado_608575" data-name="Trazado 608575" d="M62.85,103.786a5.346,5.346,0,0,1-3.041,3.378c-2.342,1.252-4.631,2.6-6.942,3.913-.106.06-.21.127-.319.182a.934.934,0,0,1-1.333-.314.91.91,0,0,1,.443-1.29c1.558-.9,3.125-1.778,4.689-2.665,1.191-.676,2.391-1.335,3.569-2.032a2.174,2.174,0,0,0-.9-4.052,3.415,3.415,0,0,0-1.026.125,70.347,70.347,0,0,0-12.512,4.427.75.75,0,0,0-.4.55c.23,3.477-3.087,5.446-6.136,4.672-3.363-.853-6.677-1.9-10.009-2.869a.916.916,0,0,1-.691-1.182.931.931,0,0,1,1.242-.571q4.647,1.347,9.291,2.711a4.043,4.043,0,0,0,3.045-.154,2.445,2.445,0,0,0,1.387-2.745,2.064,2.064,0,0,0-1.673-1.818c-6.178-1.932-12.347-3.894-18.551-5.736a15.7,15.7,0,0,0-11.076.842c-.78.344-1.556.7-2.386,1.072l5.015,12.424c.75-.327,1.484-.614,2.188-.961a5.046,5.046,0,0,1,5.282.355,52.04,52.04,0,0,0,5.6,3.281,15.784,15.784,0,0,0,14.79-.451c1.786-.947,3.526-1.983,5.285-2.98a.942.942,0,0,1,1.237.086.833.833,0,0,1,.15,1.068.915.915,0,0,1-.333.349,78.75,78.75,0,0,1-7.79,4.116,17.276,17.276,0,0,1-15.568-1.248c-1.529-.865-3.017-1.8-4.5-2.748a3.1,3.1,0,0,0-3.249-.217c-.807.394-1.652.708-2.459,1.1a.931.931,0,0,0-.443.553,4.686,4.686,0,0,1-2.954,3.5c-2.594,1.047-5.185,2.1-7.785,3.134a2.759,2.759,0,0,1-3.986-2.7Q0,114.017,0,109.138c0-.1,0-.205,0-.307a.924.924,0,0,1,.931-.937.908.908,0,0,1,.9.965c.015,1.554.006,3.109.006,4.664,0,1.78,0,3.559,0,5.339,0,1,.558,1.389,1.475,1.022,2.616-1.046,5.233-2.093,7.837-3.169a2.712,2.712,0,0,0,1.545-3.687q-2.378-5.944-4.8-11.871a2.714,2.714,0,0,0-3.675-1.571c-.554.21-1.1.444-1.652.654a1.06,1.06,0,0,0-.741,1.133c.02.981.011,1.964,0,2.946-.005.689-.33,1.078-.89,1.094-.586.016-.942-.387-.947-1.1q-.011-1.565,0-3.13a2.4,2.4,0,0,1,1.016-2.131,8.838,8.838,0,0,1,4.212-1.531,4.032,4.032,0,0,1,2.752.86.852.852,0,0,0,.993.078,51.825,51.825,0,0,1,5.19-2,18.276,18.276,0,0,1,10.74.479c5.5,1.759,11.031,3.445,16.553,5.145a5.211,5.211,0,0,1,2.911,1.8c1.428-.594,2.8-1.25,4.219-1.737,2.972-1.017,5.952-2.026,8.972-2.885,2.546-.725,4.429.452,5.2,3.01a.993.993,0,0,0,.084.162Z" transform="translate(0 -60.86)" fill="#232323"/>
        <path id="Trazado_608576" data-name="Trazado 608576" d="M82.971,0a13.925,13.925,0,0,1,6.366,1.605,1.317,1.317,0,0,1,.658.724.992.992,0,0,1-.317.883,1.433,1.433,0,0,1-1.125.024,12.934,12.934,0,0,0-5.424-1.357A12,12,0,1,0,92.013,6a1.655,1.655,0,0,1-.357-.561.845.845,0,0,1,.425-1.046.927.927,0,0,1,1.245.312,13.612,13.612,0,0,1,3.206,6.457,13.6,13.6,0,0,1-1.621,9.695.749.749,0,0,0,.023.879c1.34,2.294,2.676,4.59,3.984,6.9a2.213,2.213,0,0,1-1.694,3.42,3.106,3.106,0,0,1-.966-.118c-.774-.188-1.538-.413-2.309-.612-.805-.209-1.186.012-1.412.82q-.33,1.18-.636,2.367a2.242,2.242,0,0,1-4.211.529c-1.3-2.27-2.612-4.532-3.921-6.8a.879.879,0,0,0-1.635-.014c-1.289,2.229-2.589,4.451-3.859,6.691a2.3,2.3,0,0,1-2.383,1.368,2.267,2.267,0,0,1-1.945-1.934c-.2-.749-.4-1.5-.606-2.248a.967.967,0,0,0-1.381-.788c-.771.2-1.538.414-2.308.616a2.253,2.253,0,0,1-2.64-3.391c1.3-2.225,2.57-4.462,3.875-6.682a.987.987,0,0,0,.018-1.157A13.844,13.844,0,0,1,80.9.194C81.584.1,82.279.063,82.971,0M72.409,22.891c-1.28,2.217-2.528,4.369-3.757,6.532a1.941,1.941,0,0,0-.1.663,2.294,2.294,0,0,0,.683.053c.774-.179,1.537-.407,2.307-.6a2.743,2.743,0,0,1,3.565,2.073c.21.746.383,1.5.612,2.242a2.493,2.493,0,0,0,.417.608,2.455,2.455,0,0,0,.547-.493C77.85,31.976,79,29.977,80.15,27.979c.077-.135.132-.283.216-.464a14.043,14.043,0,0,1-7.957-4.624m13.068,4.634c1.313,2.274,2.575,4.467,3.853,6.652.077.131.316.289.42.254a.69.69,0,0,0,.375-.41c.255-.861.452-1.739.709-2.6a2.728,2.728,0,0,1,3.349-1.934c.813.2,1.613.451,2.428.639a2.491,2.491,0,0,0,.738-.055,2.455,2.455,0,0,0-.153-.725c-1.148-2.026-2.317-4.04-3.483-6.055a4.414,4.414,0,0,0-.26-.358,14.108,14.108,0,0,1-7.975,4.591" transform="translate(-42.288)" fill="#232323"/>
        <path id="Trazado_608577" data-name="Trazado 608577" d="M95.8,28.938c-1.124.813-2.2,1.626-3.312,2.385a1.819,1.819,0,0,1-2.9-1.287,2.6,2.6,0,0,1,.147-.956c.327-1.073.66-2.146,1.037-3.2a.585.585,0,0,0-.272-.8c-.938-.655-1.858-1.336-2.778-2.017a1.838,1.838,0,0,1,1.062-3.4c1.1-.02,2.209-.03,3.311,0,.5.016.759-.115.9-.633.287-1.041.65-2.062.993-3.088a1.854,1.854,0,0,1,3.624.029c.339,1.027.686,2.052.992,3.089a.693.693,0,0,0,.806.6c1.02-.041,2.044-.014,3.066-.012,1.238,0,1.879.387,2.171,1.3.278.87-.033,1.577-1,2.274-.845.611-1.675,1.242-2.537,1.827a.612.612,0,0,0-.29.845c.372,1.037.7,2.089,1.038,3.138a1.864,1.864,0,0,1-2.982,2.129c-1.011-.729-2.018-1.462-3.08-2.232m6.9-7.294-.038-.147H99.358c-1.557,0-2-.328-2.483-1.818-.34-1.05-.684-2.1-1.083-3.32-.452,1.376-.835,2.578-1.241,3.771a1.786,1.786,0,0,1-1.822,1.359c-.674.024-1.35.008-2.025.008H88.882c.036.12.035.148.049.158q1.334.979,2.67,1.957c1.19.874,1.362,1.42.9,2.838-.349,1.077-.693,2.156-1.087,3.381,1.145-.827,2.151-1.562,3.165-2.284a1.822,1.822,0,0,1,2.424,0c.885.625,1.755,1.271,2.635,1.9.116.084.248.147.5.293l-1.114-3.451a1.928,1.928,0,0,1,.845-2.593q1.409-1.027,2.821-2.05" transform="translate(-55.134 -9.204)" fill="#232323"/>
      </g>
    </g>
    <g id="Grupo_1017147" data-name="Grupo 1017147" transform="translate(566 7043)">
      <g id="Grupo_1017146" data-name="Grupo 1017146" clip-path="url(#clip-path-4)">
        <path id="Trazado_608578" data-name="Trazado 608578" d="M0,1.749a1.137,1.137,0,0,0,.114-.182A2.246,2.246,0,0,1,2.377.021q6.655,0,13.309,0c.848,0,1.325.423,1.319,1.133s-.5,1.127-1.341,1.128q-6.286.007-12.573,0H2.313V53.054H39.655V42.888c-.361.311-.668.572-.972.837a1.446,1.446,0,0,1-1.717.307,1.486,1.486,0,0,1-.8-1.556c.145-2.657.275-5.315.431-7.972a2.533,2.533,0,0,1,.263-.911c.868-1.821,1.762-3.629,2.627-5.45a2.084,2.084,0,0,0,.2-.863q.016-12.2.007-24.409c0-.167-.016-.333-.028-.574h-.682q-6.23,0-12.459-.011a2.974,2.974,0,0,1-.783-.077,1.091,1.091,0,0,1-.782-1.17,1.107,1.107,0,0,1,.995-1A5.8,5.8,0,0,1,26.58.023c4.229,0,8.458.044,12.686-.023a2.485,2.485,0,0,1,2.723,2.7c-.042,6.437-.017,12.875-.017,19.312v.672l.121.047c.087-.166.179-.33.261-.5q3.341-6.9,6.678-13.793A4.564,4.564,0,0,1,53.2,5.62a4.614,4.614,0,0,1,4.37,6.537c-1.6,3.494-3.33,6.932-5,10.393-2.389,4.938-4.769,9.88-7.182,14.806A5.635,5.635,0,0,1,44.3,38.77a18.648,18.648,0,0,1-1.828,1.605,1.291,1.291,0,0,0-.514,1.158c.018,3.757,0,7.514.013,11.27a2.211,2.211,0,0,1-1.01,2.137,3.461,3.461,0,0,1-1.605.4c-6.89.026-13.781.017-20.672.017-5.248,0-10.5-.032-15.744.021A2.719,2.719,0,0,1,0,53.628V1.749M39.246,33.864l4.313,2.084,10.61-21.911-4.313-2.085L39.246,33.864M55.122,11.976c.734-1.216.8-2.157.2-3.022a2.319,2.319,0,0,0-2.294-1.049A2.577,2.577,0,0,0,50.88,9.922l4.242,2.054M42.049,37.745l-3.276-1.582c-.081,1.583-.155,3.055-.237,4.661l3.512-3.08" transform="translate(0 0)" fill="#232323"/>
        <path id="Trazado_608579" data-name="Trazado 608579" d="M36.974,41.461q-5.746,0-11.493,0c-.8,0-1.271-.366-1.327-1.008a1.093,1.093,0,0,1,.872-1.211,3.406,3.406,0,0,1,.731-.049q11.239,0,22.477,0a3.114,3.114,0,0,1,.891.1,1.1,1.1,0,0,1,.734,1.15,1.125,1.125,0,0,1-1,1,5.707,5.707,0,0,1-.622.015H36.974" transform="translate(-16.012 -25.985)" fill="#232323"/>
        <path id="Trazado_608580" data-name="Trazado 608580" d="M37.025,57.906H48.179c.208,0,.416-.006.622.011a1.119,1.119,0,0,1,.167,2.214,2.517,2.517,0,0,1-.561.045q-11.408,0-22.817,0c-.883,0-1.38-.36-1.437-1.028a1.083,1.083,0,0,1,1.1-1.231c.905-.027,1.812-.012,2.717-.012h9.059" transform="translate(-16.012 -38.393)" fill="#232323"/>
        <path id="Trazado_608581" data-name="Trazado 608581" d="M37,20.57H48.153c.17,0,.34,0,.509,0a1.145,1.145,0,0,1,1.2,1.1,1.166,1.166,0,0,1-1.148,1.165c-.168.014-.339.006-.509.006q-11.21,0-22.42,0A3.509,3.509,0,0,1,25,22.782a1.116,1.116,0,0,1,.166-2.2c.206-.02.415-.014.622-.014H37" transform="translate(-16.013 -13.639)" fill="#232323"/>
        <path id="Trazado_608582" data-name="Trazado 608582" d="M36.95,95.258q5.8,0,11.607,0c.962,0,1.578.785,1.168,1.549-.163.3-.57.486-.886.693-.095.062-.258.022-.39.022q-11.465,0-22.93,0c-.758,0-1.227-.3-1.359-.855a1.112,1.112,0,0,1,1.128-1.4c1.189-.017,2.378-.005,3.567-.005h8.1" transform="translate(-15.995 -63.16)" fill="#232323"/>
        <path id="Trazado_608583" data-name="Trazado 608583" d="M37.016,132.592q5.775,0,11.55,0c.942,0,1.561.739,1.193,1.492-.157.322-.576.525-.9.751-.09.063-.257.02-.389.02H25.542a2.651,2.651,0,0,1-.451-.018,1.13,1.13,0,0,1,.093-2.24c.168-.016.34-.007.509-.007H37.016" transform="translate(-16.012 -87.916)" fill="#232323"/>
        <path id="Trazado_608584" data-name="Trazado 608584" d="M36.972,78.814q-5.746,0-11.492,0c-.8,0-1.271-.367-1.326-1.008a1.089,1.089,0,0,1,.874-1.208,3.217,3.217,0,0,1,.675-.046q11.294,0,22.589,0a3.087,3.087,0,0,1,.728.063,1.108,1.108,0,0,1,.843,1.129,1.119,1.119,0,0,1-1,1.055,5.707,5.707,0,0,1-.622.016H36.972" transform="translate(-16.012 -50.757)" fill="#232323"/>
        <path id="Trazado_608585" data-name="Trazado 608585" d="M36.964,116.16q-5.746,0-11.492,0c-.8,0-1.268-.374-1.318-1.017a1.087,1.087,0,0,1,.938-1.211,4,4,0,0,1,.676-.034q11.238,0,22.475,0a3.591,3.591,0,0,1,.73.051,1.111,1.111,0,0,1-.121,2.2,5.713,5.713,0,0,1-.622.017H36.964" transform="translate(-16.012 -75.52)" fill="#232323"/>
        <path id="Trazado_608586" data-name="Trazado 608586" d="M61.166,1.244a1.126,1.126,0,0,1-1.14,1.094A1.159,1.159,0,0,1,58.915,1.2,1.126,1.126,0,0,1,60.1.092a1.093,1.093,0,0,1,1.066,1.152" transform="translate(-39.065 -0.061)" fill="#232323"/>
      </g>
    </g>
    <g id="Grupo_1017149" data-name="Grupo 1017149" transform="translate(771.342 6959.6)">
      <g id="Grupo_1017148" data-name="Grupo 1017148" clip-path="url(#clip-path-5)">
        <path id="Trazado_608587" data-name="Trazado 608587" d="M30.548,118.681a6.241,6.241,0,0,0-1.83-.825q-11.083-4.409-22.183-8.775a1.475,1.475,0,0,1-1.058-1.558c.016-4.926,0-9.853.019-14.779a.81.81,0,0,0-.61-.926C3.565,91.339,2.265,90.8.959,90.273c-.994-.4-1.21-1.019-.673-1.972,1.74-3.081,3.492-6.155,5.227-9.24A1.927,1.927,0,0,1,6.579,78.2c3.559-1.4,7.107-2.819,10.671-4.2.487-.189.552-.4.432-.883-2.244-9,4.972-17.738,14.057-17.045a13.7,13.7,0,0,1,12.6,14.849,8.183,8.183,0,0,1-.331,2.044c-.232.686.012.878.588,1.1,3.477,1.348,6.935,2.746,10.409,4.1a2.276,2.276,0,0,1,1.237,1.078c1.657,2.964,3.344,5.912,5.02,8.866.692,1.22.494,1.772-.813,2.284-1.245.488-2.483.992-3.737,1.454a.728.728,0,0,0-.554.819c.02,4.9.012,9.8.012,14.707,0,1.121-.144,1.343-1.176,1.753q-11.643,4.619-23.284,9.241c-.292.116-.637.074-.883.315Zm.28-35.01c-.7-.063-1.41-.072-2.1-.2a13.5,13.5,0,0,1-9.811-7.08c-.252-.458-.452-.537-.924-.341-2.41,1-4.836,1.96-7.255,2.938-.289.117-.569.259-.927.423.209.1.312.157.421.2q8.229,3.253,16.46,6.5c1.374.54,2.716,1.17,4.14,1.576a4.463,4.463,0,0,0,.538-.141q8.46-3.341,16.917-6.689c1.162-.46,2.321-.93,3.637-1.458-2.954-1.189-5.742-2.307-8.526-3.435-.349-.142-.453.073-.583.316a13.96,13.96,0,0,1-2.035,2.913,13.607,13.607,0,0,1-9.954,4.478M29.7,93.561l-.134-.028q-1.445,2.543-2.891,5.085c-.8,1.405-.985,1.462-2.467.874-5.266-2.087-10.535-4.162-15.795-6.265-.539-.215-.694-.2-.69.454q.037,6.349,0,12.7a.881.881,0,0,0,.674.972q10.3,4.056,20.582,8.156c.577.23.739.162.737-.516-.023-6.983-.014-13.966-.014-20.949v-.48m2.385-.036-.128.044q0,10.8-.011,21.592c0,.737.348.488.692.352q10.323-4.087,20.65-8.166a.885.885,0,0,0,.647-.994c-.022-4.208-.011-8.417-.015-12.626a1.208,1.208,0,0,0-.086-.7c-.2.075-.375.137-.547.205L37.359,99.535c-1.355.536-1.6.45-2.318-.82l-2.954-5.19M30.806,58.316A11.517,11.517,0,1,0,42.119,69.787,11.406,11.406,0,0,0,30.806,58.316m6.221,38.861c.093-.034.226-.078.357-.13Q47.865,92.9,58.35,88.759c.53-.208.475-.389.241-.8-1.246-2.162-2.483-4.33-3.688-6.517-.281-.51-.549-.553-1.052-.348-2.5,1.021-5.015,2.005-7.526,3q-6.647,2.636-13.295,5.272c-.249.1-.651.084-.359.589,1.318,2.286,2.611,4.586,3.915,6.88.091.16.154.362.44.337M7.305,80.919c-.33-.028-.386.284-.5.491-1.239,2.166-2.453,4.347-3.711,6.5-.294.5-.205.68.31.883q10.424,4.1,20.83,8.241c.472.188.693.116.94-.331,1.2-2.163,2.4-4.322,3.662-6.447.348-.587.215-.753-.345-.974q-10.357-4.072-20.7-8.18c-.153-.06-.307-.117-.482-.184" transform="translate(0 -45.281)" fill="#232323"/>
        <path id="Trazado_608588" data-name="Trazado 608588" d="M37.86,120.406c.846,0,1.691-.016,2.536,0a1.146,1.146,0,1,1,.044,2.287q-2.571.037-5.143,0a1.142,1.142,0,1,1,.027-2.283c.845-.024,1.691-.006,2.536-.006" transform="translate(-27.7 -97.306)" fill="#232323"/>
        <path id="Trazado_608589" data-name="Trazado 608589" d="M101.234,21.163a1.168,1.168,0,0,1-.782,1.086.969.969,0,0,1-1.242-.391q-1.445-2.449-2.792-4.957a.994.994,0,0,1,.458-1.351.946.946,0,0,1,1.387.209c1.062,1.654,2.017,3.376,2.917,5.128a1.008,1.008,0,0,1,.055.275" transform="translate(-78.16 -12.401)" fill="#232323"/>
        <path id="Trazado_608590" data-name="Trazado 608590" d="M205.643,24.006a1.13,1.13,0,0,1-1.035-1.63c.865-1.633,1.792-3.233,2.732-4.824a1.051,1.051,0,0,1,1.485-.339,1.106,1.106,0,0,1,.42,1.491c-.874,1.6-1.786,3.181-2.694,4.764a1.1,1.1,0,0,1-.908.537" transform="translate(-165.967 -13.774)" fill="#232323"/>
        <path id="Trazado_608591" data-name="Trazado 608591" d="M52.465,59.5a5.568,5.568,0,0,1,.639.282q2.1,1.222,4.193,2.463c.733.436.945,1.043.606,1.658a1.113,1.113,0,0,1-1.7.349c-1.444-.834-2.879-1.686-4.317-2.53a1.172,1.172,0,0,1,.575-2.222" transform="translate(-41.583 -48.09)" fill="#232323"/>
        <path id="Trazado_608592" data-name="Trazado 608592" d="M239.588,67.337a1.136,1.136,0,0,1-1.16-.764,1.086,1.086,0,0,1,.48-1.362c.719-.445,1.454-.862,2.182-1.291.769-.453,1.53-.92,2.307-1.357a1.1,1.1,0,0,1,1.634.389,1.125,1.125,0,0,1-.493,1.578c-1.448.873-2.909,1.724-4.37,2.574a3.791,3.791,0,0,1-.58.234" transform="translate(-193.459 -50.397)" fill="#232323"/>
        <path id="Trazado_608593" data-name="Trazado 608593" d="M253.975,123.6c.842,0,1.685-.011,2.527,0a1.13,1.13,0,0,1,1.247,1.141,1.153,1.153,0,0,1-1.258,1.15q-2.492.025-4.985,0a1.138,1.138,0,0,1-1.273-1.2c.02-.678.487-1.086,1.284-1.1.819-.01,1.638,0,2.457,0" transform="translate(-203.102 -99.89)" fill="#232323"/>
        <path id="Trazado_608594" data-name="Trazado 608594" d="M159.929,3.862c0,.834.009,1.668,0,2.5a1.158,1.158,0,0,1-1.11,1.294A1.141,1.141,0,0,1,157.677,6.4q-.019-2.573,0-5.147A1.128,1.128,0,0,1,158.82,0c.667.011,1.1.5,1.107,1.288.011.858,0,1.716,0,2.574" transform="translate(-127.971 0)" fill="#232323"/>
        <path id="Trazado_608595" data-name="Trazado 608595" d="M131.668,92.032a2.931,2.931,0,0,1-.894,2.184c-2.9,2.959-5.792,5.928-8.715,8.865a2.85,2.85,0,0,1-4.441-.3q-1.835-2.313-3.634-4.656a3.016,3.016,0,0,1,.393-4.277,2.889,2.889,0,0,1,4.183.568c.446.554.9,1.106,1.3,1.689.264.378.428.362.741.039q2.99-3.088,6.018-6.137a2.884,2.884,0,0,1,3.3-.69,2.968,2.968,0,0,1,1.743,2.718m-2.258.025a.653.653,0,0,0-1.025-.559,2.957,2.957,0,0,0-.465.435q-3.386,3.445-6.771,6.891c-.8.809-1.408.776-2.107-.106q-1.082-1.366-2.146-2.746c-.307-.4-.666-.685-1.119-.305-.412.346-.25.746.05,1.127,1.173,1.49,2.328,3,3.5,4.487.414.526.763.553,1.231.079q4.288-4.351,8.563-8.715a.746.746,0,0,0,.289-.586" transform="translate(-91.943 -71.979)" fill="#232323"/>
      </g>
    </g>
    <path id="Trazado_838404" data-name="Trazado 838404" d="M27.563,12.658V17H24.478V4.2h5.106a5.948,5.948,0,0,1,2.6.541,4.074,4.074,0,0,1,1.749,1.538,4.2,4.2,0,0,1,.62,2.263,3.7,3.7,0,0,1-1.34,2.993,5.561,5.561,0,0,1-3.678,1.121Zm0-2.382h2.021a1.906,1.906,0,0,0,1.367-.448,1.665,1.665,0,0,0,.47-1.266,2.059,2.059,0,0,0-.483-1.433,1.712,1.712,0,0,0-1.318-.545H27.563Zm14.247-.105-.976-.07a1.752,1.752,0,0,0-1.793.879V17H36.08V7.49h2.777l.1,1.222a2.294,2.294,0,0,1,2.083-1.4,2.888,2.888,0,0,1,.826.105Zm.378,1.986a5.613,5.613,0,0,1,.554-2.536,3.96,3.96,0,0,1,1.591-1.709,4.791,4.791,0,0,1,2.435-.6,4.373,4.373,0,0,1,3.366,1.323,5.076,5.076,0,0,1,1.23,3.6v.105a4.925,4.925,0,0,1-1.235,3.529,4.384,4.384,0,0,1-3.344,1.305,4.434,4.434,0,0,1-3.261-1.217,4.761,4.761,0,0,1-1.327-3.3Zm2.962.185a3.538,3.538,0,0,0,.413,1.934,1.376,1.376,0,0,0,1.222.615q1.582,0,1.617-2.435v-.3Q48.4,9.6,46.767,9.6q-1.485,0-1.608,2.206Zm7.146-.167a5.809,5.809,0,0,1,.976-3.56A3.211,3.211,0,0,1,56,7.314a2.731,2.731,0,0,1,2.145,1V3.5h2.971V17H58.448L58.3,15.98a2.8,2.8,0,0,1-2.32,1.2,3.205,3.205,0,0,1-2.689-1.3A5.993,5.993,0,0,1,52.3,12.175Zm2.962.185q0,2.531,1.477,2.531a1.458,1.458,0,0,0,1.406-.826V10.443A1.419,1.419,0,0,0,56.751,9.6q-1.371,0-1.485,2.215Zm13.2,3.612a3.054,3.054,0,0,1-2.54,1.2,3,3,0,0,1-2.369-.91,3.826,3.826,0,0,1-.8-2.615V7.49h2.962v6.179a1.065,1.065,0,0,0,1.187,1.222,1.548,1.548,0,0,0,1.45-.729V7.49h2.979V17H68.546Zm8.508-1.081a1.317,1.317,0,0,0,.967-.338,1.241,1.241,0,0,0,.334-.945h2.777a3.288,3.288,0,0,1-1.121,2.566,4.168,4.168,0,0,1-2.887,1,4.22,4.22,0,0,1-3.27-1.3,5.125,5.125,0,0,1-1.2-3.6v-.123A5.792,5.792,0,0,1,73.1,9.6a3.872,3.872,0,0,1,1.534-1.7,4.573,4.573,0,0,1,2.373-.593,4.116,4.116,0,0,1,2.944,1.028,3.647,3.647,0,0,1,1.09,2.786H78.267A1.626,1.626,0,0,0,77.907,10a1.244,1.244,0,0,0-.967-.4q-1.151,0-1.345,1.468a10.357,10.357,0,0,0-.062,1.283,4.068,4.068,0,0,0,.343,1.986A1.187,1.187,0,0,0,76.966,14.891Zm8.78-9.765V7.49h1.564V9.547H85.747V13.9a1.111,1.111,0,0,0,.193.747,1.037,1.037,0,0,0,.765.211,4.345,4.345,0,0,0,.738-.053v2.118a5.466,5.466,0,0,1-1.67.255,3.1,3.1,0,0,1-2.259-.721,2.954,2.954,0,0,1-.729-2.188V9.547H81.572V7.49h1.213V5.126Zm2.092,7.031a5.613,5.613,0,0,1,.554-2.536,3.96,3.96,0,0,1,1.591-1.709,4.791,4.791,0,0,1,2.435-.6,4.373,4.373,0,0,1,3.366,1.323,5.076,5.076,0,0,1,1.23,3.6v.105a4.925,4.925,0,0,1-1.235,3.529,4.384,4.384,0,0,1-3.344,1.305,4.434,4.434,0,0,1-3.261-1.217,4.761,4.761,0,0,1-1.327-3.3Zm2.962.185a3.538,3.538,0,0,0,.413,1.934,1.376,1.376,0,0,0,1.222.615q1.582,0,1.617-2.435v-.3q0-2.558-1.635-2.558-1.485,0-1.608,2.206Z" transform="translate(740 7043)" fill="#12263f"/>
    <path id="Trazado_838405" data-name="Trazado 838405" d="M34.7,12.667a4.673,4.673,0,0,1-.721,2.36,4.35,4.35,0,0,1-1.85,1.586,6.3,6.3,0,0,1-2.72.563,5.025,5.025,0,0,1-3.973-1.644,6.786,6.786,0,0,1-1.45-4.641v-.633a7.746,7.746,0,0,1,.655-3.292,4.961,4.961,0,0,1,1.885-2.18,5.26,5.26,0,0,1,2.848-.769,5.516,5.516,0,0,1,3.744,1.226,4.844,4.844,0,0,1,1.608,3.379H31.655a2.292,2.292,0,0,0-.589-1.679,2.422,2.422,0,0,0-1.687-.51,1.843,1.843,0,0,0-1.687.861,5.536,5.536,0,0,0-.562,2.751v.905a6.126,6.126,0,0,0,.514,2.927,1.882,1.882,0,0,0,1.771.879,2.369,2.369,0,0,0,1.626-.5,2.126,2.126,0,0,0,.6-1.591ZM41.384,17a3.344,3.344,0,0,1-.281-.853,2.754,2.754,0,0,1-2.285,1.028,3.374,3.374,0,0,1-2.285-.813,2.588,2.588,0,0,1-.94-2.043,2.66,2.66,0,0,1,1.143-2.338,5.821,5.821,0,0,1,3.322-.791h.914v-.5q0-1.316-1.134-1.316a.927.927,0,0,0-1.055,1.042H35.821a2.655,2.655,0,0,1,1.173-2.239,4.931,4.931,0,0,1,2.993-.86,4.323,4.323,0,0,1,2.874.888,3.086,3.086,0,0,1,1.081,2.435v4.21a4.311,4.311,0,0,0,.4,2V17ZM39.53,15.066a1.652,1.652,0,0,0,.918-.237,1.487,1.487,0,0,0,.523-.536V12.772H40.11q-1.547,0-1.547,1.389a.848.848,0,0,0,.272.655A.986.986,0,0,0,39.53,15.066Zm11.8-4.9-.976-.07a1.752,1.752,0,0,0-1.793.879V17H45.6V7.49H48.38l.1,1.222a2.294,2.294,0,0,1,2.083-1.4,2.888,2.888,0,0,1,.826.105ZM57.495,17a3.344,3.344,0,0,1-.281-.853,2.754,2.754,0,0,1-2.285,1.028,3.374,3.374,0,0,1-2.285-.813,2.588,2.588,0,0,1-.94-2.043,2.66,2.66,0,0,1,1.143-2.338,5.821,5.821,0,0,1,3.322-.791h.914v-.5q0-1.316-1.134-1.316a.927.927,0,0,0-1.055,1.042H51.931A2.655,2.655,0,0,1,53.1,8.175a4.931,4.931,0,0,1,2.993-.86,4.323,4.323,0,0,1,2.874.888,3.086,3.086,0,0,1,1.081,2.435v4.21a4.311,4.311,0,0,0,.4,2V17ZM55.64,15.066a1.652,1.652,0,0,0,.918-.237,1.487,1.487,0,0,0,.523-.536V12.772H56.22q-1.547,0-1.547,1.389a.848.848,0,0,0,.272.655A.986.986,0,0,0,55.64,15.066Zm10.072-.176a1.317,1.317,0,0,0,.967-.338,1.241,1.241,0,0,0,.334-.945h2.777a3.288,3.288,0,0,1-1.121,2.566,4.168,4.168,0,0,1-2.887,1,4.22,4.22,0,0,1-3.27-1.3,5.125,5.125,0,0,1-1.2-3.6v-.123A5.792,5.792,0,0,1,61.85,9.6a3.872,3.872,0,0,1,1.534-1.7,4.573,4.573,0,0,1,2.373-.593A4.116,4.116,0,0,1,68.7,8.343a3.647,3.647,0,0,1,1.09,2.786H67.013A1.626,1.626,0,0,0,66.653,10a1.244,1.244,0,0,0-.967-.4q-1.151,0-1.345,1.468a10.357,10.357,0,0,0-.062,1.283,4.068,4.068,0,0,0,.343,1.986A1.187,1.187,0,0,0,65.712,14.891Zm8.78-9.765V7.49h1.564V9.547H74.493V13.9a1.111,1.111,0,0,0,.193.747,1.037,1.037,0,0,0,.765.211,4.345,4.345,0,0,0,.738-.053v2.118a5.466,5.466,0,0,1-1.67.255,3.1,3.1,0,0,1-2.259-.721,2.954,2.954,0,0,1-.729-2.188V9.547H70.318V7.49h1.213V5.126Zm7.33,12.05a4.889,4.889,0,0,1-3.542-1.305,4.507,4.507,0,0,1-1.354-3.4v-.246a5.84,5.84,0,0,1,.541-2.575,3.955,3.955,0,0,1,1.578-1.727,4.763,4.763,0,0,1,2.461-.611A4.117,4.117,0,0,1,84.67,8.558a4.887,4.887,0,0,1,1.16,3.467v1.151H79.942a2.135,2.135,0,0,0,.694,1.257,2.066,2.066,0,0,0,1.389.457,2.662,2.662,0,0,0,2.2-.984l1.354,1.6a3.784,3.784,0,0,1-1.569,1.217A5.3,5.3,0,0,1,81.823,17.176ZM81.489,9.6q-1.3,0-1.547,1.723H82.93v-.229a1.467,1.467,0,0,0-.36-1.1A1.434,1.434,0,0,0,81.489,9.6Zm11.285.571L91.8,10.1a1.752,1.752,0,0,0-1.793.879V17H87.043V7.49h2.777l.1,1.222A2.294,2.294,0,0,1,92,7.314a2.888,2.888,0,0,1,.826.105ZM97.072,17H94.092V7.49h2.979ZM95.964,3.676h3.129L96.65,6.436l-2.417,0Zm7.989,10.652a.684.684,0,0,0-.4-.606,6.016,6.016,0,0,0-1.5-.475,6.853,6.853,0,0,1-1.828-.646,3.062,3.062,0,0,1-1.1-.971,2.319,2.319,0,0,1-.378-1.31,2.628,2.628,0,0,1,1.081-2.158,4.453,4.453,0,0,1,2.83-.848,4.934,4.934,0,0,1,3.023.853,2.666,2.666,0,0,1,1.143,2.241h-2.971q0-1.143-1.2-1.143a1.194,1.194,0,0,0-.782.259.8.8,0,0,0-.316.646.737.737,0,0,0,.387.642,3.654,3.654,0,0,0,1.235.4,10.671,10.671,0,0,1,1.49.378,2.706,2.706,0,0,1,2.145,2.646,2.491,2.491,0,0,1-1.156,2.118,5.068,5.068,0,0,1-2.993.817,5.172,5.172,0,0,1-2.18-.439,3.645,3.645,0,0,1-1.494-1.2,2.707,2.707,0,0,1-.536-1.591h2.769a1.145,1.145,0,0,0,.439.962,1.808,1.808,0,0,0,1.081.3,1.422,1.422,0,0,0,.91-.246A.787.787,0,0,0,103.954,14.328Zm7.69-9.2V7.49h1.564V9.547h-1.564V13.9a1.111,1.111,0,0,0,.193.747,1.037,1.037,0,0,0,.765.211,4.345,4.345,0,0,0,.738-.053v2.118a5.466,5.466,0,0,1-1.67.255,3.1,3.1,0,0,1-2.259-.721,2.954,2.954,0,0,1-.729-2.188V9.547h-1.213V7.49h1.213V5.126ZM117.5,17h-2.971V7.49H117.5ZM114.351,5.038A1.322,1.322,0,0,1,114.808,4a1.943,1.943,0,0,1,2.373,0,1.322,1.322,0,0,1,.457,1.037,1.322,1.322,0,0,1-.457,1.037,1.943,1.943,0,0,1-2.373,0A1.322,1.322,0,0,1,114.351,5.038Zm8.991,9.853a1.317,1.317,0,0,0,.967-.338,1.241,1.241,0,0,0,.334-.945h2.777a3.288,3.288,0,0,1-1.121,2.566,4.168,4.168,0,0,1-2.887,1,4.22,4.22,0,0,1-3.27-1.3,5.125,5.125,0,0,1-1.2-3.6v-.123a5.792,5.792,0,0,1,.532-2.544,3.872,3.872,0,0,1,1.534-1.7,4.573,4.573,0,0,1,2.373-.593,4.116,4.116,0,0,1,2.944,1.028,3.647,3.647,0,0,1,1.09,2.786h-2.777a1.626,1.626,0,0,0-.36-1.134,1.244,1.244,0,0,0-.967-.4q-1.151,0-1.345,1.468a10.357,10.357,0,0,0-.062,1.283,4.068,4.068,0,0,0,.343,1.986A1.187,1.187,0,0,0,123.342,14.891ZM134.03,17a3.344,3.344,0,0,1-.281-.853,2.754,2.754,0,0,1-2.285,1.028,3.374,3.374,0,0,1-2.285-.813,2.588,2.588,0,0,1-.94-2.043,2.66,2.66,0,0,1,1.143-2.338,5.821,5.821,0,0,1,3.322-.791h.914v-.5q0-1.316-1.134-1.316a.927.927,0,0,0-1.055,1.042h-2.962a2.655,2.655,0,0,1,1.173-2.239,4.931,4.931,0,0,1,2.993-.86,4.323,4.323,0,0,1,2.874.888,3.086,3.086,0,0,1,1.081,2.435v4.21a4.311,4.311,0,0,0,.4,2V17Zm-1.854-1.934a1.652,1.652,0,0,0,.918-.237,1.487,1.487,0,0,0,.523-.536V12.772h-.861q-1.547,0-1.547,1.389a.848.848,0,0,0,.272.655A.986.986,0,0,0,132.175,15.066Zm11.03-.738a.684.684,0,0,0-.4-.606,6.016,6.016,0,0,0-1.5-.475,6.853,6.853,0,0,1-1.828-.646,3.062,3.062,0,0,1-1.1-.971A2.319,2.319,0,0,1,138,10.32a2.628,2.628,0,0,1,1.081-2.158,4.453,4.453,0,0,1,2.83-.848,4.934,4.934,0,0,1,3.023.853,2.666,2.666,0,0,1,1.143,2.241h-2.971q0-1.143-1.2-1.143a1.194,1.194,0,0,0-.782.259.8.8,0,0,0-.316.646.737.737,0,0,0,.387.642,3.654,3.654,0,0,0,1.235.4,10.671,10.671,0,0,1,1.49.378,2.706,2.706,0,0,1,2.145,2.646,2.491,2.491,0,0,1-1.156,2.118,5.068,5.068,0,0,1-2.993.817,5.172,5.172,0,0,1-2.18-.439,3.645,3.645,0,0,1-1.494-1.2,2.707,2.707,0,0,1-.536-1.591h2.769a1.145,1.145,0,0,0,.439.962,1.808,1.808,0,0,0,1.081.3,1.422,1.422,0,0,0,.91-.246A.787.787,0,0,0,143.206,14.328Z" transform="translate(721 6791)" fill="#12263f"/>
  </g>
</svg>
