<svg xmlns="http://www.w3.org/2000/svg" xmlns:xlink="http://www.w3.org/1999/xlink" width="295" height="147.914" viewBox="0 0 295 147.914">
  <defs>
    <clipPath id="clip-path">
      <rect id="Rectángulo_385051" data-name="Rectángulo 385051" width="267.805" height="147.914" fill="none"/>
    </clipPath>
    <clipPath id="clip-path-5">
      <rect id="Rectángulo_385032" data-name="Rectángulo 385032" width="161.639" height="102.345" fill="none"/>
    </clipPath>
    <clipPath id="clip-path-7">
      <rect id="Rectángulo_385036" data-name="Rectángulo 385036" width="11.447" height="20.771" fill="none"/>
    </clipPath>
    <clipPath id="clip-path-9">
      <rect id="Rectángulo_385038" data-name="Rectángulo 385038" width="12.041" height="14.428" fill="none"/>
    </clipPath>
    <clipPath id="clip-path-10">
      <rect id="Rectángulo_385039" data-name="Rectángulo 385039" width="5.596" height="5.604" fill="none"/>
    </clipPath>
    <clipPath id="clip-path-12">
      <rect id="Rectángulo_385041" data-name="Rectángulo 385041" width="12.618" height="31.748" fill="none"/>
    </clipPath>
    <clipPath id="clip-path-13">
      <rect id="Rectángulo_385042" data-name="Rectángulo 385042" width="10.657" height="26.813" fill="none"/>
    </clipPath>
    <clipPath id="clip-path-15">
      <rect id="Rectángulo_385044" data-name="Rectángulo 385044" width="26.386" height="20.021" fill="none"/>
    </clipPath>
    <clipPath id="clip-path-17">
      <rect id="Rectángulo_385046" data-name="Rectángulo 385046" width="15.017" height="16.013" fill="none"/>
    </clipPath>
    <clipPath id="clip-path-18">
      <rect id="Rectángulo_385047" data-name="Rectángulo 385047" width="1.439" height="1.367" fill="none"/>
    </clipPath>
    <clipPath id="clip-path-19">
      <rect id="Rectángulo_385048" data-name="Rectángulo 385048" width="1.129" height="1.325" fill="none"/>
    </clipPath>
  </defs>
  <g id="Grupo_1017706" data-name="Grupo 1017706" transform="translate(-180 -12934.086)">
    <g id="Grupo_1017705" data-name="Grupo 1017705" transform="translate(193.597 12934.086)">
      <g id="Grupo_1017704" data-name="Grupo 1017704" clip-path="url(#clip-path)">
        <g id="Grupo_1017659" data-name="Grupo 1017659">
          <g id="Grupo_1017658" data-name="Grupo 1017658" clip-path="url(#clip-path)">
            <path id="Trazado_833865" data-name="Trazado 833865" d="M605.487,222.9V171.014l11.038-15.064V127.733" transform="translate(-355.467 -74.989)" fill="none" stroke="#ebebeb" stroke-miterlimit="10" stroke-width="1"/>
            <circle id="Elipse_5870" data-name="Elipse 5870" cx="0.981" cy="0.981" r="0.981" transform="translate(260.076 50.799)" fill="none" stroke="#ebebeb" stroke-miterlimit="10" stroke-width="1"/>
            <path id="Trazado_833866" data-name="Trazado 833866" d="M612.371,237.579V187.51l11.038-15.064V152.73" transform="translate(-359.509 -89.664)" fill="none" stroke="#ebebeb" stroke-miterlimit="10" stroke-width="1"/>
            <circle id="Elipse_5871" data-name="Elipse 5871" cx="0.981" cy="0.981" r="0.981" transform="translate(262.919 61.121)" fill="none" stroke="#ebebeb" stroke-miterlimit="10" stroke-width="1"/>
            <line id="Línea_735" data-name="Línea 735" y1="68.714" transform="translate(247.28 79.2)" fill="none" stroke="#ebebeb" stroke-miterlimit="10" stroke-width="1"/>
            <circle id="Elipse_5872" data-name="Elipse 5872" cx="0.981" cy="0.981" r="0.981" transform="translate(246.3 77.238)" fill="none" stroke="#ebebeb" stroke-miterlimit="10" stroke-width="1"/>
            <path id="Trazado_833867" data-name="Trazado 833867" d="M581.814,252.44V217.518l-7.494-14.134V178.045" transform="translate(-337.17 -104.526)" fill="none" stroke="#ebebeb" stroke-miterlimit="10" stroke-width="1"/>
            <circle id="Elipse_5873" data-name="Elipse 5873" cx="0.981" cy="0.981" r="0.981" transform="translate(236.169 71.557)" fill="none" stroke="#ebebeb" stroke-miterlimit="10" stroke-width="1"/>
            <path id="Trazado_833868" data-name="Trazado 833868" d="M573.559,264.766V231.353l-8.834-15.625V199.039" transform="translate(-331.537 -116.851)" fill="none" stroke="#ebebeb" stroke-miterlimit="10" stroke-width="1"/>
            <circle id="Elipse_5874" data-name="Elipse 5874" cx="0.981" cy="0.981" r="0.981" transform="translate(232.207 80.226)" fill="none" stroke="#ebebeb" stroke-miterlimit="10" stroke-width="1"/>
            <path id="Trazado_833869" data-name="Trazado 833869" d="M27.38,275.74V248.627L16.343,233.562V217.733" transform="translate(-9.594 -127.826)" fill="none" stroke="#ebebeb" stroke-miterlimit="10" stroke-width="1"/>
            <circle id="Elipse_5875" data-name="Elipse 5875" cx="0.981" cy="0.981" r="0.981" transform="translate(5.768 87.962)" fill="none" stroke="#ebebeb" stroke-miterlimit="10" stroke-width="1"/>
            <path id="Trazado_833870" data-name="Trazado 833870" d="M20.5,290.416V265.122L9.458,250.058V242.73" transform="translate(-5.553 -142.501)" fill="none" stroke="#ebebeb" stroke-miterlimit="10" stroke-width="1"/>
            <circle id="Elipse_5876" data-name="Elipse 5876" cx="0.981" cy="0.981" r="0.981" transform="translate(2.925 98.284)" fill="none" stroke="#ebebeb" stroke-miterlimit="10" stroke-width="1"/>
            <line id="Línea_736" data-name="Línea 736" y1="43.939" transform="translate(20.525 103.975)" fill="none" stroke="#ebebeb" stroke-miterlimit="10" stroke-width="1"/>
            <circle id="Elipse_5877" data-name="Elipse 5877" cx="0.981" cy="0.981" r="0.981" transform="translate(19.544 102.014)" fill="none" stroke="#ebebeb" stroke-miterlimit="10" stroke-width="1"/>
            <path id="Trazado_833871" data-name="Trazado 833871" d="M56.092,270.053V247.518l7.494-14.134V208.045" transform="translate(-32.93 -122.139)" fill="none" stroke="#ebebeb" stroke-miterlimit="10" stroke-width="1"/>
            <circle id="Elipse_5878" data-name="Elipse 5878" cx="0.981" cy="0.981" r="0.981" transform="translate(29.675 83.945)" fill="none" stroke="#ebebeb" stroke-miterlimit="10" stroke-width="1"/>
            <path id="Trazado_833872" data-name="Trazado 833872" d="M62.441,282.378V261.353l8.834-15.625V229.039" transform="translate(-36.657 -134.464)" fill="none" stroke="#ebebeb" stroke-miterlimit="10" stroke-width="1"/>
            <circle id="Elipse_5879" data-name="Elipse 5879" cx="0.981" cy="0.981" r="0.981" transform="translate(33.637 92.614)" fill="none" stroke="#ebebeb" stroke-miterlimit="10" stroke-width="1"/>
          </g>
        </g>
        <path id="Trazado_833873" data-name="Trazado 833873" d="M66.952,357.284l-33.476.036L0,357.421l33.476.1,33.476.036,66.951.069,66.951-.069,33.476-.036,33.476-.1-33.476-.1-33.476-.036-66.951-.069Z" transform="translate(0 -209.713)" fill="#263238"/>
        <g id="Grupo_1017661" data-name="Grupo 1017661">
          <g id="Grupo_1017660" data-name="Grupo 1017660" clip-path="url(#clip-path)">
            <path id="Trazado_833874" data-name="Trazado 833874" d="M19.3,260.178c-2.992-6.151-8.228-9.309-14.129-7.564s-6.816,9.974-2.411,12.052,8.811-3.989,11.137-5.236,5.4.748,5.4.748" transform="translate(0 -148.024)" fill="#ffc727"/>
            <path id="Trazado_833875" data-name="Trazado 833875" d="M26.479,278.691c-.016-.742-.044-1.482-.07-2.224q-.079-2.221-.157-4.441a20.691,20.691,0,0,0-1.514-7.861,12.187,12.187,0,0,0-4.747-5.47,10,10,0,0,0-2.5-1.077,5.832,5.832,0,0,0-2.912-1.6,11.9,11.9,0,0,0-4.151-.1c-.05.006-.048.084,0,.078a9.99,9.99,0,0,1,3.927.28,8.255,8.255,0,0,1,1.582.615,7.633,7.633,0,0,1,.915.58,8.482,8.482,0,0,0-3.606.035,8.092,8.092,0,0,0-1.252.413,3.676,3.676,0,0,0-.983-.083,5.811,5.811,0,0,0-1.278.182,9.646,9.646,0,0,0-2.428,1.06c-.044.025,0,.09.041.066a9.059,9.059,0,0,1,2.369-.893,7.967,7.967,0,0,1,1.217-.178,6.112,6.112,0,0,1,.679.005,7.828,7.828,0,0,0-3.817,3.8c-.02.046.048.084.069.038a7.173,7.173,0,0,1,4.863-3.9c.13-.033.263-.051.395-.077a5.773,5.773,0,0,0-.063.6q-.059.449-.15.893a15.158,15.158,0,0,1-.48,1.8,14.159,14.159,0,0,1-.715,1.746,8.319,8.319,0,0,1-1,1.684.039.039,0,1,0,.062.046c.354-.556.767-1.067,1.091-1.644a12.4,12.4,0,0,0,.8-1.717A11.673,11.673,0,0,0,13.2,259.5q.1-.5.155-1a2.331,2.331,0,0,0,.038-.611,8.073,8.073,0,0,1,2.1-.043,11.43,11.43,0,0,1-1.366,4.27c-.027.042.045.082.069.038a17.134,17.134,0,0,0,1.014-2.1,7.952,7.952,0,0,0,.506-2.186,9.667,9.667,0,0,1,3.465,1.162,11.444,11.444,0,0,1,4.612,5.046,18.979,18.979,0,0,1,1.71,7.233c.2,3.144.237,6.307.552,9.441.02.2.345.274.384.043a11.087,11.087,0,0,0,.043-2.1" transform="translate(-4.282 -150.165)" fill="#263238"/>
            <path id="Trazado_833876" data-name="Trazado 833876" d="M32.476,258.8a3.465,3.465,0,0,0-.68-.628c-.245-.2-.5-.4-.76-.578a5.657,5.657,0,0,0-1.7-.789.039.039,0,0,0-.019.076,4.509,4.509,0,0,1,1.678.825c.25.183.49.38.724.584a4.321,4.321,0,0,0,.687.583c.045.024.1-.029.07-.074" transform="translate(-17.195 -150.765)" fill="#263238"/>
            <path id="Trazado_833877" data-name="Trazado 833877" d="M10.475,267.019A17.949,17.949,0,0,0,9.1,268.835a11.044,11.044,0,0,0-1.021,2.024c-.008.021.026.033.037.014a24.172,24.172,0,0,1,2.413-3.8c.032-.038-.024-.092-.056-.054" transform="translate(-4.744 -156.753)" fill="#263238"/>
            <path id="Trazado_833878" data-name="Trazado 833878" d="M28.173,265.522a4.411,4.411,0,0,1-.338,1.113,7.367,7.367,0,0,1-.57.986c-.014.021.018.043.035.025a4,4,0,0,0,.949-2.105c.008-.049-.068-.069-.076-.019" transform="translate(-16.005 -155.865)" fill="#263238"/>
            <path id="Trazado_833879" data-name="Trazado 833879" d="M52.744,266.514s4.237-5.325,12.415-3.438c7.772,1.794,11.36,16.047,3.505,17.752s-6.469-11.484-9.332-13.722a6.79,6.79,0,0,0-6.588-.592" transform="translate(-30.965 -154.209)" fill="#ffc727"/>
            <path id="Trazado_833880" data-name="Trazado 833880" d="M65.966,272.451a15.9,15.9,0,0,0-1.685-1.291,7.322,7.322,0,0,0-1.8-.9,10.821,10.821,0,0,0-1.066-1.371,10.543,10.543,0,0,0-2.471-1.968c.081,0,.162-.014.244-.016a12.643,12.643,0,0,1,1.3.013,7.263,7.263,0,0,1,2.523.628c.046.021.08-.051.033-.071a11.507,11.507,0,0,0-2.52-.76,7.158,7.158,0,0,0-1.277-.109c-.229,0-.459.018-.687.04l-.131.01a10.965,10.965,0,0,0-2.357-.867c.076-.02.151-.044.228-.062a11.36,11.36,0,0,1,1.212-.2,9.5,9.5,0,0,1,2.447.038c.05.007.064-.071.014-.077a15.464,15.464,0,0,0-2.473-.1,10.431,10.431,0,0,0-2.057.267,10.838,10.838,0,0,0-1.491-.17,9.2,9.2,0,0,0-7.715,3.288c-1.761,2.351-2.1,5.475-2.409,8.306a63.081,63.081,0,0,0-.313,11.886c.019.234.347.191.354-.031.107-3.36.225-6.722.547-10.071.149-1.551.314-3.107.572-4.644a13.694,13.694,0,0,1,1.127-3.824,7,7,0,0,1,2.76-2.968,9.315,9.315,0,0,1,3.91-1.2,10.525,10.525,0,0,1,3.669.344,2.4,2.4,0,0,0-.021.724,4.04,4.04,0,0,0,.179.893,4.7,4.7,0,0,0,.342.794c.151.281.342.531.51.8.027.043.1-.005.064-.045a3.712,3.712,0,0,1-.634-1.612,6.421,6.421,0,0,1-.1-.834c-.011-.211.007-.423,0-.632a10.808,10.808,0,0,1,3.57,1.885c.2.159.391.328.578.5a3.988,3.988,0,0,0-.693.852,8.375,8.375,0,0,0-.728,1.295,10.994,10.994,0,0,0-.756,2.845c-.007.05.07.064.077.014a8.238,8.238,0,0,1,.93-2.7,10.932,10.932,0,0,1,.725-1.2c.138-.2.281-.391.43-.58.08-.1.168-.2.244-.313a11.27,11.27,0,0,1,2.319,3.266s-.01,0-.015.007a5.556,5.556,0,0,0-.958,1.377,12.855,12.855,0,0,0-.766,1.637,27.454,27.454,0,0,0-.976,3.334c-.012.049.067.064.077.014a14.017,14.017,0,0,1,1.16-3.284q.366-.769.774-1.515a14,14,0,0,0,.768-1.43,10.489,10.489,0,0,1,.933,3.788c0,.05.082.043.078-.007a13.217,13.217,0,0,0-1.835-5.813c.5.213,1,.419,1.483.678a8.317,8.317,0,0,1,1.7,1.195c.037.034.088-.027.05-.06" transform="translate(-25.457 -155.799)" fill="#263238"/>
            <path id="Trazado_833881" data-name="Trazado 833881" d="M81.964,283.191c-.245.807-.554,1.591-.775,2.407a9.283,9.283,0,0,0-.361,2.4c0,.022.036.023.039,0a23.405,23.405,0,0,1,1.171-4.79.039.039,0,1,0-.074-.023" transform="translate(-47.452 -166.237)" fill="#263238"/>
            <path id="Trazado_833882" data-name="Trazado 833882" d="M92.74,276.65a4.533,4.533,0,0,0-1.083-.773,7.819,7.819,0,0,0-1.254-.443c-.047-.014-.064.066-.014.077a4.908,4.908,0,0,1,1.206.5,9.116,9.116,0,0,1,1.112.683.025.025,0,0,0,.033-.039" transform="translate(-53.048 -161.7)" fill="#263238"/>
            <path id="Trazado_833883" data-name="Trazado 833883" d="M62.5,235.919s.782-9.566,7.894-12.667c5.939-2.589,9.339,4.084,5.14,8.169-3.4,3.3-8.843,1.813-13.034,4.5" transform="translate(-36.69 -130.726)" fill="#ffc727"/>
            <path id="Trazado_833884" data-name="Trazado 833884" d="M68.265,227.521a30.017,30.017,0,0,0-3.163,1.5,23.7,23.7,0,0,0-2.456,1.63c.118-.242.221-.5.34-.731.186-.369.384-.731.6-1.081a10.147,10.147,0,0,1,1.567-1.983c.036-.035-.021-.09-.057-.054a15.653,15.653,0,0,0-1.649,1.919,11.307,11.307,0,0,0-.676,1.082,4.336,4.336,0,0,0-.478,1.1c-.025.02-.053.037-.078.057a23.35,23.35,0,0,0-3.4,3.324c.02-.094.039-.188.064-.274q.2-.7.431-1.39a11.855,11.855,0,0,1,1.285-2.79c.028-.042-.042-.081-.068-.038a22.31,22.31,0,0,0-1.489,2.721,10.322,10.322,0,0,0-.491,1.414,6,6,0,0,0-.232.961c-.31.392-.614.789-.9,1.2a29.378,29.378,0,0,0-4.953,14.864,45.537,45.537,0,0,0-.079,4.712,29.439,29.439,0,0,0,.417,4.73c.019.1.174.069.172-.028-.036-1.382-.178-2.758-.2-4.142a41.487,41.487,0,0,1,.133-4.153,38.616,38.616,0,0,1,1.551-8.14,29.142,29.142,0,0,1,3.617-7.653c.3-.059.6-.14.891-.216.355-.092.711-.182,1.064-.282a10.631,10.631,0,0,0,1.983-.727c.044-.023,0-.092-.041-.066a6.411,6.411,0,0,1-2.011.694c-.557.111-1.135.183-1.692.311a26.819,26.819,0,0,1,1.654-2.173,12.346,12.346,0,0,0,4.046-.3,16.366,16.366,0,0,0,2.071-.645c.712-.275,1.387-.627,2.089-.921.053-.022.017-.1-.032-.071a11.875,11.875,0,0,1-4.1,1.343,25.426,25.426,0,0,1-3.837.317c.505-.579,1.027-1.144,1.584-1.675a18.713,18.713,0,0,1,6.547-4.266c.048-.017.023-.094-.023-.075" transform="translate(-30.74 -133.142)" fill="#263238"/>
            <path id="Trazado_833885" data-name="Trazado 833885" d="M74.727,228.616a10.716,10.716,0,0,0-.872,1.276,6.957,6.957,0,0,0-.628,1.483.016.016,0,0,0,.029.012c.237-.469.438-.956.678-1.423a7.1,7.1,0,0,1,.849-1.293c.032-.039-.026-.093-.057-.054" transform="translate(-42.99 -134.207)" fill="#263238"/>
            <path id="Trazado_833886" data-name="Trazado 833886" d="M88.67,236.34a7.4,7.4,0,0,1-1.458.609,13.306,13.306,0,0,1-1.485.4.022.022,0,0,0,.007.042,7.22,7.22,0,0,0,1.537-.337,13,13,0,0,0,1.44-.646c.044-.022,0-.092-.041-.066" transform="translate(-50.32 -138.747)" fill="#263238"/>
            <path id="Trazado_833887" data-name="Trazado 833887" d="M26.771,215.963a17.264,17.264,0,0,0-7.089-6.923c-5.461-3.133-11.98-11.283-6.625-16.432,4.322-4.156,15.709,4.9,13.714,23.355" transform="translate(-6.493 -112.491)" fill="#ffc727"/>
            <path id="Trazado_833888" data-name="Trazado 833888" d="M37.5,242.768a106.554,106.554,0,0,0-.954-12.091,54.389,54.389,0,0,0-2.541-10.822c-.448-1.264-.958-2.509-1.513-3.734a8.6,8.6,0,0,0-.025-1.431c-.029-.612-.085-1.223-.141-1.834s-.118-1.221-.191-1.83-.2-1.216-.227-1.824a.039.039,0,1,0-.077.012,12.875,12.875,0,0,1,.216,1.936c.046.59.08,1.18.1,1.771s.015,1.184.016,1.776c0,.213-.011.44-.019.668-.566-1.2-1.172-2.371-1.828-3.517a20.94,20.94,0,0,0-.631-7.537c-.01-.049-.085-.026-.075.022a21.221,21.221,0,0,1,.4,3.865c.023,1.024-.025,2.048-.029,3.071-.145-.245-.288-.491-.436-.733q-1.169-1.911-2.5-3.732a5.847,5.847,0,0,0-.058-1.776,13.777,13.777,0,0,0-.436-1.942q-.287-.956-.666-1.878c-.261-.633-.607-1.231-.859-1.865-.021-.053-.1-.017-.071.032a9.181,9.181,0,0,1,.753,1.887,17.118,17.118,0,0,1,.492,1.871c.127.633.231,1.268.32,1.907.059.423.1.861.169,1.289a46.066,46.066,0,0,0-4.211-4.9c-.036-.036-.086.019-.054.057a55.449,55.449,0,0,1,6.114,8.317c.066.111.128.224.193.335-.331-.208-.711-.372-1.023-.545q-.875-.486-1.754-.963-.854-.461-1.7-.932c-.292-.162-.579-.33-.876-.482a7.018,7.018,0,0,1-1.019-.565c-.046-.034-.095.036-.046.063.579.318,1.091.791,1.649,1.148s1.133.7,1.717,1.029c1.069.6,2.23,1.025,3.282,1.642.73,1.278,1.4,2.589,2.024,3.924q-.958-.614-1.953-1.169c-.427-.239-.854-.474-1.286-.7a6.307,6.307,0,0,1-1.211-.732.039.039,0,0,0-.054.057,11.373,11.373,0,0,0,2.31,1.607c.773.451,1.553.887,2.357,1.281q.964,2.113,1.74,4.3c2.531,7.167,3.461,14.775,3.905,22.331.132,2.253.2,4.5.229,6.761s-.091,4.5-.087,6.755c0,.067.11.082.119.013.27-2,.318-4.029.405-6.041.089-2.046.09-4.1.045-6.152" transform="translate(-13.087 -117.014)" fill="#263238"/>
            <path id="Trazado_833889" data-name="Trazado 833889" d="M23.779,220.878a28.855,28.855,0,0,1-3.2-1.653,33.587,33.587,0,0,1-3.034-1.926c-.016-.012-.036.016-.021.028a25.561,25.561,0,0,0,2.914,2.037,29.172,29.172,0,0,0,3.3,1.582c.046.02.084-.05.038-.069" transform="translate(-10.287 -127.57)" fill="#263238"/>
            <path id="Trazado_833890" data-name="Trazado 833890" d="M36,203.735c-.089-.35-.2-.693-.317-1.034a.032.032,0,0,0,.015-.04c-.076-.194-.156-.386-.235-.578-.009-.026-.019-.051-.028-.069l-.045-.111a.01.01,0,0,0-.019.006c.021.066.038.133.059.2a.948.948,0,0,0,.032.11,28.538,28.538,0,0,1,.891,4.083c.007.043.073.045.07,0A13.7,13.7,0,0,0,36,203.735" transform="translate(-20.762 -118.528)" fill="#263238"/>
            <path id="Trazado_833891" data-name="Trazado 833891" d="M49.558,308.064l-.429,5.086-1.314,15.512H33.745L32.431,313.15,32,308.064Z" transform="translate(-18.788 -180.858)" fill="#37474f"/>
            <path id="Trazado_833892" data-name="Trazado 833892" d="M49.558,308.064l-.429,5.086h-16.7L32,308.064Z" transform="translate(-18.788 -180.858)" fill="#263238"/>
            <rect id="Rectángulo_384974" data-name="Rectángulo 384974" width="20.317" height="4.88" transform="translate(11.834 125.166)" fill="#37474f"/>
          </g>
        </g>
        <rect id="Rectángulo_384976" data-name="Rectángulo 384976" width="226.839" height="8.262" transform="translate(20.483 139.446)" fill="#c7c7c7"/>
        <rect id="Rectángulo_384977" data-name="Rectángulo 384977" width="44.224" height="3.361" transform="translate(111.791 139.447)" fill="#a6a6a6"/>
        <rect id="Rectángulo_384978" data-name="Rectángulo 384978" width="179.961" height="120.381" transform="translate(43.922 19.065)" fill="#dbdbdb"/>
        <rect id="Rectángulo_384979" data-name="Rectángulo 384979" width="177.345" height="117.444" transform="translate(45.23 20.534)" fill="#263238"/>
        <rect id="Rectángulo_384980" data-name="Rectángulo 384980" width="161.64" height="102.345" transform="translate(53.082 28.083)" fill="#fff"/>
        <rect id="Rectángulo_384981" data-name="Rectángulo 384981" width="161.64" height="3.938" transform="translate(53.082 28.083)" fill="#455a64"/>
        <g id="Grupo_1017666" data-name="Grupo 1017666">
          <g id="Grupo_1017665" data-name="Grupo 1017665" clip-path="url(#clip-path)">
            <path id="Trazado_833893" data-name="Trazado 833893" d="M135.413,71.719a.745.745,0,1,1-.745-.745.745.745,0,0,1,.745.745" transform="translate(-78.623 -41.667)" fill="#c7c7c7"/>
            <path id="Trazado_833894" data-name="Trazado 833894" d="M142.782,71.719a.745.745,0,1,1-.745-.745.745.745,0,0,1,.745.745" transform="translate(-82.949 -41.667)" fill="#fff"/>
            <path id="Trazado_833895" data-name="Trazado 833895" d="M150.151,71.719a.745.745,0,1,1-.745-.745.745.745,0,0,1,.745.745" transform="translate(-87.275 -41.667)" fill="#ffc727"/>
            <rect id="Rectángulo_384982" data-name="Rectángulo 384982" width="159.097" height="21.921" transform="translate(53.082 32.021)" fill="#ffc727"/>
            <rect id="Rectángulo_384983" data-name="Rectángulo 384983" width="2.543" height="87.201" transform="translate(212.18 32.021)" fill="#dbdbdb"/>
            <path id="Trazado_833896" data-name="Trazado 833896" d="M515.991,108.505h0a.657.657,0,0,1-.657-.657V79.441a.657.657,0,1,1,1.314,0v28.408a.657.657,0,0,1-.657.657" transform="translate(-302.541 -46.252)" fill="#a6a6a6"/>
            <rect id="Rectángulo_384984" data-name="Rectángulo 384984" width="34.234" height="4.569" transform="translate(170.929 36.276)" fill="#fff"/>
            <path id="Trazado_833897" data-name="Trazado 833897" d="M448.162,92.4H413.835V87.739h34.327Zm-34.234-.093h34.141V87.832H413.928Z" transform="translate(-242.953 -51.51)" fill="#c7c7c7"/>
            <rect id="Rectángulo_384985" data-name="Rectángulo 384985" width="4.664" height="4.665" transform="translate(200.546 36.228)" fill="#455a64"/>
            <path id="Trazado_833898" data-name="Trazado 833898" d="M492.711,94.4l-.422.32-.782-1.032-.286-.377a.67.67,0,0,0,.164-.093.689.689,0,0,0,.217-.281l.3.4Z" transform="translate(-288.385 -54.564)" fill="#fff"/>
            <path id="Trazado_833899" data-name="Trazado 833899" d="M489.88,89.958a1.152,1.152,0,1,0,.026,1.367,1.152,1.152,0,0,0-.026-1.367m-.5,1.248a.689.689,0,1,1,.128-.966.688.688,0,0,1-.128.966" transform="translate(-286.384 -52.548)" fill="#fff"/>
            <rect id="Rectángulo_384986" data-name="Rectángulo 384986" width="0.245" height="2.773" transform="translate(171.884 37.174)" fill="#c7c7c7"/>
            <rect id="Rectángulo_384987" data-name="Rectángulo 384987" width="93.128" height="4.569" transform="translate(71.759 36.276)" fill="#fff"/>
            <path id="Trazado_833900" data-name="Trazado 833900" d="M266.892,92.4H173.671V87.739h93.221Zm-93.128-.093H266.8V87.832H173.764Z" transform="translate(-101.958 -51.51)" fill="#c7c7c7"/>
            <rect id="Rectángulo_384988" data-name="Rectángulo 384988" width="0.245" height="2.773" transform="translate(72.714 37.174)" fill="#c7c7c7"/>
            <path id="Trazado_833901" data-name="Trazado 833901" d="M150.532,92.728,148.868,91.2,150.53,89.6l.258.269-1.375,1.319,1.373,1.263Z" transform="translate(-87.397 -52.604)" fill="#fff"/>
            <path id="Trazado_833902" data-name="Trazado 833902" d="M162.262,89.6l1.664,1.532-1.661,1.593-.258-.269,1.375-1.319-1.373-1.263Z" transform="translate(-95.111 -52.6)" fill="#fff"/>
            <rect id="Rectángulo_384989" data-name="Rectángulo 384989" width="18.442" height="19.611" transform="translate(116.2 91.657)" fill="#ebebeb"/>
            <path id="Trazado_833903" data-name="Trazado 833903" d="M287.509,229.7a2.322,2.322,0,1,0,1.823-1.823,2.324,2.324,0,0,0-1.823,1.823" transform="translate(-168.765 -133.759)" fill="#fff"/>
            <rect id="Rectángulo_384990" data-name="Rectángulo 384990" width="18.442" height="4.225" transform="translate(116.2 107.043)" fill="#dbdbdb"/>
            <path id="Trazado_833904" data-name="Trazado 833904" d="M296.156,248.433l12.353-.016-6.168-7.606Z" transform="translate(-173.867 -141.375)" fill="#c7c7c7"/>
            <path id="Trazado_833905" data-name="Trazado 833905" d="M281.409,252.213h10.969l-5.484-4.963Z" transform="translate(-165.209 -145.155)" fill="#dbdbdb"/>
            <rect id="Rectángulo_384991" data-name="Rectángulo 384991" width="36.261" height="27.821" transform="translate(60.417 59.947)" fill="#ebebeb"/>
            <path id="Trazado_833906" data-name="Trazado 833906" d="M154.97,156.149a3.294,3.294,0,1,0,2.586-2.586,3.3,3.3,0,0,0-2.586,2.586" transform="translate(-90.944 -90.117)" fill="#fff"/>
            <path id="Trazado_833907" data-name="Trazado 833907" d="M175.287,176.749h24.3l-12.149-14.973Z" transform="translate(-102.907 -94.975)" fill="#c7c7c7"/>
            <path id="Trazado_833908" data-name="Trazado 833908" d="M146.316,184.175h21.548l-10.774-9.75Z" transform="translate(-85.899 -102.4)" fill="#dbdbdb"/>
            <rect id="Rectángulo_384992" data-name="Rectángulo 384992" width="36.261" height="5.994" transform="translate(60.417 81.774)" fill="#dbdbdb"/>
            <rect id="Rectángulo_384993" data-name="Rectángulo 384993" width="19.199" height="1.615" transform="translate(60.17 91.657)" fill="#a6a6a6"/>
            <rect id="Rectángulo_384994" data-name="Rectángulo 384994" width="51.436" height="1.615" transform="translate(60.17 95.405)" fill="#ebebeb"/>
            <rect id="Rectángulo_384995" data-name="Rectángulo 384995" width="51.436" height="1.615" transform="translate(60.17 98.958)" fill="#ebebeb"/>
            <rect id="Rectángulo_384996" data-name="Rectángulo 384996" width="51.436" height="1.615" transform="translate(60.17 102.512)" fill="#ebebeb"/>
            <rect id="Rectángulo_384997" data-name="Rectángulo 384997" width="51.436" height="1.615" transform="translate(60.17 106.066)" fill="#ebebeb"/>
            <rect id="Rectángulo_384998" data-name="Rectángulo 384998" width="51.436" height="1.615" transform="translate(60.17 109.62)" fill="#ebebeb"/>
            <rect id="Rectángulo_384999" data-name="Rectángulo 384999" width="20.025" height="1.615" transform="translate(140.831 59.947)" fill="#a6a6a6"/>
            <rect id="Rectángulo_385000" data-name="Rectángulo 385000" width="29.155" height="1.615" transform="translate(140.831 63.695)" fill="#ebebeb"/>
            <rect id="Rectángulo_385001" data-name="Rectángulo 385001" width="29.155" height="1.615" transform="translate(140.831 67.249)" fill="#ebebeb"/>
            <rect id="Rectángulo_385002" data-name="Rectángulo 385002" width="29.155" height="1.615" transform="translate(140.831 70.803)" fill="#ebebeb"/>
            <rect id="Rectángulo_385003" data-name="Rectángulo 385003" width="29.155" height="1.615" transform="translate(140.831 74.357)" fill="#ebebeb"/>
            <rect id="Rectángulo_385004" data-name="Rectángulo 385004" width="29.155" height="1.615" transform="translate(140.831 81.464)" fill="#ebebeb"/>
            <rect id="Rectángulo_385005" data-name="Rectángulo 385005" width="29.155" height="1.615" transform="translate(140.831 85.018)" fill="#ebebeb"/>
            <rect id="Rectángulo_385006" data-name="Rectángulo 385006" width="29.155" height="1.615" transform="translate(140.831 88.572)" fill="#ebebeb"/>
            <rect id="Rectángulo_385007" data-name="Rectángulo 385007" width="29.155" height="1.615" transform="translate(140.831 92.126)" fill="#ebebeb"/>
            <rect id="Rectángulo_385008" data-name="Rectángulo 385008" width="29.155" height="1.615" transform="translate(140.831 99.234)" fill="#ebebeb"/>
            <rect id="Rectángulo_385009" data-name="Rectángulo 385009" width="29.155" height="1.615" transform="translate(140.831 102.788)" fill="#ebebeb"/>
            <rect id="Rectángulo_385010" data-name="Rectángulo 385010" width="29.155" height="1.615" transform="translate(140.831 106.342)" fill="#ebebeb"/>
            <rect id="Rectángulo_385011" data-name="Rectángulo 385011" width="29.155" height="1.615" transform="translate(140.831 109.895)" fill="#ebebeb"/>
            <rect id="Rectángulo_385012" data-name="Rectángulo 385012" width="29.155" height="1.615" transform="translate(176.055 63.695)" fill="#ebebeb"/>
            <rect id="Rectángulo_385013" data-name="Rectángulo 385013" width="29.155" height="1.615" transform="translate(176.055 67.249)" fill="#ebebeb"/>
            <rect id="Rectángulo_385014" data-name="Rectángulo 385014" width="29.155" height="1.615" transform="translate(176.055 60.141)" fill="#ebebeb"/>
            <rect id="Rectángulo_385015" data-name="Rectángulo 385015" width="29.155" height="1.615" transform="translate(176.055 70.803)" fill="#ebebeb"/>
            <rect id="Rectángulo_385016" data-name="Rectángulo 385016" width="29.155" height="1.615" transform="translate(176.055 74.357)" fill="#ebebeb"/>
            <rect id="Rectángulo_385017" data-name="Rectángulo 385017" width="29.155" height="1.615" transform="translate(176.055 77.911)" fill="#ebebeb"/>
            <rect id="Rectángulo_385018" data-name="Rectángulo 385018" width="29.155" height="1.615" transform="translate(176.055 81.464)" fill="#ebebeb"/>
            <rect id="Rectángulo_385019" data-name="Rectángulo 385019" width="29.155" height="1.615" transform="translate(176.055 88.572)" fill="#ebebeb"/>
            <rect id="Rectángulo_385020" data-name="Rectángulo 385020" width="29.155" height="1.615" transform="translate(176.055 92.126)" fill="#ebebeb"/>
            <rect id="Rectángulo_385021" data-name="Rectángulo 385021" width="29.155" height="1.615" transform="translate(176.055 95.68)" fill="#ebebeb"/>
            <rect id="Rectángulo_385022" data-name="Rectángulo 385022" width="29.155" height="1.615" transform="translate(176.055 99.234)" fill="#ebebeb"/>
            <rect id="Rectángulo_385023" data-name="Rectángulo 385023" width="29.155" height="1.615" transform="translate(176.055 102.788)" fill="#ebebeb"/>
            <rect id="Rectángulo_385024" data-name="Rectángulo 385024" width="19.199" height="4.322" transform="translate(102.316 59.947)" fill="#a6a6a6"/>
            <rect id="Rectángulo_385025" data-name="Rectángulo 385025" width="32.326" height="1.615" transform="translate(102.316 67.249)" fill="#ebebeb"/>
            <rect id="Rectángulo_385026" data-name="Rectángulo 385026" width="32.326" height="1.615" transform="translate(102.316 70.803)" fill="#ebebeb"/>
            <rect id="Rectángulo_385027" data-name="Rectángulo 385027" width="32.326" height="1.615" transform="translate(102.316 74.357)" fill="#ebebeb"/>
            <rect id="Rectángulo_385028" data-name="Rectángulo 385028" width="32.326" height="1.615" transform="translate(102.316 77.91)" fill="#ebebeb"/>
            <rect id="Rectángulo_385029" data-name="Rectángulo 385029" width="32.326" height="1.615" transform="translate(102.316 82.638)" fill="#ebebeb"/>
            <rect id="Rectángulo_385030" data-name="Rectángulo 385030" width="32.326" height="1.615" transform="translate(102.316 86.191)" fill="#ebebeb"/>
            <g id="Grupo_1017664" data-name="Grupo 1017664" transform="translate(53.083 28.083)" opacity="0.7">
              <g id="Grupo_1017663" data-name="Grupo 1017663">
                <g id="Grupo_1017662" data-name="Grupo 1017662" clip-path="url(#clip-path-5)">
                  <rect id="Rectángulo_385031" data-name="Rectángulo 385031" width="161.64" height="102.345" transform="translate(0)" fill="#fff"/>
                </g>
              </g>
            </g>
          </g>
        </g>
        <g id="Grupo_1017671" data-name="Grupo 1017671">
          <g id="Grupo_1017670" data-name="Grupo 1017670" clip-path="url(#clip-path)">
            <path id="Trazado_833909" data-name="Trazado 833909" d="M320.809,156.468v6.957H318.3v-6.957a5.734,5.734,0,1,0-11.442,0v6.957h-2.51v-6.957a8.247,8.247,0,1,1,16.461,0" transform="translate(-178.676 -86.71)" fill="#455a64"/>
            <path id="Trazado_833910" data-name="Trazado 833910" d="M304.348,169.869l2.51.1v6.471h-2.51Z" transform="translate(-178.676 -99.726)" fill="#263238"/>
            <path id="Trazado_833911" data-name="Trazado 833911" d="M340.645,171.346v5.9h-2.51v-6Z" transform="translate(-198.511 -100.533)" fill="#263238"/>
            <rect id="Rectángulo_385034" data-name="Rectángulo 385034" width="22.895" height="20.771" transform="translate(122.455 71.497)" fill="#ffc727"/>
            <g id="Grupo_1017669" data-name="Grupo 1017669" transform="translate(133.903 71.497)" opacity="0.1">
              <g id="Grupo_1017668" data-name="Grupo 1017668">
                <g id="Grupo_1017667" data-name="Grupo 1017667" clip-path="url(#clip-path-7)">
                  <rect id="Rectángulo_385035" data-name="Rectángulo 385035" width="11.447" height="20.771"/>
                </g>
              </g>
            </g>
            <path id="Trazado_833912" data-name="Trazado 833912" d="M322.2,194.807l.958,4.546H319.1l.958-4.546a2.034,2.034,0,1,1,2.151,0" transform="translate(-187.334 -112.164)" fill="#263238"/>
            <path id="Trazado_833913" data-name="Trazado 833913" d="M320,103.053l.877,2.084,2.252.19-1.71,1.478.515,2.2L320,107.835l-1.934,1.17.515-2.2-1.71-1.478,2.253-.19Z" transform="translate(-186.027 -60.5)" fill="#ffc727"/>
            <path id="Trazado_833914" data-name="Trazado 833914" d="M280.24,114.209l1.8,1.366,2.046-.962-.742,2.135,1.547,1.648-2.26-.046-1.09,1.98-.654-2.164-2.22-.424,1.856-1.291Z" transform="translate(-163.599 -67.05)" fill="#ffc727"/>
            <path id="Trazado_833915" data-name="Trazado 833915" d="M251.707,142.62l2.243.282,1.291-1.856.424,2.22,2.164.654-1.98,1.09.046,2.26-1.648-1.547-2.135.742.962-2.046Z" transform="translate(-147.771 -82.805)" fill="#ffc727"/>
            <path id="Trazado_833916" data-name="Trazado 833916" d="M240.383,182.333l2.084-.877.19-2.252,1.478,1.711,2.2-.515-1.17,1.934,1.17,1.934-2.2-.515-1.478,1.71-.19-2.252Z" transform="translate(-141.123 -105.206)" fill="#ffc727"/>
            <path id="Trazado_833917" data-name="Trazado 833917" d="M251.539,222.141l1.366-1.8-.962-2.046,2.135.742,1.648-1.547-.046,2.26,1.98,1.09-2.164.654-.424,2.22-1.291-1.856Z" transform="translate(-147.673 -127.683)" fill="#ffc727"/>
            <path id="Trazado_833918" data-name="Trazado 833918" d="M279.95,250.819l.282-2.243-1.856-1.291,2.22-.424.654-2.164,1.09,1.98,2.26-.046-1.547,1.648.742,2.135-2.046-.962Z" transform="translate(-163.429 -143.656)" fill="#ffc727"/>
            <path id="Trazado_833919" data-name="Trazado 833919" d="M319.664,262.384l-.877-2.084-2.252-.19,1.71-1.478-.515-2.2,1.934,1.17,1.934-1.17-.515,2.2,1.71,1.478-2.252.19Z" transform="translate(-185.83 -150.546)" fill="#ffc727"/>
            <path id="Trazado_833920" data-name="Trazado 833920" d="M359.471,250.987l-1.8-1.366-2.046.962.742-2.135L354.82,246.8l2.26.046,1.09-1.98.654,2.164,2.22.424-1.856,1.291Z" transform="translate(-208.307 -143.755)" fill="#ffc727"/>
            <path id="Trazado_833921" data-name="Trazado 833921" d="M388.15,222.431l-2.243-.282L384.616,224l-.424-2.22-2.164-.654,1.98-1.09-.046-2.26,1.648,1.547,2.135-.742-.962,2.046Z" transform="translate(-224.28 -127.853)" fill="#ffc727"/>
            <path id="Trazado_833922" data-name="Trazado 833922" d="M399.715,182.668l-2.084.877-.19,2.252-1.478-1.71-2.2.515,1.17-1.934-1.17-1.934,2.2.515,1.478-1.71.19,2.252Z" transform="translate(-231.169 -105.403)" fill="#ffc727"/>
            <path id="Trazado_833923" data-name="Trazado 833923" d="M388.317,142.909l-1.366,1.8.962,2.046-2.135-.742-1.648,1.547.046-2.26-1.98-1.09,2.164-.654.424-2.22,1.291,1.856Z" transform="translate(-224.378 -82.975)" fill="#ffc727"/>
            <path id="Trazado_833924" data-name="Trazado 833924" d="M359.761,114.377l-.282,2.243,1.856,1.291-2.22.424-.654,2.164-1.09-1.98-2.26.046,1.547-1.648-.742-2.135,2.046.962Z" transform="translate(-208.477 -67.148)" fill="#ffc727"/>
          </g>
        </g>
        <g id="Grupo_1017679" data-name="Grupo 1017679">
          <g id="Grupo_1017678" data-name="Grupo 1017678" clip-path="url(#clip-path)">
            <path id="Trazado_833925" data-name="Trazado 833925" d="M552.786,91.97a20.661,20.661,0,1,1-20.661-20.661A20.661,20.661,0,0,1,552.786,91.97" transform="translate(-300.269 -41.864)" fill="#a6a6a6"/>
            <path id="Trazado_833926" data-name="Trazado 833926" d="M529.2,111.764A22.716,22.716,0,1,1,551.92,89.048,22.742,22.742,0,0,1,529.2,111.764m0-45.019a22.3,22.3,0,1,0,22.3,22.3,22.329,22.329,0,0,0-22.3-22.3" transform="translate(-297.348 -38.942)" fill="#a6a6a6"/>
            <path id="Trazado_833927" data-name="Trazado 833927" d="M556.313,101.234l9.67-9.67H570.7v4.609h-3.02V99.3h-3.02v3.13h-3.13v3.075l-.5.5Z" transform="translate(-326.599 -53.755)" fill="#ffc727"/>
            <g id="Grupo_1017674" data-name="Grupo 1017674" transform="translate(232.06 37.811)" opacity="0.3">
              <g id="Grupo_1017673" data-name="Grupo 1017673">
                <g id="Grupo_1017672" data-name="Grupo 1017672" clip-path="url(#clip-path-9)">
                  <path id="Trazado_833928" data-name="Trazado 833928" d="M574.035,91.568v4.608h-3.018v3.13H568v3.13h-3.13v3.072l-.487.487-2.387-2.387Z" transform="translate(-561.994 -91.568)" fill="#fff"/>
                </g>
              </g>
            </g>
            <g id="Grupo_1017677" data-name="Grupo 1017677" transform="translate(233.82 40.836)" opacity="0.1">
              <g id="Grupo_1017676" data-name="Grupo 1017676">
                <g id="Grupo_1017675" data-name="Grupo 1017675" clip-path="url(#clip-path-10)">
                  <path id="Trazado_833929" data-name="Trazado 833929" d="M566.733,104.5l-.476-.476,5.128-5.128.468.468Z" transform="translate(-566.256 -98.894)"/>
                </g>
              </g>
            </g>
            <path id="Trazado_833930" data-name="Trazado 833930" d="M534.087,127.1a7.662,7.662,0,1,0,0-10.835,7.662,7.662,0,0,0,0,10.835m4.464-4.465a2,2,0,1,1-2.831,0,2,2,0,0,1,2.831,0" transform="translate(-312.233 -66.936)" fill="#ffc727"/>
          </g>
        </g>
        <g id="Grupo_1017687" data-name="Grupo 1017687">
          <g id="Grupo_1017686" data-name="Grupo 1017686" clip-path="url(#clip-path)">
            <path id="Trazado_833931" data-name="Trazado 833931" d="M174.612,239.676a20.661,20.661,0,1,1-20.661-20.661,20.661,20.661,0,0,1,20.661,20.661" transform="translate(-78.252 -128.579)" fill="#a6a6a6"/>
            <path id="Trazado_833932" data-name="Trazado 833932" d="M151.03,259.47a22.716,22.716,0,1,1,22.716-22.716A22.742,22.742,0,0,1,151.03,259.47m0-45.019a22.3,22.3,0,1,0,22.3,22.3,22.328,22.328,0,0,0-22.3-22.3" transform="translate(-75.33 -125.657)" fill="#a6a6a6"/>
            <path id="Trazado_833933" data-name="Trazado 833933" d="M178.991,241.465s-1.843,14.755-4.872,18.074c-3.636,3.983-6.275,3.4-7.743,5.454a0,0,0,0,0,0,0c-1.468-2.056-4.107-1.471-7.746-5.457-3.029-3.32-4.869-18.074-4.869-18.074a55.308,55.308,0,0,0,12.614-8.216l0,0a55.411,55.411,0,0,0,12.614,8.213" transform="translate(-90.268 -136.935)" fill="#ffc727"/>
            <g id="Grupo_1017682" data-name="Grupo 1017682" transform="translate(63.491 96.314)" opacity="0.1">
              <g id="Grupo_1017681" data-name="Grupo 1017681">
                <g id="Grupo_1017680" data-name="Grupo 1017680" clip-path="url(#clip-path-12)">
                  <path id="Trazado_833934" data-name="Trazado 833934" d="M166.377,233.253v31.742a0,0,0,0,0,0,0c-1.468-2.056-4.107-1.471-7.746-5.457-3.029-3.32-4.868-18.074-4.868-18.074a55.308,55.308,0,0,0,12.614-8.216Z" transform="translate(-153.76 -233.25)"/>
                </g>
              </g>
            </g>
            <path id="Trazado_833935" data-name="Trazado 833935" d="M158.5,246.157s1.556,12.464,4.115,15.269c3.074,3.369,5.3,2.874,6.545,4.61,1.24-1.735,3.471-1.24,6.545-4.61,2.558-2.806,4.111-15.269,4.111-15.269a46.781,46.781,0,0,1-10.657-6.942,46.837,46.837,0,0,1-10.66,6.942" transform="translate(-93.052 -140.438)" fill="#ffc727"/>
            <g id="Grupo_1017685" data-name="Grupo 1017685" transform="translate(76.105 98.781)" opacity="0.3">
              <g id="Grupo_1017684" data-name="Grupo 1017684">
                <g id="Grupo_1017683" data-name="Grupo 1017683" clip-path="url(#clip-path-13)">
                  <path id="Trazado_833936" data-name="Trazado 833936" d="M194.965,246.162s-1.556,12.462-4.115,15.269c-3.071,3.367-5.3,2.875-6.542,4.605V239.224a46.941,46.941,0,0,0,10.657,6.938" transform="translate(-184.308 -239.224)" fill="#fff"/>
                </g>
              </g>
            </g>
            <path id="Trazado_833937" data-name="Trazado 833937" d="M183.418,262.065V264h-.7v-1.936a1.6,1.6,0,1,0-3.184,0V264h-.7v-1.936a2.3,2.3,0,1,1,4.582,0" transform="translate(-104.991 -152.419)" fill="#fff"/>
            <path id="Trazado_833938" data-name="Trazado 833938" d="M176.668,272.489h6.373v-5.782h-6.373Zm3.722-1.413h-1.132l.267-1.265a.566.566,0,1,1,.6,0Z" transform="translate(-103.718 -156.578)" fill="#fff"/>
          </g>
        </g>
        <g id="Grupo_1017692" data-name="Grupo 1017692">
          <g id="Grupo_1017691" data-name="Grupo 1017691" clip-path="url(#clip-path)">
            <path id="Trazado_833939" data-name="Trazado 833939" d="M97.654,25.638A20.661,20.661,0,1,1,76.993,4.977,20.661,20.661,0,0,1,97.654,25.638" transform="translate(-33.071 -2.922)" fill="#a6a6a6"/>
            <path id="Trazado_833940" data-name="Trazado 833940" d="M74.073,45.432A22.716,22.716,0,1,1,96.789,22.716,22.741,22.741,0,0,1,74.073,45.432m0-45.019a22.3,22.3,0,1,0,22.3,22.3,22.328,22.328,0,0,0-22.3-22.3" transform="translate(-30.151)" fill="#a6a6a6"/>
            <path id="Trazado_833941" data-name="Trazado 833941" d="M72.83,53.462H99.075l-.141-18.142H72.689Z" transform="translate(-42.674 -20.736)" fill="#ffc727"/>
            <path id="Trazado_833942" data-name="Trazado 833942" d="M112.934,30.77h9.273l.1,1.879H112.5Z" transform="translate(-66.047 -18.064)" fill="#ffc727"/>
            <g id="Grupo_1017690" data-name="Grupo 1017690" transform="translate(30.015 12.706)" opacity="0.1">
              <g id="Grupo_1017689" data-name="Grupo 1017689">
                <g id="Grupo_1017688" data-name="Grupo 1017688" clip-path="url(#clip-path-15)">
                  <path id="Trazado_833943" data-name="Trazado 833943" d="M72.83,53.462H99.075l-.141-18.142H72.689Z" transform="translate(-72.689 -33.442)"/>
                  <path id="Trazado_833944" data-name="Trazado 833944" d="M112.934,30.77h9.273l.1,1.879H112.5Z" transform="translate(-96.062 -30.77)"/>
                </g>
              </g>
            </g>
            <path id="Trazado_833945" data-name="Trazado 833945" d="M73.079,54.977H99.324L101.348,37.9H75.1Z" transform="translate(-42.903 -22.251)" fill="#ffc727"/>
            <path id="Trazado_833946" data-name="Trazado 833946" d="M118.535,33.618h9.273l-.209,1.769h-9.806Z" transform="translate(-69.153 -19.736)" fill="#ffc727"/>
            <path id="Trazado_833947" data-name="Trazado 833947" d="M106.563,48.05v2h-.723v-2a1.652,1.652,0,1,0-3.3,0v2h-.723v-2a2.376,2.376,0,1,1,4.743,0" transform="translate(-59.776 -26.726)" fill="#fff"/>
            <path id="Trazado_833948" data-name="Trazado 833948" d="M99.575,58.841h6.6V52.855h-6.6Zm3.854-1.463h-1.172l.276-1.31a.586.586,0,1,1,.62,0Z" transform="translate(-58.458 -31.03)" fill="#fff"/>
          </g>
        </g>
        <g id="Grupo_1017703" data-name="Grupo 1017703">
          <g id="Grupo_1017702" data-name="Grupo 1017702" clip-path="url(#clip-path)">
            <path id="Trazado_833949" data-name="Trazado 833949" d="M475.219,167.105c4.652,2.084,7.507,10.613,4.226,18.387-2.984,7.07-11.252,10.924-16.112,9.189-5.157-1.842-6.746-7.524-4.423-10.94,2.243-3.3,5.955-4.292,6.948-7.3.475-1.44-.047-3.952.563-6.111.68-2.408,5.061-4.9,8.8-3.223" transform="translate(-268.803 -97.783)" fill="#263238"/>
            <path id="Trazado_833950" data-name="Trazado 833950" d="M483.718,200.97a15.434,15.434,0,0,0,6.948-3.421,17.119,17.119,0,0,0,4.574-6.3,14.714,14.714,0,0,0,1.161-7.686,14.553,14.553,0,0,0-3.04-7.114,15.25,15.25,0,0,1,2.8,7.142,14.245,14.245,0,0,1-.109,3.845,15.6,15.6,0,0,1-1.1,3.688,18.725,18.725,0,0,1-1.873,3.371,16.7,16.7,0,0,1-5.749,5.072,14.869,14.869,0,0,1-3.611,1.407" transform="translate(-283.98 -103.587)" fill="#263238"/>
            <path id="Trazado_833951" data-name="Trazado 833951" d="M458.462,187.684a7.6,7.6,0,0,1,1.269-2.031,10.172,10.172,0,0,1,1.75-1.623c.653-.472,1.294-.963,1.919-1.48a10.46,10.46,0,0,0,1.714-1.744,6.771,6.771,0,0,0,.66-1.046,4.711,4.711,0,0,0,.365-1.188,20.137,20.137,0,0,0,.2-2.422,9.464,9.464,0,0,1,.386-2.355,6.613,6.613,0,0,1,1.118-2.111,6.288,6.288,0,0,0-1.259,2.063,9.423,9.423,0,0,0-.481,2.385c-.081.805-.094,1.612-.242,2.388a4.416,4.416,0,0,1-.355,1.111,6.45,6.45,0,0,1-.641.986,18.875,18.875,0,0,1-3.529,3.22,10.243,10.243,0,0,0-1.724,1.719,7.14,7.14,0,0,0-1.148,2.128" transform="translate(-269.153 -100.792)" fill="#263238"/>
            <path id="Trazado_833952" data-name="Trazado 833952" d="M525.878,314.419c-.24-.933-14.967-23.382-16.043-23.868-.123-.062-7.7,4.593-7.7,4.593-.325.378-13.866-3.45-13.866-3.45l-1.253,16.561,25.058,1.154s3.246,2.215,6.228,4.042c.005,0,.007,0,.011,0a37.392,37.392,0,0,0,3.934,2.247c1.23.405,3.873-.352,3.627-1.281" transform="translate(-285.919 -170.576)" fill="#eb9481"/>
            <path id="Trazado_833953" data-name="Trazado 833953" d="M538.9,315.7a36.487,36.487,0,0,1-3.933-2.247s-.008,0-.012,0c-2.98-1.827-6.227-4.043-6.227-4.043l-5.577-.256-7.77-14.655a13.732,13.732,0,0,0,3.408.646s7.57-4.656,7.694-4.591c1.077.485,15.8,22.933,16.044,23.866s-2.4,1.688-3.626,1.281" transform="translate(-302.57 -170.577)" fill="#fff"/>
            <path id="Trazado_833954" data-name="Trazado 833954" d="M547.519,314.452c-.255-.957-15.056-23.4-16.161-23.9-.418-.192-4.1,1.754-7.724,4.585l9.559,14.457s9.329,5.776,10.6,6.194,3.98-.381,3.725-1.338" transform="translate(-307.414 -170.57)" fill="#ffc727"/>
            <path id="Trazado_833955" data-name="Trazado 833955" d="M557.643,316.747c-2.573-3.7-12.6-18.871-14.866-22.725-.019-.031,0-.045.024-.015,2.631,3.612,12.538,18.863,14.9,22.7.049.081-.007.119-.062.04" transform="translate(-318.648 -172.595)" fill="#263238"/>
            <path id="Trazado_833956" data-name="Trazado 833956" d="M567.264,342.336a3.621,3.621,0,0,1-.566-2.856,3.509,3.509,0,0,1,1.454-2.165c.023-.014.051.027.03.045a4.183,4.183,0,0,0-.872,4.945.028.028,0,0,1-.047.031" transform="translate(-332.643 -198.028)" fill="#263238"/>
            <path id="Trazado_833957" data-name="Trazado 833957" d="M547.786,331.3a6.279,6.279,0,0,1-1.02-5.336c.024-.068.12-.033.126.027a24.923,24.923,0,0,0,1.1,5.213.113.113,0,0,1-.2.1" transform="translate(-320.851 -191.346)" fill="#263238"/>
            <path id="Trazado_833958" data-name="Trazado 833958" d="M550.74,333.394a6.279,6.279,0,0,1-1.02-5.336c.024-.068.12-.033.126.027a24.954,24.954,0,0,0,1.1,5.213.113.113,0,0,1-.2.1" transform="translate(-322.585 -192.574)" fill="#263238"/>
            <path id="Trazado_833959" data-name="Trazado 833959" d="M553.694,335.485a6.278,6.278,0,0,1-1.019-5.336c.024-.068.12-.033.126.027a24.958,24.958,0,0,0,1.1,5.213.113.113,0,0,1-.2.1" transform="translate(-324.319 -193.801)" fill="#263238"/>
            <path id="Trazado_833960" data-name="Trazado 833960" d="M556.648,337.576a6.28,6.28,0,0,1-1.02-5.336c.024-.068.12-.033.126.027a24.927,24.927,0,0,0,1.1,5.213.113.113,0,0,1-.2.1" transform="translate(-326.054 -195.029)" fill="#263238"/>
            <path id="Trazado_833961" data-name="Trazado 833961" d="M535.284,298.655a1.573,1.573,0,0,1,2.63-1.724,1.573,1.573,0,0,1-2.63,1.724" transform="translate(-314.096 -173.913)" fill="#263238"/>
            <path id="Trazado_833962" data-name="Trazado 833962" d="M543.156,338.434a15.747,15.747,0,0,0,.391-4.738.22.22,0,0,0-.3-.191.048.048,0,0,0-.074-.019,9.465,9.465,0,0,0-2.948,3.908c-.346.9-.331,2.27.8,2.616,1.073.327,1.828-.7,2.127-1.576m-1.2.892c-1.737.931-1.453-1.377-1.171-2.032a10.135,10.135,0,0,1,.653-1.22,28.181,28.181,0,0,1,1.672-2.32c-.064.766-.062,1.53-.1,2.3-.043.915-.1,2.762-1.055,3.274" transform="translate(-317.037 -195.776)" fill="#263238"/>
            <path id="Trazado_833963" data-name="Trazado 833963" d="M536.094,321.633c-.905.766-.378,2.028.3,2.72a9.464,9.464,0,0,0,4.254,2.421.048.048,0,0,0,.061-.046.22.22,0,0,0,.2-.294,15.752,15.752,0,0,0-2.234-4.2c-.622-.688-1.721-1.329-2.577-.6m3.387,2.85c.336.691.637,1.393,1,2.071a28.4,28.4,0,0,1-2.453-1.468,10.206,10.206,0,0,1-1.083-.862c-.518-.49-1.692-2.5.271-2.33,1.083.092,1.864,1.766,2.266,2.589" transform="translate(-314.446 -188.636)" fill="#263238"/>
            <path id="Trazado_833964" data-name="Trazado 833964" d="M438.125,271.153s-21.045-9.7-30.443-9.611c-11.182.107-19.9,13.36-6.217,22.962,12.1,8.487,50.3,7.959,50.3,7.959l-8.89-16.051a81.519,81.519,0,0,0-24.357-4.58l19.272,3.962Z" transform="translate(-231.581 -153.545)" fill="#455a64"/>
            <path id="Trazado_833965" data-name="Trazado 833965" d="M462,287.152c-1.651-.424-3.334-.71-5.01-1.017s-3.387-.583-5.086-.841a101.956,101.956,0,0,0-10.227-1.06c-.321-.016-.642-.025-.963-.035-.066-.027-.138-.044-.207-.066-.161-.05-.321-.1-.485-.145-.3-.08-.612-.146-.92-.215-.64-.142-1.285-.255-1.92-.419-.038-.01-.058.048-.019.059.638.187,1.261.417,1.9.6.184.053.368.106.553.157-1.258-.019-2.516-.006-3.775.023-.039,0-.045.062,0,.062,1.71.014,3.426.118,5.129.261s3.382.294,5.067.5c3.407.427,6.8.963,10.187,1.55,1.9.329,3.8.695,5.714.9.185.021.254-.279.068-.327" transform="translate(-255.854 -166.351)" fill="#263238"/>
            <path id="Trazado_833966" data-name="Trazado 833966" d="M512.487,311.947c-.546-1.02-1-2.1-1.489-3.147s-.988-2.1-1.483-3.15c-.989-2.094-4.567-9.151-4.934-9.653-.023-.032-.077,0-.067.035.155.538,2.371,5.2,2.884,6.242,1.025,2.082,2.111,4.128,3.179,6.187.305.588.623,1.17.932,1.755s.643,1.162.923,1.76c.017.036.074.006.055-.029" transform="translate(-296.188 -173.765)" fill="#263238"/>
            <path id="Trazado_833967" data-name="Trazado 833967" d="M403.289,314.811c.276-.923,15.88-22.771,16.975-23.214.125-.058,7.507,4.894,7.507,4.894.311.39,13.991-2.9,13.991-2.9l.6,16.6-25.084.161s-3.331,2.084-6.383,3.791c-.005,0-.007,0-.011,0a37.472,37.472,0,0,1-4.019,2.089c-1.245.356-3.857-.505-3.573-1.423" transform="translate(-236.749 -171.19)" fill="#eb9481"/>
            <path id="Trazado_833968" data-name="Trazado 833968" d="M406.861,316.236a36.487,36.487,0,0,0,4.019-2.09s.008,0,.012,0c3.05-1.707,6.382-3.794,6.382-3.794l5.583-.035,8.344-14.336a13.709,13.709,0,0,1-3.431.51s-7.38-4.951-7.506-4.892c-1.1.442-16.7,22.289-16.976,23.212s2.328,1.782,3.573,1.424" transform="translate(-236.749 -171.191)" fill="#fff"/>
            <path id="Trazado_833969" data-name="Trazado 833969" d="M402.931,314.84c.292-.946,15.969-22.784,17.094-23.239.425-.175,4.028,1.915,7.536,4.887l-10.124,14.067s-9.55,5.4-10.836,5.769-3.962-.538-3.67-1.484" transform="translate(-236.538 -171.186)" fill="#ffc727"/>
            <path id="Trazado_833970" data-name="Trazado 833970" d="M405.506,317.162c2.718-3.6,13.34-18.357,15.754-22.119.019-.031,0-.045-.023-.017-2.772,3.506-13.274,18.352-15.791,22.092-.053.079,0,.119.06.043" transform="translate(-238.016 -173.195)" fill="#263238"/>
            <path id="Trazado_833971" data-name="Trazado 833971" d="M415.159,342.264a3.621,3.621,0,0,0,.678-2.832,3.508,3.508,0,0,0-1.367-2.221c-.022-.015-.052.025-.032.044a4.183,4.183,0,0,1,.675,4.976.028.028,0,0,0,.046.033" transform="translate(-243.303 -197.967)" fill="#263238"/>
            <path id="Trazado_833972" data-name="Trazado 833972" d="M434.914,332.081a6.279,6.279,0,0,0,1.23-5.291c-.021-.069-.118-.038-.127.022a24.927,24.927,0,0,1-1.3,5.165.114.114,0,0,0,.2.1" transform="translate(-255.207 -191.828)" fill="#263238"/>
            <path id="Trazado_833973" data-name="Trazado 833973" d="M431.879,334.055a6.279,6.279,0,0,0,1.23-5.291c-.021-.069-.118-.038-.127.022a24.961,24.961,0,0,1-1.3,5.165.113.113,0,0,0,.2.1" transform="translate(-253.425 -192.987)" fill="#263238"/>
            <path id="Trazado_833974" data-name="Trazado 833974" d="M428.845,336.026a6.279,6.279,0,0,0,1.23-5.291c-.021-.069-.118-.038-.127.022a24.944,24.944,0,0,1-1.3,5.165.113.113,0,0,0,.2.1" transform="translate(-251.644 -194.144)" fill="#263238"/>
            <path id="Trazado_833975" data-name="Trazado 833975" d="M425.811,338a6.28,6.28,0,0,0,1.23-5.291c-.021-.069-.118-.038-.127.022a24.929,24.929,0,0,1-1.3,5.165.113.113,0,0,0,.2.1" transform="translate(-249.863 -195.303)" fill="#263238"/>
            <path id="Trazado_833976" data-name="Trazado 833976" d="M446.5,299.874a1.573,1.573,0,0,0-2.56-1.827,1.573,1.573,0,0,0,2.56,1.827" transform="translate(-260.453 -174.596)" fill="#263238"/>
            <path id="Trazado_833977" data-name="Trazado 833977" d="M438.588,340.887c1.148-.3,1.217-1.666.907-2.582a9.464,9.464,0,0,0-2.791-4.021.047.047,0,0,0-.075.016.22.22,0,0,0-.308.178,15.758,15.758,0,0,0,.2,4.75c.264.889.978,1.942,2.063,1.658m-1.823-4.033c-.005-.768.027-1.532-.006-2.3a28.341,28.341,0,0,1,1.578,2.384,10.194,10.194,0,0,1,.6,1.245c.256.666.448,2.983-1.251,1.984-.937-.55-.919-2.4-.925-3.314" transform="translate(-256.109 -196.243)" fill="#263238"/>
            <path id="Trazado_833978" data-name="Trazado 833978" d="M438.933,323.324a15.753,15.753,0,0,0-2.4,4.1.22.22,0,0,0,.189.3.047.047,0,0,0,.059.049,9.462,9.462,0,0,0,4.346-2.251c.7-.664,1.278-1.9.4-2.706-.826-.758-1.951-.16-2.6.5m1.469-.286c1.968-.089.716,1.87.178,2.339a10.2,10.2,0,0,1-1.116.818,28.289,28.289,0,0,1-2.51,1.37c.389-.663.717-1.354,1.08-2.03.434-.806,1.281-2.448,2.367-2.5" transform="translate(-256.267 -189.314)" fill="#263238"/>
            <path id="Trazado_833979" data-name="Trazado 833979" d="M471.214,276.445s21.219-6.482,32.558-5.176c11.109,1.28,15.722,15.185,4.925,22.774-11.79,8.287-56.315,5.585-56.315,5.585l9.437-17.056s15.142-3.628,28.967-3.545l-19.414,3.2Z" transform="translate(-265.584 -159.154)" fill="#455a64"/>
            <path id="Trazado_833980" data-name="Trazado 833980" d="M473.707,293.212a.377.377,0,0,0,.018-.086c.005-.024.01-.047.015-.071.012-.055.025-.109.039-.164a3.449,3.449,0,0,1,.106-.332c.04-.11.083-.217.13-.323a2.511,2.511,0,0,1,.177-.3c.006-.01.017-.012.026-.019l.017-.013a.116.116,0,0,1,.025-.011.135.135,0,0,1,.025-.011c1.666-.358,13-2.3,14.69-2.542s3.408-.448,5.115-.639a101.951,101.951,0,0,1,10.261-.654c.321,0,.642,0,.963,0,.067-.025.14-.039.209-.058.164-.044.326-.089.491-.126.307-.068.618-.122.927-.178.645-.117,1.294-.2,1.935-.342.039-.008.056.05.017.06-.645.162-1.276.367-1.921.526-.186.046-.372.092-.559.135,1.258.031,2.515.093,3.772.172.04,0,.043.064,0,.062-1.709-.053-3.428-.018-5.136.058s-3.391.16-5.082.3c-3.421.291-6.837.693-10.241,1.145-1.909.254-13.467,2.269-15.389,2.4a.139.139,0,0,1-.023,0,1.108,1.108,0,0,1-.05.133c-.05.106-.1.211-.154.315s-.1.2-.164.294c-.03.048-.059.095-.09.142l-.046.071a.357.357,0,0,0-.048.074.031.031,0,1,1-.057-.024" transform="translate(-278.1 -168.693)" fill="#263238"/>
            <path id="Trazado_833981" data-name="Trazado 833981" d="M460.958,315.253c.586-1,1.079-2.058,1.612-3.085s1.07-2.06,1.607-3.089c1.071-2.053,4.926-8.963,5.312-9.45.024-.031.077,0,.065.038-.175.531-2.575,5.1-3.128,6.122-1.107,2.039-2.273,4.041-3.421,6.056-.328.576-.668,1.144-1,1.717s-.688,1.135-.992,1.722c-.019.035-.075,0-.054-.031" transform="translate(-270.615 -175.898)" fill="#263238"/>
            <path id="Trazado_833982" data-name="Trazado 833982" d="M456.705,207.567c-9.326,5.028-18.061,11.1-19.655,15.253-1,2.612.146,6.459,1.239,9.274.532,1.371,12.728-2.826,12.012-4.225-1.73-3.378-2.33-4.743-2.33-4.743.177-.368,10.327-9.455,13.151-13.525,3.935-5.67-.337-4.235-4.417-2.034" transform="translate(-256.356 -120.72)" fill="#eb9481"/>
            <path id="Trazado_833983" data-name="Trazado 833983" d="M460.834,243.066a3.523,3.523,0,0,1,.948,1.029,3.208,3.208,0,0,1,.5,1.31c-.282-.383-.513-.763-.758-1.145a13.7,13.7,0,0,1-.686-1.194" transform="translate(-270.545 -142.699)" fill="#263238"/>
            <path id="Trazado_833984" data-name="Trazado 833984" d="M452.586,214.721l6.984,6.643s8.929-8.152,11.482-12.557.608-4.78-4.581-2.215-13.885,8.129-13.885,8.129" transform="translate(-265.703 -120.348)" fill="#ffc727"/>
            <path id="Trazado_833985" data-name="Trazado 833985" d="M452.586,214.721l6.984,6.643s8.929-8.152,11.482-12.557.608-4.78-4.581-2.215-13.885,8.129-13.885,8.129" transform="translate(-265.703 -120.348)" fill="#ffc727"/>
            <path id="Trazado_833986" data-name="Trazado 833986" d="M464.127,231.782a68.668,68.668,0,0,1-6.164-5.955c-.026-.025.019-.064.045-.037.519.551,3.751,3.426,6.168,5.951.028.029-.018.066-.049.041" transform="translate(-268.855 -132.551)" fill="#263238"/>
            <g id="Grupo_1017695" data-name="Grupo 1017695" transform="translate(191.449 85.005)" opacity="0.1">
              <g id="Grupo_1017694" data-name="Grupo 1017694">
                <g id="Grupo_1017693" data-name="Grupo 1017693" clip-path="url(#clip-path-17)">
                  <path id="Trazado_833987" data-name="Trazado 833987" d="M477.544,209.314c-2.552,4.406-11.48,12.561-11.48,12.561l-2.419-2.3,14.865-13.713c.367.533.074,1.656-.966,3.452" transform="translate(-463.645 -205.862)"/>
                </g>
              </g>
            </g>
            <path id="Trazado_833988" data-name="Trazado 833988" d="M475.7,220.3l-1.917,11.174s8.685,4.989,23.308.491c0,0-2.5-18.127-8.074-24.391-2.787-3.133-6.126-2.961-8.289-.841-.547.536-5.06,6.057-5.792,9.285a4.7,4.7,0,0,0,.764,4.282" transform="translate(-278.148 -120.453)" fill="#eb9481"/>
            <path id="Trazado_833989" data-name="Trazado 833989" d="M476.624,220.3l-1.268,4.6,6.546-1.991,15.316,1.991s-1.7-11.066-7.276-17.33c-2.787-3.133-6.126-2.961-8.289-.841-.547.536-5.06,6.057-5.792,9.285a4.7,4.7,0,0,0,.763,4.282" transform="translate(-279.071 -120.453)" fill="#ffc727"/>
            <path id="Trazado_833990" data-name="Trazado 833990" d="M487.3,240.832a20.326,20.326,0,0,1,3,.19c.493.075.979.173,1.465.281.243.054.485.1.73.144a3.184,3.184,0,0,0,.774.067.018.018,0,0,1,0,.036,5.44,5.44,0,0,1-.733.059,5.325,5.325,0,0,1-.711-.062c-.5-.071-1-.166-1.5-.242-1.008-.155-2.015-.309-3.032-.39-.047,0-.043-.083,0-.083" transform="translate(-286.063 -141.387)" fill="#263238"/>
            <path id="Trazado_833991" data-name="Trazado 833991" d="M481.582,242.968a21.91,21.91,0,0,1,2.452-.364c.412-.036.823-.048,1.238-.05.2,0,.395,0,.593.007.217.006.434.041.651.044.022,0,.026.036,0,.036-.2,0-.41.041-.615.057l-.616.045c-.412.031-.822.066-1.234.093-.824.055-1.644.117-2.466.2-.045,0-.047-.059-.006-.068" transform="translate(-282.709 -142.398)" fill="#263238"/>
            <path id="Trazado_833992" data-name="Trazado 833992" d="M485.686,248.632a4.99,4.99,0,0,1-2.776,2.766s-.287-1.977.288-2.753c.286-.386,1.811-.809,2.041-.586a3.634,3.634,0,0,1,.447.572" transform="translate(-283.464 -145.594)" fill="#ffc727"/>
            <path id="Trazado_833993" data-name="Trazado 833993" d="M485.686,248.632a4.99,4.99,0,0,1-2.776,2.766s-.287-1.977.288-2.753c.286-.386,1.811-.809,2.041-.586a3.634,3.634,0,0,1,.447.572" transform="translate(-283.464 -145.594)" fill="#ffc727"/>
            <path id="Trazado_833994" data-name="Trazado 833994" d="M485.542,248.573a5.359,5.359,0,0,1-1.047,1.73,4.115,4.115,0,0,1-.771.676,3.86,3.86,0,0,1-.929.451l-.108.038-.016-.117a7.215,7.215,0,0,1-.065-1.453,2.5,2.5,0,0,1,.422-1.414,1.86,1.86,0,0,1,.658-.36,4.439,4.439,0,0,1,.7-.19,2.185,2.185,0,0,1,.364-.039.532.532,0,0,1,.369.088,3.147,3.147,0,0,1,.418.588m0,0a3.826,3.826,0,0,0-.462-.544.483.483,0,0,0-.32-.042,2.955,2.955,0,0,0-.347.059,4.29,4.29,0,0,0-.673.215,1.847,1.847,0,0,0-.582.344,2.367,2.367,0,0,0-.353,1.3,9.035,9.035,0,0,0,.058,1.415l-.124-.078a3.694,3.694,0,0,0,.888-.415,4.559,4.559,0,0,0,.768-.623,6.279,6.279,0,0,0,1.148-1.635" transform="translate(-283.319 -145.535)" fill="#263238"/>
            <g id="Grupo_1017698" data-name="Grupo 1017698" transform="translate(200.783 102.404)" opacity="0.1">
              <g id="Grupo_1017697" data-name="Grupo 1017697">
                <g id="Grupo_1017696" data-name="Grupo 1017696" clip-path="url(#clip-path-18)">
                  <path id="Trazado_833995" data-name="Trazado 833995" d="M487.687,248.631a3.752,3.752,0,0,0-.445-.569.083.083,0,0,0-.037-.024.145.145,0,0,0-.05-.021c-.013,0-.025-.006-.042-.007a2.217,2.217,0,0,0-.865.114,4.783,4.783,0,0,0,.371.812,1.312,1.312,0,0,0,.691.429,4.8,4.8,0,0,0,.377-.734" transform="translate(-486.248 -247.999)" fill="#050400"/>
                </g>
              </g>
            </g>
            <path id="Trazado_833996" data-name="Trazado 833996" d="M490.245,248.574s1.531,2.388,2.879,3a3.791,3.791,0,0,0-.049-2.809c-.295-.578-2.369-1.2-2.551-.91a2.827,2.827,0,0,0-.279.722" transform="translate(-287.812 -145.464)" fill="#ffc727"/>
            <path id="Trazado_833997" data-name="Trazado 833997" d="M490.245,248.574s1.531,2.388,2.879,3a3.791,3.791,0,0,0-.049-2.809c-.295-.578-2.369-1.2-2.551-.91a2.827,2.827,0,0,0-.279.722" transform="translate(-287.812 -145.464)" fill="#ffc727"/>
            <path id="Trazado_833998" data-name="Trazado 833998" d="M490.245,248.517a17.441,17.441,0,0,0,1.323,1.622,8.244,8.244,0,0,0,.749.72,3.711,3.711,0,0,0,.846.569l-.127.051a4.415,4.415,0,0,0,.241-1.555,3.061,3.061,0,0,0-.126-.774,2.5,2.5,0,0,0-.141-.365.693.693,0,0,0-.235-.272,4.505,4.505,0,0,0-1.444-.652c-.129-.034-.26-.062-.391-.083a.672.672,0,0,0-.373.017,2.366,2.366,0,0,0-.322.724m0,0a2.237,2.237,0,0,1,.284-.772.707.707,0,0,1,.421-.06,2.8,2.8,0,0,1,.408.064,4.423,4.423,0,0,1,1.525.621.872.872,0,0,1,.292.333,2.656,2.656,0,0,1,.156.389,3.265,3.265,0,0,1,.146.822,4.2,4.2,0,0,1-.265,1.634l-.035.095-.093-.044a3.9,3.9,0,0,1-.882-.609,7.663,7.663,0,0,1-.734-.763,12.773,12.773,0,0,1-1.224-1.71" transform="translate(-287.812 -145.407)" fill="#263238"/>
            <g id="Grupo_1017701" data-name="Grupo 1017701" transform="translate(202.433 102.315)" opacity="0.1">
              <g id="Grupo_1017700" data-name="Grupo 1017700">
                <g id="Grupo_1017699" data-name="Grupo 1017699" clip-path="url(#clip-path-19)">
                  <path id="Trazado_833999" data-name="Trazado 833999" d="M490.609,249.107a1.647,1.647,0,0,0,.663-.651,1.4,1.4,0,0,0,.1-.581c-.426-.107-.778-.132-.85-.019a2.867,2.867,0,0,0-.279.722s.136.214.365.529" transform="translate(-490.244 -247.782)" fill="#050400"/>
                </g>
              </g>
            </g>
            <path id="Trazado_834000" data-name="Trazado 834000" d="M489.332,247.068a.921.921,0,1,0-.752,1.065.922.922,0,0,0,.752-1.065" transform="translate(-286.201 -144.599)" fill="#ffc727"/>
            <path id="Trazado_834001" data-name="Trazado 834001" d="M489.187,247a.869.869,0,1,0-.167.68.882.882,0,0,0,.167-.68m0,0a.974.974,0,1,1-1.074-.8.978.978,0,0,1,1.074.8" transform="translate(-286.056 -144.535)" fill="#263238"/>
            <path id="Trazado_834002" data-name="Trazado 834002" d="M488.737,256.459a1.387,1.387,0,0,1,.741.912,2.151,2.151,0,0,1,.091.6,2.275,2.275,0,0,1-.054.613.952.952,0,0,1-.137.315.448.448,0,0,1-.351.2.408.408,0,0,1-.365-.185.71.71,0,0,1-.108-.327,1.507,1.507,0,0,1,.067-.609,1.063,1.063,0,0,1,.308-.5,1.192,1.192,0,0,0-.165.535,1.7,1.7,0,0,0,.022.54c.083.389.364.328.432-.039a2.984,2.984,0,0,0,.008-1.078,2.153,2.153,0,0,0-.164-.522,1.187,1.187,0,0,0-.324-.454" transform="translate(-286.814 -150.561)" fill="#263238"/>
            <path id="Trazado_834003" data-name="Trazado 834003" d="M507.9,207.816c11.714,8.527,21.913,20.453,21.01,24.291-.955,4.058-8.892,8.706-15.947,9.737-1.445.211-6.086-10.338-4.611-10.848,1.15-.4,6.381-1.972,7-2.7.429-.507-7.9-11.854-10.644-17.8-2.872-6.225.058-4.958,3.194-2.675" transform="translate(-295.612 -120.903)" fill="#eb9481"/>
            <path id="Trazado_834004" data-name="Trazado 834004" d="M495.014,265.725s-4.412.512-7.282.982a17.818,17.818,0,0,0-5.394,1.688c-1.627,1.093-7.736,6.7-6.407,8.215,1.2,1.367,2.953-.852,2.953-.852s-2.141,2.246-.531,3.235,3.623-2.115,3.623-2.115-2.438,2.227-.619,3.119c1.579.775,4.27-2.56,4.27-2.56s-2.816,2.057-1.276,3.009c1.7,1.052,6.364-3.442,6.364-3.442a20.847,20.847,0,0,0,8.768-.717c.487-.145-4.468-10.563-4.468-10.563" transform="translate(-279.298 -156.001)" fill="#eb9481"/>
            <path id="Trazado_834005" data-name="Trazado 834005" d="M488.678,288.266c.167-.238.341-.471.509-.709a14.178,14.178,0,0,1,1.038-1.342c.37-.41.756-.8,1.156-1.183.422-.4.887-.765,1.3-1.177a.033.033,0,1,1,.045.047,15,15,0,0,0-1.16,1.279c-.371.425-.736.856-1.1,1.287s-.739.815-1.107,1.226c-.183.2-.358.418-.533.63a4.61,4.61,0,0,1-.51.6c-.02.017-.046-.009-.037-.03a3.557,3.557,0,0,1,.4-.625" transform="translate(-286.654 -166.638)" fill="#263238"/>
            <path id="Trazado_834006" data-name="Trazado 834006" d="M482.285,284.493a22.654,22.654,0,0,1,1.869-2.535,15.86,15.86,0,0,1,2.3-2.161.033.033,0,0,1,.045.047c-.691.8-1.395,1.584-2.1,2.371-.344.385-1.849,2.18-2.031,2.348-.043.04-.108-.021-.085-.07" transform="translate(-283.136 -164.259)" fill="#263238"/>
            <path id="Trazado_834007" data-name="Trazado 834007" d="M495.707,291.817a22.394,22.394,0,0,1,1.8-2.351,20.321,20.321,0,0,1,2.345-1.92c.032-.019.071.022.045.047-.73.7-1.469,1.378-2.165,2.11-.339.356-1.609,1.854-1.962,2.166-.032.028-.083-.016-.064-.052" transform="translate(-291.016 -168.809)" fill="#263238"/>
            <path id="Trazado_834008" data-name="Trazado 834008" d="M520.317,217.868l-8.732,5.852s-6.7-10.03-8.469-14.8.209-4.814,4.89-1.408,12.311,10.36,12.311,10.36" transform="translate(-294.991 -120.422)" fill="#ffc727"/>
            <path id="Trazado_834009" data-name="Trazado 834009" d="M530.391,232.916a72.046,72.046,0,0,1-7.267,5.066c-.031.021-.063-.031-.03-.051.663-.418,4.219-3.118,7.264-5.071.035-.023.065.029.033.056" transform="translate(-307.089 -136.704)" fill="#263238"/>
            <path id="Trazado_834010" data-name="Trazado 834010" d="M518.112,238.251a5.054,5.054,0,0,0-.531.286c-1.007-1.677-.817-1.289-1.84-2.957q-.751-1.226-1.5-2.452c-.519-.851-.994-1.742-1.559-2.563a.022.022,0,0,0-.038.023c.353.817.807,1.6,1.24,2.378-.092-.119-.18-.241-.279-.355-.221-.256-.438-.512-.639-.784-.031-.042-.1,0-.07.042.191.26.363.529.534.8s.357.534.547.8.382.49.583.728l.073.088c.276.488.546.979.834,1.461a23.97,23.97,0,0,0,2.044,2.987,4.9,4.9,0,0,0,.632-.433c.024-.021,0-.052-.028-.047" transform="translate(-300.958 -135.354)" fill="#263238"/>
            <path id="Trazado_834011" data-name="Trazado 834011" d="M507.479,261.868q-1.39.555-2.792,1.074t-2.81,1.021l-.015.005-.017,0c-.8.086-1.6.2-2.4.307s-1.6.23-2.391.37-1.586.287-2.369.479a8.222,8.222,0,0,0-2.257.83,4.664,4.664,0,0,1,1.063-.59,12.039,12.039,0,0,1,1.149-.408c.78-.223,1.57-.417,2.365-.575s1.6-.286,2.4-.406,1.606-.207,2.414-.289l-.032.007q1.413-.487,2.838-.94t2.857-.887" transform="translate(-289.093 -153.737)" fill="#263238"/>
            <path id="Trazado_834012" data-name="Trazado 834012" d="M496.83,197.951c-.133.624-1.709,3.421-3.619,3.3-.982-.065-.89-3.509-.89-3.509l-.04-.254-.563-3.566,4.917-2.7s.234,6.558.2,6.736" transform="translate(-288.676 -112.258)" fill="#eb9481"/>
            <path id="Trazado_834013" data-name="Trazado 834013" d="M496.715,193.661a7.254,7.254,0,0,1-4.439,3.82l-.564-3.566,4.92-2.7s.04,1.12.083,2.448" transform="translate(-288.673 -112.257)" fill="#263238"/>
            <path id="Trazado_834014" data-name="Trazado 834014" d="M478.9,175.9c.445,6.32,4.281,6.767,5.643,6.67,1.237-.088,5.438-.547,5.649-6.879s-2.869-8.123-5.709-8.071-6.028,1.96-5.584,8.28" transform="translate(-281.129 -98.405)" fill="#eb9481"/>
            <path id="Trazado_834015" data-name="Trazado 834015" d="M481.909,184.614a4.162,4.162,0,0,0,.408-.157.708.708,0,0,0,.386-.239.226.226,0,0,0-.044-.272.56.56,0,0,0-.565-.042.822.822,0,0,0-.463.368.24.24,0,0,0,.277.341" transform="translate(-282.736 -107.934)" fill="#263238"/>
            <path id="Trazado_834016" data-name="Trazado 834016" d="M490.836,183.322a4.182,4.182,0,0,1-.437-.021.707.707,0,0,1-.442-.106.226.226,0,0,1-.044-.272.558.558,0,0,1,.523-.217.82.82,0,0,1,.555.2.24.24,0,0,1-.155.411" transform="translate(-287.601 -107.263)" fill="#263238"/>
            <path id="Trazado_834017" data-name="Trazado 834017" d="M490.786,188.339c0-.017.036.016.038.033.046.429.17.913.576,1,.013,0,.014.024,0,.024-.481,0-.64-.645-.614-1.059" transform="translate(-288.128 -110.567)" fill="#263238"/>
            <path id="Trazado_834018" data-name="Trazado 834018" d="M491.108,187.121c.68-.147.925,1.223.295,1.36s-.865-1.237-.295-1.36" transform="translate(-288.13 -109.848)" fill="#263238"/>
            <path id="Trazado_834019" data-name="Trazado 834019" d="M492.149,186.933c.134.056.275.172.422.161.17-.013.27-.179.355-.337.009-.016.023-.007.026.012.051.262,0,.55-.277.639-.251.082-.477-.118-.589-.37-.021-.047.009-.126.062-.1" transform="translate(-288.889 -109.636)" fill="#263238"/>
            <path id="Trazado_834020" data-name="Trazado 834020" d="M484.572,189.155c-.006-.016-.029.026-.026.043.091.422.125.92-.233,1.132-.011.007-.006.028.008.023.456-.152.405-.813.251-1.2" transform="translate(-284.326 -111.047)" fill="#263238"/>
            <path id="Trazado_834021" data-name="Trazado 834021" d="M483.216,188.252c-.692.074-.494,1.452.147,1.384s.433-1.445-.147-1.384" transform="translate(-283.43 -110.517)" fill="#263238"/>
            <path id="Trazado_834022" data-name="Trazado 834022" d="M482.124,188.561c-.1.089-.187.237-.316.264-.149.031-.282-.1-.4-.231-.012-.013-.021,0-.019.018.031.264.157.526.418.541.237.013.375-.237.4-.509,0-.05-.043-.119-.083-.083" transform="translate(-282.613 -110.694)" fill="#263238"/>
            <path id="Trazado_834023" data-name="Trazado 834023" d="M491.9,196.138c-.049.136-.082.306-.217.386a1.141,1.141,0,0,1-.465.1.015.015,0,0,0-.008.028.581.581,0,0,0,.6-.026.459.459,0,0,0,.14-.491c0-.025-.039-.019-.046,0" transform="translate(-288.373 -115.138)" fill="#263238"/>
            <path id="Trazado_834024" data-name="Trazado 834024" d="M486.29,187.656s.048.649.111.946a1.636,1.636,0,0,0,1.454-.813c.018-.031-.03-.056-.053-.032a2.177,2.177,0,0,1-1.211.646c-.038-.078-.045-1.114-.093-1.107a2.668,2.668,0,0,0-.642.3c-.139-1.348-.06-2.708-.218-4.048a.041.041,0,0,0-.082,0,21.949,21.949,0,0,0,.05,4.371c.012.174.576-.18.684-.256" transform="translate(-285.004 -107.733)" fill="#263238"/>
            <path id="Trazado_834025" data-name="Trazado 834025" d="M488.7,194.527a1.572,1.572,0,0,0,.723.332.707.707,0,0,0,.424-.071c.284-.15.227-.429.116-.654a1.692,1.692,0,0,0-.22-.332,2.033,2.033,0,0,1-1.042.725" transform="translate(-286.905 -113.777)" fill="#263238"/>
            <path id="Trazado_834026" data-name="Trazado 834026" d="M490.444,195.331a.7.7,0,0,0,.424-.071c.284-.15.227-.429.116-.653a.729.729,0,0,0-.54.725" transform="translate(-287.925 -114.249)" fill="#ff9abb"/>
            <path id="Trazado_834027" data-name="Trazado 834027" d="M489.818,175.614c-1.154.319-1.847-2.33-1.847-2.33s-5.132-.121-6.15-4.138a6.972,6.972,0,0,1-2.933,4.282s-.474-4.5,2.944-5.88c0,0,4.166-2.24,7.146.891s1.614,6.961.839,7.175" transform="translate(-281.132 -97.908)" fill="#263238"/>
            <path id="Trazado_834028" data-name="Trazado 834028" d="M503.842,185.869s1.057-2.169,2.021-1.822.384,3.341-.6,3.893a1.071,1.071,0,0,1-1.508-.345Z" transform="translate(-295.746 -108.028)" fill="#eb9481"/>
            <path id="Trazado_834029" data-name="Trazado 834029" d="M506.456,186.167a.015.015,0,0,1,.01.027,2.709,2.709,0,0,0-1.118,1.892.592.592,0,0,1,.849-.3c.021.011.008.043-.014.043a.659.659,0,0,0-.68.34,3.184,3.184,0,0,0-.251.634c-.024.071-.147.054-.134-.025,0-.006,0-.012,0-.018a2.382,2.382,0,0,1,1.336-2.6" transform="translate(-296.527 -109.294)" fill="#263238"/>
            <path id="Trazado_834030" data-name="Trazado 834030" d="M506.264,192.582a.272.272,0,1,1-.241-.3.272.272,0,0,1,.241.3" transform="translate(-296.897 -112.884)" fill="#fff"/>
            <path id="Trazado_834031" data-name="Trazado 834031" d="M485.875,171.8a4.484,4.484,0,0,0,.494,1.829,4.673,4.673,0,0,0,1.185,1.51,4.012,4.012,0,0,0,.387.289l.2.139c.069.041.14.078.212.116.143.073.284.152.429.219s.3.112.451.165c.076.026.15.055.226.078l.233.053.465.1c.315.04.631.064.944.084-.306-.084-.614-.135-.914-.221l-.444-.142-.221-.07c-.072-.028-.141-.063-.212-.094-.14-.064-.281-.127-.423-.186s-.266-.152-.4-.227l-.2-.114-.185-.135a3.911,3.911,0,0,1-.363-.278,5.358,5.358,0,0,1-1.177-1.4,5.6,5.6,0,0,1-.407-.831,5.453,5.453,0,0,1-.28-.893" transform="translate(-285.246 -100.859)" fill="#263238"/>
            <path id="Trazado_834032" data-name="Trazado 834032" d="M456.939,264.575c-1.217.708-2.708-2.441-2.708-2.441a2.6,2.6,0,0,1-.7,1.622c-.769.744-2.273-.135-2.273-.135a3.2,3.2,0,0,1-1.012,1.593c-.808.638-2.452-.033-2.452-.033a2.81,2.81,0,0,1-1.772.84c-1.8.084-3.369-2.183-4.38-3.613s-2.538-6.435-2.926-7.359l9.125-6.566s6.357,5.125,7.307,6.975c.8,1.559,3.65,8.035,1.79,9.117" transform="translate(-257.561 -145.879)" fill="#eb9481"/>
            <path id="Trazado_834033" data-name="Trazado 834033" d="M473.073,273.889a23.528,23.528,0,0,0-2.235-5.29.033.033,0,0,0-.058.031c.9,1.659,1.376,3.6,2.207,5.291a.046.046,0,0,0,.085-.032" transform="translate(-276.382 -157.678)" fill="#263238"/>
            <path id="Trazado_834034" data-name="Trazado 834034" d="M465.159,278.225a4.99,4.99,0,0,0-.587-1.167q-.354-.6-.728-1.182-.748-1.172-1.553-2.306c-.024-.033-.081-.005-.058.031.5.779.979,1.566,1.441,2.366q.347.6.684,1.206a5.942,5.942,0,0,0,.688,1.111.066.066,0,0,0,.112-.06" transform="translate(-271.364 -160.598)" fill="#263238"/>
            <path id="Trazado_834035" data-name="Trazado 834035" d="M456.809,282.819a3.487,3.487,0,0,0-.584-1.022q-.352-.527-.7-1.058c-.461-.707-.922-1.415-1.358-2.139-.021-.036-.079-.005-.058.031.439.737.869,1.48,1.315,2.213q.328.54.662,1.076a3.263,3.263,0,0,0,.686.922.023.023,0,0,0,.035-.025" transform="translate(-266.596 -163.55)" fill="#263238"/>
            <rect id="Rectángulo_385049" data-name="Rectángulo 385049" width="32.829" height="1.472" transform="translate(183.835 121.91)" fill="#c7c7c7"/>
            <path id="Trazado_834036" data-name="Trazado 834036" d="M470.762,295.238l.267,1.472H445.2v-1.472Z" transform="translate(-261.369 -173.327)" fill="#a6a6a6"/>
            <path id="Trazado_834037" data-name="Trazado 834037" d="M461.365,271.884H433.49l-2.321-18.932h27.875Z" transform="translate(-253.13 -148.503)" fill="#c7c7c7"/>
            <path id="Trazado_834038" data-name="Trazado 834038" d="M467.017,273.465a1.661,1.661,0,0,1-1.667,1.7,1.733,1.733,0,0,1-1.726-1.7,1.661,1.661,0,0,1,1.667-1.7,1.733,1.733,0,0,1,1.726,1.7" transform="translate(-272.183 -159.549)" fill="#fff"/>
          </g>
        </g>
      </g>
    </g>
    <rect id="Rectángulo_385052" data-name="Rectángulo 385052" width="295" height="137" transform="translate(180 12945)" fill="none"/>
  </g>
</svg>
